<svg xmlns:xlink="http://www.w3.org/1999/xlink" version="1.1" class="highcharts-root" style="font-family:&quot;lucida grande&quot;, &quot;lucida sans unicode&quot;, arial, helvetica, sans-serif;font-size:12px;" xmlns="http://www.w3.org/2000/svg" width="600" height="400"><desc>Created with Highcharts 5.0.6</desc><defs><clipPath id="highcharts-7m11rbd-500"><rect x="0" y="0" width="525" height="296" fill="none"></rect></clipPath></defs><rect fill="#ffffff" class="highcharts-background" x="0" y="0" width="600" height="400" rx="0" ry="0"></rect><rect fill="none" class="highcharts-plot-background" x="65" y="47" width="525" height="296"></rect><g class="highcharts-grid highcharts-xaxis-grid "><path fill="none" class="highcharts-grid-line" d="M 66.5 47 L 66.5 343" opacity="1"></path><path fill="none" class="highcharts-grid-line" d="M 152.5 47 L 152.5 343" opacity="1"></path><path fill="none" class="highcharts-grid-line" d="M 237.5 47 L 237.5 343" opacity="1"></path><path fill="none" class="highcharts-grid-line" d="M 323.5 47 L 323.5 343" opacity="1"></path><path fill="none" class="highcharts-grid-line" d="M 409.5 47 L 409.5 343" opacity="1"></path><path fill="none" class="highcharts-grid-line" d="M 495.5 47 L 495.5 343" opacity="1"></path><path fill="none" class="highcharts-grid-line" d="M 580.5 47 L 580.5 343" opacity="1"></path></g><g class="highcharts-grid highcharts-yaxis-grid "><path fill="none" stroke="#e6e6e6" stroke-width="1" class="highcharts-grid-line" d="M 65 343.5 L 590 343.5" opacity="1"></path><path fill="none" stroke="#e6e6e6" stroke-width="1" class="highcharts-grid-line" d="M 65 269.5 L 590 269.5" opacity="1"></path><path fill="none" stroke="#e6e6e6" stroke-width="1" class="highcharts-grid-line" d="M 65 195.5 L 590 195.5" opacity="1"></path><path fill="none" stroke="#e6e6e6" stroke-width="1" class="highcharts-grid-line" d="M 65 121.5 L 590 121.5" opacity="1"></path><path fill="none" stroke="#e6e6e6" stroke-width="1" class="highcharts-grid-line" d="M 65 46.5 L 590 46.5" opacity="1"></path></g><rect fill="none" class="highcharts-plot-border" x="65" y="47" width="525" height="296"></rect><g class="highcharts-axis highcharts-xaxis "><path fill="none" class="highcharts-tick" stroke="#ccd6eb" stroke-width="1" d="M 66.5 343 L 66.5 353" opacity="1"></path><path fill="none" class="highcharts-tick" stroke="#ccd6eb" stroke-width="1" d="M 152.5 343 L 152.5 353" opacity="1"></path><path fill="none" class="highcharts-tick" stroke="#ccd6eb" stroke-width="1" d="M 237.5 343 L 237.5 353" opacity="1"></path><path fill="none" class="highcharts-tick" stroke="#ccd6eb" stroke-width="1" d="M 323.5 343 L 323.5 353" opacity="1"></path><path fill="none" class="highcharts-tick" stroke="#ccd6eb" stroke-width="1" d="M 409.5 343 L 409.5 353" opacity="1"></path><path fill="none" class="highcharts-tick" stroke="#ccd6eb" stroke-width="1" d="M 495.5 343 L 495.5 353" opacity="1"></path><path fill="none" class="highcharts-tick" stroke="#ccd6eb" stroke-width="1" d="M 580.5 343 L 580.5 353" opacity="1"></path><text x="327.5" text-anchor="middle" transform="translate(0,0)" class="highcharts-axis-title" style="color:#666666;fill:#666666;" y="381.75"><tspan>Read Position</tspan></text><path fill="none" class="highcharts-axis-line" stroke="#ccd6eb" stroke-width="1" d="M 65 343.5 L 590 343.5"></path></g><g class="highcharts-axis highcharts-yaxis "><text x="25" text-anchor="middle" transform="translate(0,0) rotate(270 25 195)" class="highcharts-axis-title" style="color:#666666;fill:#666666;" y="195"><tspan>R1 Before filtering: Sequence Quality</tspan></text><path fill="none" class="highcharts-axis-line" d="M 65 47 L 65 343"></path></g><g class="highcharts-series-group"><g class="highcharts-series highcharts-series-0 highcharts-line-series highcharts-color-undefined " transform="translate(65,47) scale(1 1)" width="296" height="525" clip-path="url(#highcharts-7m11rbd-500)"><path fill="none" d="M 5.1470588235294 50.07357999999999 L 8.578431372549 81.68415999999999 L 12.009803921569 69.40163999999999 L 15.441176470588 47.77884 L 18.872549019608 41.89583999999999 L 22.303921568627 35.322419999999966 L 25.735294117647 34.56687999999997 L 29.166666666667 34.30788000000001 L 32.598039215686 32.37795999999997 L 36.029411764706 31.182860000000005 L 39.460784313725 31.312360000000012 L 42.892156862745 32.58811999999995 L 46.323529411765 30.422879999999964 L 49.754901960784 32.59773999999999 L 53.186274509804 31.20210000000003 L 56.617647058824 27.72261999999995 L 60.049019607843 30.176459999999963 L 63.480392156863 31.239840000000015 L 66.911764705882 32.03533999999996 L 70.343137254902 29.45496000000003 L 73.774509803922 28.42192 L 77.205882352941 29.252200000000016 L 80.637254901961 29.388360000000034 L 84.06862745098 30.04104000000001 L 87.5 31.130319999999983 L 90.93137254902 30.98750000000001 L 94.362745098039 32.648799999999994 L 97.794117647059 29.49491999999998 L 101.22549019608 30.743299999999977 L 104.6568627451 29.725799999999992 L 108.08823529412 28.571399999999983 L 111.51960784314 30.744039999999984 L 114.95098039216 30.793619999999976 L 118.38235294118 33.309619999999995 L 121.8137254902 32.834540000000004 L 125.24509803922 29.52673999999996 L 128.67647058824 28.438940000000002 L 132.10784313725 29.984800000000007 L 135.53921568627 29.70877999999999 L 138.97058823529 30.21938 L 142.40196078431 30.225300000000004 L 145.83333333333 32.02275999999995 L 149.26470588235 29.271439999999984 L 152.69607843137 28.71052000000003 L 156.12745098039 30.755139999999983 L 159.55882352941 29.74133999999998 L 162.99019607843 29.89155999999997 L 166.42156862745 31.234659999999963 L 169.85294117647 30.545720000000017 L 173.28431372549 31.714920000000006 L 176.71568627451 32.45269999999999 L 180.14705882353 32.02497999999997 L 183.57843137255 32.47489999999999 L 187.00980392157 32.45418000000001 L 190.44117647059 30.532399999999996 L 193.87254901961 30.940879999999993 L 197.30392156863 31.030419999999992 L 200.73529411765 32.25364000000002 L 204.16666666667 30.490219999999965 L 207.59803921569 33.14459999999997 L 211.02941176471 30.57383999999996 L 214.46078431373 32.54298 L 217.89215686275 32.63695999999999 L 221.32352941176 33.61967999999996 L 224.75490196078 33.99115999999998 L 228.1862745098 36.45313999999996 L 231.61764705882 34.00078000000002 L 235.04901960784 33.65593999999999 L 238.48039215686 35.54442 L 241.91176470588 38.077440000000024 L 245.3431372549 39.614419999999996 L 248.77450980392 40.176819999999964 L 252.20588235294 38.92992000000004 L 255.63725490196 39.04388 L 259.06862745098 39.12898000000001 L 262.5 35.679839999999956 L 265.93137254902 39.98146000000003 L 269.36274509804 34.703779999999995 L 272.79411764706 40.48761999999999 L 276.22549019608 41.75228000000001 L 279.6568627451 39.78684000000004 L 283.08823529412 42.99177999999998 L 286.51960784314 38.80485999999996 L 289.95098039216 34.982759999999985 L 293.38235294118 36.51529999999997 L 296.8137254902 36.373959999999954 L 300.24509803922 42.720200000000006 L 303.67647058824 41.15435999999997 L 307.10784313725 37.60827999999998 L 310.53921568627 37.773300000000006 L 313.97058823529 39.17485999999997 L 317.40196078431 39.257000000000005 L 320.83333333333 40.244159999999994 L 324.26470588235 41.89954 L 327.69607843137 40.694080000000014 L 331.12745098039 41.33270000000002 L 334.55882352941 42.75423999999998 L 337.99019607843 43.425419999999974 L 341.42156862745 39.56335999999999 L 344.85294117647 41.45406 L 348.28431372549 44.16911999999999 L 351.71568627451 43.49127999999999 L 355.14705882353 41.18173999999999 L 358.57843137255 39.34136000000001 L 362.00980392157 40.096900000000005 L 365.44117647059 41.33121999999997 L 368.87254901961 41.79593999999997 L 372.30392156863 41.59688 L 375.73529411765 41.03448 L 379.16666666667 43.749539999999996 L 382.59803921569 40.046580000000006 L 386.02941176471 37.70522 L 389.46078431373 38.83371999999997 L 392.89215686275 39.26957999999996 L 396.32352941176 41.52509999999998 L 399.75490196078 37.766639999999995 L 403.1862745098 37.25011999999998 L 406.61764705882 38.65834000000001 L 410.04901960784 38.37269999999995 L 413.48039215686 36.25630000000001 L 416.91176470588 35.703520000000026 L 420.3431372549 36.11791999999997 L 423.77450980392 33.48055999999997 L 427.20588235294 33.48499999999996 L 430.63725490196 33.22673999999995 L 434.06862745098 32.71169999999995 L 437.5 32.755359999999996 L 440.93137254902 33.63299999999998 L 444.36274509804 32.476380000000006 L 447.79411764706 32.56147999999996 L 451.22549019608 33.14089999999999 L 454.6568627451 32.409040000000005 L 458.08823529412 32.74943999999999 L 461.51960784314 33.14015999999998 L 464.95098039216 32.53335999999996 L 468.38235294118 33.134240000000034 L 471.8137254902 32.787919999999986 L 475.24509803922 32.97883999999999 L 478.67647058824 33.38065999999998 L 482.10784313725 33.11647999999997 L 485.53921568627 33.68775999999997 L 488.97058823529 33.31257999999997 L 492.40196078431 33.81281999999999 L 495.83333333333 36.82314000000002 L 499.26470588235 38.21581999999995 L 502.69607843137 35.50224000000003 L 506.12745098039 33.88015999999999 L 509.55882352941 33.89274 L 512.99019607843 34.31971999999996 L 516.42156862745 38.77969999999999 L 519.85294117647 90.22301999999999" class="highcharts-graph" stroke="#7cb5ec" stroke-width="2" stroke-linejoin="round" stroke-linecap="round"></path></g><g class="highcharts-markers highcharts-series-0 highcharts-line-series highcharts-color-undefined " transform="translate(65,47) scale(1 1)" width="296" height="525" clip-path="none"></g><g class="highcharts-series highcharts-series-1 highcharts-line-series highcharts-color-undefined " transform="translate(65,47) scale(1 1)" width="296" height="525" clip-path="url(#highcharts-7m11rbd-500)"><path fill="none" d="M 5.1470588235294 38.981719999999996 L 8.578431372549 32.05753999999996 L 12.009803921569 29.845680000000016 L 15.441176470588 29.331380000000024 L 18.872549019608 28.217679999999973 L 22.303921568627 26.85681999999997 L 25.735294117647 26.937479999999994 L 29.166666666667 26.776899999999955 L 32.598039215686 26.58893999999998 L 36.029411764706 27.526520000000005 L 39.460784313725 26.818339999999978 L 42.892156862745 27.08177999999998 L 46.323529411765 26.800579999999968 L 49.754901960784 26.913059999999973 L 53.186274509804 26.95672000000002 L 56.617647058824 26.911579999999958 L 60.049019607843 26.891599999999983 L 63.480392156863 27.041819999999973 L 66.911764705882 26.955979999999954 L 70.343137254902 27.002599999999973 L 73.774509803922 26.901959999999974 L 77.205882352941 27.01740000000001 L 80.637254901961 27.047739999999976 L 84.06862745098 27.02109999999999 L 87.5 27.01147999999995 L 90.93137254902 27.28824000000003 L 94.362745098039 27.459180000000003 L 97.794117647059 27.53539999999998 L 101.22549019608 27.61827999999997 L 104.6568627451 28.122960000000035 L 108.08823529412 28.575840000000028 L 111.51960784314 28.814120000000003 L 114.95098039216 28.891819999999996 L 118.38235294118 29.13749999999999 L 121.8137254902 29.30547999999999 L 125.24509803922 27.548720000000003 L 128.67647058824 27.54946000000001 L 132.10784313725 27.732979999999998 L 135.53921568627 27.624199999999973 L 138.97058823529 27.72188 L 142.40196078431 27.75739999999996 L 145.83333333333 27.678219999999953 L 149.26470588235 27.759619999999984 L 152.69607843137 27.666380000000004 L 156.12745098039 27.781819999999982 L 159.55882352941 27.829920000000016 L 162.99019607843 27.74259999999998 L 166.42156862745 27.903179999999963 L 169.85294117647 27.870619999999974 L 173.28431372549 28.045259999999985 L 176.71568627451 28.052660000000003 L 180.14705882353 27.98606000000001 L 183.57843137255 28.04007999999999 L 187.00980392157 27.980140000000006 L 190.44117647059 28.01565999999997 L 193.87254901961 28.16143999999997 L 197.30392156863 28.05857999999995 L 200.73529411765 28.184379999999976 L 204.16666666667 28.19695999999999 L 207.59803921569 28.24357999999995 L 211.02941176471 28.224339999999984 L 214.46078431373 28.45447999999999 L 217.89215686275 28.330159999999978 L 221.32352941176 28.396019999999965 L 224.75490196078 28.50776000000002 L 228.1862745098 28.561779999999942 L 231.61764705882 28.69720000000001 L 235.04901960784 28.5788 L 238.48039215686 28.702380000000005 L 241.91176470588 28.65354000000002 L 245.3431372549 28.60025999999999 L 248.77450980392 28.859260000000006 L 252.20588235294 28.78081999999995 L 255.63725490196 28.99467999999996 L 259.06862745098 28.799320000000023 L 262.5 28.838540000000023 L 265.93137254902 29.01096000000001 L 269.36274509804 28.859999999999957 L 272.79411764706 29.073120000000017 L 276.22549019608 29.217420000000004 L 279.6568627451 29.140459999999962 L 283.08823529412 29.050179999999955 L 286.51960784314 29.303999999999974 L 289.95098039216 29.42313999999999 L 293.38235294118 29.432019999999966 L 296.8137254902 29.538580000000024 L 300.24509803922 29.488260000000025 L 303.67647058824 29.823480000000018 L 307.10784313725 29.80498 L 310.53921568627 29.895999999999958 L 313.97058823529 29.929299999999955 L 317.40196078431 30.115779999999972 L 320.83333333333 30.078779999999995 L 324.26470588235 30.320760000000007 L 327.69607843137 30.2586 L 331.12745098039 30.37034 L 334.55882352941 30.512419999999963 L 337.99019607843 30.42732000000001 L 341.42156862745 30.678920000000005 L 344.85294117647 30.758100000000013 L 348.28431372549 30.80250000000001 L 351.71568627451 30.82099999999997 L 355.14705882353 31.114779999999996 L 358.57843137255 31.22503999999998 L 362.00980392157 31.111820000000023 L 365.44117647059 31.52177999999998 L 368.87254901961 31.367119999999943 L 372.30392156863 31.547679999999957 L 375.73529411765 31.644619999999975 L 379.16666666667 31.908059999999978 L 382.59803921569 31.769679999999994 L 386.02941176471 31.730459999999994 L 389.46078431373 31.88585999999998 L 392.89215686275 31.88585999999998 L 396.32352941176 32.24624 L 399.75490196078 32.38684000000001 L 403.1862745098 32.12488000000002 L 406.61764705882 32.599219999999946 L 410.04901960784 32.33651999999995 L 413.48039215686 32.81529999999998 L 416.91176470588 32.74277999999998 L 420.3431372549 32.83231999999998 L 423.77450980392 33.21563999999995 L 427.20588235294 32.94331999999997 L 430.63725490196 33.30813999999998 L 434.06862745098 33.23339999999996 L 437.5 33.65297999999996 L 440.93137254902 33.42580000000004 L 444.36274509804 33.76545999999996 L 447.79411764706 33.63152000000002 L 451.22549019608 33.94675999999998 L 454.6568627451 33.86905999999999 L 458.08823529412 34.01483999999999 L 461.51960784314 34.19540000000001 L 464.95098039216 34.125099999999975 L 468.38235294118 34.54541999999998 L 471.8137254902 34.68453999999997 L 475.24509803922 34.64457999999996 L 478.67647058824 35.00644 L 482.10784313725 34.86583999999999 L 485.53921568627 34.928740000000005 L 488.97058823529 35.289859999999976 L 492.40196078431 35.34165999999999 L 495.83333333333 35.48448000000002 L 499.26470588235 35.42897999999997 L 502.69607843137 35.67466000000002 L 506.12745098039 35.87223999999998 L 509.55882352941 36.00247999999999 L 512.99019607843 36.13198 L 516.42156862745 36.48199999999997 L 519.85294117647 90.50495999999998" class="highcharts-graph" stroke="#434348" stroke-width="2" stroke-linejoin="round" stroke-linecap="round"></path></g><g class="highcharts-markers highcharts-series-1 highcharts-line-series highcharts-color-undefined " transform="translate(65,47) scale(1 1)" width="296" height="525" clip-path="none"></g><g class="highcharts-series highcharts-series-2 highcharts-line-series highcharts-color-undefined " transform="translate(65,47) scale(1 1)" width="296" height="525" clip-path="url(#highcharts-7m11rbd-500)"><path fill="none" d="M 5.1470588235294 63.84276 L 8.578431372549 61.44737999999998 L 12.009803921569 63.95227999999997 L 15.441176470588 61.72265999999999 L 18.872549019608 61.95501999999999 L 22.303921568627 38.331999999999994 L 25.735294117647 40.24859999999998 L 29.166666666667 36.91046 L 32.598039215686 36.94672000000003 L 36.029411764706 38.067079999999976 L 39.460784313725 33.378439999999955 L 42.892156862745 37.20350000000002 L 46.323529411765 37.48395999999997 L 49.754901960784 36.93117999999998 L 53.186274509804 37.68671999999998 L 56.617647058824 33.82243999999997 L 60.049019607843 37.373699999999985 L 63.480392156863 40.87316000000001 L 66.911764705882 37.59791999999999 L 70.343137254902 37.96791999999999 L 73.774509803922 37.84877999999998 L 77.205882352941 38.47703999999999 L 80.637254901961 36.70103999999998 L 84.06862745098 39.239239999999995 L 87.5 38.16994 L 90.93137254902 38.25799999999998 L 94.362745098039 38.63614000000001 L 97.794117647059 39.732079999999996 L 101.22549019608 41.11661999999998 L 104.6568627451 40.48909999999998 L 108.08823529412 46.30327999999997 L 111.51960784314 40.719979999999964 L 114.95098039216 47.10766000000001 L 118.38235294118 40.35737999999998 L 121.8137254902 39.50341999999995 L 125.24509803922 37.727419999999995 L 128.67647058824 45.393820000000005 L 132.10784313725 40.17829999999998 L 135.53921568627 43.75175999999996 L 138.97058823529 43.139039999999994 L 142.40196078431 41.15583999999998 L 145.83333333333 40.68519999999998 L 149.26470588235 38.74787999999995 L 152.69607843137 41.23132000000001 L 156.12745098039 42.51892000000001 L 159.55882352941 44.121759999999995 L 162.99019607843 39.96222 L 166.42156862745 48.11849999999998 L 169.85294117647 46.04723999999999 L 173.28431372549 43.874600000000015 L 176.71568627451 41.498459999999994 L 180.14705882353 40.933099999999996 L 183.57843137255 42.39089999999996 L 187.00980392157 42.54259999999999 L 190.44117647059 47.988999999999976 L 193.87254901961 53.111279999999994 L 197.30392156863 44.368179999999995 L 200.73529411765 44.389640000000014 L 204.16666666667 47.92314000000002 L 207.59803921569 45.98877999999999 L 211.02941176471 47.800299999999964 L 214.46078431373 50.06395999999998 L 217.89215686275 49.19445999999999 L 221.32352941176 48.62687999999997 L 224.75490196078 48.84147999999999 L 228.1862745098 50.00623999999996 L 231.61764705882 49.81384 L 235.04901960784 48.67497999999998 L 238.48039215686 48.1814 L 241.91176470588 49.53781999999998 L 245.3431372549 43.62965999999997 L 248.77450980392 46.29514 L 252.20588235294 47.814359999999965 L 255.63725490196 57.00589999999997 L 259.06862745098 55.363099999999974 L 262.5 53.754339999999985 L 265.93137254902 53.461299999999994 L 269.36274509804 54.12359999999998 L 272.79411764706 52.63767999999999 L 276.22549019608 51.94059999999999 L 279.6568627451 52.114499999999964 L 283.08823529412 51.928019999999975 L 286.51960784314 54.654920000000004 L 289.95098039216 55.798220000000015 L 293.38235294118 52.57699999999997 L 296.8137254902 52.11967999999999 L 300.24509803922 53.060959999999994 L 303.67647058824 53.30737999999997 L 307.10784313725 52.14335999999997 L 310.53921568627 54.28862000000001 L 313.97058823529 51.57503999999997 L 317.40196078431 53.70179999999996 L 320.83333333333 56.656620000000004 L 324.26470588235 56.67586 L 327.69607843137 64.10176000000001 L 331.12745098039 57.67042000000001 L 334.55882352941 64.23866000000001 L 337.99019607843 61.01891999999998 L 341.42156862745 69.59773999999999 L 344.85294117647 65.87109999999998 L 348.28431372549 64.85211999999999 L 351.71568627451 66.96555999999998 L 355.14705882353 66.53044 L 358.57843137255 66.22185999999996 L 362.00980392157 70.27927999999997 L 365.44117647059 66.60221999999999 L 368.87254901961 62.26656 L 372.30392156863 64.33781999999997 L 375.73529411765 62.06528 L 379.16666666667 56.3732 L 382.59803921569 61.51693999999998 L 386.02941176471 65.16218 L 389.46078431373 63.05318 L 392.89215686275 64.06031999999999 L 396.32352941176 66.42165999999997 L 399.75490196078 68.70455999999999 L 403.1862745098 67.53536 L 406.61764705882 65.33903999999998 L 410.04901960784 65.15921999999998 L 413.48039215686 63.704379999999986 L 416.91176470588 68.28054 L 420.3431372549 67.59233999999998 L 423.77450980392 64.23569999999998 L 427.20588235294 63.21449999999999 L 430.63725490196 61.74041999999997 L 434.06862745098 65.82299999999998 L 437.5 64.71596 L 440.93137254902 63.104239999999976 L 444.36274509804 64.39776 L 447.79411764706 64.53244000000001 L 451.22549019608 67.55386000000001 L 454.6568627451 69.93073999999999 L 458.08823529412 70.42283999999998 L 461.51960784314 70.8032 L 464.95098039216 74.46767999999997 L 468.38235294118 67.6249 L 471.8137254902 64.53539999999998 L 475.24509803922 67.81729999999999 L 478.67647058824 67.27857999999998 L 482.10784313725 65.92141999999998 L 485.53921568627 66.67991999999998 L 488.97058823529 72.37348 L 492.40196078431 66.12861999999998 L 495.83333333333 76.56927999999999 L 499.26470588235 76.90523999999999 L 502.69607843137 73.42649999999998 L 506.12745098039 69.18555999999998 L 509.55882352941 69.58590000000001 L 512.99019607843 69.11821999999998 L 516.42156862745 68.64609999999999 L 519.85294117647 115.8803" class="highcharts-graph" stroke="#90ed7d" stroke-width="2" stroke-linejoin="round" stroke-linecap="round"></path></g><g class="highcharts-markers highcharts-series-2 highcharts-line-series highcharts-color-undefined " transform="translate(65,47) scale(1 1)" width="296" height="525" clip-path="none"></g></g><text x="330" text-anchor="middle" class="highcharts-title" style="color:#333333;font-size:18px;fill:#333333;width:536px;" y="24"><tspan>Fastp: Sequence Quality</tspan></text><g class="highcharts-axis-labels highcharts-xaxis-labels "><text x="66.7156862745098" style="color:#666666;cursor:default;font-size:11px;fill:#666666;width:78px;text-overflow:clip;" text-anchor="middle" transform="translate(0,0)" y="362" opacity="1"><tspan>0</tspan></text><text x="152.5" style="color:#666666;cursor:default;font-size:11px;fill:#666666;width:78px;text-overflow:clip;" text-anchor="middle" transform="translate(0,0)" y="362" opacity="1"><tspan>25</tspan></text><text x="238.2843137254902" style="color:#666666;cursor:default;font-size:11px;fill:#666666;width:78px;text-overflow:clip;" text-anchor="middle" transform="translate(0,0)" y="362" opacity="1"><tspan>50</tspan></text><text x="324.0686274509804" style="color:#666666;cursor:default;font-size:11px;fill:#666666;width:78px;text-overflow:clip;" text-anchor="middle" transform="translate(0,0)" y="362" opacity="1"><tspan>75</tspan></text><text x="409.85294117647055" style="color:#666666;cursor:default;font-size:11px;fill:#666666;width:78px;text-overflow:clip;" text-anchor="middle" transform="translate(0,0)" y="362" opacity="1"><tspan>100</tspan></text><text x="495.6372549019608" style="color:#666666;cursor:default;font-size:11px;fill:#666666;width:78px;text-overflow:clip;" text-anchor="middle" transform="translate(0,0)" y="362" opacity="1"><tspan>125</tspan></text><text x="579.0249996185303" style="color:#666666;cursor:default;font-size:11px;fill:#666666;width:78px;text-overflow:clip;" text-anchor="middle" transform="translate(0,0)" y="362" opacity="1"><tspan>150</tspan></text></g><g class="highcharts-axis-labels highcharts-yaxis-labels "><text x="50" style="color:#666666;cursor:default;font-size:11px;fill:#666666;width:188px;text-overflow:clip;" text-anchor="end" transform="translate(0,0)" y="347" opacity="1"><tspan>0</tspan></text><text x="50" style="color:#666666;cursor:default;font-size:11px;fill:#666666;width:188px;text-overflow:clip;" text-anchor="end" transform="translate(0,0)" y="273" opacity="1"><tspan>10</tspan></text><text x="50" style="color:#666666;cursor:default;font-size:11px;fill:#666666;width:188px;text-overflow:clip;" text-anchor="end" transform="translate(0,0)" y="199" opacity="1"><tspan>20</tspan></text><text x="50" style="color:#666666;cursor:default;font-size:11px;fill:#666666;width:188px;text-overflow:clip;" text-anchor="end" transform="translate(0,0)" y="125" opacity="1"><tspan>30</tspan></text><text x="50" style="color:#666666;cursor:default;font-size:11px;fill:#666666;width:188px;text-overflow:clip;" text-anchor="end" transform="translate(0,0)" y="51" opacity="1"><tspan>40</tspan></text></g><text x="590" class="highcharts-credits" text-anchor="end" style="cursor:pointer;color:#999999;font-size:9px;fill:#999999;" y="395"><tspan>Created with MultiQC</tspan></text></svg>