<svg xmlns:xlink="http://www.w3.org/1999/xlink" version="1.1" class="highcharts-root" style="font-family:&quot;lucida grande&quot;, &quot;lucida sans unicode&quot;, arial, helvetica, sans-serif;font-size:12px;" xmlns="http://www.w3.org/2000/svg" width="600" height="400"><desc>Created with Highcharts 5.0.6</desc><defs><clipPath id="highcharts-7m11rbd-575"><rect x="0" y="0" width="532" height="296" fill="none"></rect></clipPath></defs><rect fill="#ffffff" class="highcharts-background" x="0" y="0" width="600" height="400" rx="0" ry="0"></rect><rect fill="none" class="highcharts-plot-background" x="58" y="47" width="532" height="296"></rect><g class="highcharts-plot-bands-0"><path fill="#e6c3c3" class="highcharts-plot-band " d="M 58 47.5 L 590 47.5 590 47.5 58 47.5 z"></path><path fill="#e6dcc3" class="highcharts-plot-band " d="M 58 96.5 L 590 96.5 590 47.5 58 47.5 z"></path><path fill="#c3e6c3" class="highcharts-plot-band " d="M 58 343.5 L 590 343.5 590 96.5 58 96.5 z"></path></g><g class="highcharts-grid highcharts-xaxis-grid "><path fill="none" class="highcharts-grid-line" d="M 57.5 47 L 57.5 343" opacity="1"></path><path fill="none" class="highcharts-grid-line" d="M 145.5 47 L 145.5 343" opacity="1"></path><path fill="none" class="highcharts-grid-line" d="M 233.5 47 L 233.5 343" opacity="1"></path><path fill="none" class="highcharts-grid-line" d="M 320.5 47 L 320.5 343" opacity="1"></path><path fill="none" class="highcharts-grid-line" d="M 408.5 47 L 408.5 343" opacity="1"></path><path fill="none" class="highcharts-grid-line" d="M 496.5 47 L 496.5 343" opacity="1"></path><path fill="none" class="highcharts-grid-line" d="M 584.5 47 L 584.5 343" opacity="1"></path></g><g class="highcharts-grid highcharts-yaxis-grid "><path fill="none" stroke="#e6e6e6" stroke-width="1" class="highcharts-grid-line" d="M 58 343.5 L 590 343.5" opacity="1"></path><path fill="none" stroke="#e6e6e6" stroke-width="1" class="highcharts-grid-line" d="M 58 294.5 L 590 294.5" opacity="1"></path><path fill="none" stroke="#e6e6e6" stroke-width="1" class="highcharts-grid-line" d="M 58 244.5 L 590 244.5" opacity="1"></path><path fill="none" stroke="#e6e6e6" stroke-width="1" class="highcharts-grid-line" d="M 58 195.5 L 590 195.5" opacity="1"></path><path fill="none" stroke="#e6e6e6" stroke-width="1" class="highcharts-grid-line" d="M 58 146.5 L 590 146.5" opacity="1"></path><path fill="none" stroke="#e6e6e6" stroke-width="1" class="highcharts-grid-line" d="M 58 96.5 L 590 96.5" opacity="1"></path><path fill="none" stroke="#e6e6e6" stroke-width="1" class="highcharts-grid-line" d="M 58 46.5 L 590 46.5" opacity="1"></path></g><rect fill="none" class="highcharts-plot-border" x="58" y="47" width="532" height="296"></rect><g class="highcharts-axis highcharts-xaxis "><path fill="none" class="highcharts-tick" stroke="#ccd6eb" stroke-width="1" d="M 57.5 343 L 57.5 353" opacity="1"></path><path fill="none" class="highcharts-tick" stroke="#ccd6eb" stroke-width="1" d="M 145.5 343 L 145.5 353" opacity="1"></path><path fill="none" class="highcharts-tick" stroke="#ccd6eb" stroke-width="1" d="M 233.5 343 L 233.5 353" opacity="1"></path><path fill="none" class="highcharts-tick" stroke="#ccd6eb" stroke-width="1" d="M 320.5 343 L 320.5 353" opacity="1"></path><path fill="none" class="highcharts-tick" stroke="#ccd6eb" stroke-width="1" d="M 408.5 343 L 408.5 353" opacity="1"></path><path fill="none" class="highcharts-tick" stroke="#ccd6eb" stroke-width="1" d="M 496.5 343 L 496.5 353" opacity="1"></path><path fill="none" class="highcharts-tick" stroke="#ccd6eb" stroke-width="1" d="M 584.5 343 L 584.5 353" opacity="1"></path><text x="324" text-anchor="middle" transform="translate(0,0)" class="highcharts-axis-title" style="color:#666666;fill:#666666;" y="381.75"><tspan>Position in Read (bp)</tspan></text><path fill="none" class="highcharts-axis-line" stroke="#ccd6eb" stroke-width="1" d="M 58 343.5 L 590 343.5"></path></g><g class="highcharts-axis highcharts-yaxis "><text x="24.949999809265137" text-anchor="middle" transform="translate(0,0) rotate(270 24.949999809265137 195)" class="highcharts-axis-title" style="color:#666666;fill:#666666;" y="195"><tspan>Percentage N-Count</tspan></text><path fill="none" class="highcharts-axis-line" d="M 58 47 L 58 343"></path></g><g class="highcharts-series-group"><g class="highcharts-series highcharts-series-0 highcharts-line-series highcharts-color-undefined " transform="translate(58,47) scale(1 1)" width="296" height="532" clip-path="url(#highcharts-7m11rbd-575)"><path fill="none" d="M 3.5115511551155 296 L 7.023102310231 296 L 10.534653465347 296 L 14.046204620462 296 L 17.557755775578 296 L 21.069306930693 296 L 24.580858085809 296 L 28.092409240924 296 L 31.60396039604 296 L 42.138613861386 296 L 59.696369636964 296 L 77.254125412541 296 L 94.811881188119 296 L 112.3696369637 296 L 129.92739273927 296 L 147.48514851485 296 L 165.04290429043 296 L 182.60066006601 296 L 200.15841584158 296 L 217.71617161716 296 L 235.27392739274 296 L 252.83168316832 296 L 270.38943894389 296 L 287.94719471947 296 L 305.50495049505 296 L 323.06270627063 296 L 340.6204620462 296 L 358.17821782178 296 L 375.73597359736 296 L 393.29372937294 296 L 410.85148514851 296 L 428.40924092409 296 L 445.96699669967 296 L 463.52475247525 296 L 481.08250825083 296 L 498.6402640264 296 L 516.19801980198 296 L 526.73267326733 296" class="highcharts-graph" stroke="#5cb85c" stroke-width="2" stroke-linejoin="round" stroke-linecap="round"></path></g><g class="highcharts-markers highcharts-series-0 highcharts-line-series highcharts-color-undefined " transform="translate(58,47) scale(1 1)" width="296" height="532" clip-path="none"></g><g class="highcharts-series highcharts-series-1 highcharts-line-series highcharts-color-undefined " transform="translate(58,47) scale(1 1)" width="296" height="532" clip-path="url(#highcharts-7m11rbd-575)"><path fill="none" d="M 3.5115511551155 296 L 7.023102310231 296 L 10.534653465347 296 L 14.046204620462 296 L 17.557755775578 296 L 21.069306930693 296 L 24.580858085809 296 L 28.092409240924 296 L 31.60396039604 296 L 42.138613861386 296 L 59.696369636964 296 L 77.254125412541 296 L 94.811881188119 296 L 112.3696369637 296 L 129.92739273927 296 L 147.48514851485 296 L 165.04290429043 296 L 182.60066006601 296 L 200.15841584158 296 L 217.71617161716 296 L 235.27392739274 296 L 252.83168316832 296 L 270.38943894389 296 L 287.94719471947 296 L 305.50495049505 296 L 323.06270627063 296 L 340.6204620462 296 L 358.17821782178 296 L 375.73597359736 296 L 393.29372937294 296 L 410.85148514851 296 L 428.40924092409 296 L 445.96699669967 296 L 463.52475247525 296 L 481.08250825083 296 L 498.6402640264 296 L 516.19801980198 296 L 526.73267326733 296" class="highcharts-graph" stroke="#5cb85c" stroke-width="2" stroke-linejoin="round" stroke-linecap="round"></path></g><g class="highcharts-markers highcharts-series-1 highcharts-line-series highcharts-color-undefined " transform="translate(58,47) scale(1 1)" width="296" height="532" clip-path="none"></g><g class="highcharts-series highcharts-series-2 highcharts-line-series highcharts-color-undefined " transform="translate(58,47) scale(1 1)" width="296" height="532" clip-path="url(#highcharts-7m11rbd-575)"><path fill="none" d="M 3.5115511551155 295.8406066639607 L 7.023102310231 295.8406066639607 L 10.534653465347 295.8406066639607 L 14.046204620462 295.8406066639607 L 17.557755775578 295.8406066639607 L 21.069306930693 295.8406066639607 L 24.580858085809 295.8406066639607 L 28.092409240924 295.8406066639607 L 31.60396039604 295.8406066639607 L 42.138613861386 295.8406066639607 L 59.696369636964 295.8406066639607 L 77.254125412541 295.8147052468544 L 94.811881188119 293.76849329545047 L 112.3696369637 271.27211633021074 L 129.92739273927 288.9729798618664 L 147.48514851485 296 L 165.04290429043 296 L 182.60066006601 296 L 200.15841584158 296 L 217.71617161716 296 L 235.27392739274 296 L 252.83168316832 296 L 270.38943894389 296 L 287.94719471947 296 L 305.50495049505 296 L 323.06270627063 296 L 340.6204620462 296 L 358.17821782178 296 L 375.73597359736 296 L 393.29372937294 296 L 410.85148514851 296 L 428.40924092409 296 L 445.96699669967 296 L 463.52475247525 296 L 481.08250825083 296 L 498.6402640264 296 L 516.19801980198 296 L 526.73267326733 296" class="highcharts-graph" stroke="#5cb85c" stroke-width="2" stroke-linejoin="round" stroke-linecap="round"></path></g><g class="highcharts-markers highcharts-series-2 highcharts-line-series highcharts-color-undefined " transform="translate(58,47) scale(1 1)" width="296" height="532" clip-path="none"></g><g class="highcharts-series highcharts-series-3 highcharts-line-series highcharts-color-undefined " transform="translate(58,47) scale(1 1)" width="296" height="532" clip-path="url(#highcharts-7m11rbd-575)"><path fill="none" d="M 3.5115511551155 295.8306445804583 L 7.023102310231 295.8306445804583 L 10.534653465347 295.8306445804583 L 14.046204620462 295.8306445804583 L 17.557755775578 295.8306445804583 L 21.069306930693 295.8306445804583 L 24.580858085809 295.8306445804583 L 28.092409240924 295.8306445804583 L 31.60396039604 295.8306445804583 L 42.138613861386 295.8306445804583 L 59.696369636964 295.8306445804583 L 77.254125412541 295.80474316335193 L 94.811881188119 293.77048571215096 L 112.3696369637 271.4175627493466 L 129.92739273927 289.01330172795156 L 147.48514851485 296 L 165.04290429043 296 L 182.60066006601 296 L 200.15841584158 296 L 217.71617161716 296 L 235.27392739274 296 L 252.83168316832 296 L 270.38943894389 296 L 287.94719471947 296 L 305.50495049505 296 L 323.06270627063 296 L 340.6204620462 296 L 358.17821782178 296 L 375.73597359736 296 L 393.29372937294 296 L 410.85148514851 296 L 428.40924092409 296 L 445.96699669967 296 L 463.52475247525 296 L 481.08250825083 296 L 498.6402640264 296 L 516.19801980198 296 L 526.73267326733 296" class="highcharts-graph" stroke="#5cb85c" stroke-width="2" stroke-linejoin="round" stroke-linecap="round"></path></g><g class="highcharts-markers highcharts-series-3 highcharts-line-series highcharts-color-undefined " transform="translate(58,47) scale(1 1)" width="296" height="532" clip-path="none"></g><g class="highcharts-series highcharts-series-4 highcharts-line-series highcharts-color-undefined " transform="translate(58,47) scale(1 1)" width="296" height="532" clip-path="url(#highcharts-7m11rbd-575)"><path fill="none" d="M 3.5115511551155 295.5833140339071 L 7.023102310231 295.7664542367463 L 10.534653465347 295.7731749781349 L 14.046204620462 295.7731749781349 L 17.557755775578 295.7731749781349 L 21.069306930693 295.7731749781349 L 24.580858085809 295.7731749781349 L 28.092409240924 295.7731749781349 L 31.60396039604 295.7731749781349 L 42.138613861386 295.7731749781349 L 59.696369636964 295.7731749781349 L 77.254125412541 295.7530127539691 L 94.811881188119 295.1679722160918 L 112.3696369637 289.46004655475724 L 129.92739273927 293.37506033720985 L 147.48514851485 296 L 165.04290429043 296 L 182.60066006601 296 L 200.15841584158 296 L 217.71617161716 296 L 235.27392739274 296 L 252.83168316832 296 L 270.38943894389 296 L 287.94719471947 296 L 305.50495049505 296 L 323.06270627063 296 L 340.6204620462 296 L 358.17821782178 296 L 375.73597359736 296 L 393.29372937294 296 L 410.85148514851 296 L 428.40924092409 296 L 445.96699669967 296 L 463.52475247525 296 L 481.08250825083 296 L 498.6402640264 296 L 516.19801980198 296 L 526.73267326733 296" class="highcharts-graph" stroke="#5cb85c" stroke-width="2" stroke-linejoin="round" stroke-linecap="round"></path></g><g class="highcharts-markers highcharts-series-4 highcharts-line-series highcharts-color-undefined " transform="translate(58,47) scale(1 1)" width="296" height="532" clip-path="none"></g><g class="highcharts-series highcharts-series-5 highcharts-line-series highcharts-color-undefined " transform="translate(58,47) scale(1 1)" width="296" height="532" clip-path="url(#highcharts-7m11rbd-575)"><path fill="none" d="M 3.5115511551155 292.9790267458261 L 7.023102310231 293.5922943975355 L 10.534653465347 294.5365585626332 L 14.046204620462 295.0876593564981 L 17.557755775578 295.44889920613514 L 21.069306930693 295.5312282881454 L 24.580858085809 295.7110081202904 L 28.092409240924 295.6370799650158 L 31.60396039604 295.61019699946144 L 42.138613861386 295.75234067983024 L 59.696369636964 295.76712631088515 L 77.254125412541 295.7056315271795 L 94.811881188119 295.1525145108981 L 112.3696369637 289.43081132971685 L 129.92739273927 293.360951971345 L 147.48514851485 295.984688271837 L 165.04290429043 295.9611900579993 L 182.60066006601 295.9805509246278 L 200.15841584158 295.973637442299 L 217.71617161716 295.9490166456653 L 235.27392739274 295.9800915651043 L 252.83168316832 295.9274063002597 L 270.38943894389 295.93615998449974 L 287.94719471947 295.9535947425341 L 305.50495049505 295.95606309886097 L 323.06270627063 295.99477646600286 L 340.6204620462 295.9938165070183 L 358.17821782178 295.99745921481843 L 375.73597359736 295.99564303208814 L 393.29372937294 295.9901283858598 L 410.85148514851 295.9898146551909 L 428.40924092409 295.9818298873605 L 445.96699669967 295.97182220170015 L 463.52475247525 295.958584763857 L 481.08250825083 295.9375167218977 L 498.6402640264 295.93961483687195 L 516.19801980198 295.9325271596148 L 526.73267326733 295.7191713365014" class="highcharts-graph" stroke="#5cb85c" stroke-width="2" stroke-linejoin="round" stroke-linecap="round"></path></g><g class="highcharts-markers highcharts-series-5 highcharts-line-series highcharts-color-undefined " transform="translate(58,47) scale(1 1)" width="296" height="532" clip-path="none"></g><g class="highcharts-series highcharts-series-6 highcharts-line-series highcharts-color-undefined " transform="translate(58,47) scale(1 1)" width="296" height="532" clip-path="url(#highcharts-7m11rbd-575)"><path fill="none" d="M 3.5115511551155 296 L 7.023102310231 296 L 10.534653465347 296 L 14.046204620462 296 L 17.557755775578 296 L 21.069306930693 296 L 24.580858085809 296 L 28.092409240924 296 L 31.60396039604 296 L 42.138613861386 296 L 59.696369636964 296 L 77.254125412541 296 L 94.811881188119 296 L 112.3696369637 296 L 129.92739273927 296 L 147.48514851485 296 L 165.04290429043 296 L 182.60066006601 296 L 200.15841584158 296 L 217.71617161716 296 L 235.27392739274 296 L 252.83168316832 296 L 270.38943894389 296 L 287.94719471947 296 L 305.50495049505 296 L 323.06270627063 296 L 340.6204620462 296 L 358.17821782178 296 L 375.73597359736 296 L 393.29372937294 296 L 410.85148514851 296 L 428.40924092409 296 L 445.96699669967 296 L 463.52475247525 296 L 481.08250825083 296 L 498.6402640264 296 L 516.19801980198 296 L 526.73267326733 296" class="highcharts-graph" stroke="#5cb85c" stroke-width="2" stroke-linejoin="round" stroke-linecap="round"></path></g><g class="highcharts-markers highcharts-series-6 highcharts-line-series highcharts-color-undefined " transform="translate(58,47) scale(1 1)" width="296" height="532" clip-path="none"></g><g class="highcharts-series highcharts-series-7 highcharts-line-series highcharts-color-undefined " transform="translate(58,47) scale(1 1)" width="296" height="532" clip-path="url(#highcharts-7m11rbd-575)"><path fill="none" d="M 3.5115511551155 296 L 7.023102310231 296 L 10.534653465347 296 L 14.046204620462 296 L 17.557755775578 296 L 21.069306930693 296 L 24.580858085809 296 L 28.092409240924 296 L 31.60396039604 296 L 42.138613861386 296 L 59.696369636964 296 L 77.254125412541 296 L 94.811881188119 296 L 112.3696369637 296 L 129.92739273927 296 L 147.48514851485 296 L 165.04290429043 296 L 182.60066006601 296 L 200.15841584158 296 L 217.71617161716 296 L 235.27392739274 296 L 252.83168316832 296 L 270.38943894389 296 L 287.94719471947 296 L 305.50495049505 296 L 323.06270627063 296 L 340.6204620462 296 L 358.17821782178 296 L 375.73597359736 296 L 393.29372937294 296 L 410.85148514851 296 L 428.40924092409 296 L 445.96699669967 296 L 463.52475247525 296 L 481.08250825083 296 L 498.6402640264 296 L 516.19801980198 296 L 526.73267326733 296" class="highcharts-graph" stroke="#5cb85c" stroke-width="2" stroke-linejoin="round" stroke-linecap="round"></path></g><g class="highcharts-markers highcharts-series-7 highcharts-line-series highcharts-color-undefined " transform="translate(58,47) scale(1 1)" width="296" height="532" clip-path="none"></g><g class="highcharts-series highcharts-series-8 highcharts-line-series highcharts-color-undefined " transform="translate(58,47) scale(1 1)" width="296" height="532" clip-path="url(#highcharts-7m11rbd-575)"><path fill="none" d="M 3.5115511551155 296 L 7.023102310231 296 L 10.534653465347 296 L 14.046204620462 296 L 17.557755775578 296 L 21.069306930693 296 L 24.580858085809 296 L 28.092409240924 296 L 31.60396039604 296 L 42.138613861386 296 L 59.696369636964 296 L 77.254125412541 296 L 94.811881188119 296 L 112.3696369637 296 L 129.92739273927 295.9936552548423 L 147.48514851485 296 L 165.04290429043 296 L 182.60066006601 296 L 200.15841584158 296 L 217.71617161716 296 L 235.27392739274 296 L 252.83168316832 296 L 270.38943894389 296 L 287.94719471947 296 L 305.50495049505 296 L 323.06270627063 296 L 340.6204620462 296 L 358.17821782178 296 L 375.73597359736 296 L 393.29372937294 296 L 410.85148514851 296 L 428.40924092409 296 L 445.96699669967 296 L 463.52475247525 296 L 481.08250825083 296 L 498.6402640264 296 L 516.19801980198 296 L 526.73267326733 296" class="highcharts-graph" stroke="#5cb85c" stroke-width="2" stroke-linejoin="round" stroke-linecap="round"></path></g><g class="highcharts-markers highcharts-series-8 highcharts-line-series highcharts-color-undefined " transform="translate(58,47) scale(1 1)" width="296" height="532" clip-path="none"></g><g class="highcharts-series highcharts-series-9 highcharts-line-series highcharts-color-undefined " transform="translate(58,47) scale(1 1)" width="296" height="532" clip-path="url(#highcharts-7m11rbd-575)"><path fill="none" d="M 3.5115511551155 296 L 7.023102310231 296 L 10.534653465347 296 L 14.046204620462 296 L 17.557755775578 296 L 21.069306930693 296 L 24.580858085809 296 L 28.092409240924 296 L 31.60396039604 296 L 42.138613861386 296 L 59.696369636964 296 L 77.254125412541 296 L 94.811881188119 296 L 112.3696369637 296 L 129.92739273927 296 L 147.48514851485 296 L 165.04290429043 296 L 182.60066006601 296 L 200.15841584158 296 L 217.71617161716 296 L 235.27392739274 296 L 252.83168316832 296 L 270.38943894389 296 L 287.94719471947 296 L 305.50495049505 296 L 323.06270627063 296 L 340.6204620462 296 L 358.17821782178 296 L 375.73597359736 296 L 393.29372937294 296 L 410.85148514851 296 L 428.40924092409 296 L 445.96699669967 296 L 463.52475247525 296 L 481.08250825083 296 L 498.6402640264 296 L 516.19801980198 296 L 526.73267326733 296" class="highcharts-graph" stroke="#5cb85c" stroke-width="2" stroke-linejoin="round" stroke-linecap="round"></path></g><g class="highcharts-markers highcharts-series-9 highcharts-line-series highcharts-color-undefined " transform="translate(58,47) scale(1 1)" width="296" height="532" clip-path="none"></g><g class="highcharts-series highcharts-series-10 highcharts-line-series highcharts-color-undefined " transform="translate(58,47) scale(1 1)" width="296" height="532" clip-path="url(#highcharts-7m11rbd-575)"><path fill="none" d="M 3.5115511551155 295.87675638077184 L 7.023102310231 295.99818759383487 L 10.534653465347 296 L 14.046204620462 296 L 17.557755775578 296 L 21.069306930693 296 L 24.580858085809 296 L 28.092409240924 296 L 31.60396039604 296 L 42.138613861386 296 L 59.696369636964 296 L 77.254125412541 296 L 94.811881188119 296 L 112.3696369637 295.9890682524119 L 129.92739273927 295.98316127032183 L 147.48514851485 296 L 165.04290429043 296 L 182.60066006601 296 L 200.15841584158 296 L 217.71617161716 296 L 235.27392739274 296 L 252.83168316832 296 L 270.38943894389 296 L 287.94719471947 296 L 305.50495049505 296 L 323.06270627063 296 L 340.6204620462 296 L 358.17821782178 296 L 375.73597359736 296 L 393.29372937294 296 L 410.85148514851 296 L 428.40924092409 296 L 445.96699669967 296 L 463.52475247525 296 L 481.08250825083 296 L 498.6402640264 296 L 516.19801980198 296 L 526.73267326733 296" class="highcharts-graph" stroke="#5cb85c" stroke-width="2" stroke-linejoin="round" stroke-linecap="round"></path></g><g class="highcharts-markers highcharts-series-10 highcharts-line-series highcharts-color-undefined " transform="translate(58,47) scale(1 1)" width="296" height="532" clip-path="none"></g><g class="highcharts-series highcharts-series-11 highcharts-line-series highcharts-color-undefined " transform="translate(58,47) scale(1 1)" width="296" height="532" clip-path="url(#highcharts-7m11rbd-575)"><path fill="none" d="M 3.5115511551155 295.34209656206144 L 7.023102310231 295.76801201086465 L 10.534653465347 295.99637518766974 L 14.046204620462 296 L 17.557755775578 295.99637518766974 L 21.069306930693 295.99637518766974 L 24.580858085809 296 L 28.092409240924 296 L 31.60396039604 296 L 42.138613861386 296 L 59.696369636964 296 L 77.254125412541 296 L 94.811881188119 296 L 112.3696369637 295.9996190861222 L 129.92739273927 296 L 147.48514851485 296 L 165.04290429043 296 L 182.60066006601 296 L 200.15841584158 296 L 217.71617161716 296 L 235.27392739274 296 L 252.83168316832 296 L 270.38943894389 296 L 287.94719471947 296 L 305.50495049505 296 L 323.06270627063 296 L 340.6204620462 296 L 358.17821782178 296 L 375.73597359736 295.99940194843583 L 393.29372937294 296 L 410.85148514851 296 L 428.40924092409 295.9993130047732 L 445.96699669967 296 L 463.52475247525 295.99924070533547 L 481.08250825083 295.9983962827568 L 498.6402640264 296 L 516.19801980198 295.9972989713826 L 526.73267326733 295.98825556913175" class="highcharts-graph" stroke="#5cb85c" stroke-width="2" stroke-linejoin="round" stroke-linecap="round"></path></g><g class="highcharts-markers highcharts-series-11 highcharts-line-series highcharts-color-undefined " transform="translate(58,47) scale(1 1)" width="296" height="532" clip-path="none"></g></g><text x="330" text-anchor="middle" class="highcharts-title" style="color:#333333;font-size:18px;fill:#333333;width:536px;" y="24"><tspan>FastQC: Per Base N Content</tspan></text><g class="highcharts-axis-labels highcharts-xaxis-labels "><text x="58" style="color:#666666;cursor:default;font-size:11px;fill:#666666;width:79px;text-overflow:clip;" text-anchor="middle" transform="translate(0,0)" y="362" opacity="1"><tspan>0</tspan></text><text x="145.78877887788778" style="color:#666666;cursor:default;font-size:11px;fill:#666666;width:79px;text-overflow:clip;" text-anchor="middle" transform="translate(0,0)" y="362" opacity="1"><tspan>25</tspan></text><text x="233.57755775577556" style="color:#666666;cursor:default;font-size:11px;fill:#666666;width:79px;text-overflow:clip;" text-anchor="middle" transform="translate(0,0)" y="362" opacity="1"><tspan>50</tspan></text><text x="321.36633663366337" style="color:#666666;cursor:default;font-size:11px;fill:#666666;width:79px;text-overflow:clip;" text-anchor="middle" transform="translate(0,0)" y="362" opacity="1"><tspan>75</tspan></text><text x="409.1551155115511" style="color:#666666;cursor:default;font-size:11px;fill:#666666;width:79px;text-overflow:clip;" text-anchor="middle" transform="translate(0,0)" y="362" opacity="1"><tspan>100</tspan></text><text x="496.9438943894389" style="color:#666666;cursor:default;font-size:11px;fill:#666666;width:79px;text-overflow:clip;" text-anchor="middle" transform="translate(0,0)" y="362" opacity="1"><tspan>125</tspan></text><text x="579.0249996185303" style="color:#666666;cursor:default;font-size:11px;fill:#666666;width:79px;text-overflow:clip;" text-anchor="middle" transform="translate(0,0)" y="362" opacity="1"><tspan>150</tspan></text></g><g class="highcharts-axis-labels highcharts-yaxis-labels "><text x="43" style="color:#666666;cursor:default;font-size:11px;fill:#666666;width:188px;text-overflow:clip;" text-anchor="end" transform="translate(0,0)" y="347" opacity="1"><tspan>0</tspan></text><text x="43" style="color:#666666;cursor:default;font-size:11px;fill:#666666;width:188px;text-overflow:clip;" text-anchor="end" transform="translate(0,0)" y="298" opacity="1"><tspan>1</tspan></text><text x="43" style="color:#666666;cursor:default;font-size:11px;fill:#666666;width:188px;text-overflow:clip;" text-anchor="end" transform="translate(0,0)" y="248" opacity="1"><tspan>2</tspan></text><text x="43" style="color:#666666;cursor:default;font-size:11px;fill:#666666;width:188px;text-overflow:clip;" text-anchor="end" transform="translate(0,0)" y="199" opacity="1"><tspan>3</tspan></text><text x="43" style="color:#666666;cursor:default;font-size:11px;fill:#666666;width:188px;text-overflow:clip;" text-anchor="end" transform="translate(0,0)" y="150" opacity="1"><tspan>4</tspan></text><text x="43" style="color:#666666;cursor:default;font-size:11px;fill:#666666;width:188px;text-overflow:clip;" text-anchor="end" transform="translate(0,0)" y="100" opacity="1"><tspan>5</tspan></text><text x="43" style="color:#666666;cursor:default;font-size:11px;fill:#666666;width:188px;text-overflow:clip;" text-anchor="end" transform="translate(0,0)" y="51" opacity="1"><tspan>6</tspan></text></g><text x="590" class="highcharts-credits" text-anchor="end" style="cursor:pointer;color:#999999;font-size:9px;fill:#999999;" y="395"><tspan>Created with MultiQC</tspan></text></svg>