<svg xmlns:xlink="http://www.w3.org/1999/xlink" version="1.1" class="highcharts-root" style="font-family:&quot;lucida grande&quot;, &quot;lucida sans unicode&quot;, arial, helvetica, sans-serif;font-size:12px;" xmlns="http://www.w3.org/2000/svg" width="600" height="400"><desc>Created with Highcharts 5.0.6</desc><defs><clipPath id="highcharts-7m11rbd-543"><rect x="0" y="0" width="490" height="296" fill="none"></rect></clipPath></defs><rect fill="#ffffff" class="highcharts-background" x="0" y="0" width="600" height="400" rx="0" ry="0"></rect><rect fill="none" class="highcharts-plot-background" x="100" y="47" width="490" height="296"></rect><g class="highcharts-plot-bands-0"><path fill="#c3e6c3" class="highcharts-plot-band " d="M 466.5 47 L 466.5 343 589.5 343 589.5 47 z"></path><path fill="#e6dcc3" class="highcharts-plot-band " d="M 361.5 47 L 361.5 343 466.5 343 466.5 47 z"></path><path fill="#e6c3c3" class="highcharts-plot-band " d="M 99.5 47 L 99.5 343 361.5 343 361.5 47 z"></path></g><g class="highcharts-grid highcharts-xaxis-grid "><path fill="none" class="highcharts-grid-line" d="M 99.5 47 L 99.5 343" opacity="1"></path><path fill="none" class="highcharts-grid-line" d="M 230.5 47 L 230.5 343" opacity="1"></path><path fill="none" class="highcharts-grid-line" d="M 361.5 47 L 361.5 343" opacity="1"></path><path fill="none" class="highcharts-grid-line" d="M 492.5 47 L 492.5 343" opacity="1"></path></g><g class="highcharts-grid highcharts-yaxis-grid "><path fill="none" stroke="#e6e6e6" stroke-width="1" class="highcharts-grid-line" d="M 100 343.5 L 590 343.5" opacity="1"></path><path fill="none" stroke="#e6e6e6" stroke-width="1" class="highcharts-grid-line" d="M 100 294.5 L 590 294.5" opacity="1"></path><path fill="none" stroke="#e6e6e6" stroke-width="1" class="highcharts-grid-line" d="M 100 244.5 L 590 244.5" opacity="1"></path><path fill="none" stroke="#e6e6e6" stroke-width="1" class="highcharts-grid-line" d="M 100 195.5 L 590 195.5" opacity="1"></path><path fill="none" stroke="#e6e6e6" stroke-width="1" class="highcharts-grid-line" d="M 100 146.5 L 590 146.5" opacity="1"></path><path fill="none" stroke="#e6e6e6" stroke-width="1" class="highcharts-grid-line" d="M 100 96.5 L 590 96.5" opacity="1"></path><path fill="none" stroke="#e6e6e6" stroke-width="1" class="highcharts-grid-line" d="M 100 46.5 L 590 46.5" opacity="1"></path></g><rect fill="none" class="highcharts-plot-border" x="100" y="47" width="490" height="296"></rect><g class="highcharts-axis highcharts-xaxis "><path fill="none" class="highcharts-tick" stroke="#ccd6eb" stroke-width="1" d="M 99.5 343 L 99.5 353" opacity="1"></path><path fill="none" class="highcharts-tick" stroke="#ccd6eb" stroke-width="1" d="M 230.5 343 L 230.5 353" opacity="1"></path><path fill="none" class="highcharts-tick" stroke="#ccd6eb" stroke-width="1" d="M 361.5 343 L 361.5 353" opacity="1"></path><path fill="none" class="highcharts-tick" stroke="#ccd6eb" stroke-width="1" d="M 492.5 343 L 492.5 353" opacity="1"></path><text x="345" text-anchor="middle" transform="translate(0,0)" class="highcharts-axis-title" style="color:#666666;fill:#666666;" y="381.75"><tspan>Mean Sequence Quality (Phred Score)</tspan></text><path fill="none" class="highcharts-axis-line" stroke="#ccd6eb" stroke-width="1" d="M 100 343.5 L 590 343.5"></path></g><g class="highcharts-axis highcharts-yaxis "><text x="25.25" text-anchor="middle" transform="translate(0,0) rotate(270 25.25 195)" class="highcharts-axis-title" style="color:#666666;fill:#666666;" y="195">Count</text><path fill="none" class="highcharts-axis-line" d="M 100 47 L 100 343"></path></g><g class="highcharts-series-group"><g class="highcharts-series highcharts-series-0 highcharts-line-series highcharts-color-undefined " transform="translate(100,47) scale(1 1)" width="296" height="490" clip-path="url(#highcharts-7m11rbd-543)"><path fill="none" d="M 236.01819641424 295.9996053333333 L 249.13031843725 295.9948693333333 L 262.24244046026 295.9826346666667 L 275.35456248328 295.9583626666667 L 288.46668450629 295.92284266666667 L 301.5788065293 295.88771733333334 L 314.69092855231 295.8445013333333 L 327.80305057533 295.7928 L 340.91517259834 295.74622933333336 L 354.02729462135 295.6463786666667 L 367.13941664437 295.52679466666666 L 380.25153866738 295.35452266666664 L 393.36366069039 295.157584 L 406.47578271341 294.88506666666666 L 419.58790473642 294.56183466666664 L 432.70002675943 294.01186666666666 L 445.81214878245 292.95021333333335 L 458.92427080546 287.8148106666667 L 472.03639282847 273.52965333333333 L 485.14851485149 295.13311466666664" class="highcharts-graph" stroke="#5cb85c" stroke-width="2" stroke-linejoin="round" stroke-linecap="round"></path></g><g class="highcharts-markers highcharts-series-0 highcharts-line-series highcharts-color-undefined " transform="translate(100,47) scale(1 1)" width="296" height="490" clip-path="none"></g><g class="highcharts-series highcharts-series-1 highcharts-line-series highcharts-color-undefined " transform="translate(100,47) scale(1 1)" width="296" height="490" clip-path="url(#highcharts-7m11rbd-543)"><path fill="none" d="M 144.23334225314 295.99842133333334 L 157.34546427616 295.999408 L 170.45758629917 295.99980266666665 L 183.56970832218 295.99921066666667 L 196.6818303452 295.99980266666665 L 209.79395236821 295.998816 L 222.90607439122 295.99842133333334 L 236.01819641424 295.99625066666664 L 249.13031843725 295.98184533333335 L 262.24244046026 295.94770666666665 L 275.35456248328 295.8486453333333 L 288.46668450629 295.704 L 301.5788065293 295.551264 L 314.69092855231 295.48338133333334 L 327.80305057533 295.471936 L 340.91517259834 295.432272 L 354.02729462135 295.271248 L 367.13941664437 295.127392 L 380.25153866738 294.87816 L 393.36366069039 294.34161066666667 L 406.47578271341 292.87404266666664 L 419.58790473642 290.58635733333335 L 432.70002675943 287.7301546666667 L 445.81214878245 284.2886613333333 L 458.92427080546 289.2808 L 472.03639282847 295.911792" class="highcharts-graph" stroke="#5cb85c" stroke-width="2" stroke-linejoin="round" stroke-linecap="round"></path></g><g class="highcharts-markers highcharts-series-1 highcharts-line-series highcharts-color-undefined " transform="translate(100,47) scale(1 1)" width="296" height="490" clip-path="none"></g><g class="highcharts-series highcharts-series-2 highcharts-line-series highcharts-color-undefined " transform="translate(100,47) scale(1 1)" width="296" height="490" clip-path="url(#highcharts-7m11rbd-543)"><path fill="none" d="M 26.224244046026 295.9968426666667 L 39.336366069039 296 L 52.448488092052 296 L 65.560610115066 296 L 78.672732138079 296 L 91.784854161092 296 L 104.8969761841 296 L 118.00909820712 296 L 131.12122023013 296 L 144.23334225314 296 L 157.34546427616 296 L 170.45758629917 295.99980266666665 L 183.56970832218 295.99980266666665 L 196.6818303452 295.99921066666667 L 209.79395236821 295.998224 L 222.90607439122 295.995264 L 236.01819641424 295.99565866666666 L 249.13031843725 295.98973866666665 L 262.24244046026 295.9850026666667 L 275.35456248328 295.9725706666667 L 288.46668450629 295.9469173333333 L 301.5788065293 295.90567466666664 L 314.69092855231 295.8233866666667 L 327.80305057533 295.723536 L 340.91517259834 295.590336 L 354.02729462135 295.4040533333333 L 367.13941664437 295.1927093333333 L 380.25153866738 294.9182186666667 L 393.36366069039 294.63030933333334 L 406.47578271341 294.252416 L 419.58790473642 293.900176 L 432.70002675943 293.43821866666667 L 445.81214878245 292.75130133333334 L 458.92427080546 290.7312 L 472.03639282847 258.9889493333333 L 485.14851485149 255.14884266666667" class="highcharts-graph" stroke="#5cb85c" stroke-width="2" stroke-linejoin="round" stroke-linecap="round"></path></g><g class="highcharts-markers highcharts-series-2 highcharts-line-series highcharts-color-undefined " transform="translate(100,47) scale(1 1)" width="296" height="490" clip-path="none"></g><g class="highcharts-series highcharts-series-3 highcharts-line-series highcharts-color-undefined " transform="translate(100,47) scale(1 1)" width="296" height="490" clip-path="url(#highcharts-7m11rbd-543)"><path fill="none" d="M 26.224244046026 295.99664533333333 L 39.336366069039 296 L 52.448488092052 296 L 65.560610115066 296 L 78.672732138079 296 L 91.784854161092 296 L 104.8969761841 296 L 118.00909820712 296 L 131.12122023013 296 L 144.23334225314 296 L 157.34546427616 295.99980266666665 L 170.45758629917 295.9986186666667 L 183.56970832218 295.99625066666664 L 196.6818303452 295.992304 L 209.79395236821 295.988752 L 222.90607439122 295.98184533333335 L 236.01819641424 295.9753333333333 L 249.13031843725 295.9506666666667 L 262.24244046026 295.918304 L 275.35456248328 295.860288 L 288.46668450629 295.7858933333333 L 301.5788065293 295.682688 L 314.69092855231 295.59901866666667 L 327.80305057533 295.48890666666665 L 340.91517259834 295.41470933333335 L 354.02729462135 295.256448 L 367.13941664437 295.0750986666667 L 380.25153866738 294.87816 L 393.36366069039 294.62656 L 406.47578271341 294.2830026666667 L 419.58790473642 293.91773866666665 L 432.70002675943 293.44275733333336 L 445.81214878245 292.591264 L 458.92427080546 290.187744 L 472.03639282847 255.74735466666667 L 485.14851485149 260.642208" class="highcharts-graph" stroke="#5cb85c" stroke-width="2" stroke-linejoin="round" stroke-linecap="round"></path></g><g class="highcharts-markers highcharts-series-3 highcharts-line-series highcharts-color-undefined " transform="translate(100,47) scale(1 1)" width="296" height="490" clip-path="none"></g><g class="highcharts-series highcharts-series-4 highcharts-line-series highcharts-color-undefined " transform="translate(100,47) scale(1 1)" width="296" height="490" clip-path="url(#highcharts-7m11rbd-543)"><path fill="none" d="M 26.224244046026 295.97336 L 39.336366069039 296 L 52.448488092052 296 L 65.560610115066 296 L 78.672732138079 296 L 91.784854161092 296 L 104.8969761841 296 L 118.00909820712 296 L 131.12122023013 296 L 144.23334225314 296 L 157.34546427616 296 L 170.45758629917 296 L 183.56970832218 296 L 196.6818303452 295.98914666666667 L 209.79395236821 295.7813546666667 L 222.90607439122 294.9726826666667 L 236.01819641424 293.926816 L 249.13031843725 292.97764266666667 L 262.24244046026 292.3315733333333 L 275.35456248328 291.82087466666667 L 288.46668450629 291.389504 L 301.5788065293 290.582016 L 314.69092855231 289.6320533333333 L 327.80305057533 288.4589066666667 L 340.91517259834 286.9868 L 354.02729462135 285.174096 L 367.13941664437 282.970672 L 380.25153866738 280.354624 L 393.36366069039 277.036464 L 406.47578271341 272.220544 L 419.58790473642 263.85361066666667 L 432.70002675943 244.49935466666668 L 445.81214878245 176.97090133333336 L 458.92427080546 48.69002666666668" class="highcharts-graph" stroke="#5cb85c" stroke-width="2" stroke-linejoin="round" stroke-linecap="round"></path></g><g class="highcharts-markers highcharts-series-4 highcharts-line-series highcharts-color-undefined " transform="translate(100,47) scale(1 1)" width="296" height="490" clip-path="none"></g><g class="highcharts-series highcharts-series-5 highcharts-line-series highcharts-color-undefined " transform="translate(100,47) scale(1 1)" width="296" height="490" clip-path="url(#highcharts-7m11rbd-543)"><path fill="none" d="M 26.224244046026 295.9747413333333 L 39.336366069039 296 L 52.448488092052 296 L 65.560610115066 296 L 78.672732138079 296 L 91.784854161092 296 L 104.8969761841 296 L 118.00909820712 296 L 131.12122023013 296 L 144.23334225314 296 L 157.34546427616 295.99980266666665 L 170.45758629917 296 L 183.56970832218 295.93290666666667 L 196.6818303452 294.95610666666664 L 209.79395236821 292.899696 L 222.90607439122 291.56374933333336 L 236.01819641424 291.03608 L 249.13031843725 290.907616 L 262.24244046026 290.735344 L 275.35456248328 290.60253866666665 L 288.46668450629 290.34541333333334 L 301.5788065293 289.73742933333335 L 314.69092855231 288.9625013333333 L 327.80305057533 287.92354133333333 L 340.91517259834 286.879648 L 354.02729462135 285.43201066666666 L 367.13941664437 283.918464 L 380.25153866738 281.783712 L 393.36366069039 278.9292853333333 L 406.47578271341 274.583808 L 419.58790473642 267.17354666666665 L 432.70002675943 250.82309866666668 L 445.81214878245 192.87873066666668 L 458.92427080546 34.61325333333332" class="highcharts-graph" stroke="#5cb85c" stroke-width="2" stroke-linejoin="round" stroke-linecap="round"></path></g><g class="highcharts-markers highcharts-series-5 highcharts-line-series highcharts-color-undefined " transform="translate(100,47) scale(1 1)" width="296" height="490" clip-path="none"></g><g class="highcharts-series highcharts-series-6 highcharts-line-series highcharts-color-undefined " transform="translate(100,47) scale(1 1)" width="296" height="490" clip-path="url(#highcharts-7m11rbd-543)"><path fill="none" d="M 314.69092855231 295.998224 L 327.80305057533 295.99605333333335 L 340.91517259834 295.9844106666667 L 354.02729462135 295.954416 L 367.13941664437 295.895216 L 380.25153866738 295.761424 L 393.36366069039 295.5627093333333 L 406.47578271341 295.2892053333333 L 419.58790473642 294.977616 L 432.70002675943 294.471456 L 445.81214878245 293.45065066666666 L 458.92427080546 288.5557973333333 L 472.03639282847 280.41895466666665 L 485.14851485149 290.30417066666666" class="highcharts-graph" stroke="#5cb85c" stroke-width="2" stroke-linejoin="round" stroke-linecap="round"></path></g><g class="highcharts-markers highcharts-series-6 highcharts-line-series highcharts-color-undefined " transform="translate(100,47) scale(1 1)" width="296" height="490" clip-path="none"></g><g class="highcharts-series highcharts-series-7 highcharts-line-series highcharts-color-undefined " transform="translate(100,47) scale(1 1)" width="296" height="490" clip-path="url(#highcharts-7m11rbd-543)"><path fill="none" d="M 301.5788065293 295.9996053333333 L 314.69092855231 295.99625066666664 L 327.80305057533 295.978688 L 340.91517259834 295.9552053333333 L 354.02729462135 295.90133333333335 L 367.13941664437 295.8379893333333 L 380.25153866738 295.7474133333333 L 393.36366069039 295.642432 L 406.47578271341 295.444112 L 419.58790473642 295.27933866666666 L 432.70002675943 295.00267733333334 L 445.81214878245 293.9994346666667 L 458.92427080546 292.06912 L 472.03639282847 290.690352 L 485.14851485149 275.076352" class="highcharts-graph" stroke="#5cb85c" stroke-width="2" stroke-linejoin="round" stroke-linecap="round"></path></g><g class="highcharts-markers highcharts-series-7 highcharts-line-series highcharts-color-undefined " transform="translate(100,47) scale(1 1)" width="296" height="490" clip-path="none"></g><g class="highcharts-series highcharts-series-8 highcharts-line-series highcharts-color-undefined " transform="translate(100,47) scale(1 1)" width="296" height="490" clip-path="url(#highcharts-7m11rbd-543)"><path fill="none" d="M 314.69092855231 295.99980266666665 L 327.80305057533 295.9968426666667 L 340.91517259834 295.98796266666665 L 354.02729462135 295.95599466666664 L 367.13941664437 295.88140266666665 L 380.25153866738 295.691568 L 393.36366069039 295.3509706666667 L 406.47578271341 294.87322666666665 L 419.58790473642 294.298 L 432.70002675943 293.63278933333333 L 445.81214878245 292.807344 L 458.92427080546 290.60431466666665 L 472.03639282847 258.97000533333335 L 485.14851485149 254.29675733333335" class="highcharts-graph" stroke="#5cb85c" stroke-width="2" stroke-linejoin="round" stroke-linecap="round"></path></g><g class="highcharts-markers highcharts-series-8 highcharts-line-series highcharts-color-undefined " transform="translate(100,47) scale(1 1)" width="296" height="490" clip-path="none"></g><g class="highcharts-series highcharts-series-9 highcharts-line-series highcharts-color-undefined " transform="translate(100,47) scale(1 1)" width="296" height="490" clip-path="url(#highcharts-7m11rbd-543)"><path fill="none" d="M 288.46668450629 295.99980266666665 L 301.5788065293 295.999408 L 314.69092855231 295.99605333333335 L 327.80305057533 295.9802666666667 L 340.91517259834 295.9583626666667 L 354.02729462135 295.88732266666665 L 367.13941664437 295.7781973333333 L 380.25153866738 295.5911253333333 L 393.36366069039 295.28407466666664 L 406.47578271341 294.7919253333333 L 419.58790473642 294.23741866666666 L 432.70002675943 293.4903146666667 L 445.81214878245 292.465168 L 458.92427080546 289.85819733333335 L 472.03639282847 255.39195733333332 L 485.14851485149 259.63738666666666" class="highcharts-graph" stroke="#5cb85c" stroke-width="2" stroke-linejoin="round" stroke-linecap="round"></path></g><g class="highcharts-markers highcharts-series-9 highcharts-line-series highcharts-color-undefined " transform="translate(100,47) scale(1 1)" width="296" height="490" clip-path="none"></g><g class="highcharts-series highcharts-series-10 highcharts-line-series highcharts-color-undefined " transform="translate(100,47) scale(1 1)" width="296" height="490" clip-path="url(#highcharts-7m11rbd-543)"><path fill="none" d="M 314.69092855231 295.99921066666667 L 327.80305057533 295.9903306666667 L 340.91517259834 295.940208 L 354.02729462135 295.67992533333336 L 367.13941664437 294.76903466666664 L 380.25153866738 292.11963733333334 L 393.36366069039 285.727616 L 406.47578271341 274.15658133333335 L 419.58790473642 256.727312 L 432.70002675943 229.3192906666667 L 445.81214878245 158.77834666666666 L 458.92427080546 39.65512000000001" class="highcharts-graph" stroke="#5cb85c" stroke-width="2" stroke-linejoin="round" stroke-linecap="round"></path></g><g class="highcharts-markers highcharts-series-10 highcharts-line-series highcharts-color-undefined " transform="translate(100,47) scale(1 1)" width="296" height="490" clip-path="none"></g><g class="highcharts-series highcharts-series-11 highcharts-line-series highcharts-color-undefined " transform="translate(100,47) scale(1 1)" width="296" height="490" clip-path="url(#highcharts-7m11rbd-543)"><path fill="none" d="M 288.46668450629 295.9996053333333 L 301.5788065293 295.99565866666666 L 314.69092855231 295.9784906666667 L 327.80305057533 295.89857066666667 L 340.91517259834 295.65940266666667 L 354.02729462135 295.07391466666667 L 367.13941664437 293.5643146666667 L 380.25153866738 290.309104 L 393.36366069039 283.50090666666665 L 406.47578271341 272.19173333333333 L 419.58790473642 256.12090666666666 L 432.70002675943 234.20447466666667 L 445.81214878245 176.48447466666667 L 458.92427080546 25.881056" class="highcharts-graph" stroke="#5cb85c" stroke-width="2" stroke-linejoin="round" stroke-linecap="round"></path></g><g class="highcharts-markers highcharts-series-11 highcharts-line-series highcharts-color-undefined " transform="translate(100,47) scale(1 1)" width="296" height="490" clip-path="none"></g></g><text x="330" text-anchor="middle" class="highcharts-title" style="color:#333333;font-size:18px;fill:#333333;width:536px;" y="24"><tspan>FastQC: Per Sequence Quality Scores</tspan></text><g class="highcharts-axis-labels highcharts-xaxis-labels "><text x="100" style="color:#666666;cursor:default;font-size:11px;fill:#666666;width:153px;text-overflow:clip;" text-anchor="middle" transform="translate(0,0)" y="362" opacity="1"><tspan>0</tspan></text><text x="231.12122023013112" style="color:#666666;cursor:default;font-size:11px;fill:#666666;width:153px;text-overflow:clip;" text-anchor="middle" transform="translate(0,0)" y="362" opacity="1"><tspan>10</tspan></text><text x="362.24244046026223" style="color:#666666;cursor:default;font-size:11px;fill:#666666;width:153px;text-overflow:clip;" text-anchor="middle" transform="translate(0,0)" y="362" opacity="1"><tspan>20</tspan></text><text x="493.3636606903934" style="color:#666666;cursor:default;font-size:11px;fill:#666666;width:153px;text-overflow:clip;" text-anchor="middle" transform="translate(0,0)" y="362" opacity="1"><tspan>30</tspan></text></g><g class="highcharts-axis-labels highcharts-yaxis-labels "><text x="85" style="color:#666666;cursor:default;font-size:11px;fill:#666666;width:188px;text-overflow:clip;" text-anchor="end" transform="translate(0,0)" y="347" opacity="1"><tspan>0</tspan></text><text x="85" style="color:#666666;cursor:default;font-size:11px;fill:#666666;width:188px;text-overflow:clip;" text-anchor="end" transform="translate(0,0)" y="298" opacity="1"><tspan>250000</tspan></text><text x="85" style="color:#666666;cursor:default;font-size:11px;fill:#666666;width:188px;text-overflow:clip;" text-anchor="end" transform="translate(0,0)" y="248" opacity="1"><tspan>500000</tspan></text><text x="85" style="color:#666666;cursor:default;font-size:11px;fill:#666666;width:188px;text-overflow:clip;" text-anchor="end" transform="translate(0,0)" y="199" opacity="1"><tspan>750000</tspan></text><text x="85" style="color:#666666;cursor:default;font-size:11px;fill:#666666;width:188px;text-overflow:clip;" text-anchor="end" transform="translate(0,0)" y="150" opacity="1"><tspan>1000000</tspan></text><text x="85" style="color:#666666;cursor:default;font-size:11px;fill:#666666;width:188px;text-overflow:clip;" text-anchor="end" transform="translate(0,0)" y="100" opacity="1"><tspan>1250000</tspan></text><text x="85" style="color:#666666;cursor:default;font-size:11px;fill:#666666;width:188px;text-overflow:clip;" text-anchor="end" transform="translate(0,0)" y="51" opacity="1"><tspan>1500000</tspan></text></g><text x="590" class="highcharts-credits" text-anchor="end" style="cursor:pointer;color:#999999;font-size:9px;fill:#999999;" y="395"><tspan>Created with MultiQC</tspan></text></svg>