<svg xmlns:xlink="http://www.w3.org/1999/xlink" version="1.1" class="highcharts-root" style="font-family:&quot;lucida grande&quot;, &quot;lucida sans unicode&quot;, arial, helvetica, sans-serif;font-size:12px;" xmlns="http://www.w3.org/2000/svg" width="600" height="400"><desc>Created with Highcharts 5.0.6</desc><defs><clipPath id="highcharts-7m11rbd-507"><rect x="0" y="0" width="511" height="296" fill="none"></rect></clipPath></defs><rect fill="#ffffff" class="highcharts-background" x="0" y="0" width="600" height="400" rx="0" ry="0"></rect><rect fill="none" class="highcharts-plot-background" x="79" y="47" width="511" height="296"></rect><g class="highcharts-grid highcharts-xaxis-grid "><path fill="none" class="highcharts-grid-line" d="M 80.5 47 L 80.5 343" opacity="1"></path><path fill="none" class="highcharts-grid-line" d="M 163.5 47 L 163.5 343" opacity="1"></path><path fill="none" class="highcharts-grid-line" d="M 247.5 47 L 247.5 343" opacity="1"></path><path fill="none" class="highcharts-grid-line" d="M 330.5 47 L 330.5 343" opacity="1"></path><path fill="none" class="highcharts-grid-line" d="M 414.5 47 L 414.5 343" opacity="1"></path><path fill="none" class="highcharts-grid-line" d="M 497.5 47 L 497.5 343" opacity="1"></path><path fill="none" class="highcharts-grid-line" d="M 581.5 47 L 581.5 343" opacity="1"></path></g><g class="highcharts-grid highcharts-yaxis-grid "><path fill="none" stroke="#e6e6e6" stroke-width="1" class="highcharts-grid-line" d="M 79 343.5 L 590 343.5" opacity="1"></path><path fill="none" stroke="#e6e6e6" stroke-width="1" class="highcharts-grid-line" d="M 79 269.5 L 590 269.5" opacity="1"></path><path fill="none" stroke="#e6e6e6" stroke-width="1" class="highcharts-grid-line" d="M 79 195.5 L 590 195.5" opacity="1"></path><path fill="none" stroke="#e6e6e6" stroke-width="1" class="highcharts-grid-line" d="M 79 121.5 L 590 121.5" opacity="1"></path><path fill="none" stroke="#e6e6e6" stroke-width="1" class="highcharts-grid-line" d="M 79 46.5 L 590 46.5" opacity="1"></path></g><rect fill="none" class="highcharts-plot-border" x="79" y="47" width="511" height="296"></rect><g class="highcharts-axis highcharts-xaxis "><path fill="none" class="highcharts-tick" stroke="#ccd6eb" stroke-width="1" d="M 80.5 343 L 80.5 353" opacity="1"></path><path fill="none" class="highcharts-tick" stroke="#ccd6eb" stroke-width="1" d="M 163.5 343 L 163.5 353" opacity="1"></path><path fill="none" class="highcharts-tick" stroke="#ccd6eb" stroke-width="1" d="M 247.5 343 L 247.5 353" opacity="1"></path><path fill="none" class="highcharts-tick" stroke="#ccd6eb" stroke-width="1" d="M 330.5 343 L 330.5 353" opacity="1"></path><path fill="none" class="highcharts-tick" stroke="#ccd6eb" stroke-width="1" d="M 414.5 343 L 414.5 353" opacity="1"></path><path fill="none" class="highcharts-tick" stroke="#ccd6eb" stroke-width="1" d="M 497.5 343 L 497.5 353" opacity="1"></path><path fill="none" class="highcharts-tick" stroke="#ccd6eb" stroke-width="1" d="M 581.5 343 L 581.5 353" opacity="1"></path><text x="334.5" text-anchor="middle" transform="translate(0,0)" class="highcharts-axis-title" style="color:#666666;fill:#666666;" y="381.75"><tspan>Read Position</tspan></text><path fill="none" class="highcharts-axis-line" stroke="#ccd6eb" stroke-width="1" d="M 79 343.5 L 590 343.5"></path></g><g class="highcharts-axis highcharts-yaxis "><text x="24.700000762939453" text-anchor="middle" transform="translate(0,0) rotate(270 24.700000762939453 195)" class="highcharts-axis-title" style="color:#666666;fill:#666666;" y="195"><tspan>R1 Before filtering: Base Content Percent</tspan></text><path fill="none" class="highcharts-axis-line" d="M 79 47 L 79 343"></path></g><g class="highcharts-series-group"><g class="highcharts-series highcharts-series-0 highcharts-line-series highcharts-color-undefined " transform="translate(79,47) scale(1 1)" width="296" height="511" clip-path="url(#highcharts-7m11rbd-507)"><path fill="none" d="M 5.0098039215686 129.0338 L 8.3496732026144 121.143328 L 11.68954248366 222.255152 L 15.029411764706 165.393256 L 18.369281045752 226.28045600000002 L 21.709150326797 220.265144 L 25.049019607843 154.03396 L 28.388888888889 209.977368 L 31.728758169935 223.580936 L 35.06862745098 201.35636799999997 L 38.408496732026 214.365864 L 41.748366013072 131.815016 L 45.088235294118 216.627896 L 48.428104575163 226.03744 L 51.767973856209 167.10976000000002 L 55.107843137255 182.962632 L 58.447712418301 186.58212 L 61.787581699346 181.656384 L 65.127450980392 180.731088 L 68.467320261438 193.875856 L 71.807189542484 200.0072 L 75.147058823529 204.225792 L 78.486928104575 156.150952 L 81.826797385621 186.098752 L 85.166666666667 156.357856 L 88.506535947712 172.51057600000001 L 91.846405228758 184.934584 L 95.186274509804 187.417432 L 98.52614379085 207.716816 L 101.8660130719 180.85126400000001 L 105.20588235294 153.669288 L 108.54575163399 139.73864 L 111.88562091503 212.722768 L 115.22549019608 204.72988 L 118.56535947712 180.903656 L 121.90522875817 206.510024 L 125.24509803922 183.803568 L 128.58496732026 148.044992 L 131.92483660131 202.052264 L 135.26470588235 111.97946400000001 L 138.6045751634 215.371376 L 141.94444444444 169.293056 L 145.28431372549 155.751648 L 148.62418300654 149.66056 L 151.96405228758 162.01412000000002 L 155.30392156863 161.99636 L 158.64379084967 129.849872 L 161.98366013072 121.51066399999999 L 165.32352941176 160.71468000000002 L 168.66339869281 167.23141600000002 L 172.00326797386 173.472872 L 175.3431372549 119.965544 L 178.68300653595 152.81592 L 182.02287581699 156.55144 L 185.36274509804 117.228432 L 188.70261437908 183.41136799999998 L 192.04248366013 136.840208 L 195.38235294118 153.83652800000002 L 198.72222222222 145.69445599999997 L 202.06209150327 128.875144 L 205.40196078431 174.883016 L 208.74183006536 135.514424 L 212.08169934641 174.551496 L 215.42156862745 140.408488 L 218.7614379085 163.2514 L 222.10130718954 194.124496 L 225.44117647059 129.75870400000002 L 228.78104575163 165.630944 L 232.12091503268 167.55583199999998 L 235.46078431373 142.27535999999998 L 238.80065359477 198.93568 L 242.14052287582 150.766712 L 245.48039215686 194.86479200000002 L 248.82026143791 143.091432 L 252.16013071895 191.4898 L 255.5 171.02465600000002 L 258.83986928105 147.402672 L 262.17973856209 182.611872 L 265.51960784314 166.213472 L 268.85947712418 185.52155199999999 L 272.19934640523 173.50188 L 275.53921568627 185.10300800000002 L 278.87908496732 173.52555999999998 L 282.21895424837 194.91718400000002 L 285.55882352941 179.520152 L 288.89869281046 194.853544 L 292.2385620915 142.58349600000003 L 295.57843137255 181.730976 L 298.91830065359 166.80192000000002 L 302.25816993464 146.662672 L 305.59803921569 194.86893600000002 L 308.93790849673 183.7346 L 312.27777777778 163.60512 L 315.61764705882 143.516784 L 318.95751633987 139.77327200000002 L 322.29738562092 146.86010399999998 L 325.63725490196 150.19217600000002 L 328.97712418301 182.67965600000002 L 332.31699346405 132.878248 L 335.6568627451 165.864192 L 338.99673202614 181.68391200000002 L 342.33660130719 142.932776 L 345.67647058824 159.640496 L 349.01633986928 143.61624 L 352.35620915033 158.691816 L 355.69607843137 151.011208 L 359.03594771242 163.02081600000002 L 362.37581699346 118.594176 L 365.71568627451 135.188528 L 369.05555555556 144.602216 L 372.3954248366 144.25708 L 375.73529411765 126.738912 L 379.07516339869 128.830744 L 382.41503267974 135.136136 L 385.75490196078 89.325696 L 389.09477124183 92.19659999999999 L 392.43464052288 91.65936000000002 L 395.77450980392 88.61322399999997 L 399.11437908497 69.66833599999998 L 402.45424836601 63.647695999999996 L 405.79411764706 65.50924 L 409.1339869281 58.228823999999975 L 412.47385620915 54.47140000000002 L 415.8137254902 49.84403200000003 L 419.15359477124 52.4512 L 422.49346405229 50.490200000000016 L 425.83333333333 51.26631200000003 L 429.17320261438 48.40517599999998 L 432.51307189542 50.53726400000002 L 435.85294117647 47.51303199999998 L 439.19281045752 51.82841600000003 L 442.53267973856 48.47828799999999 L 445.87254901961 49.91596000000001 L 449.21241830065 48.38297600000001 L 452.5522875817 48.92021599999998 L 455.89215686275 47.05038400000004 L 459.23202614379 48.45342400000001 L 462.57189542484 43.67124799999999 L 465.91176470588 44.51247999999998 L 469.25163398693 43.618855999999994 L 472.59150326797 46.32548 L 475.93137254902 41.906496000000004 L 479.27124183007 40.64997599999998 L 482.61111111111 45.22761600000001 L 485.95098039216 42.010096000000004 L 489.2908496732 40.64109600000003 L 492.63071895425 41.31390399999998 L 495.97058823529 39.14599999999996 L 499.31045751634 35.531248000000005 L 502.65032679739 39.350832000000025 L 505.99019607843 68.40175199999999" class="highcharts-graph" stroke="#7cb5ec" stroke-width="2" stroke-linejoin="round" stroke-linecap="round"></path></g><g class="highcharts-markers highcharts-series-0 highcharts-line-series highcharts-color-undefined " transform="translate(79,47) scale(1 1)" width="296" height="511" clip-path="none"></g><g class="highcharts-series highcharts-series-1 highcharts-line-series highcharts-color-undefined " transform="translate(79,47) scale(1 1)" width="296" height="511" clip-path="url(#highcharts-7m11rbd-507)"><path fill="none" d="M 5.0098039215686 83.67179999999999 L 8.3496732026144 150.746288 L 11.68954248366 142.101904 L 15.029411764706 151.06300800000002 L 18.369281045752 197.746056 L 21.709150326797 153.002104 L 25.049019607843 141.805608 L 28.388888888889 149.122136 L 31.728758169935 97.93248799999998 L 35.06862745098 162.12867200000002 L 38.408496732026 125.831376 L 41.748366013072 151.968472 L 45.088235294118 130.263384 L 48.428104575163 130.778128 L 51.767973856209 135.75359200000003 L 55.107843137255 143.237656 L 58.447712418301 143.732568 L 61.787581699346 149.568208 L 65.127450980392 144.016432 L 68.467320261438 145.937472 L 71.807189542484 140.969112 L 75.147058823529 142.840128 L 78.486928104575 148.963776 L 81.826797385621 145.87945600000003 L 85.166666666667 147.411552 L 88.506535947712 144.18929599999998 L 91.846405228758 141.60876800000003 L 95.186274509804 145.80368 L 98.52614379085 141.80442399999998 L 101.8660130719 150.338104 L 105.20588235294 142.84072 L 108.54575163399 143.913128 L 111.88562091503 143.882048 L 115.22549019608 145.93984 L 118.56535947712 146.50372 L 121.90522875817 143.53928 L 125.24509803922 142.94728 L 128.58496732026 143.03608000000003 L 131.92483660131 140.775824 L 135.26470588235 143.150336 L 138.6045751634 141.40423199999998 L 141.94444444444 144.96452 L 145.28431372549 144.738672 L 148.62418300654 147.435528 L 151.96405228758 143.096464 L 155.30392156863 141.71592 L 158.64379084967 142.759616 L 161.98366013072 143.84652799999998 L 165.32352941176 144.936104 L 168.66339869281 143.57332 L 172.00326797386 142.67496000000003 L 175.3431372549 144.987312 L 178.68300653595 141.680104 L 182.02287581699 144.821552 L 185.36274509804 144.70936799999998 L 188.70261437908 142.978656 L 192.04248366013 142.38784 L 195.38235294118 143.570656 L 198.72222222222 144.812376 L 202.06209150327 142.29519200000001 L 205.40196078431 144.372816 L 208.74183006536 144.447704 L 212.08169934641 142.26352000000003 L 215.42156862745 142.67792 L 218.7614379085 143.78466400000002 L 222.10130718954 145.955232 L 225.44117647059 144.765016 L 228.78104575163 144.642176 L 232.12091503268 141.36989600000004 L 235.46078431373 143.211312 L 238.80065359477 143.962264 L 242.14052287582 143.72398400000003 L 245.48039215686 147.68032000000002 L 248.82026143791 143.491624 L 252.16013071895 142.82799200000002 L 255.5 142.24427999999997 L 258.83986928105 143.578352 L 262.17973856209 145.81699999999998 L 265.51960784314 144.507496 L 268.85947712418 146.304216 L 272.19934640523 142.958232 L 275.53921568627 142.724096 L 278.87908496732 143.73908 L 282.21895424837 144.03952 L 285.55882352941 144.676216 L 288.89869281046 145.71576800000003 L 292.2385620915 142.0282 L 295.57843137255 144.989976 L 298.91830065359 144.02916000000002 L 302.25816993464 144.32664 L 305.59803921569 146.73548799999998 L 308.93790849673 144.228664 L 312.27777777778 142.453552 L 315.61764705882 144.275136 L 318.95751633987 145.2768 L 322.29738562092 144.522592 L 325.63725490196 146.123064 L 328.97712418301 143.73049600000002 L 332.31699346405 146.569136 L 335.6568627451 141.953016 L 338.99673202614 147.17712 L 342.33660130719 144.86417600000001 L 345.67647058824 144.623232 L 349.01633986928 143.704152 L 352.35620915033 145.779704 L 355.69607843137 141.117704 L 359.03594771242 144.512232 L 362.37581699346 141.856224 L 365.71568627451 146.324936 L 369.05555555556 143.292712 L 372.3954248366 144.12980000000002 L 375.73529411765 142.528144 L 379.07516339869 143.075448 L 382.41503267974 144.71913600000002 L 385.75490196078 143.72043200000002 L 389.09477124183 145.65716 L 392.43464052288 145.23832000000002 L 395.77450980392 144.52703200000002 L 399.11437908497 145.285384 L 402.45424836601 144.02768 L 405.79411764706 142.932776 L 409.1339869281 142.22770400000002 L 412.47385620915 143.51412 L 415.8137254902 145.70925599999998 L 419.15359477124 142.120552 L 422.49346405229 144.21208800000002 L 425.83333333333 145.268216 L 429.17320261438 143.657976 L 432.51307189542 143.936216 L 435.85294117647 140.27736000000002 L 439.19281045752 142.497952 L 442.53267973856 145.737376 L 445.87254901961 143.72250400000001 L 449.21241830065 144.055504 L 452.5522875817 143.753288 L 455.89215686275 141.68928 L 459.23202614379 146.318128 L 462.57189542484 144.37666400000003 L 465.91176470588 144.372224 L 469.25163398693 143.84534399999998 L 472.59150326797 144.834576 L 475.93137254902 144.544496 L 479.27124183007 142.61901600000002 L 482.61111111111 145.78296 L 485.95098039216 143.33089600000002 L 489.2908496732 145.14774400000002 L 492.63071895425 145.951976 L 495.97058823529 142.922416 L 499.31045751634 145.920008 L 502.65032679739 147.98431200000002 L 505.99019607843 185.581048" class="highcharts-graph" stroke="#434348" stroke-width="2" stroke-linejoin="round" stroke-linecap="round"></path></g><g class="highcharts-markers highcharts-series-1 highcharts-line-series highcharts-color-undefined " transform="translate(79,47) scale(1 1)" width="296" height="511" clip-path="none"></g><g class="highcharts-series highcharts-series-2 highcharts-line-series highcharts-color-undefined " transform="translate(79,47) scale(1 1)" width="296" height="511" clip-path="url(#highcharts-7m11rbd-507)"><path fill="none" d="M 5.0098039215686 95.58964799999998 L 8.3496732026144 165.251768 L 11.68954248366 154.96932 L 15.029411764706 164.733768 L 18.369281045752 203.60981600000002 L 21.709150326797 163.968608 L 25.049019607843 151.38416800000002 L 28.388888888889 156.10625600000003 L 31.728758169935 103.871432 L 35.06862745098 159.528904 L 38.408496732026 134.34729599999997 L 41.748366013072 155.347312 L 45.088235294118 135.587832 L 48.428104575163 131.52671200000003 L 51.767973856209 139.39616800000002 L 55.107843137255 146.540424 L 58.447712418301 147.38224800000003 L 61.787581699346 151.65412 L 65.127450980392 144.791656 L 68.467320261438 146.891184 L 71.807189542484 141.617352 L 75.147058823529 142.490848 L 78.486928104575 148.985976 L 81.826797385621 146.07452 L 85.166666666667 148.77996000000002 L 88.506535947712 144.89436800000001 L 91.846405228758 143.46409599999998 L 95.186274509804 147.808488 L 98.52614379085 142.95615999999998 L 101.8660130719 150.50297600000002 L 105.20588235294 143.372632 L 108.54575163399 142.237768 L 111.88562091503 143.397496 L 115.22549019608 145.10808 L 118.56535947712 146.23939200000004 L 121.90522875817 145.017208 L 125.24509803922 143.719544 L 128.58496732026 144.637144 L 131.92483660131 143.06479199999998 L 135.26470588235 144.45480799999999 L 138.6045751634 143.77904 L 141.94444444444 142.966816 L 145.28431372549 144.53384 L 148.62418300654 147.977208 L 151.96405228758 144.89347999999998 L 155.30392156863 143.836168 L 158.64379084967 143.81604000000002 L 161.98366013072 144.867136 L 165.32352941176 146.46553600000001 L 168.66339869281 144.437344 L 172.00326797386 144.38258399999998 L 175.3431372549 144.465168 L 178.68300653595 141.290272 L 182.02287581699 145.76224 L 185.36274509804 143.564144 L 188.70261437908 143.78939999999997 L 192.04248366013 142.14008800000002 L 195.38235294118 142.08532799999998 L 198.72222222222 143.405488 L 202.06209150327 141.736344 L 205.40196078431 144.39472 L 208.74183006536 142.789216 L 212.08169934641 142.428984 L 215.42156862745 141.799392 L 218.7614379085 142.644472 L 222.10130718954 145.10216 L 225.44117647059 144.906504 L 228.78104575163 146.593704 L 232.12091503268 142.385768 L 235.46078431373 142.24309599999998 L 238.80065359477 144.625304 L 242.14052287582 142.579648 L 245.48039215686 144.92663199999998 L 248.82026143791 141.41903200000002 L 252.16013071895 142.312656 L 255.5 140.892744 L 258.83986928105 143.55171199999998 L 262.17973856209 144.33818399999998 L 265.51960784314 144.11618399999998 L 268.85947712418 145.041184 L 272.19934640523 142.58112800000004 L 275.53921568627 143.226704 L 278.87908496732 141.539504 L 282.21895424837 142.18656000000001 L 285.55882352941 143.820776 L 288.89869281046 145.635848 L 292.2385620915 141.425544 L 295.57843137255 143.721024 L 298.91830065359 145.588784 L 302.25816993464 145.02815999999999 L 305.59803921569 145.983944 L 308.93790849673 141.10112800000002 L 312.27777777778 143.630744 L 315.61764705882 142.77974400000002 L 318.95751633987 141.974624 L 322.29738562092 143.80716 L 325.63725490196 143.475048 L 328.97712418301 140.978584 L 332.31699346405 143.66212000000002 L 335.6568627451 139.58679200000003 L 338.99673202614 144.39649599999998 L 342.33660130719 143.295376 L 345.67647058824 143.40992799999998 L 349.01633986928 141.575912 L 352.35620915033 142.431648 L 355.69607843137 137.99372 L 359.03594771242 143.728128 L 362.37581699346 139.234552 L 365.71568627451 144.32545599999997 L 369.05555555556 143.893888 L 372.3954248366 142.638552 L 375.73529411765 140.855152 L 379.07516339869 143.728128 L 382.41503267974 143.615352 L 385.75490196078 141.45899200000002 L 389.09477124183 141.52944 L 392.43464052288 144.121512 L 395.77450980392 145.067232 L 399.11437908497 141.694608 L 402.45424836601 142.84841600000001 L 405.79411764706 140.931224 L 409.1339869281 141.269848 L 412.47385620915 143.67988 L 415.8137254902 142.56248 L 419.15359477124 142.126768 L 422.49346405229 141.43916000000002 L 425.83333333333 145.108376 L 429.17320261438 144.876608 L 432.51307189542 142.11048799999998 L 435.85294117647 140.10804800000003 L 439.19281045752 141.469648 L 442.53267973856 144.48973600000002 L 445.87254901961 142.88956000000002 L 449.21241830065 137.9212 L 452.5522875817 139.88812 L 455.89215686275 140.35372800000002 L 459.23202614379 144.85292800000002 L 462.57189542484 140.18293599999998 L 465.91176470588 142.926264 L 469.25163398693 138.404864 L 472.59150326797 141.210352 L 475.93137254902 141.73101600000004 L 479.27124183007 142.077632 L 482.61111111111 142.26943999999997 L 485.95098039216 144.944984 L 489.2908496732 144.92633600000002 L 492.63071895425 147.349984 L 495.97058823529 142.58823199999998 L 499.31045751634 144.16058400000003 L 502.65032679739 145.837128 L 505.99019607843 194.42464" class="highcharts-graph" stroke="#90ed7d" stroke-width="2" stroke-linejoin="round" stroke-linecap="round"></path></g><g class="highcharts-markers highcharts-series-2 highcharts-line-series highcharts-color-undefined " transform="translate(79,47) scale(1 1)" width="296" height="511" clip-path="none"></g></g><text x="330" text-anchor="middle" class="highcharts-title" style="color:#333333;font-size:18px;fill:#333333;width:536px;" y="24"><tspan>Fastp: Read GC Content</tspan></text><g class="highcharts-axis-labels highcharts-xaxis-labels "><text x="80.66993464052288" style="color:#666666;cursor:default;font-size:11px;fill:#666666;width:75px;text-overflow:clip;" text-anchor="middle" transform="translate(0,0)" y="362" opacity="1"><tspan>0</tspan></text><text x="164.16666666666669" style="color:#666666;cursor:default;font-size:11px;fill:#666666;width:75px;text-overflow:clip;" text-anchor="middle" transform="translate(0,0)" y="362" opacity="1"><tspan>25</tspan></text><text x="247.66339869281046" style="color:#666666;cursor:default;font-size:11px;fill:#666666;width:75px;text-overflow:clip;" text-anchor="middle" transform="translate(0,0)" y="362" opacity="1"><tspan>50</tspan></text><text x="331.1601307189543" style="color:#666666;cursor:default;font-size:11px;fill:#666666;width:75px;text-overflow:clip;" text-anchor="middle" transform="translate(0,0)" y="362" opacity="1"><tspan>75</tspan></text><text x="414.65686274509807" style="color:#666666;cursor:default;font-size:11px;fill:#666666;width:75px;text-overflow:clip;" text-anchor="middle" transform="translate(0,0)" y="362" opacity="1"><tspan>100</tspan></text><text x="498.15359477124184" style="color:#666666;cursor:default;font-size:11px;fill:#666666;width:75px;text-overflow:clip;" text-anchor="middle" transform="translate(0,0)" y="362" opacity="1"><tspan>125</tspan></text><text x="579.0249996185303" style="color:#666666;cursor:default;font-size:11px;fill:#666666;width:75px;text-overflow:clip;" text-anchor="middle" transform="translate(0,0)" y="362" opacity="1"><tspan>150</tspan></text></g><g class="highcharts-axis-labels highcharts-yaxis-labels "><text x="64" style="color:#666666;cursor:default;font-size:11px;fill:#666666;width:188px;text-overflow:clip;" text-anchor="end" transform="translate(0,0)" y="347" opacity="1"><tspan>0%</tspan></text><text x="64" style="color:#666666;cursor:default;font-size:11px;fill:#666666;width:188px;text-overflow:clip;" text-anchor="end" transform="translate(0,0)" y="273" opacity="1"><tspan>25%</tspan></text><text x="64" style="color:#666666;cursor:default;font-size:11px;fill:#666666;width:188px;text-overflow:clip;" text-anchor="end" transform="translate(0,0)" y="199" opacity="1"><tspan>50%</tspan></text><text x="64" style="color:#666666;cursor:default;font-size:11px;fill:#666666;width:188px;text-overflow:clip;" text-anchor="end" transform="translate(0,0)" y="125" opacity="1"><tspan>75%</tspan></text><text x="64" style="color:#666666;cursor:default;font-size:11px;fill:#666666;width:188px;text-overflow:clip;" text-anchor="end" transform="translate(0,0)" y="51" opacity="1"><tspan>100%</tspan></text></g><text x="590" class="highcharts-credits" text-anchor="end" style="cursor:pointer;color:#999999;font-size:9px;fill:#999999;" y="395"><tspan>Created with MultiQC</tspan></text></svg>