<svg xmlns:xlink="http://www.w3.org/1999/xlink" version="1.1" class="highcharts-root" style="font-family:&quot;lucida grande&quot;, &quot;lucida sans unicode&quot;, arial, helvetica, sans-serif;font-size:12px;" xmlns="http://www.w3.org/2000/svg" width="600" height="400"><desc>Created with Highcharts 5.0.6</desc><defs><clipPath id="highcharts-7m11rbd-559"><rect x="0" y="0" width="525" height="296" fill="none"></rect></clipPath></defs><rect fill="#ffffff" class="highcharts-background" x="0" y="0" width="600" height="400" rx="0" ry="0"></rect><rect fill="none" class="highcharts-plot-background" x="65" y="47" width="525" height="296"></rect><g class="highcharts-grid highcharts-xaxis-grid "><path fill="none" class="highcharts-grid-line" d="M 64.5 47 L 64.5 343" opacity="1"></path><path fill="none" class="highcharts-grid-line" d="M 169.5 47 L 169.5 343" opacity="1"></path><path fill="none" class="highcharts-grid-line" d="M 274.5 47 L 274.5 343" opacity="1"></path><path fill="none" class="highcharts-grid-line" d="M 379.5 47 L 379.5 343" opacity="1"></path><path fill="none" class="highcharts-grid-line" d="M 484.5 47 L 484.5 343" opacity="1"></path><path fill="none" class="highcharts-grid-line" d="M 589.5 47 L 589.5 343" opacity="1"></path></g><g class="highcharts-grid highcharts-yaxis-grid "><path fill="none" stroke="#e6e6e6" stroke-width="1" class="highcharts-grid-line" d="M 65 343.5 L 590 343.5" opacity="1"></path><path fill="none" stroke="#e6e6e6" stroke-width="1" class="highcharts-grid-line" d="M 65 244.5 L 590 244.5" opacity="1"></path><path fill="none" stroke="#e6e6e6" stroke-width="1" class="highcharts-grid-line" d="M 65 146.5 L 590 146.5" opacity="1"></path><path fill="none" stroke="#e6e6e6" stroke-width="1" class="highcharts-grid-line" d="M 65 46.5 L 590 46.5" opacity="1"></path></g><rect fill="none" class="highcharts-plot-border" x="65" y="47" width="525" height="296"></rect><g class="highcharts-axis highcharts-xaxis "><path fill="none" class="highcharts-tick" stroke="#ccd6eb" stroke-width="1" d="M 64.5 343 L 64.5 353" opacity="1"></path><path fill="none" class="highcharts-tick" stroke="#ccd6eb" stroke-width="1" d="M 169.5 343 L 169.5 353" opacity="1"></path><path fill="none" class="highcharts-tick" stroke="#ccd6eb" stroke-width="1" d="M 274.5 343 L 274.5 353" opacity="1"></path><path fill="none" class="highcharts-tick" stroke="#ccd6eb" stroke-width="1" d="M 379.5 343 L 379.5 353" opacity="1"></path><path fill="none" class="highcharts-tick" stroke="#ccd6eb" stroke-width="1" d="M 484.5 343 L 484.5 353" opacity="1"></path><path fill="none" class="highcharts-tick" stroke="#ccd6eb" stroke-width="1" d="M 590.5 343 L 590.5 353" opacity="1"></path><text x="327.5" text-anchor="middle" transform="translate(0,0)" class="highcharts-axis-title" style="color:#666666;fill:#666666;" y="381.75"><tspan>% GC</tspan></text><path fill="none" class="highcharts-axis-line" stroke="#ccd6eb" stroke-width="1" d="M 65 343.5 L 590 343.5"></path></g><g class="highcharts-axis highcharts-yaxis "><text x="25" text-anchor="middle" transform="translate(0,0) rotate(270 25 195)" class="highcharts-axis-title" style="color:#666666;fill:#666666;" y="195">Percentage</text><path fill="none" class="highcharts-axis-line" d="M 65 47 L 65 343"></path></g><g class="highcharts-series-group"><g class="highcharts-series highcharts-series-0 highcharts-line-series highcharts-color-undefined " transform="translate(65,47) scale(1 1)" width="296" height="525" clip-path="url(#highcharts-7m11rbd-559)"><path fill="none" d="M 0 296 L 5.25 296 L 10.5 296 L 15.75 295.9861908738471 L 21 295.98158783179616 L 26.25 295.995396957949 L 31.5 296 L 36.75 295.99079391589805 L 42 295.99079391589805 L 47.25 295.995396957949 L 52.5 295.9861908738471 L 57.75 295.9769847897452 L 63 295.98158783179616 L 68.25 295.9769847897452 L 73.5 295.9309543692355 L 78.75 295.9125422010316 L 84 295.861908738471 L 89.25 295.7928631077065 L 94.5 295.7560387712988 L 99.75 295.6685809723304 L 105 295.5074745005466 L 110.25 295.34176498671184 L 115.5 295.2358950195396 L 120.75 295.17605547287707 L 126 295.13923113646933 L 131.25 295.20367372518285 L 136.5 295.2174828513357 L 141.75 295.04717029545 L 147 293.2289686853183 L 152.25 292.04598687822 L 157.5 291.5948887572253 L 162.75 284.8422260684578 L 168 279.28635431294157 L 173.25 279.78808589649685 L 178.5 277.4037101140963 L 183.75 260.1008750445142 L 189 249.29753535089642 L 194.25 253.28837280908417 L 199.5 248.97071936527783 L 204.75 237.82215151783757 L 210 175.9664724369531 L 215.25 113.92667167402996 L 220.5 125.379040296834 L 225.75 91.7584211565765 L 231 16.90835436581432 L 236.25 59.80410323876879 L 241.5 130.96253030465604 L 246.75 172.80878558999024 L 252 228.487182238478 L 257.25 247.77853147407757 L 262.5 262.53588428947535 L 267.75 282.2138890573561 L 273 289.2933677317422 L 278.25 292.50168804126565 L 283.5 293.52356337658017 L 288.75 294.19560751602125 L 294 295.18526155697896 L 299.25 295.31874977645697 L 304.5 295.4384288697821 L 309.75 295.53969579490337 L 315 295.60874142566786 L 320.25 295.728420518993 L 325.5 295.78826006565555 L 330.75 295.9125422010316 L 336 295.96317566359227 L 341.25 295.94016045333746 L 346.5 295.94936653743935 L 351.75 295.9769847897452 L 357 295.99079391589805 L 362.25 295.995396957949 L 367.5 295.99079391589805 L 372.75 295.9861908738471 L 378 295.99079391589805 L 383.25 295.995396957949 L 388.5 296 L 393.75 296 L 399 296 L 404.25 296 L 409.5 296 L 414.75 296 L 420 296 L 425.25 296 L 430.5 296 L 435.75 296 L 441 296 L 446.25 296 L 451.5 296 L 456.75 296 L 462 296 L 467.25 296 L 472.5 296 L 477.75 296 L 483 296 L 488.25 296 L 493.5 296 L 498.75 296 L 504 296 L 509.25 296 L 514.5 296 L 519.75 296 L 525 296" class="highcharts-graph" stroke="#d9534f" stroke-width="2" stroke-linejoin="round" stroke-linecap="round"></path></g><g class="highcharts-markers highcharts-series-0 highcharts-line-series highcharts-color-undefined " transform="translate(65,47) scale(1 1)" width="296" height="525" clip-path="none"></g><g class="highcharts-series highcharts-series-1 highcharts-line-series highcharts-color-undefined " transform="translate(65,47) scale(1 1)" width="296" height="525" clip-path="url(#highcharts-7m11rbd-559)"><path fill="none" d="M 0 295.5213327549023 L 5.25 295.71003811114275 L 10.5 295.9263588853696 L 15.75 295.9493717336916 L 21 295.9585768730204 L 26.25 295.953974303356 L 31.5 295.9447691640272 L 36.75 295.9493717336916 L 42 295.9401665943628 L 47.25 295.930961455034 L 52.5 295.9401665943628 L 57.75 295.9263588853696 L 63 295.8757306190612 L 68.25 295.86192291006796 L 73.5 295.80208950443074 L 78.75 295.6087815785259 L 84 295.3786530953058 L 89.25 295.12551176376377 L 94.5 294.86776786255734 L 99.75 294.69287021531005 L 105 294.4443314534324 L 110.25 294.1083438679311 L 115.5 293.8782153847111 L 120.75 293.6757023194774 L 126 293.53762522954537 L 131.25 293.01293228780366 L 136.5 292.6631369933092 L 141.75 291.86228987170335 L 147 291.0752504590908 L 152.25 291.23173782768043 L 157.5 290.70704488593867 L 162.75 285.87434673831746 L 168 281.3454181885468 L 173.25 275.5277701327437 L 178.5 269.8021734702287 L 183.75 267.7264145515838 L 189 264.2698847336185 L 194.25 260.45895705149434 L 199.5 250.52661171571668 L 204.75 246.1863885221864 L 210 254.42038565180005 L 215.25 249.82702112672771 L 220.5 229.11085506725817 L 225.75 185.3818406857829 L 231 174.30345550356932 L 236.25 207.13818748940707 L 241.5 117.37427132459158 L 246.75 28.089022404873788 L 252 86.93747813390675 L 257.25 131.61001929658428 L 262.5 145.91940838320747 L 267.75 182.99310702995868 L 273 235.2736958478913 L 278.25 271.7812784259212 L 283.5 280.6872507265374 L 288.75 289.68987699010603 L 294 294.8631652928929 L 299.25 295.39246080429905 L 304.5 295.5949738695327 L 309.75 295.6824226931563 L 315 295.7330509594647 L 320.25 295.79288436510194 L 325.5 295.79288436510194 L 330.75 295.8757306190612 L 336 295.9585768730204 L 341.25 295.9677820123492 L 346.5 295.9723845820136 L 351.75 295.9861922910068 L 357 295.9953974303356 L 362.25 295.9953974303356 L 367.5 295.9907948606712 L 372.75 295.9953974303356 L 378 295.9953974303356 L 383.25 295.9953974303356 L 388.5 296 L 393.75 295.9953974303356 L 399 295.9953974303356 L 404.25 296 L 409.5 296 L 414.75 295.9907948606712 L 420 295.9861922910068 L 425.25 295.9953974303356 L 430.5 296 L 435.75 295.9953974303356 L 441 295.9953974303356 L 446.25 295.9953974303356 L 451.5 295.9907948606712 L 456.75 295.9907948606712 L 462 295.9861922910068 L 467.25 295.9907948606712 L 472.5 296 L 477.75 296 L 483 296 L 488.25 295.9953974303356 L 493.5 295.9907948606712 L 498.75 295.9861922910068 L 504 295.9907948606712 L 509.25 295.9953974303356 L 514.5 295.976987151678 L 519.75 295.9723845820136 L 525 295.953974303356" class="highcharts-graph" stroke="#d9534f" stroke-width="2" stroke-linejoin="round" stroke-linecap="round"></path></g><g class="highcharts-markers highcharts-series-1 highcharts-line-series highcharts-color-undefined " transform="translate(65,47) scale(1 1)" width="296" height="525" clip-path="none"></g><g class="highcharts-series highcharts-series-2 highcharts-line-series highcharts-color-undefined " transform="translate(65,47) scale(1 1)" width="296" height="525" clip-path="url(#highcharts-7m11rbd-559)"><path fill="none" d="M 0 295.88510139147166 L 5.25 295.91562133436196 L 10.5 295.9102354620872 L 15.75 295.8581720300978 L 21 295.8061085981084 L 26.25 295.77558865521803 L 31.5 295.7217299324704 L 36.75 295.60862661470026 L 42 295.55297260119437 L 47.25 295.51706678602926 L 52.5 295.4344834111495 L 57.75 295.3393330009619 L 63 295.199300321818 L 68.25 295.14903218058686 L 73.5 295.14005572679554 L 78.75 295.04490531660804 L 84 294.9246208358049 L 89.25 294.80433635500174 L 94.5 294.6750754204074 L 99.75 294.560176811879 L 105 294.51349925216437 L 110.25 294.3932147713612 L 115.5 294.2334338938765 L 120.75 294.1328976114142 L 126 293.90310039435747 L 131.25 293.6625314327512 L 136.5 293.4147813081119 L 141.75 293.19036996333 L 147 293.07726664555986 L 152.25 292.63382982827073 L 157.5 292.0503603318377 L 162.75 291.23888890910615 L 168 290.14555683732846 L 173.25 289.20661977076077 L 178.5 288.1940757831046 L 183.75 287.12767307270076 L 189 285.4724149935891 L 194.25 284.01104831636906 L 199.5 282.85308577729415 L 204.75 279.9949828901513 L 210 276.0453432219889 L 215.25 271.2788462588203 L 220.5 265.1748576807512 L 225.75 260.7386942171016 L 231 256.44615401411244 L 236.25 249.76587710264332 L 241.5 240.05694468199698 L 246.75 227.94591322680466 L 252 214.7361638275599 L 257.25 201.14401749680667 L 262.5 193.63790683653997 L 267.75 190.30943777073406 L 273 184.66145304526196 L 278.25 180.53946546430706 L 283.5 174.87352783125237 L 288.75 168.8952096062612 L 294 170.4966089626252 L 299.25 185.4513809788944 L 304.5 205.255233333212 L 309.75 220.10049261322766 L 315 233.57235446317773 L 320.25 244.4841316918553 L 325.5 254.11766190065492 L 330.75 265.00250976795866 L 336 275.596520532425 L 341.25 283.10442648344997 L 346.5 287.0343179532715 L 351.75 288.1904852015881 L 357 289.62851309895086 L 362.25 291.0144775643242 L 367.5 292.0288168427386 L 372.75 292.8079730318215 L 378 293.1149677514832 L 383.25 293.9084862666322 L 388.5 294.6499413497918 L 393.75 294.9389831618709 L 399 295.08440171328965 L 404.25 295.2280249739501 L 409.5 295.4739798078311 L 414.75 295.70557231564607 L 420 295.7809745274928 L 425.25 295.85278615782306 L 430.5 295.8940778452629 L 435.75 295.9210072066368 L 441 295.9353695327028 L 446.25 295.94793656801056 L 451.5 295.96588947559314 L 456.75 295.97666122014266 L 462 295.9820470924174 L 467.25 295.97307063862615 L 472.5 295.96948005710965 L 477.75 295.9838423831757 L 483 295.99461412772524 L 488.25 295.992818836967 L 493.5 295.992818836967 L 498.75 295.99820470924175 L 504 295.99820470924175 L 509.25 295.9964094184835 L 514.5 295.99820470924175 L 519.75 296 L 525 296" class="highcharts-graph" stroke="#d9534f" stroke-width="2" stroke-linejoin="round" stroke-linecap="round"></path></g><g class="highcharts-markers highcharts-series-2 highcharts-line-series highcharts-color-undefined " transform="translate(65,47) scale(1 1)" width="296" height="525" clip-path="none"></g><g class="highcharts-series highcharts-series-3 highcharts-line-series highcharts-color-undefined " transform="translate(65,47) scale(1 1)" width="296" height="525" clip-path="url(#highcharts-7m11rbd-559)"><path fill="none" d="M 0 295.85271084977074 L 5.25 295.87606156870953 L 10.5 295.8545070589199 L 15.75 295.80241699359493 L 21 295.78265869295444 L 26.25 295.71081032698896 L 31.5 295.59405673229503 L 36.75 295.5240045754787 L 42 295.49706143824164 L 47.25 295.4216206539779 L 52.5 295.34438366056503 L 57.75 295.2599618305556 L 63 295.20068692863407 L 68.25 295.18631725544094 L 73.5 295.09830300713327 L 78.75 295.0282508503169 L 84 294.98693803988675 L 89.25 294.83426026221014 L 94.5 294.7067294126214 L 99.75 294.5378857526025 L 105 294.4247245762069 L 110.25 294.4103549030138 L 115.5 294.29719372661816 L 120.75 294.1552932038364 L 126 293.9181935961503 L 131.25 293.7457575178331 L 136.5 293.56613660291947 L 141.75 293.2338379103291 L 147 292.93925960987065 L 152.25 292.5135580415252 L 157.5 291.7699274537825 L 162.75 291.04785137582945 L 168 290.33655255277125 L 173.25 288.98041464517286 L 178.5 287.6799592211977 L 183.75 287.05847085559634 L 189 285.52450824223337 L 194.25 283.81092471395675 L 199.5 282.6433887670177 L 204.75 280.1538428863139 L 210 276.4051543920651 L 215.25 271.26260759808605 L 220.5 264.7064442037362 L 225.75 260.79609688606513 L 231 256.83006708477075 L 236.25 249.21593650157928 L 241.5 239.04759650831505 L 246.75 227.2087820063535 L 252 215.1651996613903 L 257.25 200.96616633746277 L 262.5 191.60073183386277 L 267.75 189.3698400706347 L 273 185.39303301444554 L 278.25 181.47011223273046 L 283.5 175.67733772676382 L 288.75 169.80014139078776 L 294 171.78495250058407 L 299.25 185.75766347172032 L 304.5 205.11181705367085 L 309.75 221.74650998382805 L 315 234.8390784718872 L 320.25 244.1272759820743 L 325.5 254.5614549294108 L 330.75 265.7698000200253 L 336 275.74055700688444 L 341.25 283.1337538647321 L 346.5 287.43028614946763 L 351.75 288.33557556063266 L 357 288.8313292857945 L 362.25 290.6760360819581 L 367.5 291.619045885255 L 372.75 292.3680651004451 L 378 293.22306065543427 L 383.25 293.9630988248787 L 388.5 294.6420658832525 L 393.75 295.0372318960626 L 399 295.23840732076593 L 404.25 295.35516091545986 L 409.5 295.50065385653994 L 414.75 295.57968705910196 L 420 295.658720261664 L 425.25 295.8006207844458 L 430.5 295.8832464053061 L 435.75 295.8994122876483 L 441 295.9281516340345 L 446.25 295.9461137255259 L 451.5 295.9281516340345 L 456.75 295.920966797438 L 462 295.93892888892935 L 467.25 295.9515023529733 L 472.5 295.96048339871896 L 477.75 295.9568909804207 L 483 295.9497061438242 L 488.25 295.9550947712716 L 493.5 295.9515023529733 L 498.75 295.9515023529733 L 504 295.9461137255259 L 509.25 295.9568909804207 L 514.5 295.96407581701726 L 519.75 295.9532985621224 L 525 295.6677013074097" class="highcharts-graph" stroke="#d9534f" stroke-width="2" stroke-linejoin="round" stroke-linecap="round"></path></g><g class="highcharts-markers highcharts-series-3 highcharts-line-series highcharts-color-undefined " transform="translate(65,47) scale(1 1)" width="296" height="525" clip-path="none"></g><g class="highcharts-series highcharts-series-4 highcharts-line-series highcharts-color-undefined " transform="translate(65,47) scale(1 1)" width="296" height="525" clip-path="url(#highcharts-7m11rbd-559)"><path fill="none" d="M 0 295.89894271610075 L 5.25 295.94794018708217 L 10.5 295.99693765806364 L 15.75 295.99693765806364 L 21 295.99418155032095 L 26.25 295.9920379109655 L 31.5 295.99234414515917 L 36.75 295.99418155032095 L 42 295.99418155032095 L 47.25 295.9911192083846 L 52.5 295.98866933483555 L 57.75 295.9846882903183 L 63 295.98223841676923 L 68.25 295.9733576251538 L 73.5 295.9595770864403 L 78.75 295.9485526554695 L 84 295.93048483804506 L 89.25 295.90445493158614 L 94.5 295.8747502148036 L 99.75 295.8349397696312 L 105 295.75807498702903 L 110.25 295.63037532828355 L 115.5 295.4809330417901 L 120.75 295.31985385593856 L 126 295.0969153629729 L 131.25 294.75423930029626 L 136.5 294.26640822983705 L 141.75 293.74458516388444 L 147 293.15998408823685 L 152.25 292.4210409789976 L 157.5 291.4138367161349 L 162.75 290.2483093751633 L 168 289.06593915354176 L 173.25 287.35684611886956 L 178.5 285.5613950415925 L 183.75 284.0158310663209 L 189 281.93956323348135 L 194.25 279.34085986630186 L 199.5 276.3391523002999 L 204.75 272.10822068105034 L 210 267.1579449409542 L 215.25 261.9467576678818 L 220.5 255.19858097695948 L 225.75 249.5458039966666 L 231 244.04675658157805 L 236.25 236.98468984218076 L 241.5 228.297438237167 L 246.75 217.6401820645047 L 252 206.64055606335944 L 257.25 196.10732473911898 L 262.5 189.8359546876851 L 267.75 186.79780525264061 L 273 184.3923356616443 L 278.25 183.8156966750312 L 283.5 181.09878690910895 L 288.75 180.28052914371847 L 294 186.2695512686217 L 299.25 201.0018658559737 L 304.5 220.50255307240317 L 309.75 236.07854286321728 L 315 248.28013807437662 L 320.25 257.34803878207765 L 325.5 265.11138182489714 L 330.75 273.14819200263196 L 336 280.12267576264986 L 341.25 284.49508757935837 L 346.5 287.2879434253019 L 351.75 288.9768250031942 L 357 290.009140469935 L 362.25 290.9961332760179 L 367.5 291.66617369168944 L 372.75 292.22688850023354 L 378 292.7076761842392 L 383.25 293.1517157650087 L 388.5 293.49806663800894 L 393.75 293.80766940777306 L 399 294.1304402478635 L 404.25 294.4094195982642 L 409.5 294.6207211918718 L 414.75 294.75975151578166 L 420 294.87336440161994 L 425.25 295.0120884913362 L 430.5 295.1413193210498 L 435.75 295.2285960662356 L 441 295.31005436174223 L 446.25 295.39151265724894 L 451.5 295.4720522501747 L 456.75 295.5146188030899 L 462 295.5581040585859 L 467.25 295.62639428376633 L 472.5 295.65885510829156 L 477.75 295.68029150184594 L 483 295.7069338766921 L 488.25 295.7032590663685 L 493.5 295.71734583927565 L 498.75 295.74735679025184 L 504 295.7550126450927 L 509.25 295.7335762515383 L 514.5 295.67753539410324 L 519.75 295.70540270572394 L 525 295.8563761631856" class="highcharts-graph" stroke="#f0ad4e" stroke-width="2" stroke-linejoin="round" stroke-linecap="round"></path></g><g class="highcharts-markers highcharts-series-4 highcharts-line-series highcharts-color-undefined " transform="translate(65,47) scale(1 1)" width="296" height="525" clip-path="none"></g><g class="highcharts-series highcharts-series-5 highcharts-line-series highcharts-color-undefined " transform="translate(65,47) scale(1 1)" width="296" height="525" clip-path="url(#highcharts-7m11rbd-559)"><path fill="none" d="M 0 295.91601798679676 L 5.25 295.95494395642015 L 10.5 295.9941764297414 L 15.75 295.9926439112523 L 21 295.9908048890653 L 26.25 295.9874333483893 L 31.5 295.9859008299002 L 36.75 295.9837553040154 L 42 295.97731872636115 L 47.25 295.96996263761343 L 52.5 295.9616870377722 L 57.75 295.95678297860707 L 63 295.9518789194419 L 68.25 295.936247230853 L 73.5 295.9126464461207 L 78.75 295.89456272794916 L 84 295.86667089144737 L 89.25 295.8280514255218 L 94.5 295.7851409078267 L 99.75 295.7109670129537 L 105 295.6223874442831 L 110.25 295.49672092817605 L 115.5 295.30730164292197 L 120.75 295.10807423933755 L 126 294.8690013550363 L 131.25 294.5165221025408 L 136.5 294.0426673857078 L 141.75 293.4587778413566 L 147 292.76883801755895 L 152.25 291.99399666946454 L 157.5 290.98682551842097 L 162.75 289.8463252588248 L 168 288.5412325134981 L 173.25 286.76657610310787 L 178.5 285.1175862088247 L 183.75 283.5507393055579 L 189 281.2853704749544 L 194.25 278.7423092941241 L 199.5 275.79711526175106 L 204.75 271.633569030535 L 210 266.8502723223226 L 215.25 261.419333300612 L 220.5 254.71303239226341 L 225.75 249.47427118908732 L 231 244.33328466551643 L 236.25 237.27603702316154 L 241.5 228.62221161885105 L 246.75 218.6639064766095 L 252 208.01382248838343 L 257.25 197.65828855376435 L 262.5 191.88896944965813 L 267.75 189.01427126778418 L 273 186.58921401061536 L 278.25 186.10555117545204 L 283.5 184.04462031129592 L 288.75 183.38900890165434 L 294 188.80584875326514 L 299.25 203.05275363543416 L 304.5 221.95698220601065 L 309.75 237.1549680625218 L 315 248.9633295248178 L 320.25 257.75140354877436 L 325.5 265.4538414750449 L 330.75 273.21880615567113 L 336 279.99376389233186 L 341.25 284.22136939639273 L 346.5 286.857607701361 L 351.75 288.5351024395416 L 357 289.4720842437839 L 362.25 290.3447002714836 L 367.5 290.9570946597322 L 372.75 291.5685695368874 L 378 292.09606240083934 L 383.25 292.4721424380671 L 388.5 292.7771136174001 L 393.75 293.0925059224591 L 399 293.38521695387925 L 404.25 293.6071256311025 L 409.5 293.8339383674909 L 414.75 294.0748502739791 L 420 294.2379102412205 L 425.25 294.3721588608666 L 430.5 294.49905139176497 L 435.75 294.59897159725494 L 441 294.70839341737747 L 446.25 294.8104591487523 L 451.5 294.90424928028585 L 456.75 294.95390287933304 L 462 295.0375783888385 L 467.25 295.13719209063066 L 472.5 295.1892977192604 L 477.75 295.2410968441924 L 483 295.28799190995915 L 488.25 295.3309024276543 L 493.5 295.3787170045145 L 498.75 295.4501323661071 L 504 295.50377051322596 L 509.25 295.5451485124319 L 514.5 295.6076752667877 L 519.75 295.69901336873863 L 525 295.4602469881352" class="highcharts-graph" stroke="#f0ad4e" stroke-width="2" stroke-linejoin="round" stroke-linecap="round"></path></g><g class="highcharts-markers highcharts-series-5 highcharts-line-series highcharts-color-undefined " transform="translate(65,47) scale(1 1)" width="296" height="525" clip-path="none"></g><g class="highcharts-series highcharts-series-6 highcharts-line-series highcharts-color-undefined " transform="translate(65,47) scale(1 1)" width="296" height="525" clip-path="url(#highcharts-7m11rbd-559)"><path fill="none" d="M 0 295.9911497214479 L 5.25 295.9911497214479 L 10.5 295.9889371518099 L 15.75 295.97344916434383 L 21 295.96017374651575 L 26.25 295.96238631615375 L 31.5 295.95796117687775 L 36.75 295.94468575904966 L 42 295.9203474930315 L 47.25 295.87388353063324 L 52.5 295.829632137873 L 57.75 295.8008687325788 L 63 295.7920184540268 L 68.25 295.77431789692264 L 73.5 295.7278539345244 L 78.75 295.67475226321204 L 84 295.64377628827987 L 89.25 295.6305008704518 L 94.5 295.6105877437097 L 99.75 295.6150128829857 L 105 295.54421065456927 L 110.25 295.24551375343754 L 115.5 294.6990090528483 L 120.75 290.8579881612575 L 126 286.9218267752321 L 131.25 285.94165842559227 L 136.5 288.0303241638767 L 141.75 288.48611350930736 L 147 269.5974065095892 L 152.25 237.2784018071312 L 157.5 217.39403847030707 L 162.75 193.60891486166582 L 168 187.13714867047736 L 173.25 206.46615702816018 L 178.5 221.05584122121883 L 183.75 191.624239896368 L 189 152.56796064616003 L 194.25 148.5720598799083 L 199.5 151.18952976167782 L 204.75 171.99210949827742 L 210 189.1992635731056 L 215.25 188.54655552989175 L 220.5 194.1819703979112 L 225.75 208.89113335142258 L 231 230.34863370087405 L 236.25 244.35419950949722 L 241.5 248.95634435656456 L 246.75 254.88160584716377 L 252 261.1962795940533 L 257.25 267.84283878664473 L 262.5 276.137762359556 L 267.75 285.401791433917 L 273 288.0037733282205 L 278.25 290.8624133005335 L 283.5 293.34934157366024 L 288.75 294.25649512524564 L 294 294.98221796651393 L 299.25 295.2012623606773 L 304.5 295.44907016013474 L 309.75 295.65041399719394 L 315 295.67475226321204 L 320.25 295.6946653899542 L 325.5 295.74776706126653 L 330.75 295.83848241642505 L 336 295.8871589484613 L 341.25 295.8805212395473 L 346.5 295.8893715180993 L 351.75 295.9026469359274 L 357 295.9137097841175 L 362.25 295.94026061977365 L 367.5 295.95796117687775 L 372.75 295.96017374651575 L 378 295.9668114554298 L 383.25 295.97344916434383 L 388.5 295.97566173398184 L 393.75 295.97787430361984 L 399 295.97566173398184 L 404.25 295.97344916434383 L 409.5 295.9800868732579 L 414.75 295.9911497214479 L 420 295.997787430362 L 425.25 296 L 430.5 296 L 435.75 296 L 441 296 L 446.25 296 L 451.5 296 L 456.75 296 L 462 296 L 467.25 296 L 472.5 296 L 477.75 296 L 483 296 L 488.25 296 L 493.5 296 L 498.75 296 L 504 296 L 509.25 296 L 514.5 296 L 519.75 296 L 525 296" class="highcharts-graph" stroke="#f0ad4e" stroke-width="2" stroke-linejoin="round" stroke-linecap="round"></path></g><g class="highcharts-markers highcharts-series-6 highcharts-line-series highcharts-color-undefined " transform="translate(65,47) scale(1 1)" width="296" height="525" clip-path="none"></g><g class="highcharts-series highcharts-series-7 highcharts-line-series highcharts-color-undefined " transform="translate(65,47) scale(1 1)" width="296" height="525" clip-path="url(#highcharts-7m11rbd-559)"><path fill="none" d="M 0 295.9737597666747 L 5.25 295.9737597666747 L 10.5 295.9518929055703 L 15.75 295.9125325555823 L 21 295.89722575280916 L 26.25 295.89722575280916 L 31.5 295.8928523805883 L 36.75 295.8928523805883 L 42 295.8338118556063 L 47.25 295.6698103973231 L 52.5 295.53860923069647 L 57.75 295.4926888223772 L 63 295.47082196127275 L 68.25 295.4773820196041 L 73.5 295.4730086473832 L 78.75 295.4183414946221 L 84 295.37898114463417 L 89.25 295.37460777241324 L 94.5 295.33306073631485 L 99.75 295.26308678078067 L 105 295.1690592780316 L 110.25 294.9569507253186 L 115.5 294.31406500884833 L 120.75 290.2555755878658 L 126 286.2779935529697 L 131.25 285.2961714893807 L 136.5 287.38008335263305 L 141.75 287.7124596414204 L 147 269.3311761970352 L 152.25 237.67014800392866 L 157.5 217.94186591551045 L 162.75 194.73019285315627 L 168 188.81083355218664 L 173.25 206.16000115244267 L 178.5 218.88651431522186 L 183.75 191.65571218187318 L 189 154.5214086543274 L 194.25 150.2814242861781 L 199.5 151.99141282454468 L 204.75 171.80497567127014 L 210 190.7810377376959 L 215.25 191.47640392081684 L 220.5 195.60049392511263 L 225.75 209.47501729587452 L 231 229.70623718969466 L 236.25 242.92038135510268 L 241.5 248.03504016742923 L 246.75 255.07179607083532 L 252 261.3650786966908 L 257.25 266.7574466450436 L 262.5 275.61133870622797 L 267.75 285.5454537059712 L 273 287.90707470524984 L 278.25 290.8547275821272 L 283.5 293.5006177757635 L 288.75 294.2790780310812 L 294 294.94383060865596 L 299.25 295.20623294190915 L 304.5 295.4839420779354 L 309.75 295.7091707473111 L 315 295.75509115563034 L 320.25 295.76165121396167 L 325.5 295.7857047611766 L 330.75 295.85130534448984 L 336 295.8928523805883 L 341.25 295.8950390666987 L 346.5 295.90159912503003 L 351.75 295.90815918336136 L 357 295.9190926139136 L 362.25 295.940959475018 L 367.5 295.9584529639016 L 372.75 295.960639650012 L 378 295.96719970834334 L 383.25 295.9737597666747 L 388.5 295.97594645278514 L 393.75 295.97813313889554 L 399 295.97594645278514 L 404.25 295.9737597666747 L 409.5 295.980319825006 L 414.75 295.9912532555582 L 420 295.99781331388954 L 425.25 296 L 430.5 296 L 435.75 296 L 441 296 L 446.25 296 L 451.5 296 L 456.75 296 L 462 296 L 467.25 296 L 472.5 296 L 477.75 296 L 483 296 L 488.25 296 L 493.5 296 L 498.75 296 L 504 296 L 509.25 295.9890665694478 L 514.5 295.9628263361225 L 519.75 295.9431461611285 L 525 295.9322127305763" class="highcharts-graph" stroke="#f0ad4e" stroke-width="2" stroke-linejoin="round" stroke-linecap="round"></path></g><g class="highcharts-markers highcharts-series-7 highcharts-line-series highcharts-color-undefined " transform="translate(65,47) scale(1 1)" width="296" height="525" clip-path="none"></g><g class="highcharts-series highcharts-series-8 highcharts-line-series highcharts-color-undefined " transform="translate(65,47) scale(1 1)" width="296" height="525" clip-path="url(#highcharts-7m11rbd-559)"><path fill="none" d="M 0 295.8954560719726 L 5.25 295.85399899706516 L 10.5 295.77108484725034 L 15.75 295.7134054386835 L 21 295.6214788812801 L 26.25 295.57281188030186 L 31.5 295.52234239780586 L 36.75 295.3204644678219 L 42 295.23214287345394 L 47.25 295.2213279843476 L 52.5 295.0987592411431 L 57.75 294.95636320124373 L 63 294.88606642205286 L 68.25 294.85362175473404 L 73.5 294.80134979072034 L 78.75 294.7346579745649 L 84 294.67337360296267 L 89.25 294.60848426832496 L 94.5 294.49312545119125 L 99.75 294.44085348717755 L 105 294.39939641227016 L 110.25 294.28043263210105 L 115.5 294.14704899979023 L 120.75 294.0280852196211 L 126 293.87126932758 L 131.25 293.71265095402117 L 136.5 293.4404762448464 L 141.75 293.23679583334473 L 147 293.0980047564808 L 152.25 292.61133474669805 L 157.5 292.1300721814685 L 162.75 291.40727709286523 L 168 290.3041584040244 L 173.25 289.4263499048978 L 178.5 288.4566148483678 L 183.75 287.3138415661372 L 189 285.73667023813766 L 194.25 284.2460180229883 L 199.5 282.83827995765387 L 204.75 280.1615949038489 L 210 276.48994005226587 L 215.25 271.7710434388912 L 220.5 265.7525576512448 L 225.75 261.19047692991114 L 231 256.9600528078369 L 236.25 250.41704489853583 L 241.5 240.97744919026866 L 246.75 229.17299773076104 L 252 215.8418444257498 L 257.25 202.70175416161624 L 262.5 195.62701420458956 L 267.75 191.97158168666598 L 273 186.12252916168472 L 278.25 181.98763656004928 L 283.5 176.49367289405762 L 288.75 170.63921292452324 L 294 172.13347010270797 L 299.25 186.5497172813829 L 304.5 205.7191082222691 L 309.75 220.05604621416464 L 315 233.03751810473938 L 320.25 243.53156550086914 L 325.5 252.77649320522318 L 330.75 263.5463202735631 L 336 273.93582374166544 L 341.25 281.2989607415263 L 346.5 285.4032111573606 L 351.75 286.7839119999294 L 357 288.37730566158837 L 362.25 289.8841802103971 L 367.5 291.05218823387565 L 372.75 292.0020959937108 L 378 292.50498833715295 L 383.25 293.45489609698814 L 388.5 294.24258052022907 L 393.75 294.62290412046667 L 399 294.83379445803916 L 404.25 295.0032277207043 L 409.5 295.28261235594994 L 414.75 295.54937962057153 L 420 295.64671362252807 L 425.25 295.7422451429669 L 430.5 295.8287642558172 L 435.75 295.89185110893715 L 441 295.9333081838446 L 446.25 295.95854292509256 L 451.5 295.97656774026973 L 456.75 295.98017270330513 L 462 295.97476525875203 L 467.25 295.97656774026973 L 472.5 295.98017270330513 L 477.75 295.98918511089374 L 483 296 L 488.25 296 L 493.5 295.9963950369646 L 498.75 295.99279007392914 L 504 295.99279007392914 L 509.25 295.99279007392914 L 514.5 295.9963950369646 L 519.75 296 L 525 296" class="highcharts-graph" stroke="#d9534f" stroke-width="2" stroke-linejoin="round" stroke-linecap="round"></path></g><g class="highcharts-markers highcharts-series-8 highcharts-line-series highcharts-color-undefined " transform="translate(65,47) scale(1 1)" width="296" height="525" clip-path="none"></g><g class="highcharts-series highcharts-series-9 highcharts-line-series highcharts-color-undefined " transform="translate(65,47) scale(1 1)" width="296" height="525" clip-path="url(#highcharts-7m11rbd-559)"><path fill="none" d="M 0 295.8118846726418 L 5.25 295.7870392520473 L 10.5 295.71072831736427 L 15.75 295.6202199994844 L 21 295.55810644799817 L 26.25 295.4675981301183 L 31.5 295.3327229897483 L 36.75 295.2333413073703 L 42 295.1517063539885 L 47.25 295.0629727090082 L 52.5 294.9476189705338 L 57.75 294.85533597975433 L 63 294.8375892507583 L 68.25 294.8375892507583 L 73.5 294.8127438301638 L 78.75 294.7470809328784 L 84 294.70448878328784 L 89.25 294.5944590635123 L 94.5 294.4347385025478 L 99.75 294.33358214727025 L 105 294.26259523128607 L 110.25 294.18273495080376 L 115.5 294.14014280121324 L 120.75 294.0940013058235 L 126 293.8739418662724 L 131.25 293.6876012118138 L 136.5 293.49061251995755 L 141.75 293.1835941083258 L 147 292.8783503695936 L 152.25 292.4435555091902 L 157.5 291.78160251763734 L 162.75 291.09835345128914 L 168 290.40623102044293 L 173.25 289.1710586823174 L 178.5 287.9270129796938 L 183.75 287.1177621374736 L 189 285.6376849392025 L 194.25 284.0475780211558 L 199.5 282.6438117575677 L 204.75 280.10602951113157 L 210 276.4750487585384 L 215.25 271.6727838922054 L 220.5 265.50224622027645 L 225.75 261.50035883166566 L 231 257.525091536549 L 236.25 250.3181448912503 L 241.5 240.49887973773212 L 246.75 228.99722467538774 L 252 217.13886036022262 L 257.25 203.51824585574906 L 262.5 194.4017511704747 L 267.75 191.7024736901745 L 273 187.73075574085698 L 278.25 183.7093469503505 L 283.5 177.72160058708099 L 288.75 172.24850936469707 L 294 174.19000151686566 L 299.25 187.2072272354733 L 304.5 205.7809538027463 L 309.75 221.64120550652223 L 315 234.15797346744102 L 320.25 242.9958445074773 L 325.5 252.79381358620023 L 330.75 263.654811731787 L 336 273.4332594086142 L 341.25 280.78750390458015 L 346.5 285.369709331362 L 351.75 286.5303454077041 L 357 287.20472110955427 L 362.25 289.2970604581894 L 367.5 290.40623102044293 L 372.75 291.2864687786473 L 378 292.3494978455111 L 383.25 293.2865251365029 L 388.5 294.10109999742195 L 393.75 294.54476822232334 L 399 294.8180678488626 L 404.25 295.01150719491966 L 409.5 295.22801728867154 L 414.75 295.38241383093725 L 420 295.4711474759175 L 425.25 295.61667065368516 L 430.5 295.7231510276615 L 435.75 295.8136593455414 L 441 295.89351962602365 L 446.25 295.92191439241736 L 451.5 295.9307877569154 L 456.75 295.9396611214134 L 462 295.950309158811 L 467.25 295.95563317750987 L 472.5 295.9645065420079 L 477.75 295.9751545794055 L 483 295.98047859810436 L 488.25 295.9840279439035 L 493.5 295.9840279439035 L 498.75 295.9840279439035 L 504 295.98225327100397 L 509.25 295.9733799065059 L 514.5 295.89351962602365 L 519.75 295.52261299000605 L 525 295.07007140060665" class="highcharts-graph" stroke="#d9534f" stroke-width="2" stroke-linejoin="round" stroke-linecap="round"></path></g><g class="highcharts-markers highcharts-series-9 highcharts-line-series highcharts-color-undefined " transform="translate(65,47) scale(1 1)" width="296" height="525" clip-path="none"></g><g class="highcharts-series highcharts-series-10 highcharts-line-series highcharts-color-undefined " transform="translate(65,47) scale(1 1)" width="296" height="525" clip-path="url(#highcharts-7m11rbd-559)"><path fill="none" d="M 0 295.99610534203936 L 5.25 295.99582715218503 L 10.5 295.9947143927677 L 15.75 295.99165430437006 L 21 295.9902633550984 L 26.25 295.9885942159724 L 31.5 295.98469955801176 L 36.75 295.98108308990544 L 42 295.97663205223614 L 47.25 295.9719028247125 L 52.5 295.9646698884999 L 57.75 295.95521143345263 L 63 295.94658754796836 L 68.25 295.9335126248148 L 73.5 295.9134829553029 L 78.75 295.89428785535404 L 84 295.86313059166895 L 89.25 295.8183420251216 L 94.5 295.76604233250725 L 99.75 295.7015022863024 L 105 295.615541621314 L 110.25 295.4758903144396 L 115.5 295.29311958014387 L 120.75 295.09421383429685 L 126 294.8263170045757 L 131.25 294.4535425997716 L 136.5 293.9419514576561 L 141.75 293.3978121025838 L 147 292.7507425014089 L 152.25 291.92590958331624 L 157.5 290.8871486672427 L 162.75 289.68731582551123 L 168 288.412093533256 L 173.25 286.68397815814916 L 178.5 284.67043999249825 L 183.75 282.69723935572546 L 189 280.33930215041227 L 194.25 277.46727009429463 L 199.5 274.08003042795514 L 204.75 269.6943673744202 L 210 264.7270093354782 L 215.25 259.51651336385055 L 220.5 253.23554283275558 L 225.75 247.6191678636584 L 231 242.05370163790386 L 236.25 235.23721563722088 L 241.5 227.1777773673851 L 246.75 217.63753450294308 L 252 207.8004630639295 L 257.25 198.75929279815807 L 262.5 193.20467597672246 L 267.75 190.34627522346705 L 273 188.24677639282777 L 278.25 187.76244785643672 L 283.5 185.70495569380148 L 288.75 185.48741122771432 L 294 191.3026919426585 L 299.25 204.4068250309404 L 304.5 221.62566425463845 L 309.75 235.64281644483611 L 315 246.83439428458945 L 320.25 255.55703716715135 L 325.5 262.9438123692138 L 330.75 270.5954243125997 L 336 277.4324963625032 L 341.25 282.0340347429993 L 346.5 285.36869652687017 L 351.75 287.3916931475683 L 357 288.6733138064732 L 362.25 290.0283765869216 L 367.5 291.08299432469204 L 372.75 291.97820927593057 L 378 292.7245926551018 L 383.25 293.3446778404065 L 388.5 293.9010575490694 L 393.75 294.4176561085628 L 399 294.7642806670598 L 404.25 295.03718491415896 L 409.5 295.2753154294666 L 414.75 295.4502968478411 L 420 295.58438435762884 L 425.25 295.6842545153338 L 430.5 295.7529674093537 L 435.75 295.81722926570427 L 441 295.8773182742398 L 446.25 295.9098664871966 L 451.5 295.93045253641714 L 456.75 295.94297107986205 L 462 295.94992582622035 L 467.25 295.95521143345263 L 472.5 295.9630007493739 L 477.75 295.9771884319448 L 483 295.98915059568105 L 488.25 295.99415801305906 L 493.5 295.996661721748 L 498.75 295.99721810145667 L 504 295.99721810145667 L 509.25 295.9980526710197 L 514.5 295.9988872405827 L 519.75 295.9988872405827 L 525 295.9988872405827" class="highcharts-graph" stroke="#f0ad4e" stroke-width="2" stroke-linejoin="round" stroke-linecap="round"></path></g><g class="highcharts-markers highcharts-series-10 highcharts-line-series highcharts-color-undefined " transform="translate(65,47) scale(1 1)" width="296" height="525" clip-path="none"></g><g class="highcharts-series highcharts-series-11 highcharts-line-series highcharts-color-undefined " transform="translate(65,47) scale(1 1)" width="296" height="525" clip-path="url(#highcharts-7m11rbd-559)"><path fill="none" d="M 0 295.995746234888 L 5.25 295.996277955527 L 10.5 295.995746234888 L 15.75 295.9930876316929 L 21 295.9898973078589 L 26.25 295.98617526338586 L 31.5 295.9835166601908 L 36.75 295.9800604760373 L 42 295.97447740932773 L 47.25 295.9667674600621 L 52.5 295.95772820919905 L 57.75 295.9468279360994 L 63 295.93433250108274 L 68.25 295.91572227871757 L 73.5 295.8925924309208 L 78.75 295.87291876727755 L 84 295.83915450670065 L 89.25 295.778538353854 L 94.5 295.70622434694917 L 99.75 295.6208831843887 L 105 295.5270344916041 L 110.25 295.3855968016285 L 115.5 295.1827453778477 L 120.75 294.9131630138716 L 126 294.6114115512357 L 131.25 294.2852009392055 L 136.5 293.82765532934076 L 141.75 293.24967499474116 L 147 292.5289276685685 L 152.25 291.67817464615877 L 157.5 290.6184554126197 L 162.75 289.40347375249087 L 168 288.0627401612371 L 173.25 286.40696209137224 L 178.5 284.54593985485104 L 183.75 282.57697832861163 L 189 280.23501477410946 L 194.25 277.49479246099173 L 199.5 274.1484086194071 L 204.75 269.88906044064913 L 210 265.2056650522838 L 215.25 259.9328573355802 L 220.5 253.68194950342502 L 225.75 248.38069473253464 L 231 243.0480684439429 L 236.25 236.40448491988172 L 241.5 228.6474783777419 L 246.75 219.83048674174347 L 252 210.4211583138923 L 257.25 201.58661989680667 L 262.5 196.2167731634845 L 267.75 193.28858760447815 L 273 191.23268975376124 L 278.25 190.71825003552289 L 283.5 189.15791582035962 L 288.75 188.85297403388964 L 294 193.78760742418535 L 299.25 206.07806413449083 L 304.5 222.00097039016617 L 309.75 234.9986155503497 L 315 245.58969309839185 L 320.25 253.8832057652888 L 325.5 261.1582075481697 L 330.75 268.73389735240846 L 336 275.4816981217148 L 341.25 279.8170823518507 L 346.5 283.0419680274224 L 351.75 285.34431839431863 L 357 286.7286530779709 L 362.25 288.1315979839884 L 367.5 289.3994858476983 L 372.75 290.50493305619193 L 378 291.41125088537774 L 383.25 292.1753334436294 L 388.5 292.80010519446154 L 393.75 293.3842003164097 L 399 293.80239859898796 L 404.25 294.16928583990216 L 409.5 294.55611260477906 L 414.75 294.87328396594614 L 420 295.0678937198224 L 425.25 295.19976043829587 L 430.5 295.3167389788772 L 435.75 295.47864791345455 L 441 295.64241787026845 L 446.25 295.7280248931484 L 451.5 295.7809310967295 L 456.75 295.8189491224184 L 462 295.8431424114932 L 467.25 295.8590940306634 L 472.5 295.8848824816552 L 477.75 295.9258249708586 L 483 295.9521451424894 L 488.25 295.9590575107965 L 493.5 295.9625136949501 L 498.75 295.9641088568671 L 504 295.9641088568671 L 509.25 295.9774018728422 L 514.5 295.9930876316929 L 519.75 295.99548037456844 L 525 295.995746234888" class="highcharts-graph" stroke="#f0ad4e" stroke-width="2" stroke-linejoin="round" stroke-linecap="round"></path></g><g class="highcharts-markers highcharts-series-11 highcharts-line-series highcharts-color-undefined " transform="translate(65,47) scale(1 1)" width="296" height="525" clip-path="none"></g></g><text x="330" text-anchor="middle" class="highcharts-title" style="color:#333333;font-size:18px;fill:#333333;width:536px;" y="24"><tspan>FastQC: Per Sequence GC Content</tspan></text><g class="highcharts-axis-labels highcharts-xaxis-labels "><text x="65" style="color:#666666;cursor:default;font-size:11px;fill:#666666;width:95px;text-overflow:clip;" text-anchor="middle" transform="translate(0,0)" y="362" opacity="1"><tspan>0</tspan></text><text x="170" style="color:#666666;cursor:default;font-size:11px;fill:#666666;width:95px;text-overflow:clip;" text-anchor="middle" transform="translate(0,0)" y="362" opacity="1"><tspan>20</tspan></text><text x="275" style="color:#666666;cursor:default;font-size:11px;fill:#666666;width:95px;text-overflow:clip;" text-anchor="middle" transform="translate(0,0)" y="362" opacity="1"><tspan>40</tspan></text><text x="380" style="color:#666666;cursor:default;font-size:11px;fill:#666666;width:95px;text-overflow:clip;" text-anchor="middle" transform="translate(0,0)" y="362" opacity="1"><tspan>60</tspan></text><text x="485" style="color:#666666;cursor:default;font-size:11px;fill:#666666;width:95px;text-overflow:clip;" text-anchor="middle" transform="translate(0,0)" y="362" opacity="1"><tspan>80</tspan></text><text x="579.0249996185303" style="color:#666666;cursor:default;font-size:11px;fill:#666666;width:95px;text-overflow:clip;" text-anchor="middle" transform="translate(0,0)" y="362" opacity="1"><tspan>100</tspan></text></g><g class="highcharts-axis-labels highcharts-yaxis-labels "><text x="50" style="color:#666666;cursor:default;font-size:11px;fill:#666666;width:188px;text-overflow:clip;" text-anchor="end" transform="translate(0,0)" y="347" opacity="1"><tspan>0</tspan></text><text x="50" style="color:#666666;cursor:default;font-size:11px;fill:#666666;width:188px;text-overflow:clip;" text-anchor="end" transform="translate(0,0)" y="150" opacity="1"><tspan>10</tspan></text><text x="50" style="color:#666666;cursor:default;font-size:11px;fill:#666666;width:188px;text-overflow:clip;" text-anchor="end" transform="translate(0,0)" y="248" opacity="1"><tspan>5</tspan></text><text x="50" style="color:#666666;cursor:default;font-size:11px;fill:#666666;width:188px;text-overflow:clip;" text-anchor="end" transform="translate(0,0)" y="51" opacity="1"><tspan>15</tspan></text></g><text x="590" class="highcharts-credits" text-anchor="end" style="cursor:pointer;color:#999999;font-size:9px;fill:#999999;" y="395"><tspan>Created with MultiQC</tspan></text></svg>