<svg xmlns:xlink="http://www.w3.org/1999/xlink" version="1.1" class="highcharts-root" style="font-family:&quot;lucida grande&quot;, &quot;lucida sans unicode&quot;, arial, helvetica, sans-serif;font-size:12px;" xmlns="http://www.w3.org/2000/svg" width="600" height="400"><desc>Created with Highcharts 5.0.6</desc><defs><clipPath id="highcharts-7m11rbd-514"><rect x="0" y="0" width="525" height="296" fill="none"></rect></clipPath></defs><rect fill="#ffffff" class="highcharts-background" x="0" y="0" width="600" height="400" rx="0" ry="0"></rect><rect fill="none" class="highcharts-plot-background" x="65" y="47" width="525" height="296"></rect><g class="highcharts-grid highcharts-xaxis-grid "><path fill="none" class="highcharts-grid-line" d="M 66.5 47 L 66.5 343" opacity="1"></path><path fill="none" class="highcharts-grid-line" d="M 152.5 47 L 152.5 343" opacity="1"></path><path fill="none" class="highcharts-grid-line" d="M 237.5 47 L 237.5 343" opacity="1"></path><path fill="none" class="highcharts-grid-line" d="M 323.5 47 L 323.5 343" opacity="1"></path><path fill="none" class="highcharts-grid-line" d="M 409.5 47 L 409.5 343" opacity="1"></path><path fill="none" class="highcharts-grid-line" d="M 495.5 47 L 495.5 343" opacity="1"></path><path fill="none" class="highcharts-grid-line" d="M 580.5 47 L 580.5 343" opacity="1"></path></g><g class="highcharts-grid highcharts-yaxis-grid "><path fill="none" stroke="#e6e6e6" stroke-width="1" class="highcharts-grid-line" d="M 65 343.5 L 590 343.5" opacity="1"></path><path fill="none" stroke="#e6e6e6" stroke-width="1" class="highcharts-grid-line" d="M 65 294.5 L 590 294.5" opacity="1"></path><path fill="none" stroke="#e6e6e6" stroke-width="1" class="highcharts-grid-line" d="M 65 244.5 L 590 244.5" opacity="1"></path><path fill="none" stroke="#e6e6e6" stroke-width="1" class="highcharts-grid-line" d="M 65 195.5 L 590 195.5" opacity="1"></path><path fill="none" stroke="#e6e6e6" stroke-width="1" class="highcharts-grid-line" d="M 65 146.5 L 590 146.5" opacity="1"></path><path fill="none" stroke="#e6e6e6" stroke-width="1" class="highcharts-grid-line" d="M 65 96.5 L 590 96.5" opacity="1"></path><path fill="none" stroke="#e6e6e6" stroke-width="1" class="highcharts-grid-line" d="M 65 46.5 L 590 46.5" opacity="1"></path></g><rect fill="none" class="highcharts-plot-border" x="65" y="47" width="525" height="296"></rect><g class="highcharts-axis highcharts-xaxis "><path fill="none" class="highcharts-tick" stroke="#ccd6eb" stroke-width="1" d="M 66.5 343 L 66.5 353" opacity="1"></path><path fill="none" class="highcharts-tick" stroke="#ccd6eb" stroke-width="1" d="M 152.5 343 L 152.5 353" opacity="1"></path><path fill="none" class="highcharts-tick" stroke="#ccd6eb" stroke-width="1" d="M 237.5 343 L 237.5 353" opacity="1"></path><path fill="none" class="highcharts-tick" stroke="#ccd6eb" stroke-width="1" d="M 323.5 343 L 323.5 353" opacity="1"></path><path fill="none" class="highcharts-tick" stroke="#ccd6eb" stroke-width="1" d="M 409.5 343 L 409.5 353" opacity="1"></path><path fill="none" class="highcharts-tick" stroke="#ccd6eb" stroke-width="1" d="M 495.5 343 L 495.5 353" opacity="1"></path><path fill="none" class="highcharts-tick" stroke="#ccd6eb" stroke-width="1" d="M 580.5 343 L 580.5 353" opacity="1"></path><text x="327.5" text-anchor="middle" transform="translate(0,0)" class="highcharts-axis-title" style="color:#666666;fill:#666666;" y="381.75"><tspan>Read Position</tspan></text><path fill="none" class="highcharts-axis-line" stroke="#ccd6eb" stroke-width="1" d="M 65 343.5 L 590 343.5"></path></g><g class="highcharts-axis highcharts-yaxis "><text x="24.600000381469727" text-anchor="middle" transform="translate(0,0) rotate(270 24.600000381469727 195)" class="highcharts-axis-title" style="color:#666666;fill:#666666;" y="195"><tspan>R1 Before filtering: Base Content Percent</tspan></text><path fill="none" class="highcharts-axis-line" d="M 65 47 L 65 343"></path></g><g class="highcharts-series-group"><g class="highcharts-series highcharts-series-0 highcharts-line-series highcharts-color-undefined " transform="translate(65,47) scale(1 1)" width="296" height="525" clip-path="url(#highcharts-7m11rbd-514)"><path fill="none" d="M 5.1470588235294 296 L 8.578431372549 296 L 12.009803921569 296 L 15.441176470588 296 L 18.872549019608 296 L 22.303921568627 296 L 25.735294117647 296 L 29.166666666667 296 L 32.598039215686 296 L 36.029411764706 296 L 39.460784313725 296 L 42.892156862745 296 L 46.323529411765 296 L 49.754901960784 296 L 53.186274509804 296 L 56.617647058824 296 L 60.049019607843 296 L 63.480392156863 296 L 66.911764705882 296 L 70.343137254902 296 L 73.774509803922 296 L 77.205882352941 296 L 80.637254901961 296 L 84.06862745098 296 L 87.5 296 L 90.93137254902 296 L 94.362745098039 296 L 97.794117647059 296 L 101.22549019608 296 L 104.6568627451 296 L 108.08823529412 296 L 111.51960784314 296 L 114.95098039216 296 L 118.38235294118 296 L 121.8137254902 296 L 125.24509803922 296 L 128.67647058824 296 L 132.10784313725 296 L 135.53921568627 296 L 138.97058823529 296 L 142.40196078431 296 L 145.83333333333 296 L 149.26470588235 296 L 152.69607843137 296 L 156.12745098039 296 L 159.55882352941 296 L 162.99019607843 296 L 166.42156862745 296 L 169.85294117647 296 L 173.28431372549 296 L 176.71568627451 296 L 180.14705882353 296 L 183.57843137255 296 L 187.00980392157 296 L 190.44117647059 296 L 193.87254901961 296 L 197.30392156863 296 L 200.73529411765 296 L 204.16666666667 296 L 207.59803921569 296 L 211.02941176471 296 L 214.46078431373 296 L 217.89215686275 296 L 221.32352941176 296 L 224.75490196078 296 L 228.1862745098 296 L 231.61764705882 296 L 235.04901960784 296 L 238.48039215686 296 L 241.91176470588 296 L 245.3431372549 296 L 248.77450980392 296 L 252.20588235294 296 L 255.63725490196 296 L 259.06862745098 296 L 262.5 296 L 265.93137254902 296 L 269.36274509804 296 L 272.79411764706 296 L 276.22549019608 296 L 279.6568627451 296 L 283.08823529412 296 L 286.51960784314 296 L 289.95098039216 296 L 293.38235294118 296 L 296.8137254902 296 L 300.24509803922 296 L 303.67647058824 296 L 307.10784313725 296 L 310.53921568627 296 L 313.97058823529 296 L 317.40196078431 296 L 320.83333333333 296 L 324.26470588235 296 L 327.69607843137 296 L 331.12745098039 296 L 334.55882352941 296 L 337.99019607843 296 L 341.42156862745 296 L 344.85294117647 296 L 348.28431372549 296 L 351.71568627451 296 L 355.14705882353 296 L 358.57843137255 296 L 362.00980392157 296 L 365.44117647059 296 L 368.87254901961 296 L 372.30392156863 296 L 375.73529411765 296 L 379.16666666667 296 L 382.59803921569 296 L 386.02941176471 296 L 389.46078431373 296 L 392.89215686275 296 L 396.32352941176 296 L 399.75490196078 296 L 403.1862745098 296 L 406.61764705882 296 L 410.04901960784 296 L 413.48039215686 296 L 416.91176470588 296 L 420.3431372549 296 L 423.77450980392 296 L 427.20588235294 296 L 430.63725490196 296 L 434.06862745098 296 L 437.5 296 L 440.93137254902 296 L 444.36274509804 296 L 447.79411764706 296 L 451.22549019608 296 L 454.6568627451 296 L 458.08823529412 296 L 461.51960784314 296 L 464.95098039216 296 L 468.38235294118 296 L 471.8137254902 296 L 475.24509803922 296 L 478.67647058824 296 L 482.10784313725 296 L 485.53921568627 296 L 488.97058823529 296 L 492.40196078431 296 L 495.83333333333 296 L 499.26470588235 296 L 502.69607843137 296 L 506.12745098039 296 L 509.55882352941 296 L 512.99019607843 296 L 516.42156862745 296 L 519.85294117647 296" class="highcharts-graph" stroke="#7cb5ec" stroke-width="2" stroke-linejoin="round" stroke-linecap="round"></path></g><g class="highcharts-markers highcharts-series-0 highcharts-line-series highcharts-color-undefined " transform="translate(65,47) scale(1 1)" width="296" height="525" clip-path="none"></g><g class="highcharts-series highcharts-series-1 highcharts-line-series highcharts-color-undefined " transform="translate(65,47) scale(1 1)" width="296" height="525" clip-path="url(#highcharts-7m11rbd-514)"><path fill="none" d="M 5.1470588235294 295.84060646666666 L 8.578431372549 295.84060646666666 L 12.009803921569 295.84060646666666 L 15.441176470588 295.84060646666666 L 18.872549019608 295.84060646666666 L 22.303921568627 295.84060646666666 L 25.735294117647 295.84060646666666 L 29.166666666667 295.84060646666666 L 32.598039215686 295.84060646666666 L 36.029411764706 295.84060646666666 L 39.460784313725 295.84060646666666 L 42.892156862745 295.84060646666666 L 46.323529411765 295.84060646666666 L 49.754901960784 295.84060646666666 L 53.186274509804 295.84060646666666 L 56.617647058824 295.84060646666666 L 60.049019607843 295.84060646666666 L 63.480392156863 295.84060646666666 L 66.911764705882 295.84060646666666 L 70.343137254902 295.84060646666666 L 73.774509803922 295.84060646666666 L 77.205882352941 295.84060646666666 L 80.637254901961 295.81072033333334 L 84.06862745098 295.74098569333336 L 87.5 295.58159265333336 L 90.93137254902 295.45208426666665 L 94.362745098039 294.6949656 L 97.794117647059 292.8420204 L 101.22549019608 290.271808 L 104.6568627451 283.079156 L 108.08823529412 274.32248933333335 L 111.51960784314 269.01269333333335 L 114.95098039216 266.36280266666665 L 118.38235294118 263.5833626666667 L 121.8137254902 261.11279866666666 L 125.24509803922 296 L 128.67647058824 296 L 132.10784313725 296 L 135.53921568627 296 L 138.97058823529 296 L 142.40196078431 296 L 145.83333333333 296 L 149.26470588235 296 L 152.69607843137 296 L 156.12745098039 296 L 159.55882352941 296 L 162.99019607843 296 L 166.42156862745 296 L 169.85294117647 296 L 173.28431372549 296 L 176.71568627451 296 L 180.14705882353 296 L 183.57843137255 296 L 187.00980392157 296 L 190.44117647059 296 L 193.87254901961 296 L 197.30392156863 296 L 200.73529411765 296 L 204.16666666667 296 L 207.59803921569 296 L 211.02941176471 296 L 214.46078431373 296 L 217.89215686275 296 L 221.32352941176 296 L 224.75490196078 296 L 228.1862745098 296 L 231.61764705882 296 L 235.04901960784 296 L 238.48039215686 296 L 241.91176470588 296 L 245.3431372549 296 L 248.77450980392 296 L 252.20588235294 296 L 255.63725490196 296 L 259.06862745098 296 L 262.5 296 L 265.93137254902 296 L 269.36274509804 296 L 272.79411764706 296 L 276.22549019608 296 L 279.6568627451 296 L 283.08823529412 296 L 286.51960784314 296 L 289.95098039216 296 L 293.38235294118 296 L 296.8137254902 296 L 300.24509803922 296 L 303.67647058824 296 L 307.10784313725 296 L 310.53921568627 296 L 313.97058823529 296 L 317.40196078431 296 L 320.83333333333 296 L 324.26470588235 296 L 327.69607843137 296 L 331.12745098039 296 L 334.55882352941 296 L 337.99019607843 296 L 341.42156862745 296 L 344.85294117647 296 L 348.28431372549 296 L 351.71568627451 296 L 355.14705882353 296 L 358.57843137255 296 L 362.00980392157 296 L 365.44117647059 296 L 368.87254901961 296 L 372.30392156863 296 L 375.73529411765 296 L 379.16666666667 296 L 382.59803921569 296 L 386.02941176471 296 L 389.46078431373 296 L 392.89215686275 296 L 396.32352941176 296 L 399.75490196078 296 L 403.1862745098 296 L 406.61764705882 296 L 410.04901960784 296 L 413.48039215686 296 L 416.91176470588 296 L 420.3431372549 296 L 423.77450980392 296 L 427.20588235294 296 L 430.63725490196 296 L 434.06862745098 296 L 437.5 296 L 440.93137254902 296 L 444.36274509804 296 L 447.79411764706 296 L 451.22549019608 296 L 454.6568627451 296 L 458.08823529412 296 L 461.51960784314 296 L 464.95098039216 296 L 468.38235294118 296 L 471.8137254902 296 L 475.24509803922 296 L 478.67647058824 296 L 482.10784313725 296 L 485.53921568627 296 L 488.97058823529 296 L 492.40196078431 296 L 495.83333333333 296 L 499.26470588235 296 L 502.69607843137 296 L 506.12745098039 296 L 509.55882352941 296 L 512.99019607843 296 L 516.42156862745 296 L 519.85294117647 296" class="highcharts-graph" stroke="#434348" stroke-width="2" stroke-linejoin="round" stroke-linecap="round"></path></g><g class="highcharts-markers highcharts-series-1 highcharts-line-series highcharts-color-undefined " transform="translate(65,47) scale(1 1)" width="296" height="525" clip-path="none"></g><g class="highcharts-series highcharts-series-2 highcharts-line-series highcharts-color-undefined " transform="translate(65,47) scale(1 1)" width="296" height="525" clip-path="url(#highcharts-7m11rbd-514)"><path fill="none" d="M 5.1470588235294 295.58331389333335 L 8.578431372549 295.7664540266667 L 12.009803921569 295.7731752 L 15.441176470588 295.7731752 L 18.872549019608 295.7731752 L 22.303921568627 295.7731752 L 25.735294117647 295.7731752 L 29.166666666667 295.7731752 L 32.598039215686 295.7731752 L 36.029411764706 295.7731752 L 39.460784313725 295.7731752 L 42.892156862745 295.7731752 L 46.323529411765 295.7731752 L 49.754901960784 295.7731752 L 53.186274509804 295.7731752 L 56.617647058824 295.7731752 L 60.049019607843 295.7731752 L 63.480392156863 295.7731752 L 66.911764705882 295.7731752 L 70.343137254902 295.7731752 L 73.774509803922 295.7731752 L 77.205882352941 295.7731752 L 80.637254901961 295.72949004 L 84.06862745098 295.71604868 L 87.5 295.6790846933333 L 90.93137254902 295.6353995333333 L 94.362745098039 295.48754506666666 L 97.794117647059 294.9263636 L 101.22549019608 294.11147066666666 L 104.6568627451 293.1319228 L 108.08823529412 291.5139029333333 L 111.51960784314 289.628748 L 114.95098039216 287.59572133333336 L 118.38235294118 285.42993866666666 L 121.8137254902 282.929824 L 125.24509803922 296 L 128.67647058824 296 L 132.10784313725 296 L 135.53921568627 296 L 138.97058823529 296 L 142.40196078431 296 L 145.83333333333 296 L 149.26470588235 296 L 152.69607843137 296 L 156.12745098039 296 L 159.55882352941 296 L 162.99019607843 296 L 166.42156862745 296 L 169.85294117647 296 L 173.28431372549 296 L 176.71568627451 296 L 180.14705882353 296 L 183.57843137255 296 L 187.00980392157 296 L 190.44117647059 296 L 193.87254901961 296 L 197.30392156863 296 L 200.73529411765 296 L 204.16666666667 296 L 207.59803921569 296 L 211.02941176471 296 L 214.46078431373 296 L 217.89215686275 296 L 221.32352941176 296 L 224.75490196078 296 L 228.1862745098 296 L 231.61764705882 296 L 235.04901960784 296 L 238.48039215686 296 L 241.91176470588 296 L 245.3431372549 296 L 248.77450980392 296 L 252.20588235294 296 L 255.63725490196 296 L 259.06862745098 296 L 262.5 296 L 265.93137254902 296 L 269.36274509804 296 L 272.79411764706 296 L 276.22549019608 296 L 279.6568627451 296 L 283.08823529412 296 L 286.51960784314 296 L 289.95098039216 296 L 293.38235294118 296 L 296.8137254902 296 L 300.24509803922 296 L 303.67647058824 296 L 307.10784313725 296 L 310.53921568627 296 L 313.97058823529 296 L 317.40196078431 296 L 320.83333333333 296 L 324.26470588235 296 L 327.69607843137 296 L 331.12745098039 296 L 334.55882352941 296 L 337.99019607843 296 L 341.42156862745 296 L 344.85294117647 296 L 348.28431372549 296 L 351.71568627451 296 L 355.14705882353 296 L 358.57843137255 296 L 362.00980392157 296 L 365.44117647059 296 L 368.87254901961 296 L 372.30392156863 296 L 375.73529411765 296 L 379.16666666667 296 L 382.59803921569 296 L 386.02941176471 296 L 389.46078431373 296 L 392.89215686275 296 L 396.32352941176 296 L 399.75490196078 296 L 403.1862745098 296 L 406.61764705882 296 L 410.04901960784 296 L 413.48039215686 296 L 416.91176470588 296 L 420.3431372549 296 L 423.77450980392 296 L 427.20588235294 296 L 430.63725490196 296 L 434.06862745098 296 L 437.5 296 L 440.93137254902 296 L 444.36274509804 296 L 447.79411764706 296 L 451.22549019608 296 L 454.6568627451 296 L 458.08823529412 296 L 461.51960784314 296 L 464.95098039216 296 L 468.38235294118 296 L 471.8137254902 296 L 475.24509803922 296 L 478.67647058824 296 L 482.10784313725 296 L 485.53921568627 296 L 488.97058823529 296 L 492.40196078431 296 L 495.83333333333 296 L 499.26470588235 296 L 502.69607843137 296 L 506.12745098039 296 L 509.55882352941 296 L 512.99019607843 296 L 516.42156862745 296 L 519.85294117647 296" class="highcharts-graph" stroke="#90ed7d" stroke-width="2" stroke-linejoin="round" stroke-linecap="round"></path></g><g class="highcharts-markers highcharts-series-2 highcharts-line-series highcharts-color-undefined " transform="translate(65,47) scale(1 1)" width="296" height="525" clip-path="none"></g></g><text x="330" text-anchor="middle" class="highcharts-title" style="color:#333333;font-size:18px;fill:#333333;width:536px;" y="24"><tspan>Fastp: Read N Content</tspan></text><g class="highcharts-axis-labels highcharts-xaxis-labels "><text x="66.7156862745098" style="color:#666666;cursor:default;font-size:11px;fill:#666666;width:78px;text-overflow:clip;" text-anchor="middle" transform="translate(0,0)" y="362" opacity="1"><tspan>0</tspan></text><text x="152.5" style="color:#666666;cursor:default;font-size:11px;fill:#666666;width:78px;text-overflow:clip;" text-anchor="middle" transform="translate(0,0)" y="362" opacity="1"><tspan>25</tspan></text><text x="238.2843137254902" style="color:#666666;cursor:default;font-size:11px;fill:#666666;width:78px;text-overflow:clip;" text-anchor="middle" transform="translate(0,0)" y="362" opacity="1"><tspan>50</tspan></text><text x="324.0686274509804" style="color:#666666;cursor:default;font-size:11px;fill:#666666;width:78px;text-overflow:clip;" text-anchor="middle" transform="translate(0,0)" y="362" opacity="1"><tspan>75</tspan></text><text x="409.85294117647055" style="color:#666666;cursor:default;font-size:11px;fill:#666666;width:78px;text-overflow:clip;" text-anchor="middle" transform="translate(0,0)" y="362" opacity="1"><tspan>100</tspan></text><text x="495.6372549019608" style="color:#666666;cursor:default;font-size:11px;fill:#666666;width:78px;text-overflow:clip;" text-anchor="middle" transform="translate(0,0)" y="362" opacity="1"><tspan>125</tspan></text><text x="579.0249996185303" style="color:#666666;cursor:default;font-size:11px;fill:#666666;width:78px;text-overflow:clip;" text-anchor="middle" transform="translate(0,0)" y="362" opacity="1"><tspan>150</tspan></text></g><g class="highcharts-axis-labels highcharts-yaxis-labels "><text x="50" style="color:#666666;cursor:default;font-size:11px;fill:#666666;width:188px;text-overflow:clip;" text-anchor="end" transform="translate(0,0)" y="347" opacity="1"><tspan>0%</tspan></text><text x="50" style="color:#666666;cursor:default;font-size:11px;fill:#666666;width:188px;text-overflow:clip;" text-anchor="end" transform="translate(0,0)" y="298" opacity="1"><tspan>1%</tspan></text><text x="50" style="color:#666666;cursor:default;font-size:11px;fill:#666666;width:188px;text-overflow:clip;" text-anchor="end" transform="translate(0,0)" y="248" opacity="1"><tspan>2%</tspan></text><text x="50" style="color:#666666;cursor:default;font-size:11px;fill:#666666;width:188px;text-overflow:clip;" text-anchor="end" transform="translate(0,0)" y="199" opacity="1"><tspan>3%</tspan></text><text x="50" style="color:#666666;cursor:default;font-size:11px;fill:#666666;width:188px;text-overflow:clip;" text-anchor="end" transform="translate(0,0)" y="150" opacity="1"><tspan>4%</tspan></text><text x="50" style="color:#666666;cursor:default;font-size:11px;fill:#666666;width:188px;text-overflow:clip;" text-anchor="end" transform="translate(0,0)" y="100" opacity="1"><tspan>5%</tspan></text><text x="50" style="color:#666666;cursor:default;font-size:11px;fill:#666666;width:188px;text-overflow:clip;" text-anchor="end" transform="translate(0,0)" y="51" opacity="1"><tspan>6%</tspan></text></g><text x="590" class="highcharts-credits" text-anchor="end" style="cursor:pointer;color:#999999;font-size:9px;fill:#999999;" y="395"><tspan>Created with MultiQC</tspan></text></svg>