<svg xmlns:xlink="http://www.w3.org/1999/xlink" version="1.1" class="highcharts-root" style="font-family:&quot;lucida grande&quot;, &quot;lucida sans unicode&quot;, arial, helvetica, sans-serif;font-size:12px;" xmlns="http://www.w3.org/2000/svg" width="600" height="400"><desc>Created with Highcharts 5.0.6</desc><defs><clipPath id="highcharts-7m11rbd-629"><rect x="0" y="0" width="518" height="296" fill="none"></rect></clipPath></defs><rect fill="#ffffff" class="highcharts-background" x="0" y="0" width="600" height="400" rx="0" ry="0"></rect><rect fill="none" class="highcharts-plot-background" x="72" y="47" width="518" height="296"></rect><g class="highcharts-plot-bands-0"><path fill="#e6c3c3" class="highcharts-plot-band " d="M 72 284.5 L 590 284.5 590 47.5 72 47.5 z"></path><path fill="#e6dcc3" class="highcharts-plot-band " d="M 72 328.5 L 590 328.5 590 284.5 72 284.5 z"></path><path fill="#c3e6c3" class="highcharts-plot-band " d="M 72 343.5 L 590 343.5 590 328.5 72 328.5 z"></path></g><g class="highcharts-grid highcharts-xaxis-grid "><path fill="none" class="highcharts-grid-line" d="M 72.5 47 L 72.5 343" opacity="1"></path><path fill="none" class="highcharts-grid-line" d="M 164.5 47 L 164.5 343" opacity="1"></path><path fill="none" class="highcharts-grid-line" d="M 255.5 47 L 255.5 343" opacity="1"></path><path fill="none" class="highcharts-grid-line" d="M 346.5 47 L 346.5 343" opacity="1"></path><path fill="none" class="highcharts-grid-line" d="M 438.5 47 L 438.5 343" opacity="1"></path><path fill="none" class="highcharts-grid-line" d="M 529.5 47 L 529.5 343" opacity="1"></path></g><g class="highcharts-grid highcharts-yaxis-grid "><path fill="none" stroke="#e6e6e6" stroke-width="1" class="highcharts-grid-line" d="M 72 343.5 L 590 343.5" opacity="1"></path><path fill="none" stroke="#e6e6e6" stroke-width="1" class="highcharts-grid-line" d="M 72 284.5 L 590 284.5" opacity="1"></path><path fill="none" stroke="#e6e6e6" stroke-width="1" class="highcharts-grid-line" d="M 72 225.5 L 590 225.5" opacity="1"></path><path fill="none" stroke="#e6e6e6" stroke-width="1" class="highcharts-grid-line" d="M 72 165.5 L 590 165.5" opacity="1"></path><path fill="none" stroke="#e6e6e6" stroke-width="1" class="highcharts-grid-line" d="M 72 106.5 L 590 106.5" opacity="1"></path><path fill="none" stroke="#e6e6e6" stroke-width="1" class="highcharts-grid-line" d="M 72 46.5 L 590 46.5" opacity="1"></path></g><rect fill="none" class="highcharts-plot-border" x="72" y="47" width="518" height="296"></rect><g class="highcharts-axis highcharts-xaxis "><path fill="none" class="highcharts-tick" stroke="#ccd6eb" stroke-width="1" d="M 72.5 343 L 72.5 353" opacity="1"></path><path fill="none" class="highcharts-tick" stroke="#ccd6eb" stroke-width="1" d="M 164.5 343 L 164.5 353" opacity="1"></path><path fill="none" class="highcharts-tick" stroke="#ccd6eb" stroke-width="1" d="M 255.5 343 L 255.5 353" opacity="1"></path><path fill="none" class="highcharts-tick" stroke="#ccd6eb" stroke-width="1" d="M 346.5 343 L 346.5 353" opacity="1"></path><path fill="none" class="highcharts-tick" stroke="#ccd6eb" stroke-width="1" d="M 438.5 343 L 438.5 353" opacity="1"></path><path fill="none" class="highcharts-tick" stroke="#ccd6eb" stroke-width="1" d="M 529.5 343 L 529.5 353" opacity="1"></path><text x="331" text-anchor="middle" transform="translate(0,0)" class="highcharts-axis-title" style="color:#666666;fill:#666666;" y="381.75"><tspan>Position (bp)</tspan></text><path fill="none" class="highcharts-axis-line" stroke="#ccd6eb" stroke-width="1" d="M 72 343.5 L 590 343.5"></path></g><g class="highcharts-axis highcharts-yaxis "><text x="25.049999237060547" text-anchor="middle" transform="translate(0,0) rotate(270 25.049999237060547 195)" class="highcharts-axis-title" style="color:#666666;fill:#666666;" y="195"><tspan>% of Sequences</tspan></text><path fill="none" class="highcharts-axis-line" d="M 72 47 L 72 343"></path></g><g class="highcharts-series-group"><g class="highcharts-series highcharts-series-0 highcharts-line-series highcharts-color-undefined " transform="translate(72,47) scale(1 1)" width="296" height="518" clip-path="url(#highcharts-7m11rbd-629)"><path fill="none" d="M 5.078431372549 295.9889526990777 L 8.7319791225843 295.9861908738471 L 12.38552687262 295.9848099612318 L 16.039074622655 295.9737626603095 L 19.69262237269 295.94890623323425 L 23.346170122725 295.9268116313896 L 26.999717872761 295.9199070683132 L 30.653265622796 295.9033361169297 L 34.306813372831 295.8881460781615 L 45.267456622937 295.83318575607296 L 63.535195373113 295.5721932717832 L 81.80293412329 289.0896370905664 L 100.07067287347 274.84220927357467 L 118.33841162364 247.56393765366153 L 136.60615037382 206.56933720859712 L 154.87388912399 161.445808043816 L 173.14162787417 112.34580291204611 L 191.40936662435 87.64155240703334 L 209.67710537452 82.9257358258184 L 227.9448441247 79.48533013608522 L 246.21258287488 75.30006018166463 L 264.48032162505 72.5015026755182 L 282.74806037523 70.63561354973854 L 301.01579912541 69.21410210355913 L 319.28353787558 68.15383739753955 L 337.55127662576 67.31203306725882 L 355.81901537593 66.76408694151183 L 374.08675412611 66.44205811962624 L 392.35449287629 66.23436886228666 L 410.62223162646 66.05761204752955 L 428.88997037664 65.73475467807472 L 447.15770912682 65.5256845081199 L 465.42544787699 65.32407126628752 L 483.69318662717 65.02496559381572 L 501.96092537735 63.859751529034156 L 512.92156862745 63.13118203320721" class="highcharts-graph" stroke="#7cb5ec" stroke-width="2" stroke-linejoin="round" stroke-linecap="round"></path></g><g class="highcharts-markers highcharts-series-0 highcharts-line-series highcharts-color-undefined " transform="translate(72,47) scale(1 1)" width="296" height="518" clip-path="none"></g><g class="highcharts-series highcharts-series-1 highcharts-line-series highcharts-color-undefined " transform="translate(72,47) scale(1 1)" width="296" height="518" clip-path="url(#highcharts-7m11rbd-629)"><path fill="none" d="M 5.078431372549 296 L 8.7319791225843 296 L 12.38552687262 296 L 16.039074622655 296 L 19.69262237269 296 L 23.346170122725 296 L 26.999717872761 296 L 30.653265622796 296 L 34.306813372831 296 L 45.267456622937 296 L 63.535195373113 296 L 81.80293412329 296 L 100.07067287347 296 L 118.33841162364 296 L 136.60615037382 296 L 154.87388912399 296 L 173.14162787417 296 L 191.40936662435 296 L 209.67710537452 296 L 227.9448441247 296 L 246.21258287488 295.99972381747693 L 264.48032162505 295.99254307187744 L 282.74806037523 295.94642059052677 L 301.01579912541 295.86577529379383 L 319.28353787558 295.7506071816787 L 337.55127662576 292.9951341491292 L 355.81901537593 281.93706210841094 L 374.08675412611 261.87461126843357 L 392.35449287629 225.44668884213274 L 410.62223162646 187.69557594786122 L 428.88997037664 126.93403996249143 L 447.15770912682 93.59798088182467 L 465.42544787699 83.84901400040124 L 483.69318662717 80.1183404789341 L 501.96092537735 75.90489990716162 L 512.92156862745 73.36374451250518" class="highcharts-graph" stroke="#434348" stroke-width="2" stroke-linejoin="round" stroke-linecap="round"></path></g><g class="highcharts-markers highcharts-series-1 highcharts-line-series highcharts-color-undefined " transform="translate(72,47) scale(1 1)" width="296" height="518" clip-path="none"></g><g class="highcharts-series highcharts-series-2 highcharts-line-series highcharts-color-undefined " transform="translate(72,47) scale(1 1)" width="296" height="518" clip-path="url(#highcharts-7m11rbd-629)"><path fill="none" d="M 5.078431372549 295.9861908738471 L 8.7319791225843 295.98342904861653 L 12.38552687262 295.98204813600125 L 16.039074622655 295.97100083507894 L 19.69262237269 295.9461444080037 L 23.346170122725 295.92266889354374 L 26.999717872761 295.91438341785204 L 30.653265622796 295.89919337908384 L 34.306813372831 295.8881460781615 L 45.267456622937 295.8364999463497 L 63.535195373113 295.58158347756716 L 81.80293412329 289.16503491936123 L 100.07067287347 275.0559745464215 L 118.33841162364 248.10083647848623 L 136.60615037382 207.61358332827933 L 154.87388912399 163.30258314633474 L 173.14162787417 115.52797794272013 L 191.40936662435 91.61802837402206 L 209.67710537452 86.96352431292601 L 227.9448441247 83.51510933002413 L 246.21258287488 79.38866625301495 L 264.48032162505 76.71908598513653 L 282.74806037523 75.03492495952901 L 301.01579912541 73.91003354311385 L 319.28353787558 73.0756861409557 L 337.55127662576 72.37915381780354 L 355.81901537593 71.98504135739975 L 374.08675412611 71.7536004030772 L 392.35449287629 71.59369072222663 L 410.62223162646 71.46692294414305 L 428.88997037664 71.23465344225127 L 447.15770912682 71.09352417296864 L 465.42544787699 70.97255622786929 L 483.69318662717 70.7513340268998 L 501.96092537735 69.8545693745306 L 512.92156862745 69.29695686047651" class="highcharts-graph" stroke="#90ed7d" stroke-width="2" stroke-linejoin="round" stroke-linecap="round"></path></g><g class="highcharts-markers highcharts-series-2 highcharts-line-series highcharts-color-undefined " transform="translate(72,47) scale(1 1)" width="296" height="518" clip-path="none"></g><g class="highcharts-series highcharts-series-3 highcharts-line-series highcharts-color-undefined " transform="translate(72,47) scale(1 1)" width="296" height="518" clip-path="url(#highcharts-7m11rbd-629)"><path fill="none" d="M 5.078431372549 295.94476349538843 L 8.7319791225843 295.94476349538843 L 12.38552687262 295.94476349538843 L 16.039074622655 295.94476349538843 L 19.69262237269 295.94476349538843 L 23.346170122725 295.94476349538843 L 26.999717872761 295.94476349538843 L 30.653265622796 295.94476349538843 L 34.306813372831 295.94476349538843 L 45.267456622937 295.94476349538843 L 63.535195373113 295.94476349538843 L 81.80293412329 295.94476349538843 L 100.07067287347 295.94476349538843 L 118.33841162364 295.94476349538843 L 136.60615037382 295.94476349538843 L 154.87388912399 295.9433825827731 L 173.14162787417 295.9433825827731 L 191.40936662435 295.9433825827731 L 209.67710537452 295.9433825827731 L 227.9448441247 295.94255403520395 L 246.21258287488 295.9411731225887 L 264.48032162505 295.94062075754255 L 282.74806037523 295.93979220997335 L 301.01579912541 295.93730656726586 L 319.28353787558 295.92653544886656 L 337.55127662576 295.88676516554625 L 355.81901537593 295.75447373700143 L 374.08675412611 294.63068705067855 L 392.35449287629 291.79318780878094 L 410.62223162646 290.45370257194975 L 428.88997037664 284.4729700351293 L 447.15770912682 255.07803555849983 L 465.42544787699 208.11568315519872 L 483.69318662717 159.59345186166613 L 501.96092537735 113.13513256294581 L 512.92156862745 97.09196598103111" class="highcharts-graph" stroke="#f7a35c" stroke-width="2" stroke-linejoin="round" stroke-linecap="round"></path></g><g class="highcharts-markers highcharts-series-3 highcharts-line-series highcharts-color-undefined " transform="translate(72,47) scale(1 1)" width="296" height="518" clip-path="none"></g><g class="highcharts-series highcharts-series-4 highcharts-line-series highcharts-color-undefined " transform="translate(72,47) scale(1 1)" width="296" height="518" clip-path="url(#highcharts-7m11rbd-629)"><path fill="none" d="M 5.078431372549 295.97190692452307 L 8.7319791225843 295.9575615242795 L 12.38552687262 295.95397517421867 L 16.039074622655 295.93783659894467 L 19.69262237269 295.9234911987012 L 23.346170122725 295.92169802367073 L 26.999717872761 295.9193071236301 L 30.653265622796 295.9085480734475 L 34.306813372831 295.89659357324456 L 45.267456622937 295.732099650452 L 63.535195373113 295.52265680689646 L 81.80293412329 295.39199411967826 L 100.07067287347 295.2887072379248 L 118.33841162364 295.16892314589137 L 136.60615037382 295.06456035911964 L 154.87388912399 294.9823133977234 L 173.14162787417 294.9010227963434 L 191.40936662435 294.82702444008714 L 209.67710537452 294.76964283911303 L 227.9448441247 294.7017412779603 L 246.21258287488 294.6408928719273 L 264.48032162505 294.58291354594303 L 282.74806037523 294.53581281514346 L 301.01579912541 294.49110298438444 L 319.28353787558 294.4536853987492 L 337.55127662576 294.4191368931627 L 355.81901537593 294.38458838757623 L 374.08675412611 294.3605598421683 L 392.35449287629 294.3417912768497 L 410.62223162646 294.3252940665696 L 428.88997037664 294.30796004127535 L 447.15770912682 294.2914628309953 L 465.42544787699 294.2801060558025 L 483.69318662717 294.2717379056604 L 501.96092537735 294.2590661354453 L 512.92156862745 294.2528497953398" class="highcharts-graph" stroke="#8085e9" stroke-width="2" stroke-linejoin="round" stroke-linecap="round"></path></g><g class="highcharts-markers highcharts-series-4 highcharts-line-series highcharts-color-undefined " transform="translate(72,47) scale(1 1)" width="296" height="518" clip-path="none"></g><g class="highcharts-series highcharts-series-5 highcharts-line-series highcharts-color-undefined " transform="translate(72,47) scale(1 1)" width="296" height="518" clip-path="url(#highcharts-7m11rbd-629)"><path fill="none" d="M 5.078431372549 296 L 8.7319791225843 296 L 12.38552687262 296 L 16.039074622655 295.99940227498985 L 19.69262237269 295.99940227498985 L 23.346170122725 295.99940227498985 L 26.999717872761 295.99940227498985 L 30.653265622796 295.99940227498985 L 34.306813372831 295.9988045499797 L 45.267456622937 295.99617455993507 L 63.535195373113 295.991990484864 L 81.80293412329 295.987686864791 L 100.07067287347 295.9806337096712 L 118.33841162364 295.97071147450276 L 136.60615037382 295.9616260543485 L 154.87388912399 295.94584611408067 L 173.14162787417 295.93688023892844 L 191.40936662435 295.9244475587174 L 209.67710537452 295.91285169352057 L 227.9448441247 295.9042444533744 L 246.21258287488 295.8962349382384 L 264.48032162505 295.88571497805987 L 282.74806037523 295.8774663729198 L 301.01579912541 295.8712500328143 L 319.28353787558 295.8647946027047 L 337.55127662576 295.85726326757685 L 355.81901537593 295.849851477451 L 374.08675412611 295.84351559234346 L 392.35449287629 295.8332347221689 L 410.62223162646 295.82486657202685 L 428.88997037664 295.804902556688 L 447.15770912682 295.7868512613815 L 465.42544787699 295.76353998598574 L 483.69318662717 295.73712054053726 L 501.96092537735 295.7037674849711 L 512.92156862745 295.6748375944799" class="highcharts-graph" stroke="#f15c80" stroke-width="2" stroke-linejoin="round" stroke-linecap="round"></path></g><g class="highcharts-markers highcharts-series-5 highcharts-line-series highcharts-color-undefined " transform="translate(72,47) scale(1 1)" width="296" height="518" clip-path="none"></g><g class="highcharts-series highcharts-series-6 highcharts-line-series highcharts-color-undefined " transform="translate(72,47) scale(1 1)" width="296" height="518" clip-path="url(#highcharts-7m11rbd-629)"><path fill="none" d="M 5.078431372549 295.975493274584 L 8.7319791225843 295.96413649939115 L 12.38552687262 295.9563660742593 L 16.039074622655 295.9479979241172 L 19.69262237269 295.92588209874174 L 23.346170122725 295.91751394859966 L 26.999717872761 295.91213442350835 L 30.653265622796 295.90675489841703 L 34.306813372831 295.8971912982547 L 45.267456622937 295.76294226097565 L 63.535195373113 295.58195112790304 L 81.80293412329 295.4745997160806 L 100.07067287347 295.35935833412424 L 118.33841162364 295.24614921720234 L 136.60615037382 295.14656823051183 L 154.87388912399 295.0675489841704 L 173.14162787417 294.9939092629202 L 191.40936662435 294.92074772167825 L 209.67710537452 294.85248752551945 L 227.9448441247 294.7921172994946 L 246.21258287488 294.7321057084758 L 264.48032162505 294.68775451272285 L 282.74806037523 294.6364697068522 L 301.01579912541 294.5924771461054 L 319.28353787558 294.5521904804215 L 337.55127662576 294.52290195492424 L 355.81901537593 294.4961238744697 L 374.08675412611 294.47496440911044 L 392.35449287629 294.4575108388142 L 410.62223162646 294.4396986335118 L 428.88997037664 294.42128870319925 L 447.15770912682 294.404193767909 L 465.42544787699 294.38996791266754 L 483.69318662717 294.3841102075681 L 501.96092537735 294.3745466074057 L 512.92156862745 294.3711993473489" class="highcharts-graph" stroke="#e4d354" stroke-width="2" stroke-linejoin="round" stroke-linecap="round"></path></g><g class="highcharts-markers highcharts-series-6 highcharts-line-series highcharts-color-undefined " transform="translate(72,47) scale(1 1)" width="296" height="518" clip-path="none"></g><g class="highcharts-series highcharts-series-7 highcharts-line-series highcharts-color-undefined " transform="translate(72,47) scale(1 1)" width="296" height="518" clip-path="url(#highcharts-7m11rbd-629)"><path fill="none" d="M 5.078431372549 295.80275074665144 L 8.7319791225843 295.8021530216413 L 12.38552687262 295.80155529663114 L 16.039074622655 295.800957571621 L 19.69262237269 295.7997621216007 L 23.346170122725 295.7991643965905 L 26.999717872761 295.79557804652967 L 30.653265622796 295.7937848714992 L 34.306813372831 295.7913939714586 L 45.267456622937 295.7867317163795 L 63.535195373113 295.77848311123944 L 81.80293412329 295.76593088602635 L 100.07067287347 295.75636728586403 L 118.33841162364 295.7463255056935 L 136.60615037382 295.73592509051696 L 154.87388912399 295.7231337752998 L 173.14162787417 295.707592925036 L 191.40936662435 295.6921716197742 L 209.67710537452 295.6740007794657 L 227.9448441247 295.6604921942364 L 246.21258287488 295.64985268905576 L 264.48032162505 295.6353877438102 L 282.74806037523 295.62415051361944 L 301.01579912541 295.6056210383049 L 319.28353787558 295.5947424431202 L 337.55127662576 295.5852983879599 L 355.81901537593 295.57489797278333 L 374.08675412611 295.56533437262095 L 392.35449287629 295.5564880424708 L 410.62223162646 295.55027170236525 L 428.88997037664 295.54178400722117 L 447.15770912682 295.5261236119553 L 465.42544787699 295.5135713867422 L 483.69318662717 295.4895428413343 L 501.96092537735 295.4583415958046 L 512.92156862745 295.4375407654515" class="highcharts-graph" stroke="#2b908f" stroke-width="2" stroke-linejoin="round" stroke-linecap="round"></path></g><g class="highcharts-markers highcharts-series-7 highcharts-line-series highcharts-color-undefined " transform="translate(72,47) scale(1 1)" width="296" height="518" clip-path="none"></g><g class="highcharts-series highcharts-series-8 highcharts-line-series highcharts-color-undefined " transform="translate(72,47) scale(1 1)" width="296" height="518" clip-path="url(#highcharts-7m11rbd-629)"><path fill="none" d="M 5.078431372549 295.99667323301264 L 8.7319791225843 295.99667323301264 L 12.38552687262 295.9965724218918 L 16.039074622655 295.99637079965015 L 19.69262237269 295.99637079965015 L 23.346170122725 295.99606836628766 L 26.999717872761 295.9959675551668 L 30.653265622796 295.99576593292517 L 34.306813372831 295.9955643106835 L 45.267456622937 295.99425376611276 L 63.535195373113 295.9899390501413 L 81.80293412329 295.9859670919806 L 100.07067287347 295.98221691828576 L 118.33841162364 295.9783054467976 L 136.60615037382 295.9738697574811 L 154.87388912399 295.96832514583554 L 173.14162787417 295.9628813453108 L 191.40936662435 295.9563286224569 L 209.67710537452 295.9497355751547 L 227.9448441247 295.94257798557584 L 246.21258287488 295.9327186579588 L 264.48032162505 295.92211332804754 L 282.74806037523 295.9087659356498 L 301.01579912541 295.8921119384889 L 319.28353787558 295.8788451949878 L 337.55127662576 295.8663647782292 L 355.81901537593 295.85206976129564 L 374.08675412611 295.83531495301384 L 392.35449287629 295.816483435643 L 410.62223162646 295.7919056843849 L 428.88997037664 295.7622672148612 L 447.15770912682 295.72936246502263 L 465.42544787699 295.69796988199647 L 483.69318662717 295.66903709031857 L 501.96092537735 295.632845897941 L 512.92156862745 295.606937439888" class="highcharts-graph" stroke="#f45b5b" stroke-width="2" stroke-linejoin="round" stroke-linecap="round"></path></g><g class="highcharts-markers highcharts-series-8 highcharts-line-series highcharts-color-undefined " transform="translate(72,47) scale(1 1)" width="296" height="518" clip-path="none"></g><g class="highcharts-series highcharts-series-9 highcharts-line-series highcharts-color-undefined " transform="translate(72,47) scale(1 1)" width="296" height="518" clip-path="url(#highcharts-7m11rbd-629)"><path fill="none" d="M 5.078431372549 296 L 8.7319791225843 296 L 12.38552687262 295.99768134422095 L 16.039074622655 295.99284241042113 L 19.69262237269 295.8983823902044 L 23.346170122725 295.8752966435346 L 26.999717872761 295.85140440789814 L 30.653265622796 295.8292259613158 L 34.306813372831 295.81269293749983 L 45.267456622937 295.7191805418189 L 63.535195373113 295.5739117167044 L 81.80293412329 295.47725401405364 L 100.07067287347 295.37753165332964 L 118.33841162364 295.25641717276574 L 136.60615037382 295.11592679477855 L 154.87388912399 295.0072120820766 L 173.14162787417 294.85242668715586 L 191.40936662435 294.67727744582766 L 209.67710537452 294.45714628238557 L 227.9448441247 294.2073766494198 L 246.21258287488 293.9746440958741 L 264.48032162505 293.6666862839659 L 282.74806037523 293.30969394288644 L 301.01579912541 293.08258664988296 L 319.28353787558 292.90344528816996 L 337.55127662576 292.62508562133706 L 355.81901537593 292.23708377949066 L 374.08675412611 291.94549769360503 L 392.35449287629 291.7183299139291 L 410.62223162646 291.4378128891105 L 428.88997037664 291.1791517152876 L 447.15770912682 290.9702912351542 L 465.42544787699 290.82568776343714 L 483.69318662717 290.68890723469644 L 501.96092537735 290.4848050394662 L 512.92156862745 290.4004462935565" class="highcharts-graph" stroke="#91e8e1" stroke-width="2" stroke-linejoin="round" stroke-linecap="round"></path></g><g class="highcharts-markers highcharts-series-9 highcharts-line-series highcharts-color-undefined " transform="translate(72,47) scale(1 1)" width="296" height="518" clip-path="none"></g><g class="highcharts-series highcharts-series-10 highcharts-line-series highcharts-color-undefined " transform="translate(72,47) scale(1 1)" width="296" height="518" clip-path="url(#highcharts-7m11rbd-629)"><path fill="none" d="M 5.078431372549 295.99889107767086 L 8.7319791225843 295.99858864430837 L 12.38552687262 295.9983870220667 L 16.039074622655 295.99798377758344 L 19.69262237269 295.9975805331001 L 23.346170122725 295.9965724218918 L 26.999717872761 295.995866744046 L 30.653265622796 295.9950602550794 L 34.306813372831 295.99385052162944 L 45.267456622937 295.9836282739774 L 63.535195373113 295.94582410366655 L 81.80293412329 295.89943082586103 L 100.07067287347 295.86430823136425 L 118.33841162364 295.83136315707736 L 136.60615037382 295.793377526749 L 154.87388912399 295.76593673965937 L 173.14162787417 295.7415001239704 L 191.40936662435 295.71301090122415 L 209.67710537452 295.6848241118404 L 227.9448441247 295.6575042980958 L 246.21258287488 295.63564844710004 L 264.48032162505 295.6140950294668 L 282.74806037523 295.5836500709765 L 301.01579912541 295.54570476509645 L 319.28353787558 295.50733605250895 L 337.55127662576 295.4753789272062 L 355.81901537593 295.4458614310275 L 374.08675412611 295.41682782822875 L 392.35449287629 295.37337823515145 L 410.62223162646 295.3156941118132 L 428.88997037664 295.2717606253559 L 447.15770912682 295.23351288611343 L 465.42544787699 295.18693814829044 L 483.69318662717 295.14020211267416 L 501.96092537735 295.07784035332935 L 512.92156862745 295.0260637616716" class="highcharts-graph" stroke="#7cb5ec" stroke-width="2" stroke-linejoin="round" stroke-linecap="round"></path></g><g class="highcharts-markers highcharts-series-10 highcharts-line-series highcharts-color-undefined " transform="translate(72,47) scale(1 1)" width="296" height="518" clip-path="none"></g><g class="highcharts-series highcharts-series-11 highcharts-line-series highcharts-color-undefined " transform="translate(72,47) scale(1 1)" width="296" height="518" clip-path="url(#highcharts-7m11rbd-629)"><path fill="none" d="M 5.078431372549 295.83577868416967 L 8.7319791225843 295.83507300632385 L 12.38552687262 295.82731055002 L 16.039074622655 295.8191448492329 L 19.69262237269 295.6749849464475 L 23.346170122725 295.62851101974536 L 26.999717872761 295.5767949147601 L 30.653265622796 295.53929317781177 L 34.306813372831 295.50169062974254 L 45.267456622937 295.34482852573274 L 63.535195373113 295.131673491852 L 81.80293412329 294.9850537977184 L 100.07067287347 294.80841255180195 L 118.33841162364 294.653244074622 L 136.60615037382 294.48190549366115 L 154.87388912399 294.263467957049 L 173.14162787417 293.91409693670425 L 191.40936662435 293.6645692504284 L 209.67710537452 293.3511878002196 L 227.9448441247 293.0429678793972 L 246.21258287488 292.6664988297736 L 264.48032162505 292.15871321415824 L 282.74806037523 291.7708323456568 L 301.01579912541 291.5725167087621 L 319.28353787558 291.3588777815014 L 337.55127662576 291.09053874007896 L 355.81901537593 290.70070213583347 L 374.08675412611 290.3989139645199 L 392.35449287629 290.20063865207356 L 410.62223162646 289.9736926568635 L 428.88997037664 289.6130106287617 L 447.15770912682 289.24781226244676 L 465.42544787699 288.9394915305035 L 483.69318662717 288.69153649771266 L 501.96092537735 288.49560000326954 L 512.92156862745 288.39249038888573" class="highcharts-graph" stroke="#434348" stroke-width="2" stroke-linejoin="round" stroke-linecap="round"></path></g><g class="highcharts-markers highcharts-series-11 highcharts-line-series highcharts-color-undefined " transform="translate(72,47) scale(1 1)" width="296" height="518" clip-path="none"></g><g class="highcharts-series highcharts-series-12 highcharts-line-series highcharts-color-undefined " transform="translate(72,47) scale(1 1)" width="296" height="518" clip-path="url(#highcharts-7m11rbd-629)"><path fill="none" d="M 5.078431372549 296 L 8.7319791225843 296 L 12.38552687262 296 L 16.039074622655 296 L 19.69262237269 296 L 23.346170122725 296 L 26.999717872761 296 L 30.653265622796 296 L 34.306813372831 296 L 37.960361122866 296 L 45.267456622937 296 L 52.574552123007 296 L 59.881647623078 296 L 67.188743123149 295.9983490342408 L 74.495838623219 295.9867922739264 L 81.80293412329 295.95955133889976 L 89.11002962336 295.91992816067915 L 96.417125123431 295.8522385645522 L 103.7242206235 295.8018841088968 L 111.03131612357 295.71851033805757 L 118.33841162364 295.6557736392082 L 125.64550712371 295.5344276559075 L 132.95260262378 295.36107625119223 L 140.25969812385 295.2331264048547 L 147.56679362392 295.1637858429686 L 154.87388912399 295.01602440752083 L 162.18098462407 294.90953711605283 L 169.48808012414 294.76920502652143 L 176.79517562421 294.5554049607059 L 184.10227112428 294.54549916615076 L 191.40936662435 294.534767888716 L 198.71646212442 294.5289895085588 L 206.02355762449 294.5289895085588 L 213.33065312456 294.5273385427996 L 220.63774862463 294.5273385427996 L 227.9448441247 294.52238564552204 L 235.25193962477 294.5124798509669 L 242.55903512484 294.5100034023281 L 249.86613062491 294.50917791944846 L 257.17322612498 294.5075269536893 L 264.48032162505 294.5050505050505 L 271.78741712512 294.5009230906525 L 279.09451262519 294.49349374473616 L 286.40160812526 294.4926682618566 L 293.70870362534 294.49101729609737 L 301.01579912541 294.48936633033816 L 308.32289462548 294.48936633033816 L 315.62999012555 294.487715364579 L 322.93708562562 294.48523891594016 L 330.24418112569 294.483587950181 L 337.55127662576 294.48276246730137 L 344.85837212583 294.4802860186626 L 352.1654676259 294.4778095700238 L 359.47256312597 294.4778095700238 L 366.77965862604 294.4778095700238 L 374.08675412611 294.4778095700238 L 381.39384962618 294.4778095700238 L 388.70094512625 294.4778095700238 L 396.00804062632 294.4778095700238 L 403.31513612639 294.4778095700238 L 410.62223162646 294.4778095700238 L 417.92932712653 294.4778095700238 L 425.2364226266 294.4778095700238 L 432.54351812668 294.4778095700238 L 439.85061362675 294.4778095700238 L 447.15770912682 294.4778095700238 L 454.46480462689 294.4778095700238 L 461.77190012696 294.4778095700238 L 469.07899562703 294.4778095700238 L 476.3860911271 294.4778095700238 L 483.69318662717 294.4778095700238 L 491.00028212724 294.4778095700238 L 498.30737762731 294.4778095700238 L 505.61447312738 294.4778095700238" class="highcharts-graph" stroke="#90ed7d" stroke-width="2" stroke-linejoin="round" stroke-linecap="round"></path></g><g class="highcharts-markers highcharts-series-12 highcharts-line-series highcharts-color-undefined " transform="translate(72,47) scale(1 1)" width="296" height="518" clip-path="none"></g><g class="highcharts-series highcharts-series-13 highcharts-line-series highcharts-color-undefined " transform="translate(72,47) scale(1 1)" width="296" height="518" clip-path="url(#highcharts-7m11rbd-629)"><path fill="none" d="M 5.078431372549 296 L 8.7319791225843 296 L 12.38552687262 296 L 16.039074622655 296 L 19.69262237269 296 L 23.346170122725 296 L 26.999717872761 296 L 30.653265622796 296 L 34.306813372831 296 L 37.960361122866 295.9983490342408 L 45.267456622937 295.9983490342408 L 52.574552123007 295.9983490342408 L 59.881647623078 295.9983490342408 L 67.188743123149 295.9950471027224 L 74.495838623219 295.9306594381139 L 81.80293412329 295.78702541706406 L 89.11002962336 295.7308925812515 L 96.417125123431 295.51874348119514 L 103.7242206235 295.3420901449615 L 111.03131612357 295.02923213359435 L 118.33841162364 294.8022243417053 L 125.64550712371 294.440662840442 L 132.95260262378 294.27556626452264 L 140.25969812385 294.1913670108038 L 147.56679362392 294.0708465103827 L 154.87388912399 293.87520706791827 L 162.18098462407 293.78770588268105 L 169.48808012414 293.71176145775814 L 176.79517562421 293.68121859121305 L 184.10227112428 293.66140700210275 L 191.40936662435 293.6523266904272 L 198.71646212442 293.650675724668 L 206.02355762449 293.6473737931496 L 213.33065312456 293.63911896435366 L 220.63774862463 293.6292131697985 L 227.9448441247 293.6292131697985 L 235.25193962477 293.6259112382801 L 242.55903512484 293.6250857554005 L 249.86613062491 293.6209583410025 L 257.17322612498 293.6168309266045 L 264.48032162505 293.6143544779657 L 271.78741712512 293.6143544779657 L 279.09451262519 293.61270351220656 L 286.40160812526 293.60940158068814 L 293.70870362534 293.607750614929 L 301.01579912541 293.6027977176514 L 308.32289462548 293.6027977176514 L 315.62999012555 293.6011467518922 L 322.93708562562 293.599495786133 L 330.24418112569 293.5970193374942 L 337.55127662576 293.5928919230962 L 344.85837212583 293.5928919230962 L 352.1654676259 293.5928919230962 L 359.47256312597 293.5928919230962 L 366.77965862604 293.5928919230962 L 374.08675412611 293.5928919230962 L 381.39384962618 293.5928919230962 L 388.70094512625 293.5928919230962 L 396.00804062632 293.5928919230962 L 403.31513612639 293.5928919230962 L 410.62223162646 293.5928919230962 L 417.92932712653 293.5928919230962 L 425.2364226266 293.5928919230962 L 432.54351812668 293.5928919230962 L 439.85061362675 293.5928919230962 L 447.15770912682 293.5928919230962 L 454.46480462689 293.5928919230962 L 461.77190012696 293.5928919230962 L 469.07899562703 293.5928919230962 L 476.3860911271 293.5928919230962 L 483.69318662717 293.5928919230962 L 491.00028212724 293.5928919230962 L 498.30737762731 293.5928919230962 L 505.61447312738 293.5928919230962" class="highcharts-graph" stroke="#f7a35c" stroke-width="2" stroke-linejoin="round" stroke-linecap="round"></path></g><g class="highcharts-markers highcharts-series-13 highcharts-line-series highcharts-color-undefined " transform="translate(72,47) scale(1 1)" width="296" height="518" clip-path="none"></g><g class="highcharts-series highcharts-series-14 highcharts-line-series highcharts-color-undefined " transform="translate(72,47) scale(1 1)" width="296" height="518" clip-path="url(#highcharts-7m11rbd-629)"><path fill="none" d="M 5.078431372549 295.9713101541742 L 8.7319791225843 295.95634153896077 L 12.38552687262 295.9525993851574 L 16.039074622655 295.9363833853428 L 19.69262237269 295.92141477012933 L 23.346170122725 295.9195436932277 L 26.999717872761 295.91704892402544 L 30.653265622796 295.9064461549159 L 34.306813372831 295.89397230890467 L 45.267456622937 295.73131335691846 L 63.535195373113 295.51963219010815 L 81.80293412329 295.3875341608494 L 100.07067287347 295.28437545433667 L 118.33841162364 295.1637533634082 L 136.60615037382 295.0618420414966 L 154.87388912399 294.9837557654664 L 173.14162787417 294.9024262894733 L 191.40936662435 294.8312006287493 L 209.67710537452 294.77868573704205 L 227.9448441247 294.71394647624385 L 246.21258287488 294.6571904768928 L 264.48032162505 294.6025550313637 L 282.74806037523 294.5581481395638 L 301.01579912541 294.51561232466554 L 319.28353787558 294.4801866019937 L 337.55127662576 294.44987515618647 L 355.81901537593 294.42006266421964 L 374.08675412611 294.3998550336815 L 392.35449287629 294.3836390338669 L 410.62223162646 294.3714146647759 L 428.88997037664 294.355947095722 L 447.15770912682 294.340354788208 L 465.42544787699 294.33137361907995 L 483.69318662717 294.32463774223385 L 501.96092537735 294.31415971158447 L 512.92156862745 294.3085464808794" class="highcharts-graph" stroke="#8085e9" stroke-width="2" stroke-linejoin="round" stroke-linecap="round"></path></g><g class="highcharts-markers highcharts-series-14 highcharts-line-series highcharts-color-undefined " transform="translate(72,47) scale(1 1)" width="296" height="518" clip-path="none"></g><g class="highcharts-series highcharts-series-15 highcharts-line-series highcharts-color-undefined " transform="translate(72,47) scale(1 1)" width="296" height="518" clip-path="url(#highcharts-7m11rbd-629)"><path fill="none" d="M 5.078431372549 295.97567600027816 L 8.7319791225843 295.9638258465675 L 12.38552687262 295.95696523126134 L 16.039074622655 295.948857231354 L 19.69262237269 295.9270280008344 L 23.346170122725 295.91829630862657 L 26.999717872761 295.91330677022205 L 30.653265622796 295.9083172318176 L 34.306813372831 295.89771446270805 L 45.267456622937 295.7612505873454 L 63.535195373113 295.58037982018277 L 81.80293412329 295.4751005598481 L 100.07067287347 295.36133908422585 L 118.33841162364 295.24820130090416 L 136.60615037382 295.152402163538 L 154.87388912399 295.0783075182314 L 173.14162787417 295.0085787190287 L 191.40936662435 294.9418436428687 L 209.67710537452 294.877603335911 L 227.9448441247 294.82047312117965 L 246.21258287488 294.76533872181005 L 264.48032162505 294.7242997684332 L 282.74806037523 294.6782712766518 L 301.01579912541 294.63972709247713 L 319.28353787558 294.60504980056595 L 337.55127662576 294.57835577010195 L 355.81901537593 294.55353281653964 L 374.08675412611 294.535071524443 L 392.35449287629 294.519479216929 L 410.62223162646 294.50550850939646 L 428.88997037664 294.4914130634038 L 447.15770912682 294.4781907866319 L 465.42544787699 294.4668395867617 L 483.69318662717 294.4614758329769 L 501.96092537735 294.4532430946095 L 512.92156862745 294.45012463310667" class="highcharts-graph" stroke="#f15c80" stroke-width="2" stroke-linejoin="round" stroke-linecap="round"></path></g><g class="highcharts-markers highcharts-series-15 highcharts-line-series highcharts-color-undefined " transform="translate(72,47) scale(1 1)" width="296" height="518" clip-path="none"></g></g><text x="330" text-anchor="middle" class="highcharts-title" style="color:#333333;font-size:18px;fill:#333333;width:536px;" y="24"><tspan>FastQC: Adapter Content</tspan></text><g class="highcharts-axis-labels highcharts-xaxis-labels "><text x="73.42488362251376" style="color:#666666;cursor:default;font-size:11px;fill:#666666;width:94px;text-overflow:clip;" text-anchor="middle" transform="translate(0,0)" y="362" opacity="1"><tspan>0</tspan></text><text x="164.76357737339544" style="color:#666666;cursor:default;font-size:11px;fill:#666666;width:94px;text-overflow:clip;" text-anchor="middle" transform="translate(0,0)" y="362" opacity="1"><tspan>25</tspan></text><text x="256.1022711242771" style="color:#666666;cursor:default;font-size:11px;fill:#666666;width:94px;text-overflow:clip;" text-anchor="middle" transform="translate(0,0)" y="362" opacity="1"><tspan>50</tspan></text><text x="347.4409648751587" style="color:#666666;cursor:default;font-size:11px;fill:#666666;width:94px;text-overflow:clip;" text-anchor="middle" transform="translate(0,0)" y="362" opacity="1"><tspan>75</tspan></text><text x="438.7796586260404" style="color:#666666;cursor:default;font-size:11px;fill:#666666;width:94px;text-overflow:clip;" text-anchor="middle" transform="translate(0,0)" y="362" opacity="1"><tspan>100</tspan></text><text x="530.1183523769221" style="color:#666666;cursor:default;font-size:11px;fill:#666666;width:94px;text-overflow:clip;" text-anchor="middle" transform="translate(0,0)" y="362" opacity="1"><tspan>125</tspan></text></g><g class="highcharts-axis-labels highcharts-yaxis-labels "><text x="57" style="color:#666666;cursor:default;font-size:11px;fill:#666666;width:188px;text-overflow:clip;" text-anchor="end" transform="translate(0,0)" y="347" opacity="1"><tspan>0</tspan></text><text x="57" style="color:#666666;cursor:default;font-size:11px;fill:#666666;width:188px;text-overflow:clip;" text-anchor="end" transform="translate(0,0)" y="288" opacity="1"><tspan>20</tspan></text><text x="57" style="color:#666666;cursor:default;font-size:11px;fill:#666666;width:188px;text-overflow:clip;" text-anchor="end" transform="translate(0,0)" y="229" opacity="1"><tspan>40</tspan></text><text x="57" style="color:#666666;cursor:default;font-size:11px;fill:#666666;width:188px;text-overflow:clip;" text-anchor="end" transform="translate(0,0)" y="170" opacity="1"><tspan>60</tspan></text><text x="57" style="color:#666666;cursor:default;font-size:11px;fill:#666666;width:188px;text-overflow:clip;" text-anchor="end" transform="translate(0,0)" y="110" opacity="1"><tspan>80</tspan></text><text x="57" style="color:#666666;cursor:default;font-size:11px;fill:#666666;width:188px;text-overflow:clip;" text-anchor="end" transform="translate(0,0)" y="51" opacity="1"><tspan>100</tspan></text></g><text x="590" class="highcharts-credits" text-anchor="end" style="cursor:pointer;color:#999999;font-size:9px;fill:#999999;" y="395"><tspan>Created with MultiQC</tspan></text></svg>