<svg xmlns:xlink="http://www.w3.org/1999/xlink" version="1.1" class="highcharts-root" style="font-family:&quot;lucida grande&quot;, &quot;lucida sans unicode&quot;, arial, helvetica, sans-serif;font-size:12px;" xmlns="http://www.w3.org/2000/svg" width="600" height="400"><desc>Created with Highcharts 5.0.6</desc><defs><clipPath id="highcharts-7m11rbd-607"><rect x="0" y="0" width="511" height="273" fill="none"></rect></clipPath></defs><rect fill="#ffffff" class="highcharts-background" x="0" y="0" width="600" height="400" rx="0" ry="0"></rect><rect fill="none" class="highcharts-plot-background" x="79" y="47" width="511" height="273"></rect><g class="highcharts-grid highcharts-xaxis-grid "><path fill="none" class="highcharts-grid-line" d="M 110.5 47 L 110.5 320" opacity="1"></path><path fill="none" class="highcharts-grid-line" d="M 142.5 47 L 142.5 320" opacity="1"></path><path fill="none" class="highcharts-grid-line" d="M 174.5 47 L 174.5 320" opacity="1"></path><path fill="none" class="highcharts-grid-line" d="M 206.5 47 L 206.5 320" opacity="1"></path><path fill="none" class="highcharts-grid-line" d="M 238.5 47 L 238.5 320" opacity="1"></path><path fill="none" class="highcharts-grid-line" d="M 270.5 47 L 270.5 320" opacity="1"></path><path fill="none" class="highcharts-grid-line" d="M 302.5 47 L 302.5 320" opacity="1"></path><path fill="none" class="highcharts-grid-line" d="M 334.5 47 L 334.5 320" opacity="1"></path><path fill="none" class="highcharts-grid-line" d="M 365.5 47 L 365.5 320" opacity="1"></path><path fill="none" class="highcharts-grid-line" d="M 397.5 47 L 397.5 320" opacity="1"></path><path fill="none" class="highcharts-grid-line" d="M 429.5 47 L 429.5 320" opacity="1"></path><path fill="none" class="highcharts-grid-line" d="M 461.5 47 L 461.5 320" opacity="1"></path><path fill="none" class="highcharts-grid-line" d="M 493.5 47 L 493.5 320" opacity="1"></path><path fill="none" class="highcharts-grid-line" d="M 525.5 47 L 525.5 320" opacity="1"></path><path fill="none" class="highcharts-grid-line" d="M 557.5 47 L 557.5 320" opacity="1"></path><path fill="none" class="highcharts-grid-line" d="M 589.5 47 L 589.5 320" opacity="1"></path><path fill="none" class="highcharts-grid-line" d="M 78.5 47 L 78.5 320" opacity="1"></path></g><g class="highcharts-grid highcharts-yaxis-grid "><path fill="none" stroke="#e6e6e6" stroke-width="1" class="highcharts-grid-line" d="M 79 320.5 L 590 320.5" opacity="1"></path><path fill="none" stroke="#e6e6e6" stroke-width="1" class="highcharts-grid-line" d="M 79 252.5 L 590 252.5" opacity="1"></path><path fill="none" stroke="#e6e6e6" stroke-width="1" class="highcharts-grid-line" d="M 79 184.5 L 590 184.5" opacity="1"></path><path fill="none" stroke="#e6e6e6" stroke-width="1" class="highcharts-grid-line" d="M 79 115.5 L 590 115.5" opacity="1"></path><path fill="none" stroke="#e6e6e6" stroke-width="1" class="highcharts-grid-line" d="M 79 46.5 L 590 46.5" opacity="1"></path></g><rect fill="none" class="highcharts-plot-border" x="79" y="47" width="511" height="273"></rect><g class="highcharts-axis highcharts-xaxis "><path fill="none" class="highcharts-tick" stroke="#ccd6eb" stroke-width="1" d="M 110.5 320 L 110.5 330" opacity="1"></path><path fill="none" class="highcharts-tick" stroke="#ccd6eb" stroke-width="1" d="M 142.5 320 L 142.5 330" opacity="1"></path><path fill="none" class="highcharts-tick" stroke="#ccd6eb" stroke-width="1" d="M 174.5 320 L 174.5 330" opacity="1"></path><path fill="none" class="highcharts-tick" stroke="#ccd6eb" stroke-width="1" d="M 206.5 320 L 206.5 330" opacity="1"></path><path fill="none" class="highcharts-tick" stroke="#ccd6eb" stroke-width="1" d="M 238.5 320 L 238.5 330" opacity="1"></path><path fill="none" class="highcharts-tick" stroke="#ccd6eb" stroke-width="1" d="M 270.5 320 L 270.5 330" opacity="1"></path><path fill="none" class="highcharts-tick" stroke="#ccd6eb" stroke-width="1" d="M 302.5 320 L 302.5 330" opacity="1"></path><path fill="none" class="highcharts-tick" stroke="#ccd6eb" stroke-width="1" d="M 334.5 320 L 334.5 330" opacity="1"></path><path fill="none" class="highcharts-tick" stroke="#ccd6eb" stroke-width="1" d="M 365.5 320 L 365.5 330" opacity="1"></path><path fill="none" class="highcharts-tick" stroke="#ccd6eb" stroke-width="1" d="M 397.5 320 L 397.5 330" opacity="1"></path><path fill="none" class="highcharts-tick" stroke="#ccd6eb" stroke-width="1" d="M 429.5 320 L 429.5 330" opacity="1"></path><path fill="none" class="highcharts-tick" stroke="#ccd6eb" stroke-width="1" d="M 461.5 320 L 461.5 330" opacity="1"></path><path fill="none" class="highcharts-tick" stroke="#ccd6eb" stroke-width="1" d="M 493.5 320 L 493.5 330" opacity="1"></path><path fill="none" class="highcharts-tick" stroke="#ccd6eb" stroke-width="1" d="M 525.5 320 L 525.5 330" opacity="1"></path><path fill="none" class="highcharts-tick" stroke="#ccd6eb" stroke-width="1" d="M 557.5 320 L 557.5 330" opacity="1"></path><path fill="none" class="highcharts-tick" stroke="#ccd6eb" stroke-width="1" d="M 590.5 320 L 590.5 330" opacity="1"></path><path fill="none" class="highcharts-tick" stroke="#ccd6eb" stroke-width="1" d="M 78.5 320 L 78.5 330" opacity="1"></path><text x="334.5" text-anchor="middle" transform="translate(0,0)" class="highcharts-axis-title" style="color:#666666;fill:#666666;" y="382.25274297481747"><tspan>Sequence Duplication Level</tspan></text><path fill="none" class="highcharts-axis-line" stroke="#ccd6eb" stroke-width="1" d="M 79 320.5 L 590 320.5"></path></g><g class="highcharts-axis highcharts-yaxis "><text x="24.700000762939453" text-anchor="middle" transform="translate(0,0) rotate(270 24.700000762939453 183.5)" class="highcharts-axis-title" style="color:#666666;fill:#666666;" y="183.5"><tspan>% of Library</tspan></text><path fill="none" class="highcharts-axis-line" d="M 79 47 L 79 320"></path></g><g class="highcharts-series-group"><g class="highcharts-series highcharts-series-0 highcharts-line-series highcharts-color-undefined " transform="translate(79,47) scale(1 1)" width="273" height="511" clip-path="url(#highcharts-7m11rbd-607)"><path fill="none" d="M 15.96875 244.3182583706164 L 47.90625 263.33073790185256 L 79.84375 267.58205466734466 L 111.78125 269.1536918418855 L 143.71875 270.0133799235833 L 175.65625 270.72278179248053 L 207.59375 271.0118917103256 L 239.53125 271.3799655704895 L 271.46875 271.3493988831403 L 303.40625 246.94189903476075 L 335.34375 251.00599484023869 L 367.28125 218.21048653843462 L 399.21875 248.10343315403242 L 431.15625 226.18075026475267 L 463.09375 259.2768309921577 L 495.03125 246.41844451390477" class="highcharts-graph" stroke="#d9534f" stroke-width="2" stroke-linejoin="round" stroke-linecap="round"></path></g><g class="highcharts-markers highcharts-series-0 highcharts-line-series highcharts-color-undefined " transform="translate(79,47) scale(1 1)" width="273" height="511" clip-path="none"></g><g class="highcharts-series highcharts-series-1 highcharts-line-series highcharts-color-undefined " transform="translate(79,47) scale(1 1)" width="273" height="511" clip-path="url(#highcharts-7m11rbd-607)"><path fill="none" d="M 15.96875 240.6069530816278 L 47.90625 263.8452771388983 L 79.84375 268.2048509220857 L 111.78125 269.64785328736514 L 143.71875 270.5610330719241 L 175.65625 270.9214652602507 L 207.59375 271.1991126703398 L 239.53125 271.3493988831403 L 271.46875 271.62449906928356 L 303.40625 249.5184160559083 L 335.34375 252.906223903784 L 367.28125 219.03069264897294 L 399.21875 248.17348181254113 L 431.15625 215.75241543076544 L 463.09375 265.9390952223223 L 495.03125 245.7192315407906" class="highcharts-graph" stroke="#d9534f" stroke-width="2" stroke-linejoin="round" stroke-linecap="round"></path></g><g class="highcharts-markers highcharts-series-1 highcharts-line-series highcharts-color-undefined " transform="translate(79,47) scale(1 1)" width="273" height="511" clip-path="none"></g><g class="highcharts-series highcharts-series-2 highcharts-line-series highcharts-color-undefined " transform="translate(79,47) scale(1 1)" width="273" height="511" clip-path="url(#highcharts-7m11rbd-607)"><path fill="none" d="M 15.96875 232.17010233098244 L 47.90625 244.36039063494204 L 79.84375 252.70451631649513 L 111.78125 258.470584485139 L 143.71875 262.2111127788457 L 175.65625 264.5786424429544 L 207.59375 265.4839063599446 L 239.53125 266.4014049109463 L 271.46875 267.0462735440899 L 303.40625 179.56263046781234 L 335.34375 247.88413728462547 L 367.28125 262.1262984432227 L 399.21875 273 L 431.15625 273 L 463.09375 273 L 495.03125 273" class="highcharts-graph" stroke="#d9534f" stroke-width="2" stroke-linejoin="round" stroke-linecap="round"></path></g><g class="highcharts-markers highcharts-series-2 highcharts-line-series highcharts-color-undefined " transform="translate(79,47) scale(1 1)" width="273" height="511" clip-path="none"></g><g class="highcharts-series highcharts-series-3 highcharts-line-series highcharts-color-undefined " transform="translate(79,47) scale(1 1)" width="273" height="511" clip-path="url(#highcharts-7m11rbd-607)"><path fill="none" d="M 15.96875 228.6536580337048 L 47.90625 244.83341103323383 L 79.84375 253.01540494343553 L 111.78125 258.90175010194105 L 143.71875 262.5343756416246 L 175.65625 264.60798535200973 L 207.59375 265.77150902669337 L 239.53125 266.40052008938824 L 271.46875 267.25873125758403 L 303.40625 180.29145816895715 L 335.34375 248.43271006143675 L 367.28125 262.2984862899909 L 399.21875 273 L 431.15625 273 L 463.09375 273 L 495.03125 273" class="highcharts-graph" stroke="#d9534f" stroke-width="2" stroke-linejoin="round" stroke-linecap="round"></path></g><g class="highcharts-markers highcharts-series-3 highcharts-line-series highcharts-color-undefined " transform="translate(79,47) scale(1 1)" width="273" height="511" clip-path="none"></g><g class="highcharts-series highcharts-series-4 highcharts-line-series highcharts-color-undefined " transform="translate(79,47) scale(1 1)" width="273" height="511" clip-path="url(#highcharts-7m11rbd-607)"><path fill="none" d="M 15.96875 192.15223373034598 L 47.90625 259.266818153399 L 79.84375 266.73916003159206 L 111.78125 268.3342470298138 L 143.71875 269.13354080996794 L 175.65625 269.6125897526303 L 207.59375 269.8943003537506 L 239.53125 270.1315248220761 L 271.46875 270.45964715788944 L 303.40625 219.28297162528895 L 335.34375 244.12337822647942 L 367.28125 216.01872347867825 L 399.21875 263.15866814227405 L 431.15625 270.6921966858139 L 463.09375 273 L 495.03125 273" class="highcharts-graph" stroke="#d9534f" stroke-width="2" stroke-linejoin="round" stroke-linecap="round"></path></g><g class="highcharts-markers highcharts-series-4 highcharts-line-series highcharts-color-undefined " transform="translate(79,47) scale(1 1)" width="273" height="511" clip-path="none"></g><g class="highcharts-series highcharts-series-5 highcharts-line-series highcharts-color-undefined " transform="translate(79,47) scale(1 1)" width="273" height="511" clip-path="url(#highcharts-7m11rbd-607)"><path fill="none" d="M 15.96875 183.42198825106178 L 47.90625 259.6147602023718 L 79.84375 266.90545456301174 L 111.78125 268.39320561883795 L 143.71875 269.2511778698608 L 175.65625 269.62748565025595 L 207.59375 270.08171988543774 L 239.53125 270.19501548887456 L 271.46875 270.52148710456925 L 303.40625 220.26694881890137 L 335.34375 245.30057000624197 L 367.28125 219.69848582238123 L 399.21875 264.692455539139 L 431.15625 271.0292451790548 L 463.09375 273 L 495.03125 273" class="highcharts-graph" stroke="#d9534f" stroke-width="2" stroke-linejoin="round" stroke-linecap="round"></path></g><g class="highcharts-markers highcharts-series-5 highcharts-line-series highcharts-color-undefined " transform="translate(79,47) scale(1 1)" width="273" height="511" clip-path="none"></g><g class="highcharts-series highcharts-series-6 highcharts-line-series highcharts-color-undefined " transform="translate(79,47) scale(1 1)" width="273" height="511" clip-path="url(#highcharts-7m11rbd-607)"><path fill="none" d="M 15.96875 251.39772099794186 L 47.90625 263.90350216689257 L 79.84375 267.8289744490738 L 111.78125 269.12020815554774 L 143.71875 270.1906530796647 L 175.65625 270.7342502886401 L 207.59375 270.5698007128156 L 239.53125 271.3189598915717 L 271.46875 271.6021786054917 L 303.40625 241.73935378076737 L 335.34375 253.45181801449058 L 367.28125 231.71249769924535 L 399.21875 245.02682261599986 L 431.15625 209.4082626374178 L 463.09375 250.49020296839183 L 495.03125 256.5047939360474" class="highcharts-graph" stroke="#d9534f" stroke-width="2" stroke-linejoin="round" stroke-linecap="round"></path></g><g class="highcharts-markers highcharts-series-6 highcharts-line-series highcharts-color-undefined " transform="translate(79,47) scale(1 1)" width="273" height="511" clip-path="none"></g><g class="highcharts-series highcharts-series-7 highcharts-line-series highcharts-color-undefined " transform="translate(79,47) scale(1 1)" width="273" height="511" clip-path="url(#highcharts-7m11rbd-607)"><path fill="none" d="M 15.96875 251.46928701705068 L 47.90625 264.1501765306293 L 79.84375 267.9111992369861 L 111.78125 269.3821093318609 L 143.71875 270.16781286080015 L 175.65625 270.7982029014608 L 207.59375 270.60177701922595 L 239.53125 271.20932684102206 L 271.46875 271.492545554942 L 303.40625 242.12002409517595 L 335.34375 254.48115054465137 L 367.28125 230.6983919816609 L 399.21875 244.49540685708547 L 431.15625 209.31690176195974 L 463.09375 250.14912236668172 L 495.03125 256.55656509880697" class="highcharts-graph" stroke="#d9534f" stroke-width="2" stroke-linejoin="round" stroke-linecap="round"></path></g><g class="highcharts-markers highcharts-series-7 highcharts-line-series highcharts-color-undefined " transform="translate(79,47) scale(1 1)" width="273" height="511" clip-path="none"></g><g class="highcharts-series highcharts-series-8 highcharts-line-series highcharts-color-undefined " transform="translate(79,47) scale(1 1)" width="273" height="511" clip-path="url(#highcharts-7m11rbd-607)"><path fill="none" d="M 15.96875 233.2325235691836 L 47.90625 243.8792547832427 L 79.84375 252.34345398523035 L 111.78125 258.46958190924425 L 143.71875 262.1530482239866 L 175.65625 264.3289398295994 L 207.59375 265.3301152166437 L 239.53125 266.2786628448527 L 271.46875 267.0195718396456 L 303.40625 178.98941122769207 L 335.34375 248.21419321727402 L 367.28125 262.761243353405 L 399.21875 273 L 431.15625 273 L 463.09375 273 L 495.03125 273" class="highcharts-graph" stroke="#d9534f" stroke-width="2" stroke-linejoin="round" stroke-linecap="round"></path></g><g class="highcharts-markers highcharts-series-8 highcharts-line-series highcharts-color-undefined " transform="translate(79,47) scale(1 1)" width="273" height="511" clip-path="none"></g><g class="highcharts-series highcharts-series-9 highcharts-line-series highcharts-color-undefined " transform="translate(79,47) scale(1 1)" width="273" height="511" clip-path="url(#highcharts-7m11rbd-607)"><path fill="none" d="M 15.96875 231.98518694362832 L 47.90625 244.05986836554632 L 79.84375 252.499789045529 L 111.78125 258.59632444557957 L 143.71875 262.3878085511177 L 175.65625 264.3166734867813 L 207.59375 265.4530405870639 L 239.53125 266.48522364751364 L 271.46875 266.76967140431685 L 303.40625 179.1472722266402 L 335.34375 248.69884522349267 L 367.28125 262.60029607279046 L 399.21875 273 L 431.15625 273 L 463.09375 273 L 495.03125 273" class="highcharts-graph" stroke="#d9534f" stroke-width="2" stroke-linejoin="round" stroke-linecap="round"></path></g><g class="highcharts-markers highcharts-series-9 highcharts-line-series highcharts-color-undefined " transform="translate(79,47) scale(1 1)" width="273" height="511" clip-path="none"></g><g class="highcharts-series highcharts-series-10 highcharts-line-series highcharts-color-undefined " transform="translate(79,47) scale(1 1)" width="273" height="511" clip-path="url(#highcharts-7m11rbd-607)"><path fill="none" d="M 15.96875 191.9158307281145 L 47.90625 258.0791669415698 L 79.84375 265.8936858163019 L 111.78125 267.78583845994456 L 143.71875 268.6768536267091 L 175.65625 269.3670852291573 L 207.59375 269.5581561642677 L 239.53125 270.0038117963196 L 271.46875 270.31720395195106 L 303.40625 218.2033337658543 L 335.34375 243.90916009887027 L 367.28125 219.43893659208237 L 399.21875 264.6578979820583 L 431.15625 271.1930388467993 L 463.09375 273 L 495.03125 273" class="highcharts-graph" stroke="#d9534f" stroke-width="2" stroke-linejoin="round" stroke-linecap="round"></path></g><g class="highcharts-markers highcharts-series-10 highcharts-line-series highcharts-color-undefined " transform="translate(79,47) scale(1 1)" width="273" height="511" clip-path="none"></g><g class="highcharts-series highcharts-series-11 highcharts-line-series highcharts-color-undefined " transform="translate(79,47) scale(1 1)" width="273" height="511" clip-path="url(#highcharts-7m11rbd-607)"><path fill="none" d="M 15.96875 189.79321125938705 L 47.90625 257.53460951477166 L 79.84375 265.68697042222664 L 111.78125 267.6028606020658 L 143.71875 268.83059358581676 L 175.65625 269.3153279580303 L 207.59375 269.6383887172189 L 239.53125 269.8750735819398 L 271.46875 270.17158208184 L 303.40625 218.07292708231137 L 335.34375 244.91826948584054 L 367.28125 220.98325022539845 L 399.21875 265.27028070375974 L 431.15625 271.3066547793931 L 463.09375 273 L 495.03125 273" class="highcharts-graph" stroke="#d9534f" stroke-width="2" stroke-linejoin="round" stroke-linecap="round"></path></g><g class="highcharts-markers highcharts-series-11 highcharts-line-series highcharts-color-undefined " transform="translate(79,47) scale(1 1)" width="273" height="511" clip-path="none"></g></g><text x="330" text-anchor="middle" class="highcharts-title" style="color:#333333;font-size:18px;fill:#333333;width:536px;" y="24"><tspan>FastQC: Sequence Duplication Levels</tspan></text><g class="highcharts-axis-labels highcharts-xaxis-labels "><text x="97.56147486435067" style="color:#666666;cursor:default;font-size:11px;fill:#666666;width:400px;text-overflow:ellipsis;" text-anchor="end" transform="translate(0,0) rotate(-45 97.56147486435067 336)" y="336" opacity="1"><tspan>1</tspan></text><text x="129.49897486435069" style="color:#666666;cursor:default;font-size:11px;fill:#666666;width:400px;text-overflow:ellipsis;" text-anchor="end" transform="translate(0,0) rotate(-45 129.49897486435069 336)" y="336" opacity="1"><tspan>2</tspan></text><text x="161.43647486435069" style="color:#666666;cursor:default;font-size:11px;fill:#666666;width:400px;text-overflow:ellipsis;" text-anchor="end" transform="translate(0,0) rotate(-45 161.43647486435069 336)" y="336" opacity="1"><tspan>3</tspan></text><text x="193.37397486435069" style="color:#666666;cursor:default;font-size:11px;fill:#666666;width:400px;text-overflow:ellipsis;" text-anchor="end" transform="translate(0,0) rotate(-45 193.37397486435069 336)" y="336" opacity="1"><tspan>4</tspan></text><text x="225.31147486435069" style="color:#666666;cursor:default;font-size:11px;fill:#666666;width:400px;text-overflow:ellipsis;" text-anchor="end" transform="translate(0,0) rotate(-45 225.31147486435069 336)" y="336" opacity="1"><tspan>5</tspan></text><text x="257.24897486435066" style="color:#666666;cursor:default;font-size:11px;fill:#666666;width:400px;text-overflow:ellipsis;" text-anchor="end" transform="translate(0,0) rotate(-45 257.24897486435066 336)" y="336" opacity="1"><tspan>6</tspan></text><text x="289.18647486435066" style="color:#666666;cursor:default;font-size:11px;fill:#666666;width:400px;text-overflow:ellipsis;" text-anchor="end" transform="translate(0,0) rotate(-45 289.18647486435066 336)" y="336" opacity="1"><tspan>7</tspan></text><text x="321.12397486435066" style="color:#666666;cursor:default;font-size:11px;fill:#666666;width:400px;text-overflow:ellipsis;" text-anchor="end" transform="translate(0,0) rotate(-45 321.12397486435066 336)" y="336" opacity="1"><tspan>8</tspan></text><text x="353.06147486435066" style="color:#666666;cursor:default;font-size:11px;fill:#666666;width:400px;text-overflow:ellipsis;" text-anchor="end" transform="translate(0,0) rotate(-45 353.06147486435066 336)" y="336" opacity="1"><tspan>9</tspan></text><text x="384.99897486435066" style="color:#666666;cursor:default;font-size:11px;fill:#666666;width:400px;text-overflow:ellipsis;" text-anchor="end" transform="translate(0,0) rotate(-45 384.99897486435066 336)" y="336" opacity="1"><tspan>&gt;10</tspan></text><text x="416.93647486435066" style="color:#666666;cursor:default;font-size:11px;fill:#666666;width:400px;text-overflow:ellipsis;" text-anchor="end" transform="translate(0,0) rotate(-45 416.93647486435066 336)" y="336" opacity="1"><tspan>&gt;50</tspan></text><text x="448.87397486435066" style="color:#666666;cursor:default;font-size:11px;fill:#666666;width:400px;text-overflow:ellipsis;" text-anchor="end" transform="translate(0,0) rotate(-45 448.87397486435066 336)" y="336" opacity="1"><tspan>&gt;100</tspan></text><text x="480.81147486435066" style="color:#666666;cursor:default;font-size:11px;fill:#666666;width:400px;text-overflow:ellipsis;" text-anchor="end" transform="translate(0,0) rotate(-45 480.81147486435066 336)" y="336" opacity="1"><tspan>&gt;500</tspan></text><text x="512.7489748643507" style="color:#666666;cursor:default;font-size:11px;fill:#666666;width:400px;text-overflow:ellipsis;" text-anchor="end" transform="translate(0,0) rotate(-45 512.7489748643507 336)" y="336" opacity="1"><tspan>&gt;1k</tspan></text><text x="544.6864748643507" style="color:#666666;cursor:default;font-size:11px;fill:#666666;width:400px;text-overflow:ellipsis;" text-anchor="end" transform="translate(0,0) rotate(-45 544.6864748643507 336)" y="336" opacity="1"><tspan>&gt;5k</tspan></text><text x="576.6239748643507" style="color:#666666;cursor:default;font-size:11px;fill:#666666;width:400px;text-overflow:ellipsis;" text-anchor="end" transform="translate(0,0) rotate(-45 576.6239748643507 336)" y="336" opacity="1"><tspan>&gt;10k+</tspan></text></g><g class="highcharts-axis-labels highcharts-yaxis-labels "><text x="64" style="color:#666666;cursor:default;font-size:11px;fill:#666666;width:188px;text-overflow:clip;" text-anchor="end" transform="translate(0,0)" y="324" opacity="1"><tspan>0%</tspan></text><text x="64" style="color:#666666;cursor:default;font-size:11px;fill:#666666;width:188px;text-overflow:clip;" text-anchor="end" transform="translate(0,0)" y="256" opacity="1"><tspan>25%</tspan></text><text x="64" style="color:#666666;cursor:default;font-size:11px;fill:#666666;width:188px;text-overflow:clip;" text-anchor="end" transform="translate(0,0)" y="188" opacity="1"><tspan>50%</tspan></text><text x="64" style="color:#666666;cursor:default;font-size:11px;fill:#666666;width:188px;text-overflow:clip;" text-anchor="end" transform="translate(0,0)" y="119" opacity="1"><tspan>75%</tspan></text><text x="64" style="color:#666666;cursor:default;font-size:11px;fill:#666666;width:188px;text-overflow:clip;" text-anchor="end" transform="translate(0,0)" y="51" opacity="1"><tspan>100%</tspan></text></g><text x="590" class="highcharts-credits" text-anchor="end" style="cursor:pointer;color:#999999;font-size:9px;fill:#999999;" y="395"><tspan>Created with MultiQC</tspan></text></svg>