<svg xmlns:xlink="http://www.w3.org/1999/xlink" version="1.1" class="highcharts-root" style="font-family:&quot;lucida grande&quot;, &quot;lucida sans unicode&quot;, arial, helvetica, sans-serif;font-size:12px;" xmlns="http://www.w3.org/2000/svg" width="600" height="400"><desc>Created with Highcharts 5.0.6</desc><defs><clipPath id="highcharts-7m11rbd-493"><rect x="0" y="0" width="518" height="296" fill="none"></rect></clipPath></defs><rect fill="#ffffff" class="highcharts-background" x="0" y="0" width="600" height="400" rx="0" ry="0"></rect><rect fill="none" class="highcharts-plot-background" x="72" y="47" width="518" height="296"></rect><g class="highcharts-grid highcharts-xaxis-grid "><path fill="none" class="highcharts-grid-line" d="M 74.5 47 L 74.5 343" opacity="1"></path><path fill="none" class="highcharts-grid-line" d="M 168.5 47 L 168.5 343" opacity="1"></path><path fill="none" class="highcharts-grid-line" d="M 262.5 47 L 262.5 343" opacity="1"></path><path fill="none" class="highcharts-grid-line" d="M 355.5 47 L 355.5 343" opacity="1"></path><path fill="none" class="highcharts-grid-line" d="M 449.5 47 L 449.5 343" opacity="1"></path><path fill="none" class="highcharts-grid-line" d="M 543.5 47 L 543.5 343" opacity="1"></path></g><g class="highcharts-grid highcharts-yaxis-grid "><path fill="none" stroke="#e6e6e6" stroke-width="1" class="highcharts-grid-line" d="M 72 343.5 L 590 343.5" opacity="1"></path><path fill="none" stroke="#e6e6e6" stroke-width="1" class="highcharts-grid-line" d="M 72 269.5 L 590 269.5" opacity="1"></path><path fill="none" stroke="#e6e6e6" stroke-width="1" class="highcharts-grid-line" d="M 72 195.5 L 590 195.5" opacity="1"></path><path fill="none" stroke="#e6e6e6" stroke-width="1" class="highcharts-grid-line" d="M 72 121.5 L 590 121.5" opacity="1"></path><path fill="none" stroke="#e6e6e6" stroke-width="1" class="highcharts-grid-line" d="M 72 46.5 L 590 46.5" opacity="1"></path></g><rect fill="none" class="highcharts-plot-border" x="72" y="47" width="518" height="296"></rect><g class="highcharts-axis highcharts-xaxis "><path fill="none" class="highcharts-tick" stroke="#ccd6eb" stroke-width="1" d="M 74.5 343 L 74.5 353" opacity="1"></path><path fill="none" class="highcharts-tick" stroke="#ccd6eb" stroke-width="1" d="M 168.5 343 L 168.5 353" opacity="1"></path><path fill="none" class="highcharts-tick" stroke="#ccd6eb" stroke-width="1" d="M 262.5 343 L 262.5 353" opacity="1"></path><path fill="none" class="highcharts-tick" stroke="#ccd6eb" stroke-width="1" d="M 355.5 343 L 355.5 353" opacity="1"></path><path fill="none" class="highcharts-tick" stroke="#ccd6eb" stroke-width="1" d="M 449.5 343 L 449.5 353" opacity="1"></path><path fill="none" class="highcharts-tick" stroke="#ccd6eb" stroke-width="1" d="M 543.5 343 L 543.5 353" opacity="1"></path><text x="331" text-anchor="middle" transform="translate(0,0)" class="highcharts-axis-title" style="color:#666666;fill:#666666;" y="381.75"><tspan>Insert size</tspan></text><path fill="none" class="highcharts-axis-line" stroke="#ccd6eb" stroke-width="1" d="M 72 343.5 L 590 343.5"></path></g><g class="highcharts-axis highcharts-yaxis "><text x="24.649999618530273" text-anchor="middle" transform="translate(0,0) rotate(270 24.649999618530273 195)" class="highcharts-axis-title" style="color:#666666;fill:#666666;" y="195"><tspan>Read percent</tspan></text><path fill="none" class="highcharts-axis-line" d="M 72 47 L 72 343"></path></g><g class="highcharts-series-group"><g class="highcharts-series highcharts-series-0 highcharts-line-series highcharts-color-undefined " transform="translate(72,47) scale(1 1)" width="296" height="518" clip-path="url(#highcharts-7m11rbd-493)"><path fill="none" d="M 5.078431372549 296 L 6.9523912886188 277.2903829946624 L 8.8263512046885 289.13980709804287 L 10.700311120758 292.81243562131283 L 12.574271036828 293.50538439928835 L 14.448230952898 294.475512688454 L 16.322190868968 294.6833973218466 L 18.196150785037 295.30705122202454 L 20.070110701107 295.37634609982206 L 21.944070617177 295.0991665886319 L 23.818030533247 295.5842307332147 L 25.691990449316 294.8219870774417 L 27.565950365386 295.23775634422697 L 29.439910281456 295.44564097761963 L 31.313870197526 295.5842307332147 L 33.187830113595 295.8614102444049 L 35.061790029665 295.02987171083436 L 36.935749945735 295.7228204888098 L 38.809709861805 295.02987171083436 L 40.683669777874 295.65352561101224 L 42.557629693944 295.5842307332147 L 44.431589610014 295.51493585541715 L 46.305549526084 295.79211536660733 L 48.179509442153 294.8219870774417 L 50.053469358223 294.475512688454 L 51.927429274293 295.16846146642945 L 53.801389190363 295.44564097761963 L 55.675349106432 295.37634609982206 L 57.549309022502 295.79211536660733 L 59.423268938572 295.7228204888098 L 61.297228854642 295.5842307332147 L 63.171188770711 275.28083153853356 L 65.045148686781 285.3285888191778 L 66.919108602851 194.27511939320158 L 68.79306851892 258.30358647813466 L 70.66702843499 243.82095701844742 L 72.54098835106 248.04794456409775 L 74.41494826713 258.9965352561101 L 76.288908183199 255.73967599962543 L 78.162868099269 288.1003839310797 L 80.036828015339 217.28101882198706 L 81.910787931409 277.22108811686485 L 83.784747847478 63.09991572244593 L 85.658707763548 284.7049349189999 L 87.532667679618 280.2700627399569 L 89.406627595688 276.1123700721041 L 91.280587511757 200.71954302837344 L 93.154547427827 248.2558291974904 L 95.028507343897 284.91281955239253 L 96.902467259967 258.85794550051503 L 98.776427176036 276.2509598276992 L 100.65038709211 286.5066017417361 L 102.52434700818 288.03108905328213 L 104.39830692425 291.01076879857663 L 106.27226684032 293.85185878827605 L 108.14622675639 289.8327558760184 L 110.02018667245 293.43608952149077 L 111.89414658852 292.8817304991104 L 113.76810650459 291.4958329431595 L 115.64206642066 289.4862814870306 L 117.51602633673 293.78256391047853 L 119.3899862528 292.05019196553985 L 121.26394616887 292.67384586571774 L 123.13790608494 289.13980709804287 L 125.01186600101 290.66429440958893 L 126.88582591708 290.52570465399384 L 128.75978583315 291.8423073321472 L 130.63374574922 291.6344226987546 L 132.50770566529 290.87217904298154 L 134.38166558136 292.81243562131283 L 136.25562549743 293.64397415488344 L 138.1295854135 291.91160220994476 L 140.00354532957 291.565127820957 L 141.87750524564 294.12903829946623 L 143.75146516171 294.2676280550613 L 145.62542507778 294.1983331772638 L 147.49938499385 294.1983331772638 L 149.37334490992 294.8219870774417 L 151.24730482599 294.3369229328589 L 153.12126474206 293.57467927708586 L 154.99522465813 293.78256391047853 L 156.8691845742 294.475512688454 L 158.74314449027 294.6141024440491 L 160.61710440634 294.6141024440491 L 162.49106432241 294.0597434216687 L 164.36502423848 294.8219870774417 L 166.23898415455 294.8219870774417 L 168.11294407062 295.0991665886319 L 169.98690398669 294.7526921996442 L 171.86086390276 295.02987171083436 L 173.73482381883 295.16846146642945 L 175.6087837349 294.8219870774417 L 177.48274365097 294.9605768330368 L 179.35670356704 295.23775634422697 L 181.23066348311 295.30705122202454 L 183.10462339918 295.37634609982206 L 184.97858331524 295.02987171083436 L 186.85254323131 295.0991665886319 L 188.72650314738 295.30705122202454 L 190.60046306345 295.51493585541715 L 192.47442297952 295.65352561101224 L 194.34838289559 295.51493585541715 L 196.22234281166 295.44564097761963 L 198.09630272773 295.23775634422697 L 199.9702626438 295.44564097761963 L 201.84422255987 295.51493585541715 L 203.71818247594 295.9307051222024 L 205.59214239201 295.79211536660733 L 207.46610230808 295.65352561101224 L 209.34006222415 295.37634609982206 L 211.21402214022 295.8614102444049 L 213.08798205629 295.7228204888098 L 214.96194197236 295.65352561101224 L 216.83590188843 295.65352561101224 L 218.7098618045 294.89128195523926 L 220.58382172057 295.9307051222024 L 222.45778163664 294.8219870774417 L 224.33174155271 295.65352561101224 L 226.20570146878 295.51493585541715 L 228.07966138485 295.9307051222024 L 229.95362130092 295.9307051222024 L 231.82758121699 295.65352561101224 L 233.70154113306 295.7228204888098 L 235.57550104913 295.51493585541715 L 237.4494609652 295.65352561101224 L 239.32342088127 295.65352561101224 L 241.19738079734 295.5842307332147 L 243.07134071341 295.44564097761963 L 244.94530062948 295.7228204888098 L 246.81926054555 295.5842307332147 L 248.69322046162 295.5842307332147 L 250.56718037769 295.0991665886319 L 252.44114029376 295.44564097761963 L 254.31510020983 295.5842307332147 L 256.1890601259 294.89128195523926 L 258.06302004197 294.89128195523926 L 259.93697995803 294.89128195523926 L 261.8109398741 294.2676280550613 L 263.68489979017 294.6141024440491 L 265.55885970624 294.5448075662515 L 267.43281962231 293.99044854387114 L 269.30677953838 291.2186534319693 L 271.18073945445 293.57467927708586 L 273.05469937052 289.7634609982208 L 274.92865928659 292.39666635452755 L 276.80261920266 289.55557636482814 L 278.67657911873 290.9414739207791 L 280.5505390348 291.1493585541717 L 282.42449895087 286.9223710085214 L 284.29845886694 252.89858600992602 L 286.17241878301 235.50557168274182 L 288.04637869908 142.3732559228392 L 289.92033861515 295.9307051222024 L 291.79429853122 295.79211536660733 L 293.66825844729 295.9307051222024 L 295.54221836336 294.89128195523926 L 297.41617827943 295.9307051222024 L 299.2901381955 294.3369229328589 L 301.16409811157 295.79211536660733 L 303.03805802764 295.79211536660733 L 304.91201794371 294.9605768330368 L 306.78597785978 296 L 308.65993777585 296 L 310.53389769192 295.7228204888098 L 312.40785760799 295.8614102444049 L 314.28181752406 295.30705122202454 L 316.15577744013 295.9307051222024 L 318.0297373562 295.9307051222024 L 319.90369727227 295.8614102444049 L 321.77765718834 295.9307051222024 L 323.65161710441 296 L 325.52557702048 294.9605768330368 L 327.39953693655 296 L 329.27349685262 295.8614102444049 L 331.14745676869 292.18878172113494 L 333.02141668476 290.3178200206012 L 334.89537660082 296 L 336.76933651689 295.8614102444049 L 338.64329643296 296 L 340.51725634903 296 L 342.3912162651 295.79211536660733 L 344.26517618117 296 L 346.13913609724 296 L 348.01309601331 295.9307051222024 L 349.88705592938 295.44564097761963 L 351.76101584545 295.5842307332147 L 353.63497576152 296 L 355.50893567759 295.30705122202454 L 357.38289559366 295.8614102444049 L 359.25685550973 295.30705122202454 L 361.1308154258 293.57467927708586 L 363.00477534187 295.7228204888098 L 364.87873525794 295.79211536660733 L 366.75269517401 295.5842307332147 L 368.62665509008 296 L 370.50061500615 296 L 372.37457492222 295.37634609982206 L 374.24853483829 296 L 376.12249475436 295.9307051222024 L 377.99645467043 296 L 379.8704145865 296 L 381.74437450257 295.9307051222024 L 383.61833441864 295.8614102444049 L 385.49229433471 296 L 387.36625425078 295.8614102444049 L 389.24021416685 296 L 391.11417408292 296 L 392.98813399899 296 L 394.86209391506 296 L 396.73605383113 296 L 398.6100137472 296 L 400.48397366327 296 L 402.35793357934 296 L 404.23189349541 296 L 406.10585341148 296 L 407.97981332755 295.9307051222024 L 409.85377324361 295.9307051222024 L 411.72773315968 295.8614102444049 L 413.60169307575 296 L 415.47565299182 296 L 417.34961290789 295.9307051222024 L 419.22357282396 295.8614102444049 L 421.09753274003 296 L 422.9714926561 296 L 424.84545257217 295.8614102444049 L 426.71941248824 295.7228204888098 L 428.59337240431 296 L 430.46733232038 296 L 432.34129223645 296 L 434.21525215252 296 L 436.08921206859 296 L 437.96317198466 295.9307051222024 L 439.83713190073 296 L 441.7110918168 296 L 443.58505173287 295.9307051222024 L 445.45901164894 296 L 447.33297156501 296 L 449.20693148108 296 L 451.08089139715 295.9307051222024 L 452.95485131322 295.9307051222024 L 454.82881122929 296 L 456.70277114536 295.9307051222024 L 458.57673106143 296 L 460.4506909775 296 L 462.32465089357 296 L 464.19861080964 296 L 466.07257072571 296 L 467.94653064178 296 L 469.82049055785 296 L 471.69445047392 295.9307051222024" class="highcharts-graph" stroke="#7cb5ec" stroke-width="2" stroke-linejoin="round" stroke-linecap="round"></path></g><g class="highcharts-markers highcharts-series-0 highcharts-line-series highcharts-color-undefined " transform="translate(72,47) scale(1 1)" width="296" height="518" clip-path="none"></g><g class="highcharts-series highcharts-series-1 highcharts-line-series highcharts-color-undefined " transform="translate(72,47) scale(1 1)" width="296" height="518" clip-path="url(#highcharts-7m11rbd-493)"><path fill="none" d="M 5.078431372549 296 L 6.9523912886188 293.1763563202442 L 8.8263512046885 295.25558484806436 L 10.700311120758 295.4866102400444 L 12.574271036828 295.66629665602886 L 14.448230952898 295.5122797280422 L 16.322190868968 295.79464409601775 L 18.196150785037 295.76897460801996 L 20.070110701107 295.8973220480089 L 21.944070617177 295.82031358401554 L 23.818030533247 295.8973220480089 L 25.691990449316 295.7433051200222 L 27.565950365386 295.82031358401554 L 29.439910281456 295.82031358401554 L 31.313870197526 295.8973220480089 L 33.187830113595 295.8716525600111 L 35.061790029665 295.7433051200222 L 36.935749945735 295.8459830720133 L 38.809709861805 295.79464409601775 L 40.683669777874 295.79464409601775 L 42.557629693944 295.82031358401554 L 44.431589610014 295.8459830720133 L 46.305549526084 295.76897460801996 L 48.179509442153 295.8459830720133 L 50.053469358223 295.71763563202444 L 51.927429274293 295.76897460801996 L 53.801389190363 295.53794921604 L 55.675349106432 295.79464409601775 L 57.549309022502 295.82031358401554 L 59.423268938572 295.6406271680311 L 61.297228854642 295.76897460801996 L 63.171188770711 293.9721104481754 L 65.045148686781 294.63951713611766 L 66.919108602851 294.8448730400999 L 68.79306851892 294.9732204800888 L 70.66702843499 294.79353406410434 L 72.54098835106 294.53683918412656 L 74.41494826713 294.5625086721243 L 76.288908183199 294.2031358401554 L 78.162868099269 293.07367836825307 L 80.036828015339 290.7377549604551 L 81.910787931409 290.07034827251283 L 83.784747847478 292.380602192313 L 85.658707763548 292.7656445122797 L 87.532667679618 292.9453309282642 L 89.406627595688 293.58706812820867 L 91.280587511757 293.61273761620646 L 93.154547427827 293.4073817122242 L 95.028507343897 293.9977799361732 L 96.902467259967 293.0480088802553 L 98.776427176036 292.3549327043153 L 100.65038709211 290.68641598445953 L 102.52434700818 291.53350908838627 L 104.39830692425 290.58373803246843 L 106.27226684032 292.12390731233523 L 108.14622675639 292.8939919522686 L 110.02018667245 293.22769529623974 L 111.89414658852 293.22769529623974 L 113.76810650459 293.7154155681976 L 115.64206642066 293.09934785625086 L 117.51602633673 292.58595809629526 L 119.3899862528 291.19980574441513 L 121.26394616887 289.6853059525461 L 123.13790608494 289.78798390453727 L 125.01186600101 290.3527126404884 L 126.88582591708 290.3527126404884 L 128.75978583315 291.07145830442624 L 130.63374574922 291.8928819203552 L 132.50770566529 292.09823782433745 L 134.38166558136 292.09823782433745 L 136.25562549743 291.53350908838627 L 138.1295854135 290.42972110448176 L 140.00354532957 289.582628000555 L 141.87750524564 288.7098654086305 L 143.75146516171 288.1194671846816 L 145.62542507778 288.7098654086305 L 147.49938499385 288.91522131261274 L 149.37334490992 289.7623144165395 L 151.24730482599 291.3538226724018 L 153.12126474206 290.7120854724573 L 154.99522465813 290.50672956847507 L 156.8691845742 289.89066185652837 L 158.74314449027 288.1964756486749 L 160.61710440634 285.57818787290137 L 162.49106432241 285.8605522408769 L 164.36502423848 285.68086582489246 L 166.23898415455 287.1953656167615 L 168.11294407062 287.73442486471487 L 169.98690398669 289.6853059525461 L 171.86086390276 290.91744137643957 L 173.73482381883 289.6339669765506 L 175.6087837349 289.40294158457056 L 177.48274365097 287.37505203274594 L 179.35670356704 286.1429166088525 L 181.23066348311 284.67975579297905 L 183.10462339918 284.29471347301234 L 184.97858331524 285.9888996808658 L 186.85254323131 287.015679200777 L 188.72650314738 287.47772998473704 L 190.60046306345 288.6328569446372 L 192.47442297952 288.9665602886083 L 194.34838289559 288.7098654086305 L 196.22234281166 287.1183571527681 L 198.09630272773 286.09157763285697 L 199.9702626438 283.4989593450812 L 201.84422255987 282.03579852920774 L 203.71818247594 282.6775357291522 L 205.59214239201 284.5000693769946 L 207.46610230808 286.0659081448592 L 209.34006222415 287.5804079367282 L 211.21402214022 287.0926876647704 L 213.08798205629 288.1964756486749 L 214.96194197236 286.6306368808103 L 216.83590188843 285.75787428888583 L 218.7098618045 283.67864576106564 L 220.58382172057 282.3438323851811 L 222.45778163664 282.01012904120995 L 224.33174155271 282.9855695851256 L 226.20570146878 283.4219508810878 L 228.07966138485 285.9375607048703 L 229.95362130092 286.75898432079924 L 231.82758121699 285.8862217288747 L 233.70154113306 286.9130012487859 L 235.57550104913 284.217705009019 L 237.4494609652 284.0893575690301 L 239.32342088127 282.2924934091855 L 241.19738079734 281.59941723324545 L 243.07134071341 279.93090051338976 L 244.94530062948 282.72887470514775 L 246.81926054555 284.3717219370057 L 248.69322046162 285.57818787290137 L 250.56718037769 285.3985014569169 L 252.44114029376 285.6295268488969 L 254.31510020983 285.06479811294577 L 256.1890601259 284.6284168169835 L 258.06302004197 282.54918828916334 L 259.93697995803 282.93423060913 L 261.8109398741 282.7802136811433 L 263.68489979017 281.7020951852366 L 265.55885970624 284.65408630498126 L 267.43281962231 285.4755099209102 L 269.30677953838 286.32260302483695 L 271.18073945445 285.70653531289025 L 273.05469937052 285.6038573608991 L 274.92865928659 285.16747606493686 L 276.80261920266 283.8840016650479 L 278.67657911873 282.2924934091855 L 280.5505390348 283.24226446510335 L 282.42449895087 283.4476203690856 L 284.29845886694 284.06368808103235 L 286.17241878301 282.8572221451367 L 288.04637869908 286.81032329679476 L 289.92033861515 287.1953656167615 L 291.79429853122 287.34938254474815 L 293.66825844729 285.29582350492575 L 295.54221836336 283.9353406410434 L 297.41617827943 284.4743998889968 L 299.2901381955 283.13958651311225 L 301.16409811157 283.4219508810878 L 303.03805802764 284.19203552102124 L 304.91201794371 285.9375607048703 L 306.78597785978 287.015679200777 L 308.65993777585 286.45095046482584 L 310.53389769192 287.32371305675036 L 312.40785760799 286.6306368808103 L 314.28181752406 286.6563063688081 L 316.15577744013 286.09157763285697 L 318.0297373562 286.24559456084364 L 319.90369727227 284.448730400999 L 321.77765718834 285.4498404329124 L 323.65161710441 285.21881504093244 L 325.52557702048 287.9397807686971 L 327.39953693655 288.47884001665045 L 329.27349685262 289.0949077285972 L 331.14745676869 288.42750104065493 L 333.02141668476 287.015679200777 L 334.89537660082 287.2980435687526 L 336.76933651689 287.47772998473704 L 338.64329643296 287.6574164007215 L 340.51725634903 286.5022894408214 L 342.3912162651 287.91411128069933 L 344.26517618117 288.6328569446372 L 346.13913609724 289.8393228805328 L 348.01309601331 290.32704315249066 L 349.88705592938 290.1216872485084 L 351.76101584545 290.0960177605106 L 353.63497576152 289.6082974885528 L 355.50893567759 289.78798390453727 L 357.38289559366 289.7109754405439 L 359.25685550973 289.42861107256834 L 361.1308154258 288.47884001665045 L 363.00477534187 290.58373803246843 L 364.87873525794 290.42972110448176 L 366.75269517401 291.3538226724018 L 368.62665509008 291.7645344803663 L 370.50061500615 290.866102400444 L 372.37457492222 290.94311086443736 L 374.24853483829 291.2768142084085 L 376.12249475436 291.1741362564174 L 377.99645467043 290.99444984043294 L 379.8704145865 291.6618565283752 L 381.74437450257 290.866102400444 L 383.61833441864 291.48217011239075 L 385.49229433471 292.12390731233523 L 387.36625425078 292.56028860829747 L 389.24021416685 292.9196614402664 L 391.11417408292 293.07367836825307 L 392.98813399899 292.7913140002775 L 394.86209391506 292.149576800333 L 396.73605383113 291.918551408353 L 398.6100137472 292.61162758429305 L 400.48397366327 292.48328014430416 L 402.35793357934 292.8169834882753 L 404.23189349541 292.8426529762731 L 406.10585341148 293.02233939225755 L 407.97981332755 293.61273761620646 L 409.85377324361 293.61273761620646 L 411.72773315968 293.4843901762176 L 413.60169307575 292.9196614402664 L 415.47565299182 293.433051200222 L 417.34961290789 292.971000416262 L 419.22357282396 293.63840710420425 L 421.09753274003 293.4587206882198 L 422.9714926561 293.66407659220204 L 424.84545257217 294.3314832801443 L 426.71941248824 293.8694324961843 L 428.59337240431 294.25447481615095 L 430.46733232038 294.4598307201332 L 432.34129223645 294.5111696961288 L 434.21525215252 294.5111696961288 L 436.08921206859 294.12612737616206 L 437.96317198466 293.63840710420425 L 439.83713190073 294.3571527681421 L 441.7110918168 294.22880532815316 L 443.58505173287 294.6138476481199 L 445.45901164894 294.3571527681421 L 447.33297156501 294.8705425280977 L 449.20693148108 294.8962120160955 L 451.08089139715 295.0758984320799 L 452.95485131322 294.76786457610655 L 454.82881122929 294.79353406410434 L 456.70277114536 294.8192035521021 L 458.57673106143 294.76786457610655 L 460.4506909775 295.05022894408216 L 462.32465089357 294.8962120160955 L 464.19861080964 295.0245594560844 L 466.07257072571 295.1015679200777 L 467.94653064178 295.0758984320799 L 469.82049055785 294.9988899680866 L 471.69445047392 295.3325933120577 L 473.56841038999 294.76786457610655 L 475.44237030606 295.0245594560844 L 477.31633022213 295.15290689607326 L 479.1902901382 295.3582628000555 L 481.06425005427 295.4352712640488 L 482.93820997034 295.25558484806436 L 484.8121698864 295.17857638407105 L 486.68612980247 295.56361870403776 L 488.56008971854 295.5122797280422 L 490.43404963461 295.25558484806436 L 492.30800955068 295.6406271680311 L 494.18196946675 295.3839322880533 L 496.05592938282 295.3582628000555 L 497.92988929889 295.53794921604 L 499.80384921496 295.66629665602886 L 501.67780913103 295.53794921604 L 503.5517690471 295.4866102400444 L 505.42572896317 295.4866102400444 L 507.29968887924 295.6149576800333 L 509.17364879531 295.3839322880533 L 511.04760871138 295.66629665602886 L 512.92156862745 295.92299153600663" class="highcharts-graph" stroke="#434348" stroke-width="2" stroke-linejoin="round" stroke-linecap="round"></path></g><g class="highcharts-markers highcharts-series-1 highcharts-line-series highcharts-color-undefined " transform="translate(72,47) scale(1 1)" width="296" height="518" clip-path="none"></g><g class="highcharts-series highcharts-series-2 highcharts-line-series highcharts-color-undefined " transform="translate(72,47) scale(1 1)" width="296" height="518" clip-path="url(#highcharts-7m11rbd-493)"><path fill="none" d="M 5.078431372549 294.4696306354818 L 6.9523912886188 293.21646025019703 L 8.8263512046885 295.03557855141685 L 10.700311120758 295.4571519990011 L 12.574271036828 295.7054760845644 L 14.448230952898 295.02402859394874 L 16.322190868968 294.98360374281054 L 18.196150785037 295.1453031473634 L 20.070110701107 295.41095216912885 L 21.944070617177 295.65350127595815 L 23.818030533247 295.65927625469214 L 25.691990449316 295.624626382288 L 27.565950365386 295.76900085063875 L 29.439910281456 295.82675063797905 L 31.313870197526 295.6997011058304 L 33.187830113595 295.75167591443665 L 35.061790029665 295.65350127595815 L 36.935749945735 295.3994022116608 L 38.809709861805 295.5899765098838 L 40.683669777874 295.6073014460859 L 42.557629693944 295.58420153114974 L 44.431589610014 295.59575148861785 L 46.305549526084 295.624626382288 L 48.179509442153 295.5726515736817 L 50.053469358223 295.58420153114974 L 51.927429274293 295.4975768501393 L 53.801389190363 295.4225021265969 L 55.675349106432 295.3994022116608 L 57.549309022502 295.33587744558645 L 59.423268938572 295.26080272204405 L 61.297228854642 295.15107812609745 L 63.171188770711 294.66597991243884 L 65.045148686781 294.68330484864094 L 66.919108602851 294.70640476357704 L 68.79306851892 294.42343080560954 L 70.66702843499 294.134681868908 L 72.54098835106 292.835311653751 L 74.41494826713 292.3213385464222 L 76.288908183199 292.1018893545291 L 78.162868099269 292.2058389717416 L 80.036828015339 292.2635887590819 L 81.910787931409 292.096114375795 L 83.784747847478 291.9344149712422 L 85.658707763548 291.6803159069448 L 87.532667679618 291.7842655241574 L 89.406627595688 291.7784905454233 L 91.280587511757 291.2414175231584 L 93.154547427827 291.1028180335417 L 95.028507343897 291.2991673104988 L 96.902467259967 290.9353436502548 L 98.776427176036 291.2645174380946 L 100.65038709211 291.2067676507543 L 102.52434700818 290.66969462848937 L 104.39830692425 291.1894427145522 L 106.27226684032 290.49644526646847 L 108.14622675639 290.72744441582967 L 110.02018667245 290.3231959044475 L 111.89414658852 290.3405208406496 L 113.76810650459 289.9535972654695 L 115.64206642066 289.8958474781292 L 117.51602633673 289.49159896674706 L 119.3899862528 289.62442347762976 L 121.26394616887 289.7283730948423 L 123.13790608494 289.2605998173858 L 125.01186600101 290.12684662749047 L 126.88582591708 289.47427403054496 L 128.75978583315 289.86697258445906 L 130.63374574922 289.6532983712999 L 132.50770566529 289.12200032776906 L 134.38166558136 289.0700255191628 L 136.25562549743 288.58492730550415 L 138.1295854135 288.87945122093976 L 140.00354532957 288.6831019439827 L 141.87750524564 288.0825041556435 L 143.75146516171 288.26730347513245 L 145.62542507778 288.82747641233345 L 147.49938499385 288.65422705031256 L 149.37334490992 288.4578777733555 L 151.24730482599 288.19222875159005 L 153.12126474206 288.2730784538665 L 154.99522465813 287.7706553040058 L 156.8691845742 287.5974059419849 L 158.74314449027 287.59163096325085 L 160.61710440634 288.0478542832393 L 162.49106432241 287.79375521894195 L 164.36502423848 287.7879802402079 L 166.23898415455 287.6955805804634 L 168.11294407062 287.81685513387805 L 169.98690398669 287.96122960222885 L 171.86086390276 288.1056040705796 L 173.73482381883 287.6378307931231 L 175.6087837349 287.20470738807074 L 177.48274365097 286.7831339404865 L 179.35670356704 287.0430079835179 L 181.23066348311 288.00742943210105 L 183.10462339918 287.40683164376185 L 184.97858331524 287.1180827070603 L 186.85254323131 287.40683164376185 L 188.72650314738 286.67918432327394 L 190.60046306345 287.27400713287915 L 192.47442297952 286.75425904681634 L 194.34838289559 287.03145802604985 L 196.22234281166 286.4481851739127 L 198.09630272773 286.6734093445399 L 199.9702626438 286.8408837278268 L 201.84422255987 287.1007577708582 L 203.71818247594 287.429931558698 L 205.59214239201 287.21625734553885 L 207.46610230808 287.12385768579435 L 209.34006222415 287.51655623970845 L 211.21402214022 287.5281061971765 L 213.08798205629 287.3202069627514 L 214.96194197236 286.8351087490928 L 216.83590188843 286.9275084088373 L 218.7098618045 286.9852581961776 L 220.58382172057 287.0834328346561 L 222.45778163664 286.82933377035874 L 224.33174155271 287.47613138857025 L 226.20570146878 286.875533600231 L 228.07966138485 287.0949827921242 L 229.95362130092 287.21625734553885 L 231.82758121699 287.20470738807074 L 233.70154113306 287.2278073030069 L 235.57550104913 287.8284050913461 L 237.4494609652 287.250907217943 L 239.32342088127 287.68403062299535 L 241.19738079734 287.96700458096285 L 243.07134071341 287.23935726047495 L 244.94530062948 287.2855570903472 L 246.81926054555 287.23358228174095 L 248.69322046162 287.6782556442613 L 250.56718037769 287.3548568351556 L 252.44114029376 287.44148151616605 L 254.31510020983 287.3259819414854 L 256.1890601259 287.4183816012299 L 258.06302004197 287.68980560172935 L 259.93697995803 287.5685310483147 L 261.8109398741 287.55698109084665 L 263.68489979017 288.19222875159005 L 265.55885970624 288.0651792194414 L 267.43281962231 287.9381296872927 L 269.30677953838 288.02475436830315 L 271.18073945445 288.1229290067817 L 273.05469937052 287.70713053793145 L 274.92865928659 287.7706553040058 L 276.80261920266 287.5858559845168 L 278.67657911873 287.79953019767595 L 280.5505390348 288.3308282412068 L 282.42449895087 288.11137904931365 L 284.29845886694 288.61380219917436 L 286.17241878301 285.57616338507404 L 288.04637869908 287.14118262199645 L 289.92033861515 288.13447896424975 L 291.79429853122 287.80530517641 L 293.66825844729 288.03630432577125 L 295.54221836336 287.34908185642155 L 297.41617827943 287.61473087818695 L 299.2901381955 288.39435300728115 L 301.16409811157 288.0478542832393 L 303.03805802764 288.0651792194414 L 304.91201794371 288.24420356019635 L 306.78597785978 288.5502774331 L 308.65993777585 287.8399550488142 L 310.53389769192 288.2153286665262 L 312.40785760799 288.12870398551576 L 314.28181752406 288.35970313487695 L 316.15577744013 288.4636527520895 L 318.0297373562 288.31927828373875 L 319.90369727227 288.6831019439827 L 321.77765718834 288.4232279009513 L 323.65161710441 288.3828030498131 L 325.52557702048 288.67155198651466 L 327.39953693655 289.3760993920664 L 329.27349685262 289.3125746259921 L 331.14745676869 289.3703244133324 L 333.02141668476 288.7986015186633 L 334.89537660082 288.50985258196175 L 336.76933651689 289.2432748811837 L 338.64329643296 289.2259499449816 L 340.51725634903 289.60132356269366 L 342.3912162651 289.26637479611986 L 344.26517618117 289.40497428573656 L 346.13913609724 289.6128735201617 L 348.01309601331 289.60709854142766 L 349.88705592938 289.5782236477575 L 351.76101584545 290.1961463722988 L 353.63497576152 289.9304973505334 L 355.50893567759 289.90739743559726 L 357.38289559366 289.67639828623606 L 359.25685550973 290.1383965849585 L 361.1308154258 290.1557215211606 L 363.00477534187 290.04022194648 L 364.87873525794 290.21924628723497 L 366.75269517401 290.2827710533093 L 368.62665509008 290.5079952239365 L 370.50061500615 290.35207079811767 L 372.37457492222 290.63504475608516 L 374.24853483829 290.7332193945637 L 376.12249475436 290.50222024520247 L 377.99645467043 290.8660439054464 L 379.8704145865 291.1028180335417 L 381.74437450257 291.0739431398715 L 383.61833441864 290.8313940330422 L 385.49229433471 290.87759386291447 L 387.36625425078 290.96999352265897 L 389.24021416685 290.64659471355327 L 391.11417408292 290.76209428823387 L 392.98813399899 291.00464339506317 L 394.86209391506 291.17211777835007 L 396.73605383113 291.4955165874558 L 398.6100137472 290.9411186289888 L 400.48397366327 291.5648163322642 L 402.35793357934 291.149017863414 L 404.23189349541 291.345367140371 L 406.10585341148 291.54749139606207 L 407.97981332755 291.5012915661898 L 409.85377324361 291.62256611960447 L 411.72773315968 291.5128415236579 L 413.60169307575 291.2587424593605 L 415.47565299182 291.9748398223804 L 417.34961290789 291.6860908856788 L 419.22357282396 291.5590413535302 L 421.09753274003 292.0152646735186 L 422.9714926561 291.7784905454233 L 424.84545257217 292.1249892694652 L 426.71941248824 291.9517399074443 L 428.59337240431 291.9344149712422 L 430.46733232038 292.31556356768823 L 432.34129223645 292.2173889292097 L 434.21525215252 292.0499145459228 L 436.08921206859 292.1769640780715 L 437.96317198466 292.3040136102201 L 439.83713190073 292.1885140355395 L 441.7110918168 292.3386634826243 L 443.58505173287 292.40796322743273 L 445.45901164894 292.4310631423688 L 447.33297156501 292.59853752565573 L 449.20693148108 292.5812125894536 L 451.08089139715 292.7024871428683 L 452.95485131322 292.5638876532515 L 454.82881122929 292.66783727046413 L 456.70277114536 292.6620622917301 L 458.57673106143 292.6851622066662 L 460.4506909775 292.85841156868713 L 462.32465089357 292.93348629222953 L 464.19861080964 293.1125106329845 L 466.07257072571 293.04321088817613 L 467.94653064178 292.82376169628293 L 469.82049055785 293.06631080311223 L 471.69445047392 293.2568851013353 L 473.56841038999 293.15871046285673 L 475.44237030606 293.204910292729 L 477.31633022213 293.2453351438672 L 479.1902901382 293.199135313995 L 481.06425005427 293.5225341231007 L 482.93820997034 293.4301344633562 L 484.8121698864 293.3723846760159 L 486.68612980247 293.60338382537714 L 488.56008971854 293.4821092719625 L 490.43404963461 293.32040986740964 L 492.30800955068 293.5225341231007 L 494.18196946675 293.4243594846222 L 496.05592938282 293.43590944209024 L 497.92988929889 293.580283910441 L 499.80384921496 293.53408408056873 L 501.67780913103 293.5918338679091 L 503.5517690471 293.759308251196 L 505.42572896317 293.60915880411113 L 507.29968887924 293.97298246435514 L 509.17364879531 294.01340731549334 L 511.04760871138 294.504280507886 L 512.92156862745 295.07600340255505" class="highcharts-graph" stroke="#90ed7d" stroke-width="2" stroke-linejoin="round" stroke-linecap="round"></path></g><g class="highcharts-markers highcharts-series-2 highcharts-line-series highcharts-color-undefined " transform="translate(72,47) scale(1 1)" width="296" height="518" clip-path="none"></g></g><text x="330" text-anchor="middle" class="highcharts-title" style="color:#333333;font-size:18px;fill:#333333;width:536px;" y="24"><tspan>Fastp: Insert Size Distribution</tspan></text><g class="highcharts-axis-labels highcharts-xaxis-labels "><text x="75.20447145647927" style="color:#666666;cursor:default;font-size:11px;fill:#666666;width:94px;text-overflow:clip;" text-anchor="middle" transform="translate(0,0)" y="362" opacity="1"><tspan>0</tspan></text><text x="168.90246725996673" style="color:#666666;cursor:default;font-size:11px;fill:#666666;width:94px;text-overflow:clip;" text-anchor="middle" transform="translate(0,0)" y="362" opacity="1"><tspan>50</tspan></text><text x="262.6004630634542" style="color:#666666;cursor:default;font-size:11px;fill:#666666;width:94px;text-overflow:clip;" text-anchor="middle" transform="translate(0,0)" y="362" opacity="1"><tspan>100</tspan></text><text x="356.2984588669417" style="color:#666666;cursor:default;font-size:11px;fill:#666666;width:94px;text-overflow:clip;" text-anchor="middle" transform="translate(0,0)" y="362" opacity="1"><tspan>150</tspan></text><text x="449.99645467042916" style="color:#666666;cursor:default;font-size:11px;fill:#666666;width:94px;text-overflow:clip;" text-anchor="middle" transform="translate(0,0)" y="362" opacity="1"><tspan>200</tspan></text><text x="543.6944504739166" style="color:#666666;cursor:default;font-size:11px;fill:#666666;width:94px;text-overflow:clip;" text-anchor="middle" transform="translate(0,0)" y="362" opacity="1"><tspan>250</tspan></text></g><g class="highcharts-axis-labels highcharts-yaxis-labels "><text x="57" style="color:#666666;cursor:default;font-size:11px;fill:#666666;width:188px;text-overflow:clip;" text-anchor="end" transform="translate(0,0)" y="347" opacity="1"><tspan>0%</tspan></text><text x="57" style="color:#666666;cursor:default;font-size:11px;fill:#666666;width:188px;text-overflow:clip;" text-anchor="end" transform="translate(0,0)" y="273" opacity="1"><tspan>5%</tspan></text><text x="57" style="color:#666666;cursor:default;font-size:11px;fill:#666666;width:188px;text-overflow:clip;" text-anchor="end" transform="translate(0,0)" y="199" opacity="1"><tspan>10%</tspan></text><text x="57" style="color:#666666;cursor:default;font-size:11px;fill:#666666;width:188px;text-overflow:clip;" text-anchor="end" transform="translate(0,0)" y="125" opacity="1"><tspan>15%</tspan></text><text x="57" style="color:#666666;cursor:default;font-size:11px;fill:#666666;width:188px;text-overflow:clip;" text-anchor="end" transform="translate(0,0)" y="51" opacity="1"><tspan>20%</tspan></text></g><text x="590" class="highcharts-credits" text-anchor="end" style="cursor:pointer;color:#999999;font-size:9px;fill:#999999;" y="395"><tspan>Created with MultiQC</tspan></text></svg>