<svg xmlns:xlink="http://www.w3.org/1999/xlink" version="1.1" class="highcharts-root" style="font-family:&quot;lucida grande&quot;, &quot;lucida sans unicode&quot;, arial, helvetica, sans-serif;font-size:12px;" xmlns="http://www.w3.org/2000/svg" width="600" height="400"><desc>Created with Highcharts 5.0.6</desc><defs><clipPath id="highcharts-7m11rbd-521"><rect x="0" y="0" width="258" height="496" fill="none"></rect></clipPath></defs><rect fill="#ffffff" class="highcharts-background" x="0" y="0" width="600" height="400" rx="0" ry="0"></rect><rect fill="none" class="highcharts-plot-background" x="94" y="47" width="496" height="258"></rect><g class="highcharts-grid highcharts-xaxis-grid "><path fill="none" class="highcharts-grid-line" d="M 94 69.5 L 590 69.5" opacity="1"></path><path fill="none" class="highcharts-grid-line" d="M 94 90.5 L 590 90.5" opacity="1"></path><path fill="none" class="highcharts-grid-line" d="M 94 112.5 L 590 112.5" opacity="1"></path><path fill="none" class="highcharts-grid-line" d="M 94 133.5 L 590 133.5" opacity="1"></path><path fill="none" class="highcharts-grid-line" d="M 94 155.5 L 590 155.5" opacity="1"></path><path fill="none" class="highcharts-grid-line" d="M 94 176.5 L 590 176.5" opacity="1"></path><path fill="none" class="highcharts-grid-line" d="M 94 198.5 L 590 198.5" opacity="1"></path><path fill="none" class="highcharts-grid-line" d="M 94 219.5 L 590 219.5" opacity="1"></path><path fill="none" class="highcharts-grid-line" d="M 94 241.5 L 590 241.5" opacity="1"></path><path fill="none" class="highcharts-grid-line" d="M 94 262.5 L 590 262.5" opacity="1"></path><path fill="none" class="highcharts-grid-line" d="M 94 284.5 L 590 284.5" opacity="1"></path><path fill="none" class="highcharts-grid-line" d="M 94 305.5 L 590 305.5" opacity="1"></path><path fill="none" class="highcharts-grid-line" d="M 94 47.5 L 590 47.5" opacity="1"></path></g><g class="highcharts-grid highcharts-yaxis-grid "><path fill="none" stroke="#e6e6e6" stroke-width="1" class="highcharts-grid-line" d="M 93.5 47 L 93.5 305" opacity="1"></path><path fill="none" stroke="#e6e6e6" stroke-width="1" class="highcharts-grid-line" d="M 164.5 47 L 164.5 305" opacity="1"></path><path fill="none" stroke="#e6e6e6" stroke-width="1" class="highcharts-grid-line" d="M 235.5 47 L 235.5 305" opacity="1"></path><path fill="none" stroke="#e6e6e6" stroke-width="1" class="highcharts-grid-line" d="M 306.5 47 L 306.5 305" opacity="1"></path><path fill="none" stroke="#e6e6e6" stroke-width="1" class="highcharts-grid-line" d="M 376.5 47 L 376.5 305" opacity="1"></path><path fill="none" stroke="#e6e6e6" stroke-width="1" class="highcharts-grid-line" d="M 447.5 47 L 447.5 305" opacity="1"></path><path fill="none" stroke="#e6e6e6" stroke-width="1" class="highcharts-grid-line" d="M 518.5 47 L 518.5 305" opacity="1"></path><path fill="none" stroke="#e6e6e6" stroke-width="1" class="highcharts-grid-line" d="M 590.5 47 L 590.5 305" opacity="1"></path></g><rect fill="none" class="highcharts-plot-border" x="94" y="47" width="496" height="258"></rect><g class="highcharts-axis highcharts-xaxis "><path fill="none" class="highcharts-tick" stroke="#ccd6eb" stroke-width="1" d="M 94 69.5 L 84 69.5" opacity="1"></path><path fill="none" class="highcharts-tick" stroke="#ccd6eb" stroke-width="1" d="M 94 90.5 L 84 90.5" opacity="1"></path><path fill="none" class="highcharts-tick" stroke="#ccd6eb" stroke-width="1" d="M 94 112.5 L 84 112.5" opacity="1"></path><path fill="none" class="highcharts-tick" stroke="#ccd6eb" stroke-width="1" d="M 94 133.5 L 84 133.5" opacity="1"></path><path fill="none" class="highcharts-tick" stroke="#ccd6eb" stroke-width="1" d="M 94 155.5 L 84 155.5" opacity="1"></path><path fill="none" class="highcharts-tick" stroke="#ccd6eb" stroke-width="1" d="M 94 176.5 L 84 176.5" opacity="1"></path><path fill="none" class="highcharts-tick" stroke="#ccd6eb" stroke-width="1" d="M 94 198.5 L 84 198.5" opacity="1"></path><path fill="none" class="highcharts-tick" stroke="#ccd6eb" stroke-width="1" d="M 94 219.5 L 84 219.5" opacity="1"></path><path fill="none" class="highcharts-tick" stroke="#ccd6eb" stroke-width="1" d="M 94 241.5 L 84 241.5" opacity="1"></path><path fill="none" class="highcharts-tick" stroke="#ccd6eb" stroke-width="1" d="M 94 262.5 L 84 262.5" opacity="1"></path><path fill="none" class="highcharts-tick" stroke="#ccd6eb" stroke-width="1" d="M 94 284.5 L 84 284.5" opacity="1"></path><path fill="none" class="highcharts-tick" stroke="#ccd6eb" stroke-width="1" d="M 94 305.5 L 84 305.5" opacity="1"></path><path fill="none" class="highcharts-tick" stroke="#ccd6eb" stroke-width="1" d="M 94 46.5 L 84 46.5" opacity="1"></path><path fill="none" class="highcharts-axis-line" stroke="#ccd6eb" stroke-width="1" d="M 93.5 47 L 93.5 305"></path></g><g class="highcharts-axis highcharts-yaxis "><text x="342" text-anchor="middle" transform="translate(0,0)" class="highcharts-axis-title" style="color:#666666;fill:#666666;" y="343.75"><tspan>Number of reads</tspan></text><path fill="none" class="highcharts-axis-line" d="M 94 305 L 590 305"></path></g><g class="highcharts-series-group"><g class="highcharts-series highcharts-series-0 highcharts-bar-series highcharts-color-undefined " transform="translate(590,305) rotate(90) scale(-1,1) scale(1 1)" width="496" height="258" clip-path="url(#highcharts-7m11rbd-521)"><rect x="239" y="493" width="17" height="4" fill="#7cb5ec" class="highcharts-point"></rect><rect x="217" y="492" width="17" height="5" fill="#7cb5ec" class="highcharts-point"></rect><rect x="196" y="477" width="17" height="20" fill="#7cb5ec" class="highcharts-point"></rect><rect x="174" y="476" width="17" height="21" fill="#7cb5ec" class="highcharts-point"></rect><rect x="153" y="350" width="17" height="147" fill="#7cb5ec" class="highcharts-point"></rect><rect x="131" y="337" width="17" height="160" fill="#7cb5ec" class="highcharts-point"></rect><rect x="110" y="494" width="17" height="3" fill="#7cb5ec" class="highcharts-point"></rect><rect x="88" y="494" width="17" height="3" fill="#7cb5ec" class="highcharts-point"></rect><rect x="67" y="478" width="17" height="19" fill="#7cb5ec" class="highcharts-point"></rect><rect x="45" y="478" width="17" height="19" fill="#7cb5ec" class="highcharts-point"></rect><rect x="24" y="358" width="17" height="139" fill="#7cb5ec" class="highcharts-point"></rect><rect x="2" y="355" width="17" height="142" fill="#7cb5ec" class="highcharts-point"></rect></g><g class="highcharts-markers highcharts-series-0 highcharts-bar-series highcharts-color-undefined " transform="translate(590,305) rotate(90) scale(-1,1) scale(1 1)" width="496" height="258" clip-path="none"></g><g class="highcharts-series highcharts-series-1 highcharts-bar-series highcharts-color-undefined " transform="translate(590,305) rotate(90) scale(-1,1) scale(1 1)" width="496" height="258" clip-path="url(#highcharts-7m11rbd-521)"><rect x="239" y="467" width="17" height="26" fill="#434348" class="highcharts-point"></rect><rect x="217" y="467" width="17" height="25" fill="#434348" class="highcharts-point"></rect><rect x="196" y="427" width="17" height="50" fill="#434348" class="highcharts-point"></rect><rect x="174" y="427" width="17" height="49" fill="#434348" class="highcharts-point"></rect><rect x="153" y="81" width="17" height="269" fill="#434348" class="highcharts-point"></rect><rect x="131" y="81" width="17" height="256" fill="#434348" class="highcharts-point"></rect><rect x="110" y="472" width="17" height="22" fill="#434348" class="highcharts-point"></rect><rect x="88" y="472" width="17" height="22" fill="#434348" class="highcharts-point"></rect><rect x="67" y="430" width="17" height="48" fill="#434348" class="highcharts-point"></rect><rect x="45" y="430" width="17" height="48" fill="#434348" class="highcharts-point"></rect><rect x="24" y="111" width="17" height="247" fill="#434348" class="highcharts-point"></rect><rect x="2" y="111" width="17" height="244" fill="#434348" class="highcharts-point"></rect></g><g class="highcharts-markers highcharts-series-1 highcharts-bar-series highcharts-color-undefined " transform="translate(590,305) rotate(90) scale(-1,1) scale(1 1)" width="496" height="258" clip-path="none"></g></g><text x="300" text-anchor="middle" class="highcharts-title" style="color:#333333;font-size:18px;fill:#333333;width:536px;" y="24"><tspan>FastQC: Sequence Counts</tspan></text><g class="highcharts-legend" transform="translate(168,359)"><rect fill="none" class="highcharts-legend-box" rx="0" ry="0" x="0" y="0" width="264" height="26" visibility="visible"></rect><g><g><g class="highcharts-legend-item highcharts-bar-series highcharts-color-undefined highcharts-series-0" transform="translate(8,3)"><text x="21" style="color:#333333;font-size:12px;font-weight:bold;cursor:pointer;fill:#333333;" text-anchor="start" y="15"><tspan>Unique Reads</tspan></text><rect x="2" y="4" width="12" height="12" fill="#7cb5ec" rx="6" ry="6" class="highcharts-point"></rect></g><g class="highcharts-legend-item highcharts-bar-series highcharts-color-undefined highcharts-series-1" transform="translate(134.63333129882812,3)"><text x="21" y="15" style="color:#333333;font-size:12px;font-weight:bold;cursor:pointer;fill:#333333;" text-anchor="start"><tspan>Duplicate Reads</tspan></text><rect x="2" y="4" width="12" height="12" fill="#434348" rx="6" ry="6" class="highcharts-point"></rect></g></g></g></g><g class="highcharts-axis-labels highcharts-xaxis-labels "><text x="79" style="color:#666666;cursor:default;font-size:11px;fill:#666666;width:188px;text-overflow:clip;" text-anchor="end" transform="translate(0,0)" y="62" opacity="1"><tspan>PE1.R1</tspan></text><text x="79" style="color:#666666;cursor:default;font-size:11px;fill:#666666;width:188px;text-overflow:clip;" text-anchor="end" transform="translate(0,0)" y="83" opacity="1"><tspan>PE1.R2</tspan></text><text x="79" style="color:#666666;cursor:default;font-size:11px;fill:#666666;width:188px;text-overflow:clip;" text-anchor="end" transform="translate(0,0)" y="105" opacity="1"><tspan>PE2.R1</tspan></text><text x="79" style="color:#666666;cursor:default;font-size:11px;fill:#666666;width:188px;text-overflow:clip;" text-anchor="end" transform="translate(0,0)" y="126" opacity="1"><tspan>PE2.R2</tspan></text><text x="79" style="color:#666666;cursor:default;font-size:11px;fill:#666666;width:188px;text-overflow:clip;" text-anchor="end" transform="translate(0,0)" y="148" opacity="1"><tspan>PE3.R1</tspan></text><text x="79" style="color:#666666;cursor:default;font-size:11px;fill:#666666;width:188px;text-overflow:clip;" text-anchor="end" transform="translate(0,0)" y="169" opacity="1"><tspan>PE3.R2</tspan></text><text x="79" style="color:#666666;cursor:default;font-size:11px;fill:#666666;width:188px;text-overflow:clip;" text-anchor="end" transform="translate(0,0)" y="191" opacity="1"><tspan>PE1.R1.clean</tspan></text><text x="79" style="color:#666666;cursor:default;font-size:11px;fill:#666666;width:188px;text-overflow:clip;" text-anchor="end" transform="translate(0,0)" y="212" opacity="1"><tspan>PE1.R2.clean</tspan></text><text x="79" style="color:#666666;cursor:default;font-size:11px;fill:#666666;width:188px;text-overflow:clip;" text-anchor="end" transform="translate(0,0)" y="234" opacity="1"><tspan>PE2.R1.clean</tspan></text><text x="79" style="color:#666666;cursor:default;font-size:11px;fill:#666666;width:188px;text-overflow:clip;" text-anchor="end" transform="translate(0,0)" y="255" opacity="1"><tspan>PE2.R2.clean</tspan></text><text x="79" style="color:#666666;cursor:default;font-size:11px;fill:#666666;width:188px;text-overflow:clip;" text-anchor="end" transform="translate(0,0)" y="277" opacity="1"><tspan>PE3.R1.clean</tspan></text><text x="79" style="color:#666666;cursor:default;font-size:11px;fill:#666666;width:188px;text-overflow:clip;" text-anchor="end" transform="translate(0,0)" y="298" opacity="1"><tspan>PE1.R2.clean</tspan></text></g><g class="highcharts-axis-labels highcharts-yaxis-labels "><text x="94" style="color:#666666;cursor:default;font-size:11px;fill:#666666;width:61px;text-overflow:clip;" text-anchor="middle" transform="translate(0,0)" y="324" opacity="1"><tspan>0</tspan></text><text x="164.85714285714283" style="color:#666666;cursor:default;font-size:11px;fill:#666666;width:61px;text-overflow:clip;" text-anchor="middle" transform="translate(0,0)" y="324" opacity="1"><tspan>500k</tspan></text><text x="235.7142857142857" style="color:#666666;cursor:default;font-size:11px;fill:#666666;width:61px;text-overflow:clip;" text-anchor="middle" transform="translate(0,0)" y="324" opacity="1"><tspan>1</tspan><tspan dx="0">000k</tspan></text><text x="306.57142857142856" style="color:#666666;cursor:default;font-size:11px;fill:#666666;width:61px;text-overflow:clip;" text-anchor="middle" transform="translate(0,0)" y="324" opacity="1"><tspan>1</tspan><tspan dx="0">500k</tspan></text><text x="377.4285714285714" style="color:#666666;cursor:default;font-size:11px;fill:#666666;width:61px;text-overflow:clip;" text-anchor="middle" transform="translate(0,0)" y="324" opacity="1"><tspan>2</tspan><tspan dx="0">000k</tspan></text><text x="448.2857142857143" style="color:#666666;cursor:default;font-size:11px;fill:#666666;width:61px;text-overflow:clip;" text-anchor="middle" transform="translate(0,0)" y="324" opacity="1"><tspan>2</tspan><tspan dx="0">500k</tspan></text><text x="519.1428571428571" style="color:#666666;cursor:default;font-size:11px;fill:#666666;width:61px;text-overflow:clip;" text-anchor="middle" transform="translate(0,0)" y="324" opacity="1"><tspan>3</tspan><tspan dx="0">000k</tspan></text><text x="572.3333320617676" style="color:#666666;cursor:default;font-size:11px;fill:#666666;width:61px;text-overflow:clip;" text-anchor="middle" transform="translate(0,0)" y="324" opacity="1"><tspan>3</tspan><tspan dx="0">500k</tspan></text></g><text x="590" class="highcharts-credits" text-anchor="end" style="cursor:pointer;color:#999999;font-size:9px;fill:#999999;" y="395"><tspan>Created with MultiQC</tspan></text></svg>