<svg xmlns:xlink="http://www.w3.org/1999/xlink" version="1.1" class="highcharts-root" style="font-family:&quot;lucida grande&quot;, &quot;lucida sans unicode&quot;, arial, helvetica, sans-serif;font-size:12px;" xmlns="http://www.w3.org/2000/svg" width="600" height="400"><desc>Created with Highcharts 5.0.6</desc><defs><clipPath id="highcharts-7m11rbd-484"><rect x="0" y="0" width="258" height="528" fill="none"></rect></clipPath></defs><rect fill="#ffffff" class="highcharts-background" x="0" y="0" width="600" height="400" rx="0" ry="0"></rect><rect fill="none" class="highcharts-plot-background" x="62" y="47" width="528" height="258"></rect><g class="highcharts-grid highcharts-xaxis-grid "><path fill="none" class="highcharts-grid-line" d="M 62 133.5 L 590 133.5" opacity="1"></path><path fill="none" class="highcharts-grid-line" d="M 62 219.5 L 590 219.5" opacity="1"></path><path fill="none" class="highcharts-grid-line" d="M 62 305.5 L 590 305.5" opacity="1"></path><path fill="none" class="highcharts-grid-line" d="M 62 47.5 L 590 47.5" opacity="1"></path></g><g class="highcharts-grid highcharts-yaxis-grid "><path fill="none" stroke="#e6e6e6" stroke-width="1" class="highcharts-grid-line" d="M 61.5 47 L 61.5 305" opacity="1"></path><path fill="none" stroke="#e6e6e6" stroke-width="1" class="highcharts-grid-line" d="M 136.5 47 L 136.5 305" opacity="1"></path><path fill="none" stroke="#e6e6e6" stroke-width="1" class="highcharts-grid-line" d="M 212.5 47 L 212.5 305" opacity="1"></path><path fill="none" stroke="#e6e6e6" stroke-width="1" class="highcharts-grid-line" d="M 287.5 47 L 287.5 305" opacity="1"></path><path fill="none" stroke="#e6e6e6" stroke-width="1" class="highcharts-grid-line" d="M 363.5 47 L 363.5 305" opacity="1"></path><path fill="none" stroke="#e6e6e6" stroke-width="1" class="highcharts-grid-line" d="M 438.5 47 L 438.5 305" opacity="1"></path><path fill="none" stroke="#e6e6e6" stroke-width="1" class="highcharts-grid-line" d="M 514.5 47 L 514.5 305" opacity="1"></path><path fill="none" stroke="#e6e6e6" stroke-width="1" class="highcharts-grid-line" d="M 590.5 47 L 590.5 305" opacity="1"></path></g><rect fill="none" class="highcharts-plot-border" x="62" y="47" width="528" height="258"></rect><g class="highcharts-axis highcharts-xaxis "><path fill="none" class="highcharts-tick" stroke="#ccd6eb" stroke-width="1" d="M 62 133.5 L 52 133.5" opacity="1"></path><path fill="none" class="highcharts-tick" stroke="#ccd6eb" stroke-width="1" d="M 62 219.5 L 52 219.5" opacity="1"></path><path fill="none" class="highcharts-tick" stroke="#ccd6eb" stroke-width="1" d="M 62 305.5 L 52 305.5" opacity="1"></path><path fill="none" class="highcharts-tick" stroke="#ccd6eb" stroke-width="1" d="M 62 46.5 L 52 46.5" opacity="1"></path><path fill="none" class="highcharts-axis-line" stroke="#ccd6eb" stroke-width="1" d="M 61.5 47 L 61.5 305"></path></g><g class="highcharts-axis highcharts-yaxis "><text x="326" text-anchor="middle" transform="translate(0,0)" class="highcharts-axis-title" style="color:#666666;fill:#666666;" y="343.75"><tspan># Reads</tspan></text><path fill="none" class="highcharts-axis-line" d="M 62 305 L 590 305"></path></g><g class="highcharts-series-group"><g class="highcharts-series highcharts-series-0 highcharts-bar-series highcharts-color-undefined " transform="translate(590,305) rotate(90) scale(-1,1) scale(1 1)" width="528" height="258" clip-path="url(#highcharts-7m11rbd-484)"><rect x="182" y="500" width="67" height="29" fill="#7cb5ec" class="highcharts-point"></rect><rect x="96" y="457" width="67" height="72" fill="#7cb5ec" class="highcharts-point"></rect><rect x="10" y="118" width="67" height="411" fill="#7cb5ec" class="highcharts-point"></rect></g><g class="highcharts-markers highcharts-series-0 highcharts-bar-series highcharts-color-undefined " transform="translate(590,305) rotate(90) scale(-1,1) scale(1 1)" width="528" height="258" clip-path="none"></g><g class="highcharts-series highcharts-series-1 highcharts-bar-series highcharts-color-undefined " transform="translate(590,305) rotate(90) scale(-1,1) scale(1 1)" width="528" height="258" clip-path="url(#highcharts-7m11rbd-484)"><rect x="182" y="499" width="67" height="1" fill="#434348" class="highcharts-point"></rect><rect x="96" y="457" width="67" height="0" fill="#434348" class="highcharts-point"></rect><rect x="10" y="118" width="67" height="0" fill="#434348" class="highcharts-point"></rect></g><g class="highcharts-markers highcharts-series-1 highcharts-bar-series highcharts-color-undefined " transform="translate(590,305) rotate(90) scale(-1,1) scale(1 1)" width="528" height="258" clip-path="none"></g><g class="highcharts-series highcharts-series-2 highcharts-bar-series highcharts-color-undefined " transform="translate(590,305) rotate(90) scale(-1,1) scale(1 1)" width="528" height="258" clip-path="url(#highcharts-7m11rbd-484)"><rect x="182" y="499" width="67" height="0" fill="#90ed7d" class="highcharts-point"></rect><rect x="96" y="457" width="67" height="0" fill="#90ed7d" class="highcharts-point"></rect><rect x="10" y="118" width="67" height="0" fill="#90ed7d" class="highcharts-point"></rect></g><g class="highcharts-markers highcharts-series-2 highcharts-bar-series highcharts-color-undefined " transform="translate(590,305) rotate(90) scale(-1,1) scale(1 1)" width="528" height="258" clip-path="none"></g><g class="highcharts-series highcharts-series-3 highcharts-bar-series highcharts-color-undefined " transform="translate(590,305) rotate(90) scale(-1,1) scale(1 1)" width="528" height="258" clip-path="url(#highcharts-7m11rbd-484)"><rect x="182" y="497" width="67" height="2" fill="#f7a35c" class="highcharts-point"></rect><rect x="96" y="454" width="67" height="3" fill="#f7a35c" class="highcharts-point"></rect><rect x="10" y="86" width="67" height="32" fill="#f7a35c" class="highcharts-point"></rect></g><g class="highcharts-markers highcharts-series-3 highcharts-bar-series highcharts-color-undefined " transform="translate(590,305) rotate(90) scale(-1,1) scale(1 1)" width="528" height="258" clip-path="none"></g><g class="highcharts-series highcharts-series-4 highcharts-bar-series highcharts-color-undefined " transform="translate(590,305) rotate(90) scale(-1,1) scale(1 1)" width="528" height="258" clip-path="url(#highcharts-7m11rbd-484)"><rect x="182" y="497" width="67" height="0" fill="#8085e9" class="highcharts-point"></rect><rect x="96" y="454" width="67" height="0" fill="#8085e9" class="highcharts-point"></rect><rect x="10" y="86" width="67" height="0" fill="#8085e9" class="highcharts-point"></rect></g><g class="highcharts-markers highcharts-series-4 highcharts-bar-series highcharts-color-undefined " transform="translate(590,305) rotate(90) scale(-1,1) scale(1 1)" width="528" height="258" clip-path="none"></g></g><text x="300" text-anchor="middle" class="highcharts-title" style="color:#333333;font-size:18px;fill:#333333;width:536px;" y="24"><tspan>Fastp: Filtered Reads</tspan></text><g class="highcharts-legend" transform="translate(25,359)"><rect fill="none" class="highcharts-legend-box" rx="0" ry="0" x="0" y="0" width="550" height="26" visibility="visible"></rect><g><g><g class="highcharts-legend-item highcharts-bar-series highcharts-color-undefined highcharts-series-0" transform="translate(8,3)"><text x="21" style="color:#333333;font-size:12px;font-weight:bold;cursor:pointer;fill:#333333;" text-anchor="start" y="15"><tspan>Passed Filter</tspan></text><rect x="2" y="4" width="12" height="12" fill="#7cb5ec" rx="6" ry="6" class="highcharts-point"></rect></g><g class="highcharts-legend-item highcharts-bar-series highcharts-color-undefined highcharts-series-1" transform="translate(129.0500030517578,3)"><text x="21" y="15" style="color:#333333;font-size:12px;font-weight:bold;cursor:pointer;fill:#333333;" text-anchor="start"><tspan>Low Quality</tspan></text><rect x="2" y="4" width="12" height="12" fill="#434348" rx="6" ry="6" class="highcharts-point"></rect></g><g class="highcharts-legend-item highcharts-bar-series highcharts-color-undefined highcharts-series-2" transform="translate(244.58333587646484,3)"><text x="21" y="15" style="color:#333333;font-size:12px;font-weight:bold;cursor:pointer;fill:#333333;" text-anchor="start"><tspan>Too Many N</tspan></text><rect x="2" y="4" width="12" height="12" fill="#90ed7d" rx="6" ry="6" class="highcharts-point"></rect></g><g class="highcharts-legend-item highcharts-bar-series highcharts-color-undefined highcharts-series-3" transform="translate(360.25,3)"><text x="21" y="15" style="color:#333333;font-size:12px;font-weight:bold;cursor:pointer;fill:#333333;" text-anchor="start"><tspan>Too Short</tspan></text><rect x="2" y="4" width="12" height="12" fill="#f7a35c" rx="6" ry="6" class="highcharts-point"></rect></g><g class="highcharts-legend-item highcharts-bar-series highcharts-color-undefined highcharts-series-4" transform="translate(462.6333351135254,3)"><text x="21" y="15" style="color:#333333;font-size:12px;font-weight:bold;cursor:pointer;fill:#333333;" text-anchor="start"><tspan>Too Long</tspan></text><rect x="2" y="4" width="12" height="12" fill="#8085e9" rx="6" ry="6" class="highcharts-point"></rect></g></g></g></g><g class="highcharts-axis-labels highcharts-xaxis-labels "><text x="47" style="color:#666666;cursor:default;font-size:11px;fill:#666666;width:188px;text-overflow:clip;" text-anchor="end" transform="translate(0,0)" y="94" opacity="1"><tspan>PE1.R1</tspan></text><text x="47" style="color:#666666;cursor:default;font-size:11px;fill:#666666;width:188px;text-overflow:clip;" text-anchor="end" transform="translate(0,0)" y="180" opacity="1"><tspan>PE2.R1</tspan></text><text x="47" style="color:#666666;cursor:default;font-size:11px;fill:#666666;width:188px;text-overflow:clip;" text-anchor="end" transform="translate(0,0)" y="266" opacity="1"><tspan>PE3.R1</tspan></text></g><g class="highcharts-axis-labels highcharts-yaxis-labels "><text x="62" style="color:#666666;cursor:default;font-size:11px;fill:#666666;width:65px;text-overflow:clip;" text-anchor="middle" transform="translate(0,0)" y="324" opacity="1"><tspan>0</tspan></text><text x="137.42857142857142" style="color:#666666;cursor:default;font-size:11px;fill:#666666;width:65px;text-overflow:clip;" text-anchor="middle" transform="translate(0,0)" y="324" opacity="1"><tspan>1M</tspan></text><text x="212.85714285714283" style="color:#666666;cursor:default;font-size:11px;fill:#666666;width:65px;text-overflow:clip;" text-anchor="middle" transform="translate(0,0)" y="324" opacity="1"><tspan>2M</tspan></text><text x="288.2857142857143" style="color:#666666;cursor:default;font-size:11px;fill:#666666;width:65px;text-overflow:clip;" text-anchor="middle" transform="translate(0,0)" y="324" opacity="1"><tspan>3M</tspan></text><text x="363.71428571428567" style="color:#666666;cursor:default;font-size:11px;fill:#666666;width:65px;text-overflow:clip;" text-anchor="middle" transform="translate(0,0)" y="324" opacity="1"><tspan>4M</tspan></text><text x="439.1428571428571" style="color:#666666;cursor:default;font-size:11px;fill:#666666;width:65px;text-overflow:clip;" text-anchor="middle" transform="translate(0,0)" y="324" opacity="1"><tspan>5M</tspan></text><text x="514.5714285714286" style="color:#666666;cursor:default;font-size:11px;fill:#666666;width:65px;text-overflow:clip;" text-anchor="middle" transform="translate(0,0)" y="324" opacity="1"><tspan>6M</tspan></text><text x="581.2416667938232" style="color:#666666;cursor:default;font-size:11px;fill:#666666;width:65px;text-overflow:clip;" text-anchor="middle" transform="translate(0,0)" y="324" opacity="1"><tspan>7M</tspan></text></g><text x="590" class="highcharts-credits" text-anchor="end" style="cursor:pointer;color:#999999;font-size:9px;fill:#999999;" y="395"><tspan>Created with MultiQC</tspan></text></svg>