<svg xmlns:xlink="http://www.w3.org/1999/xlink" version="1.1" class="highcharts-root" style="font-family:&quot;lucida grande&quot;, &quot;lucida sans unicode&quot;, arial, helvetica, sans-serif;font-size:12px;" xmlns="http://www.w3.org/2000/svg" width="600" height="400"><desc>Created with Highcharts 5.0.6</desc><defs><clipPath id="highcharts-7m11rbd-527"><rect x="0" y="0" width="525" height="296" fill="none"></rect></clipPath></defs><rect fill="#ffffff" class="highcharts-background" x="0" y="0" width="600" height="400" rx="0" ry="0"></rect><rect fill="none" class="highcharts-plot-background" x="65" y="47" width="525" height="296"></rect><g class="highcharts-plot-bands-0"><path fill="#c3e6c3" class="highcharts-plot-band " d="M 65 136.5 L 590 136.5 590 47.5 65 47.5 z"></path><path fill="#e6dcc3" class="highcharts-plot-band " d="M 65 195.5 L 590 195.5 590 136.5 65 136.5 z"></path><path fill="#e6c3c3" class="highcharts-plot-band " d="M 65 343.5 L 590 343.5 590 195.5 65 195.5 z"></path></g><g class="highcharts-grid highcharts-xaxis-grid "><path fill="none" class="highcharts-grid-line" d="M 66.5 47 L 66.5 343" opacity="1"></path><path fill="none" class="highcharts-grid-line" d="M 152.5 47 L 152.5 343" opacity="1"></path><path fill="none" class="highcharts-grid-line" d="M 238.5 47 L 238.5 343" opacity="1"></path><path fill="none" class="highcharts-grid-line" d="M 325.5 47 L 325.5 343" opacity="1"></path><path fill="none" class="highcharts-grid-line" d="M 411.5 47 L 411.5 343" opacity="1"></path><path fill="none" class="highcharts-grid-line" d="M 497.5 47 L 497.5 343" opacity="1"></path><path fill="none" class="highcharts-grid-line" d="M 584.5 47 L 584.5 343" opacity="1"></path></g><g class="highcharts-grid highcharts-yaxis-grid "><path fill="none" stroke="#e6e6e6" stroke-width="1" class="highcharts-grid-line" d="M 65 343.5 L 590 343.5" opacity="1"></path><path fill="none" stroke="#e6e6e6" stroke-width="1" class="highcharts-grid-line" d="M 65 269.5 L 590 269.5" opacity="1"></path><path fill="none" stroke="#e6e6e6" stroke-width="1" class="highcharts-grid-line" d="M 65 195.5 L 590 195.5" opacity="1"></path><path fill="none" stroke="#e6e6e6" stroke-width="1" class="highcharts-grid-line" d="M 65 121.5 L 590 121.5" opacity="1"></path><path fill="none" stroke="#e6e6e6" stroke-width="1" class="highcharts-grid-line" d="M 65 46.5 L 590 46.5" opacity="1"></path></g><rect fill="none" class="highcharts-plot-border" x="65" y="47" width="525" height="296"></rect><g class="highcharts-axis highcharts-xaxis "><path fill="none" class="highcharts-tick" stroke="#ccd6eb" stroke-width="1" d="M 66.5 343 L 66.5 353" opacity="1"></path><path fill="none" class="highcharts-tick" stroke="#ccd6eb" stroke-width="1" d="M 152.5 343 L 152.5 353" opacity="1"></path><path fill="none" class="highcharts-tick" stroke="#ccd6eb" stroke-width="1" d="M 238.5 343 L 238.5 353" opacity="1"></path><path fill="none" class="highcharts-tick" stroke="#ccd6eb" stroke-width="1" d="M 325.5 343 L 325.5 353" opacity="1"></path><path fill="none" class="highcharts-tick" stroke="#ccd6eb" stroke-width="1" d="M 411.5 343 L 411.5 353" opacity="1"></path><path fill="none" class="highcharts-tick" stroke="#ccd6eb" stroke-width="1" d="M 497.5 343 L 497.5 353" opacity="1"></path><path fill="none" class="highcharts-tick" stroke="#ccd6eb" stroke-width="1" d="M 584.5 343 L 584.5 353" opacity="1"></path><text x="327.5" text-anchor="middle" transform="translate(0,0)" class="highcharts-axis-title" style="color:#666666;fill:#666666;" y="381.75"><tspan>Position (bp)</tspan></text><path fill="none" class="highcharts-axis-line" stroke="#ccd6eb" stroke-width="1" d="M 65 343.5 L 590 343.5"></path></g><g class="highcharts-axis highcharts-yaxis "><text x="25" text-anchor="middle" transform="translate(0,0) rotate(270 25 195)" class="highcharts-axis-title" style="color:#666666;fill:#666666;" y="195"><tspan>Phred Score</tspan></text><path fill="none" class="highcharts-axis-line" d="M 65 47 L 65 343"></path></g><g class="highcharts-series-group"><g class="highcharts-series highcharts-series-0 highcharts-line-series highcharts-color-undefined " transform="translate(65,47) scale(1 1)" width="296" height="525" clip-path="url(#highcharts-7m11rbd-527)"><path fill="none" d="M 5.1470588235294 50.07344495710308 L 8.6014607185156 81.68446799874968 L 12.055862613502 69.40152646826934 L 15.510264508488 47.77878246427588 L 18.964666403474 41.89602567751021 L 22.41906829846 35.32226021805354 L 25.873470193447 34.566831971859244 L 29.327872088433 34.307703719600056 L 32.782273983419 32.37829261351709 L 43.145479668377 31.620931089661326 L 60.417489143308 30.475353602269138 L 77.689498618239 29.31182425087826 L 94.96150809317 31.001039416657704 L 112.2335175681 30.62875918470172 L 129.50552704303 30.098571595187252 L 146.77753651796 30.089913273089394 L 164.04954599289 30.433567186530468 L 181.32155546782 32.22422419302916 L 198.59356494276 31.049578495085143 L 215.86557441769 32.50354138772383 L 233.13758389262 34.7292134862912 L 250.40959336755 39.168571361925046 L 267.68160284248 37.99645273406702 L 284.95361231741 39.66375281664182 L 302.22562179234 38.874602684382126 L 319.49763126727 39.66985645040148 L 336.7696407422 41.55411171396449 L 354.04165021713 41.927372393877306 L 371.31365969206 41.1711846457446 L 388.585669167 39.921016836870365 L 405.85767864193 38.71469300353152 L 423.12968811686 35.00865496312122 L 440.40169759179 32.960540608627866 L 457.67370706672 32.80016141748814 L 474.94571654165 32.963109106092304 L 492.21772601658 34.15056967310619 L 509.48973549151 35.16207936631713 L 519.85294117647 64.50132702179141" class="highcharts-graph" stroke="#5cb85c" stroke-width="2" stroke-linejoin="round" stroke-linecap="round"></path></g><g class="highcharts-markers highcharts-series-0 highcharts-line-series highcharts-color-undefined " transform="translate(65,47) scale(1 1)" width="296" height="525" clip-path="none"></g><g class="highcharts-series highcharts-series-1 highcharts-line-series highcharts-color-undefined " transform="translate(65,47) scale(1 1)" width="296" height="525" clip-path="url(#highcharts-7m11rbd-527)"><path fill="none" d="M 5.1470588235294 40.00452062271694 L 8.6014607185156 38.960274503034725 L 12.055862613502 35.38350369254164 L 15.510264508488 30.35580799716348 L 18.964666403474 33.36985691692598 L 22.41906829846 32.90469650246558 L 25.873470193447 32.35309095828802 L 29.327872088433 33.15408932078691 L 32.782273983419 31.927355598994154 L 43.145479668377 31.809494707279157 L 60.417489143308 33.145334334805966 L 77.689498618239 32.390776063559315 L 94.96150809317 31.701189730861984 L 112.2335175681 32.59831342051115 L 129.50552704303 33.929029862235325 L 146.77753651796 33.144243413839945 L 164.04954599289 33.23429272548299 L 181.32155546782 33.57920326940393 L 198.59356494276 32.83552658956569 L 215.86557441769 33.00960443384918 L 233.13758389262 33.14525148004907 L 250.40959336755 35.578806163722106 L 267.68160284248 35.49490191321712 L 284.95361231741 35.96948015171375 L 302.22562179234 38.44620216374079 L 319.49763126727 37.050348073953444 L 336.7696407422 41.776424835899945 L 354.04165021713 49.33454623491372 L 371.31365969206 60.685136994928854 L 388.585669167 75.85994429697087 L 405.85767864193 91.69261836893693 L 423.12968811686 100.11926475733725 L 440.40169759179 110.33553246777481 L 457.67370706672 115.68404178193708 L 474.94571654165 105.13783262032831 L 492.21772601658 84.73529062145732 L 509.48973549151 83.47081815979914 L 519.85294117647 111.59770427249504" class="highcharts-graph" stroke="#5cb85c" stroke-width="2" stroke-linejoin="round" stroke-linecap="round"></path></g><g class="highcharts-markers highcharts-series-1 highcharts-line-series highcharts-color-undefined " transform="translate(65,47) scale(1 1)" width="296" height="525" clip-path="none"></g><g class="highcharts-series highcharts-series-2 highcharts-line-series highcharts-color-undefined " transform="translate(65,47) scale(1 1)" width="296" height="525" clip-path="url(#highcharts-7m11rbd-527)"><path fill="none" d="M 5.1470588235294 38.981697498642006 L 8.6014607185156 32.05720268733933 L 12.055862613502 29.845799467297752 L 15.510264508488 29.33148698231662 L 18.964666403474 28.217417222153813 L 22.41906829846 26.85696521280829 L 25.873470193447 26.93759831667711 L 29.327872088433 26.777109151452578 L 32.782273983419 26.588766000755186 L 43.145479668377 27.02795042921099 L 60.417489143308 26.951561172914182 L 77.689498618239 26.998091076329047 L 94.96150809317 27.382634472982204 L 112.2335175681 28.708409465864065 L 129.50552704303 27.952092829852575 L 146.77753651796 27.71670793078067 L 164.04954599289 27.825643831444097 L 181.32155546782 28.020973350020597 L 198.59356494276 28.123395404284963 L 215.86557441769 28.329801816598092 L 233.13758389262 28.60976213628021 L 250.40959336755 28.77790942852471 L 267.68160284248 28.916227422100064 L 284.95361231741 29.226938013043366 L 302.22562179234 29.617536525795686 L 319.49763126727 30.067922613224766 L 336.7696407422 30.449515565317427 L 354.04165021713 30.944285061076982 L 371.31365969206 31.438642389489416 L 388.585669167 31.83589403758657 L 405.85767864193 32.338573624441835 L 423.12968811686 32.90980392329203 L 440.40169759179 33.477073281066794 L 457.67370706672 33.93145102614676 L 474.94571654165 34.60114705956653 L 492.21772601658 35.18201421128981 L 509.48973549151 35.82225937372914 L 519.85294117647 63.493626417511535" class="highcharts-graph" stroke="#5cb85c" stroke-width="2" stroke-linejoin="round" stroke-linecap="round"></path></g><g class="highcharts-markers highcharts-series-2 highcharts-line-series highcharts-color-undefined " transform="translate(65,47) scale(1 1)" width="296" height="525" clip-path="none"></g><g class="highcharts-series highcharts-series-3 highcharts-line-series highcharts-color-undefined " transform="translate(65,47) scale(1 1)" width="296" height="525" clip-path="url(#highcharts-7m11rbd-527)"><path fill="none" d="M 5.1470588235294 36.77168398924903 L 8.6014607185156 33.43216447130618 L 12.055862613502 31.121538899580173 L 15.510264508488 30.37823796321163 L 18.964666403474 29.654661952177946 L 22.41906829846 28.52221214795304 L 25.873470193447 28.742593359194302 L 29.327872088433 28.487663642366556 L 32.782273983419 28.049351892425648 L 43.145479668377 28.39688116782537 L 60.417489143308 28.39403599677712 L 77.689498618239 28.366585475686065 L 94.96150809317 28.674404890036783 L 112.2335175681 29.97440598048098 L 129.50552704303 29.216686830151446 L 146.77753651796 29.06087904892479 L 164.04954599289 29.164236054911783 L 181.32155546782 29.344975056088288 L 198.59356494276 29.632860833188033 L 215.86557441769 29.850766456698693 L 233.13758389262 30.139492147777275 L 250.40959336755 30.47084742429513 L 267.68160284248 30.838811961919646 L 284.95361231741 31.25247521634111 L 302.22562179234 31.690098931106206 L 319.49763126727 32.18102433968096 L 336.7696407422 32.74090343174612 L 354.04165021713 33.50683400560655 L 371.31365969206 34.230023929750644 L 388.585669167 34.96765829643226 L 405.85767864193 35.67767421258975 L 423.12968811686 36.51142066490314 L 440.40169759179 37.37540222278568 L 457.67370706672 38.30534561619254 L 474.94571654165 39.39985471779727 L 492.21772601658 40.85074116747103 L 509.48973549151 42.83577834465444 L 519.85294117647 78.36097240097138" class="highcharts-graph" stroke="#5cb85c" stroke-width="2" stroke-linejoin="round" stroke-linecap="round"></path></g><g class="highcharts-markers highcharts-series-3 highcharts-line-series highcharts-color-undefined " transform="translate(65,47) scale(1 1)" width="296" height="525" clip-path="none"></g><g class="highcharts-series highcharts-series-4 highcharts-line-series highcharts-color-undefined " transform="translate(65,47) scale(1 1)" width="296" height="525" clip-path="url(#highcharts-7m11rbd-527)"><path fill="none" d="M 5.1470588235294 63.84286373061087 L 8.6014607185156 61.44772507445035 L 12.055862613502 63.95225387782236 L 15.510264508488 61.72294447486942 L 18.964666403474 61.955319148936155 L 22.41906829846 38.33174010893049 L 25.873470193447 40.24874926094546 L 29.327872088433 36.91046208275776 L 32.782273983419 36.94698847211208 L 43.145479668377 36.612723998223544 L 60.417489143308 37.470721902987066 L 77.689498618239 38.046719851344506 L 94.96150809317 39.18269736501526 L 112.2335175681 42.9954903916103 L 129.50552704303 41.310959635311804 L 146.77753651796 40.99179577999078 L 164.04954599289 44.153903361299825 L 181.32155546782 42.24794306444801 L 198.59356494276 47.55619041104387 L 215.86557441769 48.33492951860529 L 233.13758389262 49.10367017814755 L 250.40959336755 48.856619477231334 L 267.68160284248 53.86792871322223 L 284.95361231741 53.28727703368739 L 302.22562179234 52.64178727679004 L 319.49763126727 54.579536326229515 L 336.7696407422 63.325481694706866 L 354.04165021713 66.08838999497277 L 371.31365969206 65.11022746884274 L 388.585669167 62.03316697490533 L 405.85767864193 66.63184867094307 L 423.12968811686 65.40554522261382 L 440.40169759179 63.95620189839184 L 457.67370706672 68.64850229742444 L 474.94571654165 68.34463234421256 L 492.21772601658 69.53452382967265 L 509.48973549151 71.6442686407832 L 519.85294117647 92.26314486059468" class="highcharts-graph" stroke="#5cb85c" stroke-width="2" stroke-linejoin="round" stroke-linecap="round"></path></g><g class="highcharts-markers highcharts-series-4 highcharts-line-series highcharts-color-undefined " transform="translate(65,47) scale(1 1)" width="296" height="525" clip-path="none"></g><g class="highcharts-series highcharts-series-5 highcharts-line-series highcharts-color-undefined " transform="translate(65,47) scale(1 1)" width="296" height="525" clip-path="url(#highcharts-7m11rbd-527)"><path fill="none" d="M 5.1470588235294 65.8305969244434 L 8.6014607185156 66.22167602575317 L 12.055862613502 65.45845267190339 L 15.510264508488 64.85681946363033 L 18.964666403474 65.13274454189519 L 22.41906829846 38.93105466142447 L 25.873470193447 38.992907324609064 L 29.327872088433 39.79836297725211 L 32.782273983419 39.213338401135616 L 43.145479668377 40.91067155191908 L 60.417489143308 42.35112838977395 L 77.689498618239 40.64350948033234 L 94.96150809317 43.774440784365 L 112.2335175681 46.40399150734419 L 129.50552704303 45.348730007542 L 146.77753651796 46.17656120952435 L 164.04954599289 50.527223421609904 L 181.32155546782 50.330014669608914 L 198.59356494276 52.07965294101544 L 215.86557441769 52.037301921252094 L 233.13758389262 53.93122782673501 L 250.40959336755 56.94890767099827 L 267.68160284248 56.84418941629309 L 284.95361231741 60.50372320545861 L 302.22562179234 58.610116022271654 L 319.49763126727 57.86753784724428 L 336.7696407422 58.89172145624855 L 354.04165021713 62.87822148617215 L 371.31365969206 62.294884130938584 L 388.585669167 63.52623086236741 L 405.85767864193 64.46792130255776 L 423.12968811686 68.6169480424658 L 440.40169759179 67.09136242221226 L 457.67370706672 67.86354983811063 L 474.94571654165 72.2897474705589 L 492.21772601658 70.74724884272658 L 509.48973549151 74.69112971943457 L 519.85294117647 92.81899987249014" class="highcharts-graph" stroke="#5cb85c" stroke-width="2" stroke-linejoin="round" stroke-linecap="round"></path></g><g class="highcharts-markers highcharts-series-5 highcharts-line-series highcharts-color-undefined " transform="translate(65,47) scale(1 1)" width="296" height="525" clip-path="none"></g><g class="highcharts-series highcharts-series-6 highcharts-line-series highcharts-color-undefined " transform="translate(65,47) scale(1 1)" width="296" height="525" clip-path="url(#highcharts-7m11rbd-527)"><path fill="none" d="M 5.1470588235294 47.06412217146615 L 8.6014607185156 76.7574017368606 L 12.055862613502 64.05627450652298 L 15.510264508488 41.68279927937576 L 18.964666403474 37.90505942918975 L 22.41906829846 31.85162837653172 L 25.873470193447 31.680835968743168 L 29.327872088433 31.242422011389408 L 32.782273983419 29.20281891248203 L 43.145479668377 28.898628471350662 L 60.417489143308 27.796722453920665 L 77.689498618239 26.53242202604042 L 94.96150809317 27.41624309023223 L 112.2335175681 27.099320896095946 L 129.50552704303 26.65642460335812 L 146.77753651796 26.628688773173906 L 164.04954599289 27.293845199924306 L 181.32155546782 28.797790219783508 L 198.59356494276 27.84542939908596 L 215.86557441769 28.77437347866106 L 233.13758389262 28.18082416807175 L 250.40959336755 29.296312254304382 L 267.68160284248 28.13658878003389 L 284.95361231741 28.464835080247212 L 302.22562179234 28.720387301225514 L 319.49763126727 28.866103305178115 L 336.7696407422 30.379386439810503 L 354.04165021713 31.45175326357156 L 371.31365969206 31.763402448623367 L 388.585669167 33.76700529371806 L 405.85767864193 33.01843982449441 L 423.12968811686 32.9048826869012 L 440.40169759179 33.158534415018664 L 457.67370706672 35.25320661161436 L 474.94571654165 37.320873817077654 L 492.21772601658 39.71070079612326 L 509.48973549151 42.8965968024101 L 519.85294117647 44.85438596491227" class="highcharts-graph" stroke="#5cb85c" stroke-width="2" stroke-linejoin="round" stroke-linecap="round"></path></g><g class="highcharts-markers highcharts-series-6 highcharts-line-series highcharts-color-undefined " transform="translate(65,47) scale(1 1)" width="296" height="525" clip-path="none"></g><g class="highcharts-series highcharts-series-7 highcharts-line-series highcharts-color-undefined " transform="translate(65,47) scale(1 1)" width="296" height="525" clip-path="url(#highcharts-7m11rbd-527)"><path fill="none" d="M 5.1470588235294 33.78606495657846 L 8.6014607185156 32.75156981186797 L 12.055862613502 29.0487012588614 L 15.510264508488 25.762536463475158 L 18.964666403474 27.336567218290043 L 22.41906829846 27.17221357696235 L 25.873470193447 26.79868257394486 L 29.327872088433 27.45898632933421 L 32.782273983419 26.7785407916827 L 43.145479668377 26.706377078348282 L 60.417489143308 27.447386813941364 L 77.689498618239 26.530402788516483 L 94.96150809317 25.791549148383297 L 112.2335175681 26.073376266103992 L 129.50552704303 26.654782689751528 L 146.77753651796 26.28808524145387 L 164.04954599289 26.631480592539845 L 181.32155546782 27.223499973888806 L 198.59356494276 26.465619194417116 L 215.86557441769 26.58996711112161 L 233.13758389262 26.863323097185003 L 250.40959336755 28.535024201680812 L 267.68160284248 29.081439052978453 L 284.95361231741 29.839570142700325 L 302.22562179234 32.88095698452781 L 319.49763126727 32.19634663441798 L 336.7696407422 32.663135809325354 L 354.04165021713 34.52113624341837 L 371.31365969206 44.353663415374 L 388.585669167 55.54124323201802 L 405.85767864193 65.73812333354022 L 423.12968811686 71.70084273741566 L 440.40169759179 75.31066770601933 L 457.67370706672 73.85096802199413 L 474.94571654165 62.13580114011799 L 492.21772601658 53.932117972528005 L 509.48973549151 55.30057473169779 L 519.85294117647 57.755726759116584" class="highcharts-graph" stroke="#5cb85c" stroke-width="2" stroke-linejoin="round" stroke-linecap="round"></path></g><g class="highcharts-markers highcharts-series-7 highcharts-line-series highcharts-color-undefined " transform="translate(65,47) scale(1 1)" width="296" height="525" clip-path="none"></g><g class="highcharts-series highcharts-series-8 highcharts-line-series highcharts-color-undefined " transform="translate(65,47) scale(1 1)" width="296" height="525" clip-path="url(#highcharts-7m11rbd-527)"><path fill="none" d="M 5.1470588235294 36.14996976356582 L 8.6014607185156 29.391546440845104 L 12.055862613502 27.319858910687685 L 15.510264508488 26.945394053431073 L 18.964666403474 26.22739947702553 L 22.41906829846 25.16762151991287 L 25.873470193447 25.240281672928177 L 29.327872088433 25.114202274369802 L 32.782273983419 25.002686091029545 L 43.145479668377 25.36498271150225 L 60.417489143308 25.272934512601807 L 77.689498618239 25.24585867761084 L 94.96150809317 25.272356515038894 L 112.2335175681 25.277825240801292 L 129.50552704303 25.301324972175337 L 146.77753651796 25.296599108546673 L 164.04954599289 25.266484825560326 L 181.32155546782 25.325825899666484 L 198.59356494276 25.31938895656782 L 215.86557441769 25.356906887894354 L 233.13758389262 25.474701998094815 L 250.40959336755 25.49434841049043 L 267.68160284248 25.48947316281027 L 284.95361231741 25.637303253173513 L 302.22562179234 25.7932754918682 L 319.49763126727 26.033190111731983 L 336.7696407422 26.20719056293376 L 354.04165021713 26.463514455518123 L 371.31365969206 26.66240865328666 L 388.585669167 26.810921592994816 L 405.85767864193 27.014506787860228 L 423.12968811686 27.28082362188644 L 440.40169759179 27.458272957499446 L 457.67370706672 27.5397883685834 L 474.94571654165 27.74119659423576 L 492.21772601658 27.922503965920896 L 509.48973549151 28.05757699106431 L 519.85294117647 53.54740607579802" class="highcharts-graph" stroke="#5cb85c" stroke-width="2" stroke-linejoin="round" stroke-linecap="round"></path></g><g class="highcharts-markers highcharts-series-8 highcharts-line-series highcharts-color-undefined " transform="translate(65,47) scale(1 1)" width="296" height="525" clip-path="none"></g><g class="highcharts-series highcharts-series-9 highcharts-line-series highcharts-color-undefined " transform="translate(65,47) scale(1 1)" width="296" height="525" clip-path="url(#highcharts-7m11rbd-527)"><path fill="none" d="M 5.1470588235294 33.31195150370951 L 8.6014607185156 30.11842863253355 L 12.055862613502 27.81628679731898 L 15.510264508488 27.082637544169415 L 18.964666403474 26.71833887141196 L 22.41906829846 25.843423312185394 L 25.873470193447 25.97994955677808 L 29.327872088433 25.772790159146894 L 32.782273983419 25.390560332748237 L 43.145479668377 25.67644217255622 L 60.417489143308 25.60538752771339 L 77.689498618239 25.447233894625356 L 94.96150809317 25.49064161245451 L 112.2335175681 25.469345536883964 L 129.50552704303 25.460898008894674 L 146.77753651796 25.489532605179363 L 164.04954599289 25.468154961322682 L 181.32155546782 25.45394972112598 L 198.59356494276 25.545358101749343 L 215.86557441769 25.575511095944478 L 233.13758389262 25.668709619223534 L 250.40959336755 25.794544430894575 L 267.68160284248 25.913530980320957 L 284.95361231741 26.109639856329864 L 302.22562179234 26.310246020959767 L 319.49763126727 26.581071881722096 L 336.7696407422 26.84541374724489 L 354.04165021713 27.230012812406926 L 371.31365969206 27.566140283542552 L 388.585669167 27.89525735211413 L 405.85767864193 28.219529412607983 L 423.12968811686 28.525011247989198 L 440.40169759179 28.887253581760092 L 457.67370706672 29.293156519162096 L 474.94571654165 29.684634429123093 L 492.21772601658 30.314728921325127 L 509.48973549151 31.14331075386741 L 519.85294117647 62.90401954780302" class="highcharts-graph" stroke="#5cb85c" stroke-width="2" stroke-linejoin="round" stroke-linecap="round"></path></g><g class="highcharts-markers highcharts-series-9 highcharts-line-series highcharts-color-undefined " transform="translate(65,47) scale(1 1)" width="296" height="525" clip-path="none"></g><g class="highcharts-series highcharts-series-10 highcharts-line-series highcharts-color-undefined " transform="translate(65,47) scale(1 1)" width="296" height="525" clip-path="url(#highcharts-7m11rbd-527)"><path fill="none" d="M 5.1470588235294 63.04407541569003 L 8.6014607185156 60.887587564934336 L 12.055862613502 63.104273580261435 L 15.510264508488 60.923057259788834 L 18.964666403474 61.287405271162896 L 22.41906829846 37.03888970528806 L 25.873470193447 38.41290744237648 L 29.327872088433 35.070083762555214 L 32.782273983419 34.771803393118205 L 43.145479668377 34.83958810865619 L 60.417489143308 35.39439166797257 L 77.689498618239 35.113185262322986 L 94.96150809317 35.07091044667425 L 112.2335175681 37.20450169848323 L 129.50552704303 35.143640689872655 L 146.77753651796 34.13850376891003 L 164.04954599289 36.237072440930206 L 181.32155546782 33.94196962020436 L 198.59356494276 37.78714345812847 L 215.86557441769 37.445142622825415 L 233.13758389262 37.71411631156269 L 250.40959336755 37.26572863493658 L 267.68160284248 40.305406366715516 L 284.95361231741 39.14906546665628 L 302.22562179234 37.58640739373175 L 319.49763126727 38.70745546428304 L 336.7696407422 46.4907700611447 L 354.04165021713 48.17679715099331 L 371.31365969206 45.808602340333465 L 388.585669167 42.68054210141645 L 405.85767864193 46.253151661802605 L 423.12968811686 43.73331123477752 L 440.40169759179 41.83158040721088 L 457.67370706672 45.525860510729046 L 474.94571654165 44.756854710757324 L 492.21772601658 45.34564859165266 L 509.48973549151 46.21496217741014 L 519.85294117647 70.00164309052784" class="highcharts-graph" stroke="#5cb85c" stroke-width="2" stroke-linejoin="round" stroke-linecap="round"></path></g><g class="highcharts-markers highcharts-series-10 highcharts-line-series highcharts-color-undefined " transform="translate(65,47) scale(1 1)" width="296" height="525" clip-path="none"></g><g class="highcharts-series highcharts-series-11 highcharts-line-series highcharts-color-undefined " transform="translate(65,47) scale(1 1)" width="296" height="525" clip-path="url(#highcharts-7m11rbd-527)"><path fill="none" d="M 5.1470588235294 63.789531664450124 L 8.6014607185156 63.778657227459405 L 12.055862613502 62.993514720901686 L 15.510264508488 62.35209149222257 L 18.964666403474 62.55955671974078 L 22.41906829846 35.38431964966679 L 25.873470193447 35.26732973791138 L 29.327872088433 35.77775949860023 L 32.782273983419 34.98009507784775 L 43.145479668377 36.02489739086985 L 60.417489143308 36.50958978944442 L 77.689498618239 34.33124997126106 L 94.96150809317 35.88984142207664 L 112.2335175681 36.92966931258076 L 129.50552704303 35.185201099986784 L 146.77753651796 35.1317324733709 L 164.04954599289 37.77265949539316 L 181.32155546782 36.66523127330845 L 198.59356494276 37.855577097337914 L 215.86557441769 37.27428941021111 L 233.13758389262 38.06872186656983 L 250.40959336755 40.682939292819555 L 267.68160284248 39.88659925409843 L 284.95361231741 42.65834671362316 L 302.22562179234 39.338528573375754 L 319.49763126727 38.04524855919186 L 336.7696407422 38.726886157846764 L 354.04165021713 41.605292218168074 L 371.31365969206 40.52085476341034 L 388.585669167 40.83413763868094 L 405.85767864193 41.35371795494754 L 423.12968811686 44.126311089630235 L 440.40169759179 41.94676588773751 L 457.67370706672 42.4546230266385 L 474.94571654165 44.718730469740706 L 492.21772601658 42.61104473589316 L 509.48973549151 46.451034436215 L 519.85294117647 64.6445394662868" class="highcharts-graph" stroke="#5cb85c" stroke-width="2" stroke-linejoin="round" stroke-linecap="round"></path></g><g class="highcharts-markers highcharts-series-11 highcharts-line-series highcharts-color-undefined " transform="translate(65,47) scale(1 1)" width="296" height="525" clip-path="none"></g></g><text x="330" text-anchor="middle" class="highcharts-title" style="color:#333333;font-size:18px;fill:#333333;width:536px;" y="24"><tspan>FastQC: Mean Quality Scores</tspan></text><g class="highcharts-axis-labels highcharts-xaxis-labels "><text x="66.69265692854323" style="color:#666666;cursor:default;font-size:11px;fill:#666666;width:78px;text-overflow:clip;" text-anchor="middle" transform="translate(0,0)" y="362" opacity="1"><tspan>0</tspan></text><text x="153.05270430319777" style="color:#666666;cursor:default;font-size:11px;fill:#666666;width:78px;text-overflow:clip;" text-anchor="middle" transform="translate(0,0)" y="362" opacity="1"><tspan>25</tspan></text><text x="239.41275167785233" style="color:#666666;cursor:default;font-size:11px;fill:#666666;width:78px;text-overflow:clip;" text-anchor="middle" transform="translate(0,0)" y="362" opacity="1"><tspan>50</tspan></text><text x="325.77279905250685" style="color:#666666;cursor:default;font-size:11px;fill:#666666;width:78px;text-overflow:clip;" text-anchor="middle" transform="translate(0,0)" y="362" opacity="1"><tspan>75</tspan></text><text x="412.1328464271614" style="color:#666666;cursor:default;font-size:11px;fill:#666666;width:78px;text-overflow:clip;" text-anchor="middle" transform="translate(0,0)" y="362" opacity="1"><tspan>100</tspan></text><text x="498.49289380181597" style="color:#666666;cursor:default;font-size:11px;fill:#666666;width:78px;text-overflow:clip;" text-anchor="middle" transform="translate(0,0)" y="362" opacity="1"><tspan>125</tspan></text><text x="579.0249996185303" style="color:#666666;cursor:default;font-size:11px;fill:#666666;width:78px;text-overflow:clip;" text-anchor="middle" transform="translate(0,0)" y="362" opacity="1"><tspan>150</tspan></text></g><g class="highcharts-axis-labels highcharts-yaxis-labels "><text x="50" style="color:#666666;cursor:default;font-size:11px;fill:#666666;width:188px;text-overflow:clip;" text-anchor="end" transform="translate(0,0)" y="347" opacity="1"><tspan>0</tspan></text><text x="50" style="color:#666666;cursor:default;font-size:11px;fill:#666666;width:188px;text-overflow:clip;" text-anchor="end" transform="translate(0,0)" y="273" opacity="1"><tspan>10</tspan></text><text x="50" style="color:#666666;cursor:default;font-size:11px;fill:#666666;width:188px;text-overflow:clip;" text-anchor="end" transform="translate(0,0)" y="199" opacity="1"><tspan>20</tspan></text><text x="50" style="color:#666666;cursor:default;font-size:11px;fill:#666666;width:188px;text-overflow:clip;" text-anchor="end" transform="translate(0,0)" y="125" opacity="1"><tspan>30</tspan></text><text x="50" style="color:#666666;cursor:default;font-size:11px;fill:#666666;width:188px;text-overflow:clip;" text-anchor="end" transform="translate(0,0)" y="51" opacity="1"><tspan>40</tspan></text></g><text x="590" class="highcharts-credits" text-anchor="end" style="cursor:pointer;color:#999999;font-size:9px;fill:#999999;" y="395"><tspan>Created with MultiQC</tspan></text></svg>