<svg xmlns:xlink="http://www.w3.org/1999/xlink" version="1.1" class="highcharts-root" style="font-family:&quot;lucida grande&quot;, &quot;lucida sans unicode&quot;, arial, helvetica, sans-serif;font-size:12px;" xmlns="http://www.w3.org/2000/svg" width="600" height="400"><desc>Created with Highcharts 5.0.6</desc><defs><clipPath id="highcharts-7m11rbd-591"><rect x="0" y="0" width="490" height="296" fill="none"></rect></clipPath></defs><rect fill="#ffffff" class="highcharts-background" x="0" y="0" width="600" height="400" rx="0" ry="0"></rect><rect fill="none" class="highcharts-plot-background" x="100" y="47" width="490" height="296"></rect><g class="highcharts-grid highcharts-xaxis-grid "><path fill="none" class="highcharts-grid-line" d="M 132.5 47 L 132.5 343" opacity="1"></path><path fill="none" class="highcharts-grid-line" d="M 222.5 47 L 222.5 343" opacity="1"></path><path fill="none" class="highcharts-grid-line" d="M 312.5 47 L 312.5 343" opacity="1"></path><path fill="none" class="highcharts-grid-line" d="M 401.5 47 L 401.5 343" opacity="1"></path><path fill="none" class="highcharts-grid-line" d="M 491.5 47 L 491.5 343" opacity="1"></path><path fill="none" class="highcharts-grid-line" d="M 581.5 47 L 581.5 343" opacity="1"></path></g><g class="highcharts-grid highcharts-yaxis-grid "><path fill="none" stroke="#e6e6e6" stroke-width="1" class="highcharts-grid-line" d="M 100 343.5 L 590 343.5" opacity="1"></path><path fill="none" stroke="#e6e6e6" stroke-width="1" class="highcharts-grid-line" d="M 100 269.5 L 590 269.5" opacity="1"></path><path fill="none" stroke="#e6e6e6" stroke-width="1" class="highcharts-grid-line" d="M 100 195.5 L 590 195.5" opacity="1"></path><path fill="none" stroke="#e6e6e6" stroke-width="1" class="highcharts-grid-line" d="M 100 121.5 L 590 121.5" opacity="1"></path><path fill="none" stroke="#e6e6e6" stroke-width="1" class="highcharts-grid-line" d="M 100 46.5 L 590 46.5" opacity="1"></path></g><rect fill="none" class="highcharts-plot-border" x="100" y="47" width="490" height="296"></rect><g class="highcharts-axis highcharts-xaxis "><path fill="none" class="highcharts-tick" stroke="#ccd6eb" stroke-width="1" d="M 132.5 343 L 132.5 353" opacity="1"></path><path fill="none" class="highcharts-tick" stroke="#ccd6eb" stroke-width="1" d="M 222.5 343 L 222.5 353" opacity="1"></path><path fill="none" class="highcharts-tick" stroke="#ccd6eb" stroke-width="1" d="M 312.5 343 L 312.5 353" opacity="1"></path><path fill="none" class="highcharts-tick" stroke="#ccd6eb" stroke-width="1" d="M 401.5 343 L 401.5 353" opacity="1"></path><path fill="none" class="highcharts-tick" stroke="#ccd6eb" stroke-width="1" d="M 491.5 343 L 491.5 353" opacity="1"></path><path fill="none" class="highcharts-tick" stroke="#ccd6eb" stroke-width="1" d="M 581.5 343 L 581.5 353" opacity="1"></path><text x="345" text-anchor="middle" transform="translate(0,0)" class="highcharts-axis-title" style="color:#666666;fill:#666666;" y="381.75"><tspan>Sequence Length (bp)</tspan></text><path fill="none" class="highcharts-axis-line" stroke="#ccd6eb" stroke-width="1" d="M 100 343.5 L 590 343.5"></path></g><g class="highcharts-axis highcharts-yaxis "><text x="25.25" text-anchor="middle" transform="translate(0,0) rotate(270 25.25 195)" class="highcharts-axis-title" style="color:#666666;fill:#666666;" y="195"><tspan>Read Count</tspan></text><path fill="none" class="highcharts-axis-line" d="M 100 47 L 100 343"></path></g><g class="highcharts-series-group"><g class="highcharts-series highcharts-series-0 highcharts-line-series highcharts-color-undefined " transform="translate(100,47) scale(1 1)" width="296" height="490" clip-path="url(#highcharts-7m11rbd-591)"><path fill="none" d="M 463.68598185543 295.998224 L 467.27099795142 295.999852 L 470.85601404741 295.94376 L 474.4410301434 296 L 478.02604623939 294.972436 L 481.61106233538 294.694492 L 485.19607843137 266.667288" class="highcharts-graph" stroke="#f0ad4e" stroke-width="2" stroke-linejoin="round" stroke-linecap="round"></path></g><g class="highcharts-markers highcharts-series-0 highcharts-line-series highcharts-color-undefined " transform="translate(100,47) scale(1 1)" width="296" height="490" clip-path="none"></g><g class="highcharts-series highcharts-series-1 highcharts-line-series highcharts-color-undefined " transform="translate(100,47) scale(1 1)" width="296" height="490" clip-path="url(#highcharts-7m11rbd-591)"><path fill="none" d="M 463.68598185543 295.999704 L 467.27099795142 295.999852 L 470.85601404741 295.993636 L 474.4410301434 295.959004 L 478.02604623939 295.754468 L 481.61106233538 294.252416 L 485.19607843137 266.316972" class="highcharts-graph" stroke="#f0ad4e" stroke-width="2" stroke-linejoin="round" stroke-linecap="round"></path></g><g class="highcharts-markers highcharts-series-1 highcharts-line-series highcharts-color-undefined " transform="translate(100,47) scale(1 1)" width="296" height="490" clip-path="none"></g><g class="highcharts-series highcharts-series-2 highcharts-line-series highcharts-color-undefined " transform="translate(100,47) scale(1 1)" width="296" height="490" clip-path="url(#highcharts-7m11rbd-591)"><path fill="none" d="M 76.50424348844 295.138788 L 94.429323968393 295.063604 L 112.35440444835 295.51086 L 130.2794849283 294.954824 L 148.20456540825 295.340068 L 166.12964588821 294.738596 L 184.05472636816 294.99582 L 201.97980684811 294.477968 L 219.90488732807 294.60658 L 237.82996780802 294.179452 L 255.75504828797 294.174272 L 273.68012876793 294.011768 L 291.60520924788 293.741372 L 309.53028972783 293.825436 L 327.45537020778 293.324752 L 345.38045068774 293.65272 L 363.30553116769 292.970884 L 381.23061164764 293.519076 L 399.1556921276 292.723132 L 417.08077260755 293.49288 L 435.0058530875 292.683024 L 452.93093356746 293.45958 L 470.85601404741 290.455032 L 485.19607843137 269.66828399999997" class="highcharts-graph" stroke="#f0ad4e" stroke-width="2" stroke-linejoin="round" stroke-linecap="round"></path></g><g class="highcharts-markers highcharts-series-2 highcharts-line-series highcharts-color-undefined " transform="translate(100,47) scale(1 1)" width="296" height="490" clip-path="none"></g><g class="highcharts-series highcharts-series-3 highcharts-line-series highcharts-color-undefined " transform="translate(100,47) scale(1 1)" width="296" height="490" clip-path="url(#highcharts-7m11rbd-591)"><path fill="none" d="M 76.50424348844 295.141452 L 94.429323968393 295.066564 L 112.35440444835 295.51234 L 130.2794849283 294.958376 L 148.20456540825 295.343324 L 166.12964588821 294.742148 L 184.05472636816 295.001296 L 201.97980684811 294.481224 L 219.90488732807 294.611464 L 237.82996780802 294.185816 L 255.75504828797 294.180636 L 273.68012876793 294.01532 L 291.60520924788 293.75188 L 309.53028972783 293.842308 L 327.45537020778 293.340144 L 345.38045068774 293.674328 L 363.30553116769 292.993676 L 381.23061164764 293.545124 L 399.1556921276 292.775672 L 417.08077260755 293.530768 L 435.0058530875 292.771232 L 452.93093356746 293.518484 L 470.85601404741 290.692572 L 485.19607843137 269.032624" class="highcharts-graph" stroke="#f0ad4e" stroke-width="2" stroke-linejoin="round" stroke-linecap="round"></path></g><g class="highcharts-markers highcharts-series-3 highcharts-line-series highcharts-color-undefined " transform="translate(100,47) scale(1 1)" width="296" height="490" clip-path="none"></g><g class="highcharts-series highcharts-series-4 highcharts-line-series highcharts-color-undefined " transform="translate(100,47) scale(1 1)" width="296" height="490" clip-path="url(#highcharts-7m11rbd-591)"><path fill="none" d="M 76.50424348844 292.039964 L 94.429323968393 292.218304 L 112.35440444835 291.496952 L 130.2794849283 291.115408 L 148.20456540825 290.408708 L 166.12964588821 289.925784 L 184.05472636816 289.223672 L 201.97980684811 288.571288 L 219.90488732807 288.24702 L 237.82996780802 287.40268 L 255.75504828797 287.41378 L 273.68012876793 286.714184 L 291.60520924788 286.748964 L 309.53028972783 286.176204 L 327.45537020778 286.332788 L 345.38045068774 285.91972 L 363.30553116769 285.858004 L 381.23061164764 285.720808 L 399.1556921276 285.916908 L 417.08077260755 286.066832 L 435.0058530875 285.963232 L 452.93093356746 286.354544 L 470.85601404741 269.285408 L 485.19607843137 64.32361200000003" class="highcharts-graph" stroke="#f0ad4e" stroke-width="2" stroke-linejoin="round" stroke-linecap="round"></path></g><g class="highcharts-markers highcharts-series-4 highcharts-line-series highcharts-color-undefined " transform="translate(100,47) scale(1 1)" width="296" height="490" clip-path="none"></g><g class="highcharts-series highcharts-series-5 highcharts-line-series highcharts-color-undefined " transform="translate(100,47) scale(1 1)" width="296" height="490" clip-path="url(#highcharts-7m11rbd-591)"><path fill="none" d="M 76.50424348844 292.065864 L 94.429323968393 292.249236 L 112.35440444835 291.534544 L 130.2794849283 291.155812 L 148.20456540825 290.456956 L 166.12964588821 289.966188 L 184.05472636816 289.265704 L 201.97980684811 288.603552 L 219.90488732807 288.296452 L 237.82996780802 287.475348 L 255.75504828797 287.493552 L 273.68012876793 286.783448 L 291.60520924788 286.841168 L 309.53028972783 286.24828 L 327.45537020778 286.415076 L 345.38045068774 286.004376 L 363.30553116769 286.015328 L 381.23061164764 285.910988 L 399.1556921276 286.114192 L 417.08077260755 286.273736 L 435.0058530875 286.167176 L 452.93093356746 286.38592 L 470.85601404741 268.806332 L 485.19607843137 62.91554000000002" class="highcharts-graph" stroke="#f0ad4e" stroke-width="2" stroke-linejoin="round" stroke-linecap="round"></path></g><g class="highcharts-markers highcharts-series-5 highcharts-line-series highcharts-color-undefined " transform="translate(100,47) scale(1 1)" width="296" height="490" clip-path="none"></g><g class="highcharts-series highcharts-series-6 highcharts-line-series highcharts-color-undefined " transform="translate(100,47) scale(1 1)" width="296" height="490" clip-path="url(#highcharts-7m11rbd-591)"><path fill="none" d="M 4.8039215686275 295.84016 L 22.729002048581 294.779 L 40.654082528534 294.031156 L 58.579163008487 291.768828 L 76.50424348844 292.850856 L 94.429323968393 289.815376 L 112.35440444835 292.356832 L 130.2794849283 295.221964 L 148.20456540825 295.603212 L 166.12964588821 295.610316 L 184.05472636816 295.63666 L 201.97980684811 295.744996 L 219.90488732807 295.836756 L 237.82996780802 295.859252 L 255.75504828797 295.886928 L 273.68012876793 295.906168 L 291.60520924788 295.935324 L 309.53028972783 295.966552 L 327.45537020778 295.96374 L 345.38045068774 295.960484 L 363.30553116769 295.953824 L 381.23061164764 295.96078 L 399.1556921276 295.953528 L 417.08077260755 295.895068 L 435.0058530875 295.79428 L 452.93093356746 295.367892 L 470.85601404741 294.606432 L 481.61106233538 295.358864" class="highcharts-graph" stroke="#f0ad4e" stroke-width="2" stroke-linejoin="round" stroke-linecap="round"></path></g><g class="highcharts-markers highcharts-series-6 highcharts-line-series highcharts-color-undefined " transform="translate(100,47) scale(1 1)" width="296" height="490" clip-path="none"></g><g class="highcharts-series highcharts-series-7 highcharts-line-series highcharts-color-undefined " transform="translate(100,47) scale(1 1)" width="296" height="490" clip-path="url(#highcharts-7m11rbd-591)"><path fill="none" d="M 4.8039215686275 295.72102 L 22.729002048581 294.714176 L 40.654082528534 294.00644 L 58.579163008487 291.757876 L 76.50424348844 292.838572 L 94.429323968393 289.881532 L 112.35440444835 292.400196 L 130.2794849283 295.235728 L 148.20456540825 295.608392 L 166.12964588821 295.622156 L 184.05472636816 295.649536 L 201.97980684811 295.749288 L 219.90488732807 295.844896 L 237.82996780802 295.86532 L 255.75504828797 295.887816 L 273.68012876793 295.925556 L 291.60520924788 295.94524 L 309.53028972783 295.941392 L 327.45537020778 295.915344 L 345.38045068774 295.878492 L 363.30553116769 295.825804 L 381.23061164764 295.739668 L 399.1556921276 295.726644 L 417.08077260755 295.798572 L 435.0058530875 295.840308 L 452.93093356746 295.690828 L 470.85601404741 295.030748 L 481.61106233538 295.423688" class="highcharts-graph" stroke="#f0ad4e" stroke-width="2" stroke-linejoin="round" stroke-linecap="round"></path></g><g class="highcharts-markers highcharts-series-7 highcharts-line-series highcharts-color-undefined " transform="translate(100,47) scale(1 1)" width="296" height="490" clip-path="none"></g><g class="highcharts-series highcharts-series-8 highcharts-line-series highcharts-color-undefined " transform="translate(100,47) scale(1 1)" width="296" height="490" clip-path="url(#highcharts-7m11rbd-591)"><path fill="none" d="M 4.8039215686275 295.87864 L 22.729002048581 295.867836 L 40.654082528534 295.667888 L 58.579163008487 295.545048 L 76.50424348844 295.531728 L 94.429323968393 294.9677 L 112.35440444835 295.38506 L 130.2794849283 294.878456 L 148.20456540825 295.238836 L 166.12964588821 294.663412 L 184.05472636816 294.92034 L 201.97980684811 294.427204 L 219.90488732807 294.557 L 237.82996780802 294.153552 L 255.75504828797 294.146152 L 273.68012876793 294.00126 L 291.60520924788 293.7393 L 309.53028972783 293.83106 L 327.45537020778 293.357756 L 345.38045068774 293.689868 L 363.30553116769 293.047992 L 381.23061164764 293.577092 L 399.1556921276 292.845528 L 417.08077260755 293.573688 L 435.0058530875 292.82318 L 452.93093356746 293.57058 L 470.85601404741 290.906728 L 485.19607843137 272.967352" class="highcharts-graph" stroke="#f0ad4e" stroke-width="2" stroke-linejoin="round" stroke-linecap="round"></path></g><g class="highcharts-markers highcharts-series-8 highcharts-line-series highcharts-color-undefined " transform="translate(100,47) scale(1 1)" width="296" height="490" clip-path="none"></g><g class="highcharts-series highcharts-series-9 highcharts-line-series highcharts-color-undefined " transform="translate(100,47) scale(1 1)" width="296" height="490" clip-path="url(#highcharts-7m11rbd-591)"><path fill="none" d="M 4.8039215686275 295.767048 L 22.729002048581 295.795464 L 40.654082528534 295.61964 L 58.579163008487 295.504348 L 76.50424348844 295.500204 L 94.429323968393 294.939284 L 112.35440444835 295.361824 L 130.2794849283 294.839236 L 148.20456540825 295.213528 L 166.12964588821 294.634848 L 184.05472636816 294.889112 L 201.97980684811 294.3868 L 219.90488732807 294.506532 L 237.82996780802 294.117588 L 255.75504828797 294.119512 L 273.68012876793 293.95982 L 291.60520924788 293.721984 L 309.53028972783 293.787696 L 327.45537020778 293.3249 L 345.38045068774 293.646652 L 363.30553116769 293.033192 L 381.23061164764 293.540684 L 399.1556921276 292.853372 L 417.08077260755 293.547344 L 435.0058530875 292.81726 L 452.93093356746 293.538316 L 470.85601404741 291.03978 L 485.19607843137 273.754268" class="highcharts-graph" stroke="#f0ad4e" stroke-width="2" stroke-linejoin="round" stroke-linecap="round"></path></g><g class="highcharts-markers highcharts-series-9 highcharts-line-series highcharts-color-undefined " transform="translate(100,47) scale(1 1)" width="296" height="490" clip-path="none"></g><g class="highcharts-series highcharts-series-10 highcharts-line-series highcharts-color-undefined " transform="translate(100,47) scale(1 1)" width="296" height="490" clip-path="url(#highcharts-7m11rbd-591)"><path fill="none" d="M 4.8039215686275 292.868764 L 22.729002048581 291.838684 L 40.654082528534 290.213496 L 58.579163008487 290.505648 L 76.50424348844 288.976956 L 94.429323968393 289.104976 L 112.35440444835 288.819632 L 130.2794849283 288.348548 L 148.20456540825 287.758176 L 166.12964588821 286.874468 L 184.05472636816 287.545056 L 201.97980684811 286.033236 L 219.90488732807 285.700236 L 237.82996780802 285.29368 L 255.75504828797 285.86496 L 273.68012876793 283.799472 L 291.60520924788 283.930452 L 309.53028972783 283.538844 L 327.45537020778 285.162552 L 345.38045068774 284.559748 L 363.30553116769 285.355988 L 381.23061164764 285.497772 L 399.1556921276 285.879612 L 417.08077260755 285.734572 L 435.0058530875 286.53466 L 452.93093356746 286.398352 L 470.85601404741 274.472956 L 485.19607843137 148.53546400000002" class="highcharts-graph" stroke="#f0ad4e" stroke-width="2" stroke-linejoin="round" stroke-linecap="round"></path></g><g class="highcharts-markers highcharts-series-10 highcharts-line-series highcharts-color-undefined " transform="translate(100,47) scale(1 1)" width="296" height="490" clip-path="none"></g><g class="highcharts-series highcharts-series-11 highcharts-line-series highcharts-color-undefined " transform="translate(100,47) scale(1 1)" width="296" height="490" clip-path="url(#highcharts-7m11rbd-591)"><path fill="none" d="M 4.8039215686275 289.733976 L 22.729002048581 290.990496 L 40.654082528534 290.02746 L 58.579163008487 290.48478 L 76.50424348844 289.422436 L 94.429323968393 287.676776 L 112.35440444835 286.315472 L 130.2794849283 287.871544 L 148.20456540825 287.178608 L 166.12964588821 287.349252 L 184.05472636816 286.623016 L 201.97980684811 286.797508 L 219.90488732807 285.643552 L 237.82996780802 285.428952 L 255.75504828797 285.884644 L 273.68012876793 285.52974 L 291.60520924788 285.53418 L 309.53028972783 284.875136 L 327.45537020778 285.81464 L 345.38045068774 285.462696 L 363.30553116769 285.320172 L 381.23061164764 285.462992 L 399.1556921276 285.975368 L 417.08077260755 286.03368 L 435.0058530875 285.7436 L 452.93093356746 286.637224 L 470.85601404741 274.280556 L 485.19607843137 151.048504" class="highcharts-graph" stroke="#f0ad4e" stroke-width="2" stroke-linejoin="round" stroke-linecap="round"></path></g><g class="highcharts-markers highcharts-series-11 highcharts-line-series highcharts-color-undefined " transform="translate(100,47) scale(1 1)" width="296" height="490" clip-path="none"></g></g><text x="330" text-anchor="middle" class="highcharts-title" style="color:#333333;font-size:18px;fill:#333333;width:536px;" y="24"><tspan>FastQC: Sequence Length Distribution</tspan></text><g class="highcharts-axis-labels highcharts-xaxis-labels "><text x="133.4840503365525" style="color:#666666;cursor:default;font-size:11px;fill:#666666;width:88px;text-overflow:clip;" text-anchor="middle" transform="translate(0,0)" y="362" opacity="1"><tspan>25</tspan></text><text x="223.10945273631842" style="color:#666666;cursor:default;font-size:11px;fill:#666666;width:88px;text-overflow:clip;" text-anchor="middle" transform="translate(0,0)" y="362" opacity="1"><tspan>50</tspan></text><text x="312.7348551360843" style="color:#666666;cursor:default;font-size:11px;fill:#666666;width:88px;text-overflow:clip;" text-anchor="middle" transform="translate(0,0)" y="362" opacity="1"><tspan>75</tspan></text><text x="402.36025753585017" style="color:#666666;cursor:default;font-size:11px;fill:#666666;width:88px;text-overflow:clip;" text-anchor="middle" transform="translate(0,0)" y="362" opacity="1"><tspan>100</tspan></text><text x="491.985659935616" style="color:#666666;cursor:default;font-size:11px;fill:#666666;width:88px;text-overflow:clip;" text-anchor="middle" transform="translate(0,0)" y="362" opacity="1"><tspan>125</tspan></text><text x="579.0249996185303" style="color:#666666;cursor:default;font-size:11px;fill:#666666;width:88px;text-overflow:clip;" text-anchor="middle" transform="translate(0,0)" y="362" opacity="1"><tspan>150</tspan></text></g><g class="highcharts-axis-labels highcharts-yaxis-labels "><text x="85" style="color:#666666;cursor:default;font-size:11px;fill:#666666;width:188px;text-overflow:clip;" text-anchor="end" transform="translate(0,0)" y="347" opacity="1"><tspan>0</tspan></text><text x="85" style="color:#666666;cursor:default;font-size:11px;fill:#666666;width:188px;text-overflow:clip;" text-anchor="end" transform="translate(0,0)" y="273" opacity="1"><tspan>500000</tspan></text><text x="85" style="color:#666666;cursor:default;font-size:11px;fill:#666666;width:188px;text-overflow:clip;" text-anchor="end" transform="translate(0,0)" y="199" opacity="1"><tspan>1000000</tspan></text><text x="85" style="color:#666666;cursor:default;font-size:11px;fill:#666666;width:188px;text-overflow:clip;" text-anchor="end" transform="translate(0,0)" y="125" opacity="1"><tspan>1500000</tspan></text><text x="85" style="color:#666666;cursor:default;font-size:11px;fill:#666666;width:188px;text-overflow:clip;" text-anchor="end" transform="translate(0,0)" y="51" opacity="1"><tspan>2000000</tspan></text></g><text x="590" class="highcharts-credits" text-anchor="end" style="cursor:pointer;color:#999999;font-size:9px;fill:#999999;" y="395"><tspan>Created with MultiQC</tspan></text></svg>