<svg xmlns:xlink="http://www.w3.org/1999/xlink" version="1.1" class="highcharts-root" style="font-family:&quot;lucida grande&quot;, &quot;lucida sans unicode&quot;, arial, helvetica, sans-serif;font-size:12px;" xmlns="http://www.w3.org/2000/svg" width="600" height="400"><desc>Created with Highcharts 5.0.6</desc><defs><clipPath id="highcharts-7m11rbd-650"><rect x="0" y="0" width="496" height="203" fill="none"></rect></clipPath></defs><rect fill="#ffffff" class="highcharts-background" x="0" y="0" width="600" height="400" rx="0" ry="0"></rect><rect fill="none" class="highcharts-plot-background" x="10" y="60" width="496" height="203"></rect><text x="0" style="color:#666666;cursor:default;font-size:11px;fill:#666666;">0</text><text x="0" style="color:#666666;cursor:default;font-size:11px;fill:#666666;">0.25</text><text x="0" style="color:#666666;cursor:default;font-size:11px;fill:#666666;">0.5</text><text x="0" style="color:#666666;cursor:default;font-size:11px;fill:#666666;">0.75</text><text x="0" style="color:#666666;cursor:default;font-size:11px;fill:#666666;">1</text><g class="highcharts-grid highcharts-xaxis-grid "><path fill="none" class="highcharts-grid-line" d="M 54.5 60 L 54.5 263" opacity="1"></path><path fill="none" class="highcharts-grid-line" d="M 99.5 60 L 99.5 263" opacity="1"></path><path fill="none" class="highcharts-grid-line" d="M 144.5 60 L 144.5 263" opacity="1"></path><path fill="none" class="highcharts-grid-line" d="M 189.5 60 L 189.5 263" opacity="1"></path><path fill="none" class="highcharts-grid-line" d="M 234.5 60 L 234.5 263" opacity="1"></path><path fill="none" class="highcharts-grid-line" d="M 280.5 60 L 280.5 263" opacity="1"></path><path fill="none" class="highcharts-grid-line" d="M 325.5 60 L 325.5 263" opacity="1"></path><path fill="none" class="highcharts-grid-line" d="M 370.5 60 L 370.5 263" opacity="1"></path><path fill="none" class="highcharts-grid-line" d="M 415.5 60 L 415.5 263" opacity="1"></path><path fill="none" class="highcharts-grid-line" d="M 460.5 60 L 460.5 263" opacity="1"></path><path fill="none" class="highcharts-grid-line" d="M 505.5 60 L 505.5 263" opacity="1"></path><path fill="none" class="highcharts-grid-line" d="M 9.5 60 L 9.5 263" opacity="1"></path></g><g class="highcharts-grid highcharts-yaxis-grid "><path fill="none" stroke="#e6e6e6" stroke-width="1" class="highcharts-grid-line" d="M 10 77.5 L 506 77.5" opacity="1"></path><path fill="none" stroke="#e6e6e6" stroke-width="1" class="highcharts-grid-line" d="M 10 94.5 L 506 94.5" opacity="1"></path><path fill="none" stroke="#e6e6e6" stroke-width="1" class="highcharts-grid-line" d="M 10 111.5 L 506 111.5" opacity="1"></path><path fill="none" stroke="#e6e6e6" stroke-width="1" class="highcharts-grid-line" d="M 10 128.5 L 506 128.5" opacity="1"></path><path fill="none" stroke="#e6e6e6" stroke-width="1" class="highcharts-grid-line" d="M 10 145.5 L 506 145.5" opacity="1"></path><path fill="none" stroke="#e6e6e6" stroke-width="1" class="highcharts-grid-line" d="M 10 162.5 L 506 162.5" opacity="1"></path><path fill="none" stroke="#e6e6e6" stroke-width="1" class="highcharts-grid-line" d="M 10 178.5 L 506 178.5" opacity="1"></path><path fill="none" stroke="#e6e6e6" stroke-width="1" class="highcharts-grid-line" d="M 10 195.5 L 506 195.5" opacity="1"></path><path fill="none" stroke="#e6e6e6" stroke-width="1" class="highcharts-grid-line" d="M 10 212.5 L 506 212.5" opacity="1"></path><path fill="none" stroke="#e6e6e6" stroke-width="1" class="highcharts-grid-line" d="M 10 229.5 L 506 229.5" opacity="1"></path><path fill="none" stroke="#e6e6e6" stroke-width="1" class="highcharts-grid-line" d="M 10 246.5 L 506 246.5" opacity="1"></path><path fill="none" stroke="#e6e6e6" stroke-width="1" class="highcharts-grid-line" d="M 10 263.5 L 506 263.5" opacity="1"></path><path fill="none" stroke="#e6e6e6" stroke-width="1" class="highcharts-grid-line" d="M 10 59.5 L 506 59.5" opacity="1"></path></g><rect fill="none" class="highcharts-plot-border" x="10" y="60" width="496" height="203"></rect><path fill="none" stroke="#e6e6e6" stroke-width="1" class="highcharts-grid-line" d="M 0 0" opacity="1"></path><path fill="none" stroke="#e6e6e6" stroke-width="1" class="highcharts-grid-line" d="M 0 0" opacity="1"></path><path fill="none" stroke="#e6e6e6" stroke-width="1" class="highcharts-grid-line" d="M 0 0" opacity="1"></path><path fill="none" stroke="#e6e6e6" stroke-width="1" class="highcharts-grid-line" d="M 0 0" opacity="1"></path><path fill="none" stroke="#e6e6e6" stroke-width="1" class="highcharts-grid-line" d="M 0 0" opacity="1"></path><g class="highcharts-axis highcharts-xaxis "><path fill="none" class="highcharts-tick" stroke="#ccd6eb" stroke-width="1" d="M 54.5 263 L 54.5 273" opacity="1"></path><path fill="none" class="highcharts-tick" stroke="#ccd6eb" stroke-width="1" d="M 99.5 263 L 99.5 273" opacity="1"></path><path fill="none" class="highcharts-tick" stroke="#ccd6eb" stroke-width="1" d="M 144.5 263 L 144.5 273" opacity="1"></path><path fill="none" class="highcharts-tick" stroke="#ccd6eb" stroke-width="1" d="M 189.5 263 L 189.5 273" opacity="1"></path><path fill="none" class="highcharts-tick" stroke="#ccd6eb" stroke-width="1" d="M 234.5 263 L 234.5 273" opacity="1"></path><path fill="none" class="highcharts-tick" stroke="#ccd6eb" stroke-width="1" d="M 280.5 263 L 280.5 273" opacity="1"></path><path fill="none" class="highcharts-tick" stroke="#ccd6eb" stroke-width="1" d="M 325.5 263 L 325.5 273" opacity="1"></path><path fill="none" class="highcharts-tick" stroke="#ccd6eb" stroke-width="1" d="M 370.5 263 L 370.5 273" opacity="1"></path><path fill="none" class="highcharts-tick" stroke="#ccd6eb" stroke-width="1" d="M 415.5 263 L 415.5 273" opacity="1"></path><path fill="none" class="highcharts-tick" stroke="#ccd6eb" stroke-width="1" d="M 460.5 263 L 460.5 273" opacity="1"></path><path fill="none" class="highcharts-tick" stroke="#ccd6eb" stroke-width="1" d="M 505.5 263 L 505.5 273" opacity="1"></path><path fill="none" class="highcharts-tick" stroke="#ccd6eb" stroke-width="1" d="M 9.5 263 L 9.5 273" opacity="1"></path><text x="258" text-anchor="middle" transform="translate(0,0)" class="highcharts-axis-title" style="color:#666666;fill:#666666;" y="382.3516155556312"><tspan>Section Name</tspan></text><path fill="none" class="highcharts-axis-line" stroke="#ccd6eb" stroke-width="1" d="M 10 263.5 L 506 263.5"></path></g><g class="highcharts-axis highcharts-yaxis "><path fill="none" class="highcharts-axis-line" d="M 506 60 L 506 263"></path></g><g class="highcharts-series-group"><g class="highcharts-series highcharts-series-0 highcharts-heatmap-series highcharts-color-0 " transform="translate(10,60) scale(1 1)" width="203" height="496" clip-path="url(#highcharts-7m11rbd-650)"><rect x="0" y="0" width="45" height="17" fill="rgb(92,184,92)" class="highcharts-point highcharts-color-0"></rect><rect x="45" y="0" width="45" height="17" fill="rgb(92,184,92)" class="highcharts-point highcharts-color-0"></rect><rect x="90" y="0" width="45" height="17" fill="rgb(92,184,92)" class="highcharts-point highcharts-color-0"></rect><rect x="135" y="0" width="45" height="17" fill="rgb(92,184,92)" class="highcharts-point highcharts-color-0"></rect><rect x="180" y="0" width="45" height="17" fill="rgb(217,83,79)" class="highcharts-point highcharts-color-0"></rect><rect x="225" y="0" width="46" height="17" fill="rgb(217,83,79)" class="highcharts-point highcharts-color-0"></rect><rect x="271" y="0" width="45" height="17" fill="rgb(92,184,92)" class="highcharts-point highcharts-color-0"></rect><rect x="316" y="0" width="45" height="17" fill="rgb(254,227,145)" class="highcharts-point highcharts-color-0"></rect><rect x="361" y="0" width="45" height="17" fill="rgb(217,83,79)" class="highcharts-point highcharts-color-0"></rect><rect x="406" y="0" width="45" height="17" fill="rgb(217,83,79)" class="highcharts-point highcharts-color-0"></rect><rect x="451" y="0" width="45" height="17" fill="rgb(217,83,79)" class="highcharts-point highcharts-color-0"></rect><rect x="0" y="17" width="45" height="17" fill="rgb(92,184,92)" class="highcharts-point highcharts-color-0"></rect><rect x="45" y="17" width="45" height="17" fill="rgb(92,184,92)" class="highcharts-point highcharts-color-0"></rect><rect x="90" y="17" width="45" height="17" fill="rgb(254,227,145)" class="highcharts-point highcharts-color-0"></rect><rect x="135" y="17" width="45" height="17" fill="rgb(92,184,92)" class="highcharts-point highcharts-color-0"></rect><rect x="180" y="17" width="45" height="17" fill="rgb(217,83,79)" class="highcharts-point highcharts-color-0"></rect><rect x="225" y="17" width="46" height="17" fill="rgb(217,83,79)" class="highcharts-point highcharts-color-0"></rect><rect x="271" y="17" width="45" height="17" fill="rgb(92,184,92)" class="highcharts-point highcharts-color-0"></rect><rect x="316" y="17" width="45" height="17" fill="rgb(254,227,145)" class="highcharts-point highcharts-color-0"></rect><rect x="361" y="17" width="45" height="17" fill="rgb(217,83,79)" class="highcharts-point highcharts-color-0"></rect><rect x="406" y="17" width="45" height="17" fill="rgb(217,83,79)" class="highcharts-point highcharts-color-0"></rect><rect x="451" y="17" width="45" height="17" fill="rgb(217,83,79)" class="highcharts-point highcharts-color-0"></rect><rect x="0" y="34" width="45" height="17" fill="rgb(92,184,92)" class="highcharts-point highcharts-color-0"></rect><rect x="45" y="34" width="45" height="17" fill="rgb(92,184,92)" class="highcharts-point highcharts-color-0"></rect><rect x="90" y="34" width="45" height="17" fill="rgb(92,184,92)" class="highcharts-point highcharts-color-0"></rect><rect x="135" y="34" width="45" height="17" fill="rgb(92,184,92)" class="highcharts-point highcharts-color-0"></rect><rect x="180" y="34" width="45" height="17" fill="rgb(217,83,79)" class="highcharts-point highcharts-color-0"></rect><rect x="225" y="34" width="46" height="17" fill="rgb(217,83,79)" class="highcharts-point highcharts-color-0"></rect><rect x="271" y="34" width="45" height="17" fill="rgb(92,184,92)" class="highcharts-point highcharts-color-0"></rect><rect x="316" y="34" width="45" height="17" fill="rgb(254,227,145)" class="highcharts-point highcharts-color-0"></rect><rect x="361" y="34" width="45" height="17" fill="rgb(217,83,79)" class="highcharts-point highcharts-color-0"></rect><rect x="406" y="34" width="45" height="17" fill="rgb(92,184,92)" class="highcharts-point highcharts-color-0"></rect><rect x="451" y="34" width="45" height="17" fill="rgb(92,184,92)" class="highcharts-point highcharts-color-0"></rect><rect x="0" y="51" width="45" height="17" fill="rgb(92,184,92)" class="highcharts-point highcharts-color-0"></rect><rect x="45" y="51" width="45" height="17" fill="rgb(92,184,92)" class="highcharts-point highcharts-color-0"></rect><rect x="90" y="51" width="45" height="17" fill="rgb(92,184,92)" class="highcharts-point highcharts-color-0"></rect><rect x="135" y="51" width="45" height="17" fill="rgb(92,184,92)" class="highcharts-point highcharts-color-0"></rect><rect x="180" y="51" width="45" height="17" fill="rgb(217,83,79)" class="highcharts-point highcharts-color-0"></rect><rect x="225" y="51" width="46" height="17" fill="rgb(217,83,79)" class="highcharts-point highcharts-color-0"></rect><rect x="271" y="51" width="45" height="17" fill="rgb(92,184,92)" class="highcharts-point highcharts-color-0"></rect><rect x="316" y="51" width="45" height="17" fill="rgb(254,227,145)" class="highcharts-point highcharts-color-0"></rect><rect x="361" y="51" width="45" height="17" fill="rgb(217,83,79)" class="highcharts-point highcharts-color-0"></rect><rect x="406" y="51" width="45" height="17" fill="rgb(92,184,92)" class="highcharts-point highcharts-color-0"></rect><rect x="451" y="51" width="45" height="17" fill="rgb(92,184,92)" class="highcharts-point highcharts-color-0"></rect><rect x="0" y="68" width="45" height="17" fill="rgb(92,184,92)" class="highcharts-point highcharts-color-0"></rect><rect x="45" y="68" width="45" height="17" fill="rgb(92,184,92)" class="highcharts-point highcharts-color-0"></rect><rect x="90" y="68" width="45" height="17" fill="rgb(254,227,145)" class="highcharts-point highcharts-color-0"></rect><rect x="135" y="68" width="45" height="17" fill="rgb(92,184,92)" class="highcharts-point highcharts-color-0"></rect><rect x="180" y="68" width="45" height="17" fill="rgb(217,83,79)" class="highcharts-point highcharts-color-0"></rect><rect x="225" y="68" width="46" height="17" fill="rgb(254,227,145)" class="highcharts-point highcharts-color-0"></rect><rect x="271" y="68" width="45" height="17" fill="rgb(92,184,92)" class="highcharts-point highcharts-color-0"></rect><rect x="316" y="68" width="45" height="17" fill="rgb(254,227,145)" class="highcharts-point highcharts-color-0"></rect><rect x="361" y="68" width="45" height="17" fill="rgb(217,83,79)" class="highcharts-point highcharts-color-0"></rect><rect x="406" y="68" width="45" height="17" fill="rgb(92,184,92)" class="highcharts-point highcharts-color-0"></rect><rect x="451" y="68" width="45" height="17" fill="rgb(92,184,92)" class="highcharts-point highcharts-color-0"></rect><rect x="0" y="85" width="45" height="17" fill="rgb(92,184,92)" class="highcharts-point highcharts-color-0"></rect><rect x="45" y="85" width="45" height="17" fill="rgb(92,184,92)" class="highcharts-point highcharts-color-0"></rect><rect x="90" y="85" width="45" height="17" fill="rgb(254,227,145)" class="highcharts-point highcharts-color-0"></rect><rect x="135" y="85" width="45" height="17" fill="rgb(92,184,92)" class="highcharts-point highcharts-color-0"></rect><rect x="180" y="85" width="45" height="17" fill="rgb(217,83,79)" class="highcharts-point highcharts-color-0"></rect><rect x="225" y="85" width="46" height="17" fill="rgb(254,227,145)" class="highcharts-point highcharts-color-0"></rect><rect x="271" y="85" width="45" height="17" fill="rgb(92,184,92)" class="highcharts-point highcharts-color-0"></rect><rect x="316" y="85" width="45" height="17" fill="rgb(254,227,145)" class="highcharts-point highcharts-color-0"></rect><rect x="361" y="85" width="45" height="17" fill="rgb(217,83,79)" class="highcharts-point highcharts-color-0"></rect><rect x="406" y="85" width="45" height="17" fill="rgb(92,184,92)" class="highcharts-point highcharts-color-0"></rect><rect x="451" y="85" width="45" height="17" fill="rgb(92,184,92)" class="highcharts-point highcharts-color-0"></rect><rect x="0" y="102" width="45" height="16" fill="rgb(92,184,92)" class="highcharts-point highcharts-color-0"></rect><rect x="45" y="102" width="45" height="16" fill="rgb(92,184,92)" class="highcharts-point highcharts-color-0"></rect><rect x="90" y="102" width="45" height="16" fill="rgb(217,83,79)" class="highcharts-point highcharts-color-0"></rect><rect x="135" y="102" width="45" height="16" fill="rgb(92,184,92)" class="highcharts-point highcharts-color-0"></rect><rect x="180" y="102" width="45" height="16" fill="rgb(217,83,79)" class="highcharts-point highcharts-color-0"></rect><rect x="225" y="102" width="46" height="16" fill="rgb(254,227,145)" class="highcharts-point highcharts-color-0"></rect><rect x="271" y="102" width="45" height="16" fill="rgb(92,184,92)" class="highcharts-point highcharts-color-0"></rect><rect x="316" y="102" width="45" height="16" fill="rgb(254,227,145)" class="highcharts-point highcharts-color-0"></rect><rect x="361" y="102" width="45" height="16" fill="rgb(217,83,79)" class="highcharts-point highcharts-color-0"></rect><rect x="406" y="102" width="45" height="16" fill="rgb(217,83,79)" class="highcharts-point highcharts-color-0"></rect><rect x="451" y="102" width="45" height="16" fill="rgb(92,184,92)" class="highcharts-point highcharts-color-0"></rect><rect x="0" y="118" width="45" height="17" fill="rgb(92,184,92)" class="highcharts-point highcharts-color-0"></rect><rect x="45" y="118" width="45" height="17" fill="rgb(92,184,92)" class="highcharts-point highcharts-color-0"></rect><rect x="90" y="118" width="45" height="17" fill="rgb(254,227,145)" class="highcharts-point highcharts-color-0"></rect><rect x="135" y="118" width="45" height="17" fill="rgb(92,184,92)" class="highcharts-point highcharts-color-0"></rect><rect x="180" y="118" width="45" height="17" fill="rgb(217,83,79)" class="highcharts-point highcharts-color-0"></rect><rect x="225" y="118" width="46" height="17" fill="rgb(254,227,145)" class="highcharts-point highcharts-color-0"></rect><rect x="271" y="118" width="45" height="17" fill="rgb(92,184,92)" class="highcharts-point highcharts-color-0"></rect><rect x="316" y="118" width="45" height="17" fill="rgb(254,227,145)" class="highcharts-point highcharts-color-0"></rect><rect x="361" y="118" width="45" height="17" fill="rgb(217,83,79)" class="highcharts-point highcharts-color-0"></rect><rect x="406" y="118" width="45" height="17" fill="rgb(217,83,79)" class="highcharts-point highcharts-color-0"></rect><rect x="451" y="118" width="45" height="17" fill="rgb(92,184,92)" class="highcharts-point highcharts-color-0"></rect><rect x="0" y="135" width="45" height="17" fill="rgb(92,184,92)" class="highcharts-point highcharts-color-0"></rect><rect x="45" y="135" width="45" height="17" fill="rgb(92,184,92)" class="highcharts-point highcharts-color-0"></rect><rect x="90" y="135" width="45" height="17" fill="rgb(92,184,92)" class="highcharts-point highcharts-color-0"></rect><rect x="135" y="135" width="45" height="17" fill="rgb(92,184,92)" class="highcharts-point highcharts-color-0"></rect><rect x="180" y="135" width="45" height="17" fill="rgb(217,83,79)" class="highcharts-point highcharts-color-0"></rect><rect x="225" y="135" width="46" height="17" fill="rgb(217,83,79)" class="highcharts-point highcharts-color-0"></rect><rect x="271" y="135" width="45" height="17" fill="rgb(92,184,92)" class="highcharts-point highcharts-color-0"></rect><rect x="316" y="135" width="45" height="17" fill="rgb(254,227,145)" class="highcharts-point highcharts-color-0"></rect><rect x="361" y="135" width="45" height="17" fill="rgb(217,83,79)" class="highcharts-point highcharts-color-0"></rect><rect x="406" y="135" width="45" height="17" fill="rgb(92,184,92)" class="highcharts-point highcharts-color-0"></rect><rect x="451" y="135" width="45" height="17" fill="rgb(92,184,92)" class="highcharts-point highcharts-color-0"></rect><rect x="0" y="152" width="45" height="17" fill="rgb(92,184,92)" class="highcharts-point highcharts-color-0"></rect><rect x="45" y="152" width="45" height="17" fill="rgb(92,184,92)" class="highcharts-point highcharts-color-0"></rect><rect x="90" y="152" width="45" height="17" fill="rgb(92,184,92)" class="highcharts-point highcharts-color-0"></rect><rect x="135" y="152" width="45" height="17" fill="rgb(92,184,92)" class="highcharts-point highcharts-color-0"></rect><rect x="180" y="152" width="45" height="17" fill="rgb(217,83,79)" class="highcharts-point highcharts-color-0"></rect><rect x="225" y="152" width="46" height="17" fill="rgb(217,83,79)" class="highcharts-point highcharts-color-0"></rect><rect x="271" y="152" width="45" height="17" fill="rgb(92,184,92)" class="highcharts-point highcharts-color-0"></rect><rect x="316" y="152" width="45" height="17" fill="rgb(254,227,145)" class="highcharts-point highcharts-color-0"></rect><rect x="361" y="152" width="45" height="17" fill="rgb(217,83,79)" class="highcharts-point highcharts-color-0"></rect><rect x="406" y="152" width="45" height="17" fill="rgb(92,184,92)" class="highcharts-point highcharts-color-0"></rect><rect x="451" y="152" width="45" height="17" fill="rgb(92,184,92)" class="highcharts-point highcharts-color-0"></rect><rect x="0" y="169" width="45" height="17" fill="rgb(92,184,92)" class="highcharts-point highcharts-color-0"></rect><rect x="45" y="169" width="45" height="17" fill="rgb(92,184,92)" class="highcharts-point highcharts-color-0"></rect><rect x="90" y="169" width="45" height="17" fill="rgb(254,227,145)" class="highcharts-point highcharts-color-0"></rect><rect x="135" y="169" width="45" height="17" fill="rgb(92,184,92)" class="highcharts-point highcharts-color-0"></rect><rect x="180" y="169" width="45" height="17" fill="rgb(217,83,79)" class="highcharts-point highcharts-color-0"></rect><rect x="225" y="169" width="46" height="17" fill="rgb(254,227,145)" class="highcharts-point highcharts-color-0"></rect><rect x="271" y="169" width="45" height="17" fill="rgb(92,184,92)" class="highcharts-point highcharts-color-0"></rect><rect x="316" y="169" width="45" height="17" fill="rgb(254,227,145)" class="highcharts-point highcharts-color-0"></rect><rect x="361" y="169" width="45" height="17" fill="rgb(217,83,79)" class="highcharts-point highcharts-color-0"></rect><rect x="406" y="169" width="45" height="17" fill="rgb(92,184,92)" class="highcharts-point highcharts-color-0"></rect><rect x="451" y="169" width="45" height="17" fill="rgb(92,184,92)" class="highcharts-point highcharts-color-0"></rect><rect x="0" y="186" width="45" height="17" fill="rgb(92,184,92)" class="highcharts-point highcharts-color-0"></rect><rect x="45" y="186" width="45" height="17" fill="rgb(92,184,92)" class="highcharts-point highcharts-color-0"></rect><rect x="90" y="186" width="45" height="17" fill="rgb(254,227,145)" class="highcharts-point highcharts-color-0"></rect><rect x="135" y="186" width="45" height="17" fill="rgb(92,184,92)" class="highcharts-point highcharts-color-0"></rect><rect x="180" y="186" width="45" height="17" fill="rgb(217,83,79)" class="highcharts-point highcharts-color-0"></rect><rect x="225" y="186" width="46" height="17" fill="rgb(254,227,145)" class="highcharts-point highcharts-color-0"></rect><rect x="271" y="186" width="45" height="17" fill="rgb(92,184,92)" class="highcharts-point highcharts-color-0"></rect><rect x="316" y="186" width="45" height="17" fill="rgb(254,227,145)" class="highcharts-point highcharts-color-0"></rect><rect x="361" y="186" width="45" height="17" fill="rgb(217,83,79)" class="highcharts-point highcharts-color-0"></rect><rect x="406" y="186" width="45" height="17" fill="rgb(92,184,92)" class="highcharts-point highcharts-color-0"></rect><rect x="451" y="186" width="45" height="17" fill="rgb(92,184,92)" class="highcharts-point highcharts-color-0"></rect></g><g class="highcharts-markers highcharts-series-0 highcharts-heatmap-series highcharts-color-0 " transform="translate(10,60) scale(1 1)" width="203" height="496" clip-path="none"></g></g><text x="300" text-anchor="middle" class="highcharts-title" style="color:#333333;font-size:18px;fill:#333333;width:536px;" y="24"><tspan>FastQC: Status Checks</tspan></text><g class="highcharts-axis-labels highcharts-xaxis-labels "><text x="35.13817940980522" style="color:#666666;cursor:default;font-size:11px;fill:#666666;width:40;text-overflow:ellipsis;" text-anchor="end" transform="translate(0,0) rotate(-45 35.13817940980522 279)" y="279" opacity="1"><tspan>Basic…</tspan><title>Basic Statistics</title></text><text x="80.22908850071431" style="color:#666666;cursor:default;font-size:11px;fill:#666666;width:103;text-overflow:ellipsis;" text-anchor="end" transform="translate(0,0) rotate(-45 80.22908850071431 279)" y="279" opacity="1"><tspan>Per Base Sequen…</tspan><title>Per Base Sequence Qu</title></text><text x="125.31999759162342" style="color:#666666;cursor:default;font-size:11px;fill:#666666;width:400px;text-overflow:ellipsis;" text-anchor="end" transform="translate(0,0) rotate(-45 125.31999759162342 279)" y="279" opacity="1"><tspan>Per Tile Sequence Qu</tspan></text><text x="170.41090668253253" style="color:#666666;cursor:default;font-size:11px;fill:#666666;width:400px;text-overflow:ellipsis;" text-anchor="end" transform="translate(0,0) rotate(-45 170.41090668253253 279)" y="279" opacity="1"><tspan>Per Sequence Quality</tspan></text><text x="215.50181577344165" style="color:#666666;cursor:default;font-size:11px;fill:#666666;width:400px;text-overflow:ellipsis;" text-anchor="end" transform="translate(0,0) rotate(-45 215.50181577344165 279)" y="279" opacity="1"><tspan>Per Base Sequence Co</tspan></text><text x="260.59272486435066" style="color:#666666;cursor:default;font-size:11px;fill:#666666;width:400px;text-overflow:ellipsis;" text-anchor="end" transform="translate(0,0) rotate(-45 260.59272486435066 279)" y="279" opacity="1"><tspan>Per Sequence GC Cont</tspan></text><text x="305.6836339552598" style="color:#666666;cursor:default;font-size:11px;fill:#666666;width:400px;text-overflow:ellipsis;" text-anchor="end" transform="translate(0,0) rotate(-45 305.6836339552598 279)" y="279" opacity="1"><tspan>Per Base N Content</tspan></text><text x="350.77454304616884" style="color:#666666;cursor:default;font-size:11px;fill:#666666;width:400px;text-overflow:ellipsis;" text-anchor="end" transform="translate(0,0) rotate(-45 350.77454304616884 279)" y="279" opacity="1"><tspan>Sequence Length Dist</tspan></text><text x="395.86545213707797" style="color:#666666;cursor:default;font-size:11px;fill:#666666;width:400px;text-overflow:ellipsis;" text-anchor="end" transform="translate(0,0) rotate(-45 395.86545213707797 279)" y="279" opacity="1"><tspan>Sequence Duplication</tspan></text><text x="440.95636122798703" style="color:#666666;cursor:default;font-size:11px;fill:#666666;width:400px;text-overflow:ellipsis;" text-anchor="end" transform="translate(0,0) rotate(-45 440.95636122798703 279)" y="279" opacity="1"><tspan>Overrepresented Sequ</tspan></text><text x="486.04727031889615" style="color:#666666;cursor:default;font-size:11px;fill:#666666;width:400px;text-overflow:ellipsis;" text-anchor="end" transform="translate(0,0) rotate(-45 486.04727031889615 279)" y="279" opacity="1"><tspan>Adapter Content</tspan></text></g><g class="highcharts-axis-labels highcharts-yaxis-labels "><text x="521" style="color:#666666;cursor:default;font-size:11px;fill:#666666;width:188px;text-overflow:clip;" text-anchor="start" transform="translate(0,0)" y="73" opacity="1"><tspan>PE1.R1</tspan></text><text x="521" style="color:#666666;cursor:default;font-size:11px;fill:#666666;width:188px;text-overflow:clip;" text-anchor="start" transform="translate(0,0)" y="90" opacity="1"><tspan>PE1.R2</tspan></text><text x="521" style="color:#666666;cursor:default;font-size:11px;fill:#666666;width:188px;text-overflow:clip;" text-anchor="start" transform="translate(0,0)" y="106" opacity="1"><tspan>PE2.R1</tspan></text><text x="521" style="color:#666666;cursor:default;font-size:11px;fill:#666666;width:188px;text-overflow:clip;" text-anchor="start" transform="translate(0,0)" y="123" opacity="1"><tspan>PE2.R2</tspan></text><text x="521" style="color:#666666;cursor:default;font-size:11px;fill:#666666;width:188px;text-overflow:clip;" text-anchor="start" transform="translate(0,0)" y="140" opacity="1"><tspan>PE3.R1</tspan></text><text x="521" style="color:#666666;cursor:default;font-size:11px;fill:#666666;width:188px;text-overflow:clip;" text-anchor="start" transform="translate(0,0)" y="157" opacity="1"><tspan>PE3.R2</tspan></text><text x="521" style="color:#666666;cursor:default;font-size:11px;fill:#666666;width:188px;text-overflow:clip;" text-anchor="start" transform="translate(0,0)" y="174" opacity="1"><tspan>PE1.R1.clean</tspan></text><text x="521" style="color:#666666;cursor:default;font-size:11px;fill:#666666;width:188px;text-overflow:clip;" text-anchor="start" transform="translate(0,0)" y="191" opacity="1"><tspan>PE1.R2.clean</tspan></text><text x="521" style="color:#666666;cursor:default;font-size:11px;fill:#666666;width:188px;text-overflow:clip;" text-anchor="start" transform="translate(0,0)" y="208" opacity="1"><tspan>PE2.R1.clean</tspan></text><text x="521" style="color:#666666;cursor:default;font-size:11px;fill:#666666;width:188px;text-overflow:clip;" text-anchor="start" transform="translate(0,0)" y="225" opacity="1"><tspan>PE2.R2.clean</tspan></text><text x="521" style="color:#666666;cursor:default;font-size:11px;fill:#666666;width:188px;text-overflow:clip;" text-anchor="start" transform="translate(0,0)" y="242" opacity="1"><tspan>PE3.R1.clean</tspan></text><text x="521" style="color:#666666;cursor:default;font-size:11px;fill:#666666;width:188px;text-overflow:clip;" text-anchor="start" transform="translate(0,0)" y="259" opacity="1"><tspan>PE1.R2.clean</tspan></text></g><text x="590" class="highcharts-credits" text-anchor="end" style="cursor:pointer;color:#999999;font-size:9px;fill:#999999;" y="395"><tspan>Created with MultiQC</tspan></text></svg>