<svg xmlns="http://www.w3.org/2000/svg" id="svg-tree" width="709.4450134277344" height="463.9799865722656" style="background-color: white;"><g id="chart-container" width="421.79998779296875" height="644.9500122070312" transform="rotate(270) translate(-430.7900173187256 32.247500610351565)"><g id="link-container"><path fill="none" stroke="#000000" d="M 268.3333333333333 0 L 115 0 L 115 230" stroke-width="2"/><path fill="none" stroke="#000000" d="M 268.3333333333333 0 L 287.5 0 L 287.5 460" stroke-width="2"/><path fill="none" stroke="#000000" d="M 268.3333333333333 0 L 402.5 0 L 402.5 460" stroke-width="2"/><path fill="none" stroke="#000000" d="M 115 230 L 57.5 230 L 57.5 460" stroke-width="2"/><path fill="none" stroke="#000000" d="M 115 230 L 172.5 230 L 172.5 460" stroke-width="2"/></g><g id="link-extension-container"/><g id="inner-dot-container"/><g id="inner-label-container"/><g id="leaf-dot-container"/><g id="bars-container"/><g id="leaf-label-container"><text class="leaf" dy="0.3em" dx="0.6em" text-anchor="start" transform="rotate(0) translate(287.5 460) rotate(90)" font-size="16" font-family="Helvetica" fill="#000000">NC_045512.2</text><text class="leaf" dy="0.3em" dx="0.6em" text-anchor="start" transform="rotate(0) translate(402.5 460) rotate(90)" font-size="16" font-family="Helvetica" fill="#000000">Consensus-Illumina-PE1</text><text class="leaf" dy="0.3em" dx="0.6em" text-anchor="start" transform="rotate(0) translate(57.5 460) rotate(90)" font-size="16" font-family="Helvetica" fill="#000000">Consensus-Illumina-PE2</text><text class="leaf" dy="0.3em" dx="0.6em" text-anchor="start" transform="rotate(0) translate(172.5 460) rotate(90)" font-size="16" font-family="Helvetica" fill="#000000">Consensus-Illumina-PE3</text></g><g id="scale-bar-container" transform="rotate(90 -2.299999237060547 332.27500915527344)"><path id="scale-bar" stroke="black" stroke-width="2" d="M -59.79999923706055 322.4750061035156 L 55.20000076293945 322.4750061035156" transform=""/><text id="scale-bar-text" dominant-baseline="hanging" text-anchor="middle" x="-2.299999237060547" y="327.4750061035156" transform="" font-family="Helvetica">0.5</text></g></g></svg>